<?xml version="1.0" encoding="utf-8"?>
<!-- Generator: Adobe Illustrator 25.2.3, SVG Export Plug-In . SVG Version: 6.00 Build 0)  -->
<svg version="1.1" id="Layer_1" xmlns="http://www.w3.org/2000/svg" xmlns:xlink="http://www.w3.org/1999/xlink" x="0px" y="0px"
	 viewBox="0 0 228 190.3" style="enable-background:new 0 0 228 190.3;" xml:space="preserve">
<style type="text/css">
	.st0{fill:#49331A;}
</style>
<g>
	<g>
		<g>
			<g>
				<g>
					<g>
						<path class="st0" d="M109.5,141.3c0.1,0.1,0.1-0.4,0.2-0.4C109.5,140.9,109.5,141.4,109.5,141.3z"/>
						<polygon class="st0" points="107,142 107.1,141.8 106.7,142.2 						"/>
						<path class="st0" d="M104.8,141.7c0.1,0.7,0.8,0,1.2,0.3l0,0.2l0.2-0.5C105.8,141.6,105.1,141.9,104.8,141.7z"/>
						<path class="st0" d="M103.8,140c0,0.3-0.3,0.2,0.3,0.1c0,0,0-0.1,0-0.1C104,140.1,103.9,140.1,103.8,140z"/>
						<path class="st0" d="M104,140.1C104.2,140.1,103.9,139.8,104,140.1L104,140.1z"/>
						<path class="st0" d="M102.9,140.1l0.3-0.2c0-0.2-0.3-0.2-0.2-0.4C102.7,139.6,102.8,139.8,102.9,140.1z"/>
						<path class="st0" d="M102.5,140.6l0.2-0.1C102.7,140.4,102.7,140.4,102.5,140.6z"/>
						<path class="st0" d="M103.1,140.3l-0.4,0.2c0,0.1,0,0.4,0.2-0.1C102.8,140.6,102.9,140.4,103.1,140.3z"/>
						<path class="st0" d="M103.3,140.4c0.2,0.2,0.4,0.3,0,0.5C103.9,140.9,103.9,140.4,103.3,140.4z"/>
						<path class="st0" d="M104.6,142.4l0.2,0.2l0.2-0.2C104.9,142.5,104.6,142.2,104.6,142.4z"/>
						<path class="st0" d="M101,139.4c0,0.1,0,0.4,0,0.6l0.3-0.1C101.2,139.8,101,139.7,101,139.4z"/>
						<path class="st0" d="M101.1,140.1l-0.4,0.2C101,140.3,101.1,140.2,101.1,140.1z"/>
						<polygon class="st0" points="102.4,141.3 103,140.9 102.3,141.3 						"/>
						<polygon class="st0" points="99.7,139.2 100,138.9 99.5,139.4 						"/>
						<path class="st0" d="M98.9,139.1c0.2-0.3-0.1-0.5,0.1-0.7c-0.2,0-0.5,0.2-0.7,0.4C98.4,138.8,98.6,138.9,98.9,139.1z"/>
						<path class="st0" d="M97.9,139.2c0.1-0.1,0.2-0.2,0.4-0.3C98.1,139,98,139,97.9,139.2z"/>
						<path class="st0" d="M100.1,140.1c0-0.1,0-0.3-0.2-0.5l0.1,0.4C100,140.1,100.1,140.1,100.1,140.1z"/>
						<path class="st0" d="M100,140.1L100,140.1c-0.1,0-0.2-0.1-0.3-0.1C99.7,140,99.8,140,100,140.1z"/>
						<path class="st0" d="M100.1,140.1L100.1,140.1C100.1,140.1,100.1,140.2,100.1,140.1z"/>
						<path class="st0" d="M101.5,140.8c-0.2,0.2-0.7,0.4-0.3,0.8C101.4,141.4,101.2,141.1,101.5,140.8z"/>
						<path class="st0" d="M100.2,140.7l0.4,0.1c0-0.1,0-0.3,0.1-0.4L100.2,140.7z"/>
						<polygon class="st0" points="100,140.8 100.2,140.7 100.1,140.6 						"/>
						<path class="st0" d="M98.4,139.7c-0.2,0.2-0.4,0.1-0.6,0.1c0.2,0.1,0.4,0.2,0.6,0.2C98.5,139.9,98.6,139.7,98.4,139.7z"/>
						<path class="st0" d="M99.2,139.9L99.2,139.9C99.1,140,99.2,140,99.2,139.9z"/>
						<path class="st0" d="M95.9,139.5C96,139.5,96,139.5,95.9,139.5L95.9,139.5L95.9,139.5z"/>
						<path class="st0" d="M98.5,140.1c0.1,0.1,0.3,0,0.4-0.1C98.7,140.1,98.6,140.1,98.5,140.1C98.4,140.1,98.4,140.1,98.5,140.1z"
							/>
						<path class="st0" d="M97.3,139.3c0.1,0.1,0.1,0.2,0.2,0.3C97.5,139.4,97.3,139.2,97.3,139.3z"/>
						<path class="st0" d="M99.1,139.8C99.1,139.8,99.1,139.8,99.1,139.8C99.1,139.7,99.1,139.7,99.1,139.8z"/>
						<path class="st0" d="M99.1,139.8c-0.1,0-0.2,0.1-0.2,0.2c0.1,0,0.2,0,0.3-0.1C99.1,139.9,99.1,139.8,99.1,139.8z"/>
						<path class="st0" d="M94.9,142.1c0.1-0.4,0.6-0.7,0.9-0.2c0.4-0.2,0.4-1.6,0.2-2.3c0,0.2-0.1,0.3-0.5,0.5
							c0.1,0.2,0.7,0.6,0.3,0.9c-0.5,0.1-0.4-0.2-0.6-0.5c0.1,0.5-0.7,0.6-0.8,1.3l0.5-0.2C95,141.8,94.8,142,94.9,142.1z"/>
						<path class="st0" d="M96.6,139.7l0.2,0c-0.2-0.1-0.3-0.3-0.4-0.6c-0.3,0.1-0.4,0.3-0.4,0.4L96.6,139.7L96.6,139.7z"/>
						<path class="st0" d="M97.5,139.8c-0.2,0.4-0.6,0.5-0.4,1c0.4,0,0.4-0.3,0.7-0.4C97,140.4,97.9,140.2,97.5,139.8
							c0.1,0,0.3,0,0.4,0c-0.1-0.1-0.2-0.2-0.3-0.3l0,0l0,0l0,0c0,0.1,0,0.1,0,0.1c0,0,0,0,0,0C97.5,139.7,97.5,139.8,97.5,139.8
							c-0.2-0.1,0-0.1,0.1-0.2l0-0.1l0,0l-0.7,0.1C96.9,139.8,97.1,139.8,97.5,139.8z"/>
						<path class="st0" d="M100.7,142.5c0,0,0-0.1,0-0.1C100.6,142.4,100.6,142.5,100.7,142.5z"/>
						<path class="st0" d="M100.4,142.2c0.1-0.1,0.1-0.2,0.3-0.1c0.1,0.1,0,0.2,0,0.3c0.1-0.1,0.4-0.3,0.1-0.5l-0.1,0.1
							c-0.3-0.2-0.6-0.8-0.5-0.8C100.3,141.5,100.3,141.8,100.4,142.2z"/>
						<path class="st0" d="M98.9,141.1l-0.6,0.1l0.2,0.4l0-0.2C98.9,141.6,98.8,141.3,98.9,141.1z"/>
						<polygon class="st0" points="95.9,139.3 96.1,138.8 95.6,139.4 						"/>
						<polygon class="st0" points="95.2,139.2 95.3,138.8 95,139 						"/>
						<path class="st0" d="M62.6,125.1l0.1-0.2C62.6,125,62.6,125,62.6,125.1z"/>
						<path class="st0" d="M61.5,126.1l0.1,0.2C61.6,126.1,61.5,126.1,61.5,126.1z"/>
						<path class="st0" d="M76.8,135c-0.1-0.4-0.3-1.1-0.4-0.6l0,0.4C76.6,134.8,76.7,134.9,76.8,135z"/>
						<path class="st0" d="M63.5,133.5c0,0,0,0.1,0,0.1c0.2-0.1,0.3-0.2,0.5-0.3C63.8,133.4,63.7,133.4,63.5,133.5z"/>
						<path class="st0" d="M62,134.8l-0.2-0.4C61.8,134.6,61.9,134.7,62,134.8z"/>
						<path class="st0" d="M67.5,120l-0.1-0.5C67.1,119.7,67.4,119.8,67.5,120z"/>
						<path class="st0" d="M87.4,137.8c-0.2-0.2-0.3-0.3-0.5-0.4C87.1,137.7,87.3,138.1,87.4,137.8z"/>
						<path class="st0" d="M65.4,128.8c0-0.1,0-0.2-0.1-0.3C65.3,128.6,65.3,128.7,65.4,128.8z"/>
						<path class="st0" d="M86.3,137.3c0,0.1,0.1,0.1,0.1,0.1c0.2,0,0.3-0.1,0.5,0C86.8,137.2,86.6,137,86.3,137.3z"/>
						<path class="st0" d="M88.4,105.2C88.5,105.2,88.5,105.2,88.4,105.2C88.5,105.1,88.5,105.1,88.4,105.2z"/>
						<path class="st0" d="M97,105.3c-0.1,0.1-0.2,0.1-0.2,0.2C96.8,105.5,96.9,105.4,97,105.3z"/>
						<path class="st0" d="M92.2,138.4C92.3,138.4,92.2,138.4,92.2,138.4L92.2,138.4z"/>
						<path class="st0" d="M92.6,140.3c0,0-0.1,0.1-0.1,0.2C92.5,140.4,92.6,140.3,92.6,140.3z"/>
						<path class="st0" d="M84.1,139.5C84.1,139.5,84.1,139.5,84.1,139.5C84.1,139.6,84.1,139.6,84.1,139.5z"/>
						<path class="st0" d="M92.4,138.7c0-0.1-0.1-0.1-0.2-0.2C92.2,138.5,92.3,138.6,92.4,138.7z"/>
						<path class="st0" d="M92.4,138.5c0.1,0,0.1,0,0.1,0.1C92.5,138.5,92.5,138.4,92.4,138.5z"/>
						<path class="st0" d="M91.9,138.4c0.1,0,0.2,0,0.3,0.1c0,0,0-0.1,0-0.1C92.1,138.4,92,138.4,91.9,138.4z"/>
						<path class="st0" d="M77.7,113.7C77.7,113.7,77.7,113.7,77.7,113.7C77.8,113.5,77.7,113.6,77.7,113.7z"/>
						<path class="st0" d="M71.4,138.1C71.4,138.1,71.4,138.1,71.4,138.1L71.4,138.1L71.4,138.1z"/>
						<path class="st0" d="M70.7,138.2c0.4-0.4,0.5-0.3,0.7-0.2l0.2-1.3L70.7,138.2z"/>
						<path class="st0" d="M64.7,122.9l-0.6,0c-0.1-0.8,0.4-0.9-0.3-1c0.9,1-1.1,1.2-0.2,2.3l-0.4,0c0.1,0,0-0.1,0.1-0.2
							c-0.8-0.1,0.4,1-0.3,1.3c-0.2,0.1-0.5,0.1-0.5-0.2l-0.2,0.6c-0.1,0.1-0.3-0.1-0.1-0.2l-0.7,0.8l0,0c0,0.3,0,0.7,0,0.9
							c-0.4,0.1,0-0.2-0.2-0.2c-0.1,0.2-0.1,0.4-0.2,0.6c-0.5,0-0.4-0.5,0-0.9c-0.8-0.2-0.9,0-0.9,0.3c0,0.3,0,0.6-1,1l0.3-0.6
							c-1.1,0-1.3,0.6-2.4,1.1c0.2-0.1,0.9-0.3,1.4-0.4c0.6-0.1,1-0.1,0.9,0.2c-0.3,0.1-0.5,0.3-0.5,0.7c-0.6-0.1-0.7,0.2-1.1,0.6
							l-0.8-0.1c-0.2,0.5,0.3,0.4,0.5,0.7c-0.5,0.4-1.3,0.6-2.1,0.7c-0.5,0.4,0,0.2,0.4,0.1c0.5-0.1,0.9-0.3,0.6,0.2
							c-0.5,0.3-0.7,0.6-0.8,0.8c-0.1,0.1-0.1,0.2-0.1,0.4c0,0.1,0,0.1,0,0.2l0,0c0,0,0.1,0,0.1,0c0.1,0,0.2,0,0.3,0
							c0.1,0.3-0.8,0.1-0.9,0.3l1.3,0c0.1,0-0.2,0.1-0.3,0.1c0.7,0.1,1.1-0.3,1.9-0.2c0.6-0.1,0.5,0.1,0.5,0.3c0,0.3,0.2,0.6,1,0.5
							c0,0.2-0.6,0.2-0.8,0.4c0.8,0,1.2,0,1.5,0c0.3,0,0.6,0,1.3-0.2c0.1,0.2,0.2,0.3,0.3,0.5c-0.1-0.5,1-0.7,1.8-1
							c0-0.2,0.1-0.4,0.1-0.5c0.3,0,0.5-0.1,0.8-0.1c0,0.1-0.2,0.3-0.5,0.5c0.1,0,0.1-0.1,0.2-0.1c0.1,0.3-0.3,0.5-0.7,0.8
							c0-0.1,0-0.3,0-0.4c-0.4,0.3-0.9,0.5-1.2,0.8c0.1,0,0.3-0.1,0.4,0c-0.1,0.1-0.2,0.1-0.3,0.2c0,0.1,0.2,0,0.4-0.1
							c-0.1,0.2-0.2,0.4-0.3,0.7l0.2-0.2c0.3,0.3,0.6,0.5,0.9,0.8c0.6-0.2,1.2-0.4,1.6-0.7c0.4-0.3,0.9-0.5,1.4-0.4
							c-0.4,0.4-0.3,0.8-0.5,1.4c0-0.7-0.8,0-1.3-0.3c0.2,0.2,0.1,0.4,0,0.5l1.1-0.3c-0.2,0.5,0.1,0.4,0.2,0.7
							c0.1-1,0.9-0.4,1.3-0.6c-0.1,0.3-0.3,0.6-0.7,0.4c0.2,0.9,1-0.9,1.3-0.1c-0.1,0-0.1-0.1-0.2,0.1c0.3-0.2,0.9,0.2,0.6,0.4
							l-0.1,0c0.7,0.3,2.1,0.7,2.5-0.1c0,0.1-0.4,1-0.5,1.1l2.1-2.3c-0.3,0.7-0.4,2.5-1.1,2.7c0.1,0.1,0.3,0.3,0.7,0.2
							c-0.1-0.1,0-1.1,0.2-1.1c0.2,0.9,0.2,0.5,0.5,1.3c-0.1-0.2,0.4-1.2,0.7-1.1c-0.1,0.2-0.3,1.1-0.4,1.2l1-0.9
							c-0.2,0.1-0.3,0.9-0.2,1.3c0-0.2,0.6,0.2,0.8,0.1l-0.2-0.3c0.7,0.4,1.2-1.3,1.9-1c-0.2,0.2-0.6,1.3-0.3,1.6
							c0.3-0.5,1.5-2.4,2.3-2.7l0,0.4l0.6-0.2c-0.5,0.8-1.9,2.3-2.6,2.8c0.2,0.3,0,0.4,0.4,0.5c0.1,0.3-0.4,0.4-0.5,0.4l1,0.5
							c0.1-0.7,1-0.4,1.1-1l-1.3,0.4c0.1-0.7,1.1-1.7,1.8-1.4c0.1,0.3-0.4,1.1-0.5,1.3c0.2-0.2,0.8-0.2,0.8-0.1l-0.4,0.3
							c0.3,0.3,0.9-0.7,1.2,0.1c0.2,0.1,0.3,1,0.4,0.6c-0.1-0.8,0.5-3.1,0.8-3.6c0,0.1,0.7,0.9,0.8,1.3c0.1,0.7-0.8,1.3-0.7,1.8
							c0.1-0.2,0.3-0.4,0.3-0.4c0.1,0.2-0.2,0.5,0.2,0.5c0.2-0.6,0.8,0.2,0.3-0.5c0.4-0.1,0.4,0.2,0.8,0.3c0-0.5,0.7-1.4,1.2-1.5
							c-0.1,0.2,0,0.4,0,0.5c0.7,0.2,1.1,0.6,1.8,0.8c0,0.2,0.3,0.4,0.1,0.7c0.1-0.1,0.3-0.3,0.5-0.3c0.3,0.7-0.5,0-0.3,0.7
							c0.1-0.4,0.7-0.4,1-0.6c0-0.6-0.7-0.3-1.1-0.1c0.2-0.8,0.9-1.6,1.7-1.8c0.6-0.1,0.1,0.6,0.3,0.5c1.1,0.4,1.2-1.2,2-0.5
							c0.3,0.6-0.2,1.1-0.2,1.4c-0.5,0.1-0.7-0.5-1-0.5l0.3,0.3c-0.2,0.1-0.5,0.2-0.7,0c0.2,0.5,1.8,0.5,2.6,1.1
							c0.2-0.1,0.5-0.3,0.4-0.5l-0.3,0c-0.2-0.5,0.6-0.5,0.3-0.8c0.4-0.2,0.9-0.6,1.4-0.3l0,0.6c0-0.2-0.3-0.4-0.4-0.3
							c0.3-0.2,0.6,1,1,0.2l-0.3-0.5c0.4-0.2,1-0.8,1.4-0.5c-0.1-0.6-0.1,0-0.3-0.7c0.1,0.9-1.1-0.3-0.9,0.7
							c-0.2-0.9-0.5-0.5-0.8-1.2c0,0.2,0.1,0.4-0.3,0.2c0,0.1-0.1,0.1-0.1,0.2c0,0,0,0,0,0l0,0c0,0,0,0,0,0c0.1,0.1,0.1,0.2,0.1,0.3
							c-0.3,0.4-0.9,0.3-1.1,0.5c-0.2-0.1,0.1-0.2,0.1-0.4l-0.4,0.3c0.1-0.4-0.4-0.9,0.1-1l-0.5-0.1c-0.2-0.3-0.6-0.5-0.9-0.3
							c-0.2-0.1-0.7,0.4-0.4,0.1l-0.8,0.1l0-0.1c-0.7-0.2-1.7,0.4-2.3-0.6c-0.3,0.1-0.6,0.1-0.9-0.1l0-0.4c-0.3,0.1-0.8-0.6-1.1-0.2
							c-0.1-1.1-1.5-0.6-2-0.9l-0.1,0.5c-0.4-0.1-0.8-0.1-1.3,0l-0.1,0.4c-0.5,0.3-1-0.6-1.6-0.7c0.1-0.2,0.2-0.1,0.3,0.1
							c-0.5-1.2-1.8,0.3-2.3-0.6c-0.2,0.1-0.3,0-0.4-0.1c0,0,0,0,0,0c0,0,0,0-0.1,0c-0.1-0.1-0.1-0.2-0.2-0.3c0,0.1,0.1,0.2,0.1,0.3
							c-0.1,0-0.4,0-0.6,0l0-0.5c0,0,0,0,0,0c-0.1-0.2-0.2,0.2-0.2,0.6c-0.1,0-0.2,0.1-0.3,0.2c0.1-0.8-0.6,0.1-0.6-0.8
							c-0.2,0.3-1.1,0-1.4,0.8c0-0.1,0-0.2,0.1-0.2c-0.2-0.2-0.4-0.3-0.6-0.1l0.1-0.6l-0.7,0.6c-0.2-0.4-0.2-0.7,0.2-1.1
							c-0.9,0.5-0.6,0.1-1.4,0.6l0.1-0.4c-0.2-0.1-0.7,0.3-0.7,0c-0.2-0.9-2.3-0.8-3.3-1.9c-0.1,1.2-0.4-0.7-0.7,0.2
							c0-0.3-0.1-0.5,0.2-0.6c-0.3,0-0.6-0.2-0.7-0.3c-0.1-0.1-0.2-0.1-0.5,0.2c0.1-0.3,0.3-0.3,0.3-0.5c0,0-0.2,0.2-0.2,0
							c0.1-0.2,0.2-0.2,0.3-0.3c-0.2,0-0.8,0.7-1.4,1.3c0-0.4-0.1-0.4-0.7,0c0.1-0.2,0.2-0.5,0.6-0.5c-0.1-0.1-0.5-0.6-1.2-0.1
							c0.1-0.1-0.1-0.1-0.3-0.1c-0.3-0.1-0.2-0.2-0.6-0.3l-0.1,0.1c-1.2,0.4-0.5,0-1-0.1l0.1,0c0.1-0.3,0-0.2-0.2-0.2
							c-0.1,0-0.2,0-0.2,0c0,0,0.3-0.2,0.6-0.3l-0.9,0.2c-0.9,0.2-0.5,0,0.1-0.2c0.5-0.2,1.2-0.4,1-0.5l-0.5,0.1
							c-0.2-0.1,0.5-0.2,1.1-0.3c0.7-0.1,1.4-0.1,1.5-0.2c0.1,0,0.2,0,0.2,0.1c1-0.1-0.8-0.1-0.8-0.3c0.4,0,1,0.2,1.2,0.1
							c0.2,0-0.1-0.1-0.2-0.3c-0.2-0.2-0.2-0.4,0.2-0.3c-0.3-0.1-0.6-0.2-0.6-0.4c0-0.1,0.4-0.1,0.6-0.1c0.1,0,0.1,0,0.1,0
							c0.1,0,0.1-0.1,0.2-0.1c0.1-0.1,0.1-0.2,0-0.4c0.1,0,0.1,0.1,0.2,0.1c0.1-0.4,0.5-1,0.3-1.4c1.3,1,0.9-1.9,1.9-0.8l0.7-0.7
							l0.1,0.1c0.5-0.3,0.4-0.8,0.3-1.2c0.2,0,0.2,0.2,0.2,0.2c0.9-0.4,0.9-0.5,1-1.5l0.4,0.3c0-0.3,1.5-0.3,1.8-1.3
							c0,0,0.1,0.1,0.1,0.2c0.4-1.1,2.7-0.5,1.8-2.1l0.2-0.8c-0.8,0.4-0.4-0.7-0.9-0.7c0.2-0.3,1-0.1,0.8,0.2l-0.1,0
							c0.5,0.8,1-0.4,1.4,0.1c1.3-1.1,2.9-1.7,4.2-2.5l-0.6-0.5l0.5-0.3c0.2,0.1,0.5,0.3,0.2,0.6c0.4,0.2,0.3-0.7,0.2-0.8
							c0.8-0.2,0.3,0.9,0.5,0.7l0.2-0.2l-0.1,0c0-0.4-0.1-0.7,0.3-0.9c0.3-0.1,0.4,0.3,0.5,0.2c0,0,0.1,0,0.2-0.1l0.6-0.3l-0.6-0.3
							c0.1-0.4,0.5-0.3-0.1-0.7c1,0.6,2.3-1.2,2.7-1.1c0.1-0.6,0.5-0.8,0.9-1.1c-0.2,0-0.6-0.5-0.2-0.7c0.6,1.2,1,0,1.8,0.6
							c-0.6-0.4,1-0.8,0.1-1.3c0.4-0.1,0.3,0.4,0.7,0.5c0.5-0.9,1.8-0.8,2.7-1.5c-0.1-0.2-0.4-0.3-0.3-0.6l1,0.4
							c0.1-0.2-0.4-1,0.3-0.7c-0.1-0.1-0.3-0.2-0.2-0.4c2.3-0.4,3.5-2.8,6.2-2.5c-0.4-0.2-0.3-0.3-0.1-0.4c-0.2,0-0.2-0.4-0.3-0.6
							l1.1,0.2c-0.2-0.7,0.8-0.5,0.6-1.1l-0.2,0.2c0-0.8-1.3-1.2-1.6-2.1c0,1-1.6-0.6-1.7,0.8c-0.2-0.1,0-0.3-0.2-0.5
							c0,0.4-0.1,0.6-0.6,0.7l0-0.1c-1,0.7-1.6,0.5-2.9,1l0.3,0.4c-0.3,0.1-0.4,0-0.6,0c0.1,0.8,0.7-0.4,0.8,0.5
							c-0.8-0.6-1.7,1-2.5,0.2c-0.4,0.2,0.4,0.4,0,0.6l-0.3-0.2l0.1,0.4c-0.3,0.1-0.6-0.1-0.7-0.4c0.1,0,0.1-0.2,0.2-0.2
							c-0.5-0.1-0.8,0.6-1,0.6l0.4-0.1c-0.9,0.8-2.3,1.3-2.9,2.4l0.2,0.1c-0.5,0.8-0.7,0.2-1.4,0.8l0-0.1c0,0.3-0.2,0.5-0.4,0.7
							c0.1-0.4-0.7-0.2-0.6-0.6c-0.5,0.9-0.2,0.5-0.2,1.6l-0.3-0.2c0,0.4,0.1,0.6-0.2,0.9c0.1-0.5-0.6-0.3-0.4-0.9
							c-1.3-0.1-0.7,1.5-1.8,0.8c0.2,1.1,1,0,0.9,0.3c0.4,0.2,0.1,0.8-0.2,0.9c-0.3,0.2-1.2-0.8-1.8-0.3c0.1,0,0-0.1,0.1-0.2
							c-0.4,0-0.3,0.6-0.8,0.5c0.2,0.6-0.4,0.3,0,0.9l0.5-0.6c-0.2,0.4,0,1.4-0.8,1.4c-0.1-0.2,0-0.4,0-0.6
							c-0.3-0.1-0.2,0.4-0.5,0.3c-0.4-0.7,0.6-0.7,0.6-1.4c-0.4-0.1-0.3,1-0.7,0.1c0.4,1.1-0.7,0.4-0.7,1.3l-0.3-0.4
							c0,0.1,0,0.4-0.2,0.5l-0.1-0.7c0,0.7-1,0.2-1.1,0.6c0.7-0.6,0.5,0.3,1,0.4c-0.5,1.2-1.2-0.6-2.1,0.3c0.1-0.2,0.7-0.2,0.6,0.2
							c-0.2,0.1-0.6,0.1-0.9,0c-0.6,0.6,0.4,0.3,0.3,0.7c-0.6-0.3-0.2,0.4-0.3,0.8l-0.3-0.4c-0.9,0.3,0.4,0.9-0.4,1.2l-0.1-0.7
							l-0.2,0.4l-0.3-0.5c-0.1,0.6-0.3,0.6-0.7,0.8c0.3,0.2,0.5,0.7,0.2,1c-0.4,0-0.2-0.5-0.6,0c-0.1-0.3-0.2-0.7,0.3-0.5
							c-0.1-0.1-0.1-0.3-0.2-0.5c-0.4-0.1-0.6,0.4-0.8,0.6c0.1,0,0.2-0.1,0.2-0.1l-0.2,1.1c-0.2-0.1-0.2-0.2-0.2-0.4
							c-0.1,0.1,0,0.4-0.2,0.6c-0.2-0.3-0.5-0.6-0.3-1l-0.3,0.8c-0.2-0.1-0.6-0.1-0.6-0.3c-0.5,0.1-0.3,1.3-1,1.4c0,0.1,0,0.2,0,0.3
							c-0.5,0.3-1.2,0.3-1.3,1.1l-0.7-0.3c-0.3,0.5,1,0.3,0.5,1.1c-0.3,0.6-0.6-0.3-0.9-0.3c0,0.5,0.1,1.3-0.7,1.3
							C64.5,123.1,64.6,123,64.7,122.9z M59.5,128.4c0-0.2,0-0.6,0.4-0.5C60.3,128.2,60,128.2,59.5,128.4z M63.9,134.6
							c-0.2,0.1-0.3,0-0.4-0.2C63.7,134.4,63.8,134.4,63.9,134.6z M90.3,138.5L90.3,138.5C90.1,138.2,90.2,138.3,90.3,138.5z
							 M90.8,138.8c0.1-0.1,0.1-0.1,0.1-0.2c-0.1,0.1-0.2,0.1-0.3,0C90.6,138.8,90.6,138.9,90.8,138.8z M81,115.3l-0.2,0
							C81,115,81,115.2,81,115.3z"/>
						<path class="st0" d="M62.2,134.7c0-0.1,0.1-0.2,0.1-0.2C62.2,134.5,62.1,134.6,62.2,134.7z"/>
						<path class="st0" d="M67.5,120.1L67.5,120.1C67.5,120,67.5,120,67.5,120.1L67.5,120.1z"/>
						<path class="st0" d="M81.5,140.9c-0.1-0.1-0.1-0.2-0.2-0.3C81.3,140.7,81.3,140.8,81.5,140.9z"/>
						<path class="st0" d="M93.8,138.5l-0.4,0.1c0.2,0,0.2,0.1,0.3,0.2C93.8,138.7,93.7,138.5,93.8,138.5z"/>
						<path class="st0" d="M96.4,142c0.1,0,0.1,0,0.2,0l0-0.2C96.3,141.7,96.1,141.9,96.4,142z"/>
						<path class="st0" d="M93.9,140.2c0,0.4,0.2,0.3,0.5,0.3c0,0,0,0,0,0C94.5,139.9,94.2,140,93.9,140.2z"/>
						<path class="st0" d="M94.4,140.4c0.1,0,0.2,0,0.2,0C94.7,140.3,94.5,140.4,94.4,140.4z"/>
						<path class="st0" d="M91.6,138.7c0.1,0.1,0.2-0.5,0.2-0.3C92,137.9,90.9,138.8,91.6,138.7z"/>
						<polygon class="st0" points="93.8,141.5 93.8,141 93.6,141.4 						"/>
						<path class="st0" d="M92,140.8l0.4,0.2c0-0.1,0.1-0.1,0.1-0.1C92.2,140.8,92,140.6,92,140.8z"/>
						<path class="st0" d="M92.5,140.9c0.1,0,0.2,0,0.3,0C92.7,140.8,92.6,140.8,92.5,140.9z"/>
						<polygon class="st0" points="93.3,141.6 93.2,141.4 92.9,141.4 						"/>
						<path class="st0" d="M87.8,139.8l-0.5,0c-0.1,0.2,0,0.3,0.2,0.3C87.6,140,87.8,140,87.8,139.8z"/>
						<path class="st0" d="M88.8,141.4c-0.1-0.1-0.1-0.2-0.1-0.4l-0.1,0.6L88.8,141.4z"/>
						<path class="st0" d="M87.5,141.3c-0.1,0.2-0.7,0.3-0.2,0.4C87.4,141.6,87.9,141.5,87.5,141.3z"/>
						<polygon class="st0" points="81.2,139 81.3,139.1 81.6,138.1 						"/>
						<path class="st0" d="M75,139.9c0.4,0.4,0.3-0.6,0.7-0.1c0.2-0.2-0.3-0.3-0.1-0.5C75.1,139.4,75,139.2,75,139.9z"/>
						<path class="st0" d="M75.5,139.2c0.1,0,0.1-0.1,0.2-0.1C75.6,139.1,75.5,139.2,75.5,139.2z"/>
						<polygon class="st0" points="98.3,105.2 98.7,105.3 98.4,105.1 						"/>
						<path class="st0" d="M98.5,104.3l0.4,0.5l-0.1-0.6C98.8,104.3,98.7,104.4,98.5,104.3z"/>
						<path class="st0" d="M56.9,129.2l0.2,0.1c0.3,0,0.4-0.1,0.6-0.3L56.9,129.2z"/>
						<polygon class="st0" points="62.4,124.3 62.4,124.4 62.9,124.7 						"/>
						<path class="st0" d="M64.8,121.1c-0.1,0.1-0.2,0.3-0.3,0.4C64.6,121.2,65.3,121.7,64.8,121.1z"/>
					</g>
				</g>
			</g>
		</g>
	</g>
	<g>
		<g>
			<g>
				<g>
					<g>
						<path class="st0" d="M86.3,127.3c-0.2,0,0,0.4,0,0.5C86.5,127.6,86.3,127.2,86.3,127.3z"/>
						<polygon class="st0" points="88.7,125.6 88.7,125.8 88.9,125.3 						"/>
						<path class="st0" d="M91.1,125c-0.4-0.6-0.8,0.4-1.3,0.2l-0.1-0.1l0,0.6C90.1,125.4,90.7,124.9,91.1,125z"/>
						<path class="st0" d="M92.8,126.1c-0.2-0.2,0.2-0.3-0.3,0c0,0,0.1,0,0.1,0.1C92.6,126.1,92.7,126.1,92.8,126.1z"/>
						<path class="st0" d="M92.6,126.1C92.3,126.2,92.8,126.3,92.6,126.1L92.6,126.1z"/>
						<path class="st0" d="M93.7,125.6l-0.3,0.3c0.1,0.1,0.4,0.1,0.4,0.2C94.1,125.9,94,125.8,93.7,125.6z"/>
						<path class="st0" d="M93.9,125l-0.1,0.2C93.8,125.2,93.8,125.2,93.9,125z"/>
						<path class="st0" d="M93.4,125.5l0.3-0.3c-0.1-0.1-0.2-0.3-0.1,0.1C93.5,125.1,93.5,125.3,93.4,125.5z"/>
						<path class="st0" d="M93.2,125.5c-0.2-0.1-0.5-0.1-0.2-0.4C92.3,125.3,92.6,125.8,93.2,125.5z"/>
						<path class="st0" d="M91,124.2l-0.3-0.1l-0.1,0.3C90.6,124.2,91.1,124.4,91,124.2z"/>
						<path class="st0" d="M95.9,125.3c0-0.2-0.2-0.3-0.3-0.5l-0.2,0.2C95.5,125.1,95.8,125.1,95.9,125.3z"/>
						<path class="st0" d="M95.6,124.8l0.3-0.4C95.5,124.5,95.5,124.6,95.6,124.8z"/>
						<polygon class="st0" points="93.7,124.2 93.2,125 93.8,124.2 						"/>
						<polygon class="st0" points="97.3,124.8 97.2,125.2 97.4,124.6 						"/>
						<path class="st0" d="M98.2,124.5c-0.1,0.3,0.4,0.4,0.3,0.6c0.2-0.1,0.4-0.4,0.5-0.7C98.8,124.6,98.6,124.6,98.2,124.5z"/>
						<path class="st0" d="M99.2,123.9c-0.1,0.1-0.1,0.3-0.2,0.4C99.1,124.3,99.1,124.1,99.2,123.9z"/>
						<path class="st0" d="M96.5,124.3c0.1,0.1,0.2,0.3,0.4,0.3l-0.3-0.4C96.6,124.2,96.6,124.2,96.5,124.3z"/>
						<path class="st0" d="M96.6,124.2L96.6,124.2c0.2,0,0.3-0.1,0.3-0.1C96.9,124.1,96.8,124.2,96.6,124.2z"/>
						<path class="st0" d="M96.5,124.3L96.5,124.3C96.5,124.2,96.5,124.2,96.5,124.3z"/>
						<path class="st0" d="M94.8,124.3c0.1-0.3,0.5-0.7,0-0.9C94.7,123.7,95,123.8,94.8,124.3z"/>
						<path class="st0" d="M96.1,123.8l-0.4,0c0,0.1,0.2,0.2,0.1,0.4L96.1,123.8z"/>
						<polygon class="st0" points="96.3,123.6 96.1,123.8 96.3,123.8 						"/>
						<path class="st0" d="M98.4,123.8c0.1-0.2,0.3-0.3,0.5-0.4c-0.3,0-0.5,0-0.7,0.1C98.2,123.6,98.2,123.9,98.4,123.8z"/>
						<path class="st0" d="M97.5,124L97.5,124C97.5,123.9,97.5,123.9,97.5,124z"/>
						<polygon class="st0" points="100.9,122.7 100.9,122.6 100.9,122.7 						"/>
						<path class="st0" d="M98.1,123.4c-0.2,0-0.3,0.1-0.3,0.3C97.9,123.6,98,123.5,98.1,123.4C98.2,123.4,98.2,123.4,98.1,123.4z"
							/>
						<path class="st0" d="M99.7,123.6c-0.1-0.1-0.2-0.1-0.4-0.1C99.5,123.5,99.7,123.7,99.7,123.6z"/>
						<path class="st0" d="M97.7,124L97.7,124C97.7,124.1,97.7,124.1,97.7,124z"/>
						<path class="st0" d="M97.7,124c0.1-0.1,0.1-0.2,0.1-0.3C97.7,123.8,97.6,123.8,97.7,124C97.6,123.9,97.6,124,97.7,124z"/>
						<path class="st0" d="M100.6,119.9c0.1,0.4-0.2,0.9-0.7,0.6c-0.3,0.4,0.4,1.6,1,2.1c0-0.2-0.1-0.3,0.2-0.7
							c-0.2-0.2-1-0.2-0.8-0.6c0.4-0.4,0.5,0,0.8,0.1c-0.4-0.4,0.4-0.9,0-1.6l-0.3,0.4C100.6,120.1,100.7,119.9,100.6,119.9z"/>
						<path class="st0" d="M100.1,122.8l-0.1,0.1c0.2,0,0.4,0.1,0.7,0.3c0.2-0.3,0.2-0.4,0.2-0.6L100.1,122.8L100.1,122.8z"/>
						<path class="st0" d="M99.3,123.2c0-0.4,0.3-0.7-0.1-1.1c-0.5,0.2-0.2,0.4-0.4,0.7C99.5,122.4,98.6,123.1,99.3,123.2
							c-0.1,0.1-0.3,0.1-0.4,0.2c0.2,0,0.3,0,0.5,0.1l0,0l0,0l0,0c-0.1,0-0.1-0.1,0,0c0,0,0,0,0,0C99.3,123.3,99.3,123.2,99.3,123.2
							c0.2,0,0.1,0.1,0,0.2l0,0.1l0,0c0.2-0.2,0.5-0.3,0.7-0.5C99.8,122.9,99.6,123,99.3,123.2z"/>
						<path class="st0" d="M94.8,122.4C94.9,122.4,94.9,122.4,94.8,122.4C94.9,122.4,94.9,122.4,94.8,122.4z"/>
						<path class="st0" d="M95.2,122.5c0,0.1,0,0.3-0.2,0.3c-0.2-0.1-0.1-0.2-0.1-0.3c-0.1,0.1-0.3,0.4,0.1,0.5l0-0.1
							c0.3,0,0.9,0.4,0.9,0.5C95.7,123.1,95.5,122.8,95.2,122.5z"/>
						<path class="st0" d="M97.2,122.8l0.6-0.4l-0.4-0.2l0.1,0.2C97,122.3,97.2,122.6,97.2,122.8z"/>
						<polygon class="st0" points="101.1,122.8 101.1,123.3 101.3,122.5 						"/>
						<polygon class="st0" points="101.8,122.5 102,122.9 102.1,122.5 						"/>
						<path class="st0" d="M140.6,94.6l0.1-0.2C140.7,94.5,140.6,94.6,140.6,94.6z"/>
						<path class="st0" d="M139.6,95.5l0.1,0.2C139.6,95.5,139.6,95.5,139.6,95.5z"/>
						<path class="st0" d="M121,113.7c0.4,0.2,1,0.5,0.7,0.2l-0.3-0.3C121.3,113.7,121.2,113.7,121,113.7z"/>
						<path class="st0" d="M131.9,104c0,0-0.1,0-0.1-0.1c0,0.2,0.1,0.3,0.1,0.4C131.8,104.3,131.9,104.1,131.9,104z"/>
						<path class="st0" d="M131,102.4l0.5,0C131.4,102.4,131.2,102.4,131,102.4z"/>
						<path class="st0" d="M145.9,89.4l-0.1-0.5C145.5,89.2,145.8,89.3,145.9,89.4z"/>
						<path class="st0" d="M109.9,119c0.3,0.1,0.5,0,0.7,0C110.2,118.9,109.9,118.6,109.9,119z"/>
						<path class="st0" d="M143.1,98.6c0-0.1,0-0.2,0-0.3C143,98.4,143,98.5,143.1,98.6z"/>
						<path class="st0" d="M111.2,118.7c-0.1,0-0.1,0-0.2,0c-0.1,0.1-0.3,0.3-0.5,0.3C110.9,119.1,111.1,119.1,111.2,118.7z"/>
						<path class="st0" d="M164.2,69.7C164.2,69.7,164.2,69.7,164.2,69.7C164.2,69.7,164.2,69.7,164.2,69.7z"/>
						<path class="st0" d="M172.3,65.7c0,0.1-0.1,0.2-0.2,0.3C172.2,66,172.3,65.9,172.3,65.7z"/>
						<path class="st0" d="M105.1,121.4C105,121.5,105.1,121.5,105.1,121.4L105.1,121.4z"/>
						<path class="st0" d="M103.7,120.1c0-0.1,0-0.1,0-0.2C103.7,120,103.7,120.1,103.7,120.1z"/>
						<path class="st0" d="M111.8,115.5L111.8,115.5C111.7,115.5,111.7,115.5,111.8,115.5z"/>
						<path class="st0" d="M104.8,121.3c0.1,0,0.2,0,0.3,0C105,121.3,105,121.3,104.8,121.3z"/>
						<path class="st0" d="M104.9,121.5c-0.1,0-0.1,0-0.2,0C104.8,121.6,104.8,121.6,104.9,121.5z"/>
						<path class="st0" d="M105.4,121.3c-0.1,0-0.2,0.1-0.3,0.1c0,0,0.1,0,0.1,0C105.2,121.4,105.3,121.4,105.4,121.3z"/>
						<path class="st0" d="M155.9,81.7C155.9,81.7,155.9,81.7,155.9,81.7C155.9,81.4,155.9,81.5,155.9,81.7z"/>
						<path class="st0" d="M122.9,107.5C122.9,107.5,122.9,107.5,122.9,107.5L122.9,107.5L122.9,107.5z"/>
						<path class="st0" d="M123.3,106.9c0,0.6-0.1,0.6-0.4,0.6l0.8,1L123.3,106.9z"/>
						<path class="st0" d="M143,92.5l-0.6,0c0-0.8,0.4-0.9-0.2-1.1c0.8,1.1-1.2,1.2-0.4,2.3l-0.4,0c0.1,0,0-0.1,0.1-0.2
							c-0.9-0.1,0.3,1-0.4,1.3c-0.3,0.1-0.5,0-0.5-0.2l-0.2,0.6c-0.1,0.1-0.3-0.1-0.1-0.2l-0.6,0.6l0,0c0,0.2,0,0.7,0,0.9
							c-0.3,0,0-0.2-0.2-0.3c-0.1,0.2-0.1,0.4-0.2,0.6c-0.4-0.2-0.3-0.7,0-0.8c-1.2-0.8-0.1,0.5-1.4,0.5l0.3-0.4
							c-0.7-0.4-0.8,0-1.5-0.1c0.2,0.1,1.6,0.3,1.4,0.9c-0.2,0-0.4,0.1-0.4,0.5c-0.3-0.4-0.4-0.1-0.7,0.1l-0.4-0.5
							c-0.2,0.4,0,0.6,0,1c-0.4,0.2-0.7-0.1-1.1-0.4c-0.6,0.3,0.8,0.4,0.3,0.9c-0.6,0.1-0.7,0.6-1,1.3c-0.4,0.1-0.2-0.4-0.4-0.4
							l0,0.6c-0.1,0-0.1-0.1-0.2-0.2c-0.1,0.3,0.4,0.5,0.1,0.9c0.3,0.6-1.4-0.3-1.4,0.7c-0.2-0.1-0.2-0.4-0.3-0.5
							c-0.3,0.9-0.3,0.7-0.5,1.6l-0.7,0c0.6,0.2,0.5,0.9,0.4,1.6c0.2,0.1,0.5,0.2,0.6,0.2l-0.4,0.7c-0.1,0-0.2-0.3-0.2-0.5
							c0,0.1,0,0.1,0,0.2c-0.3,0-0.4-0.4-0.5-0.8c0.1,0.1,0.3,0.1,0.4,0.2c-0.1-0.4-0.2-0.9-0.4-1.2c0,0.1,0,0.2-0.1,0.3
							c0-0.1-0.1-0.2-0.1-0.2c-0.1,0,0,0.1,0,0.3l-0.5-0.5l0.1,0.3l-1,0.2c-0.2,1,0,2.2-0.8,3c-0.1-0.6-0.4-0.7-0.7-1.3
							c0.6,0.4,0.5-0.7,1.1-0.9c-0.3,0.1-0.4-0.2-0.4-0.3c-0.2,0.4-0.3,0.7-0.5,1c-0.3-0.4-0.4-0.2-0.7-0.3c0.7,0.7-0.3,0.9-0.4,1.4
							c-0.2-0.3-0.3-0.6,0.2-0.8c-0.9-0.4,0,1.4-0.8,1.1c0.1-0.1,0.2-0.1,0.1-0.2c-0.1,0.4-0.8,0.6-0.8,0.2l0.1-0.1
							c-0.7,0.3-2,1.3-1.7,2c-0.1-0.1-0.4-0.9-0.5-1.1l0.2,3.2c-0.3-0.7-1.5-2-1.2-2.6c-0.2,0-0.5,0-0.7,0.4c0.2,0,0.8,0.8,0.7,0.9
							c-0.8-0.5-0.5-0.2-1.4-0.5c0.2,0,0.6,1.1,0.3,1.3c0-0.2-0.6-1-0.5-1.1l-0.1,1.3c0.1-0.3-0.4-0.8-0.7-1
							c0.2,0.2-0.6,0.3-0.7,0.5l0.4,0.1c-0.8,0.3,0,1.8-0.7,2.2c0-0.3-0.5-1.4-0.9-1.3c0.1,0.6,0.5,2.9,0.1,3.6l-0.3-0.2l-0.4,0.6
							c-0.1-0.9,0-3,0.1-3.9c-0.4-0.1-0.3-0.3-0.7,0c-0.3-0.2,0-0.5,0.1-0.6l-1.1,0.4c0.4,0.6-0.4,1-0.1,1.5
							c0.3-0.4,0.5-0.8,0.7-1.2c0.4,0.6,0.3,2-0.5,2.3c-0.3-0.1-0.4-1.1-0.5-1.3c0,0.3-0.5,0.7-0.6,0.6l0.1-0.5
							c-0.5,0-0.2,1.1-1,0.8c-0.2,0-0.9-0.5-0.7-0.2c0.6,0.6,1.7,2.7,1.8,3.3c-0.1,0-1.2-0.2-1.5-0.5c-0.5-0.4-0.2-1.5-0.7-1.8
							c0.1,0.2,0,0.4,0,0.5c-0.2-0.1-0.2-0.5-0.5-0.3c0.2,0.6-0.8,0.3,0.1,0.6c-0.3,0.4-0.4,0.1-0.9,0.3c0.3,0.3,0.3,1.5,0,1.9
							c-0.1-0.2-0.2-0.3-0.3-0.4c-0.8,0.3-1.3,0.2-2.1,0.5c-0.1-0.1-0.6-0.2-0.5-0.5c-0.1,0.2-0.1,0.4-0.3,0.5
							c-0.7-0.4,0.5-0.3-0.2-0.8c0.1,0.4-0.3,0.7-0.6,1.1c0.3,0.5,0.8-0.2,1-0.6c0.3,0.8,0.2,1.8-0.4,2.5c-0.5,0.5-0.5-0.4-0.5-0.2
							c-1.2,0.4-0.4,1.8-1.6,1.6c-0.6-0.3-0.4-1-0.7-1.3c0.4-0.4,0.9,0,1.2-0.2l-0.5-0.1c0.1-0.2,0.4-0.5,0.6-0.4
							c-0.5-0.3-1.9,0.8-3,0.7c-0.1,0.2-0.3,0.5-0.1,0.7l0.3-0.2c0.4,0.3-0.3,0.8,0.1,0.8c-0.3,0.4-0.5,1-1.1,1l-0.3-0.5
							c0.1,0.2,0.5,0.2,0.6,0c-0.1,0.3-1.1-0.5-1.1,0.4l0.5,0.3c-0.3,0.4-0.5,1.2-1,1.2c0.4,0.5,0.1-0.1,0.7,0.4
							c-0.6-0.7,1.2-0.4,0.4-1.1c0.6,0.6,0.7,0.1,1.4,0.6c-0.1-0.2-0.3-0.3,0.1-0.4c0-0.1,0-0.1,0-0.2c0,0,0,0,0,0l0,0c0,0,0,0,0,0
							c-0.1,0-0.2-0.1-0.3-0.2c0-0.5,0.7-0.7,0.8-1c0.3,0,0,0.3,0.2,0.4l0.2-0.5c0.2,0.4,0.9,0.4,0.5,0.9c0.2-0.1,0.3-0.1,0.5-0.2
							c0.4,0.1,0.8,0,1-0.3c0.3,0,0.4-0.7,0.3-0.3l0.7-0.6l0.1,0.1c0.8-0.3,1.3-1.4,2.5-1c0.2-0.2,0.4-0.5,0.9-0.5l0.2,0.3
							c0.3-0.3,1.2-0.1,1.1-0.5c0.8,0.8,1.7-0.6,2.3-0.7l-0.2-0.5c0.4-0.2,0.7-0.5,1.1-0.9l-0.2-0.4c0.2-0.5,1.2-0.2,1.8-0.6
							c0,0.2-0.2,0.2-0.3,0.2c1.3,0.5,1.3-1.5,2.3-1.2c0.1-0.2,0.2-0.3,0.4-0.2c0,0,0,0,0,0c0,0,0,0,0.1,0c0.1,0,0.2,0.1,0.4,0.1
							c-0.1-0.1-0.2-0.1-0.3-0.1c0.1-0.1,0.3-0.2,0.5-0.5l0.3,0.4c0,0,0,0,0,0c0.3,0,0-0.3-0.2-0.5c0.1-0.1,0.1-0.3,0.1-0.4
							c0.5,0.6,0.4-0.5,1,0.1c-0.1-0.4,0.8-0.8,0.5-1.6c0.1,0.1,0.1,0.1,0,0.2c0.3,0,0.5-0.1,0.6-0.4l0.4,0.5l0.1-1
							c0.5,0.2,0.7,0.3,0.7,0.8c0.3-1,0.4-0.6,0.6-1.6l0.2,0.4c0.2-0.1,0.3-0.8,0.6-0.6c0.9,0.4,2.3-1.3,3.9-1.5
							c-0.9-0.8,0.8,0.1,0.4-0.7c0.2,0.2,0.5,0.2,0.4,0.5c0.4-0.6,1.1-0.2,1.1-1.2c0.2,0.2,0.1,0.4,0.2,0.5c0-0.1,0.1-0.3,0.2-0.2
							c0.2,0.1,0,0.3,0,0.4c0.6-0.5,0.2-1.2-0.2-1.9c0.5,0.1,0.6,0,0.6-0.6c0.3,0.1,0.6,0.2,0.3,0.6c0.2-0.1,1.5-0.6,1.2-1.1
							c0.2,0.1,0.3-0.2,0.3-0.3c0.5-0.3,0.6-0.3,1-0.6l-0.2,0c-0.3-0.8,0.3-0.4,0.6-0.7l0,0.1c1.2-0.2,0.2-0.5,1.4-0.6l-0.3-0.4
							c-0.5-0.9,1.1-0.1,1.3-0.7l-0.3-0.1c0-0.5,1.6,0.6,1.9,0.5c0.1,0,0,0.2,0,0.3c1.1,0-0.3-0.6,0.1-1.1c0.3,0.2,0.4,0.8,0.8,0.6
							c0.3,0.1,0.3-1.6,1.2-1.5c-0.3-0.1-0.5-0.3-0.4-0.6c0.3-0.4,1.6,0,1.4-0.9c0.1,0,0.1,0.1,0.2,0.1c0.1-0.4,0.6-1,0.5-1.5
							c1.3,1.1,1.1-2,2.1-0.8l0.8-0.7l0.1,0.1c0.6-0.4,0.5-0.8,0.5-1.2c0.2,0,0.2,0.2,0.2,0.2c0.9-0.4,1-0.6,1.1-1.7l0.4,0.3
							c0-0.4,1.6-0.4,1.9-1.5c0,0,0.1,0.1,0.1,0.2c0.2-0.6,0.9-0.8,1.5-1c0.5-0.3,0.9-0.6,0.4-1.4l0.2-0.8c-0.8,0.6-0.5-0.7-0.9-0.6
							c0.2-0.3,1-0.3,0.8,0.1l-0.1,0c0.5,0.8,1.1-0.6,1.5-0.1c1.3-1.3,2.9-2.2,4.1-3.5l-0.7-0.3l0.4-0.4c0.2,0,0.6,0.2,0.3,0.5
							c0.5,0.1,0.2-0.8,0.1-0.9c0.8-0.4,0.4,0.8,0.6,0.6l0.2-0.3l-0.1,0c0-0.4-0.2-0.6,0.1-1c0.3-0.1,0.4,0.2,0.6,0.1
							c0,0,0.1,0,0.1-0.1l0.6-0.5l-0.6-0.2c0-0.4,0.5-0.5-0.2-0.7c0.6,0.1,1.1-0.3,1.6-0.8c0.4-0.5,0.8-1.1,1-1.1
							c0-0.6,0.3-1,0.7-1.4c-0.2,0-0.7-0.3-0.4-0.6c0.9,1,1-0.3,2,0c-0.7-0.1,0.8-1.2-0.3-1.3c0.3-0.3,0.4,0.3,0.9,0.2
							c0.2-1.1,1.6-1.5,2.2-2.6c-0.1-0.1-0.5-0.1-0.5-0.5l1.1,0c0.1-0.2-0.7-0.8,0.1-0.8c-0.2,0-0.4-0.1-0.3-0.3
							c1-0.7,1.7-1.8,2.3-2.8c0.6-1.1,1.3-2.1,2.7-2.7c-0.5,0.1-0.4-0.1-0.2-0.3c-0.2,0.1-0.4-0.2-0.6-0.3l1.1-0.5
							c-0.5-0.5,0.6-0.9,0.1-1.4l-0.1,0.3c-0.4-0.8-1.7-0.4-2.5-1c0.4,0.9-1.7,0.3-1.1,1.7c-0.3,0-0.2-0.3-0.4-0.3
							c0.2,0.4,0.2,0.6-0.2,0.9l-0.1-0.1c-0.6,1.1-1.2,1.3-2.2,2.3l0.4,0.2c-0.2,0.2-0.4,0.2-0.6,0.2c0.4,0.7,0.5-0.6,1,0.1
							c-1-0.2-1.3,1.7-2.3,1.2c-0.3,0.4,0.5,0.2,0.2,0.6l-0.3-0.1l0.2,0.3c-0.2,0.2-0.6,0.1-0.8,0c0.1,0,0.1-0.2,0.1-0.3
							c-0.5,0.1-0.5,0.9-0.7,1l0.4-0.2c-0.5,1.2-1.7,2.2-2,3.4l0.2,0.1c-0.3,1-0.7,0.4-1.1,1.3l0-0.1c0,0.3,0,0.6-0.2,0.8
							c0-0.4-0.7,0-0.7-0.4c-0.3,1.1,0,0.6,0.2,1.6l-0.4-0.1c0.1,0.4,0.2,0.5,0,1c0-0.5-0.6-0.1-0.7-0.7c-1.3,0.3-0.4,1.7-1.6,1.3
							c0.4,1,1-0.3,1,0c0.4,0,0.3,0.8,0,1c-0.2,0.2-1.4-0.4-1.9,0.2c0.1-0.1,0-0.1,0.1-0.2c-0.4,0.1-0.2,0.7-0.7,0.7
							c0.3,0.6-0.4,0.4,0.2,0.9l0.4-0.7c-0.1,0.5,0.3,1.4-0.6,1.6c-0.1-0.2-0.1-0.5-0.1-0.6c-0.3,0-0.2,0.4-0.5,0.4
							c-0.5-0.6,0.5-0.8,0.4-1.6c-0.4-0.1-0.2,1-0.6,0.3c0.6,1-0.7,0.5-0.4,1.5l-0.3-0.4c0,0.1,0,0.4-0.1,0.5l-0.2-0.6
							c0.1,0.7-0.9,0.3-1,0.9c0.6-0.7,0.6,0.2,1.1,0.2c-0.3,1.3-1.4-0.4-2.1,0.7c0.1-0.2,0.7-0.3,0.6,0.1c-0.2,0.1-0.6,0.2-0.9,0.1
							c-0.5,0.7,0.4,0.2,0.4,0.7c-0.6-0.2-0.1,0.5-0.3,0.9l-0.3-0.3c-0.9,0.5,0.5,0.9-0.3,1.3l-0.2-0.7l-0.2,0.4l-0.3-0.5
							c-0.1,0.6-0.2,0.7-0.7,0.9c0.3,0.2,0.6,0.7,0.3,1c-0.4,0-0.2-0.4-0.6,0c-0.1-0.3-0.3-0.7,0.2-0.6c-0.1-0.1-0.1-0.3-0.2-0.4
							c-0.5,0-0.6,0.5-0.8,0.7c0.1,0,0.2-0.1,0.3-0.1l-0.2,1.1c-0.2,0-0.2-0.2-0.3-0.4c-0.1,0.2,0,0.4-0.2,0.6
							c-0.2-0.3-0.5-0.6-0.4-1l-0.3,0.9c-0.2-0.1-0.6-0.1-0.7-0.2c-0.5,0.1-0.3,1.3-1,1.5c0,0.1,0,0.2,0,0.3
							c-0.5,0.3-1.2,0.3-1.3,1.2l-0.8-0.3c-0.3,0.5,1,0.3,0.5,1.1c-0.3,0.6-0.6-0.3-0.9-0.3c0,0.5,0,1.4-0.8,1.3
							C142.8,92.6,142.9,92.6,143,92.5z M138.1,96.9c0-0.2,0.1-0.6,0.3-0.4C138.6,97,138.4,96.9,138.1,96.9z M130.6,103.8
							c0-0.2,0.2-0.2,0.4-0.1C130.9,103.8,130.7,103.8,130.6,103.8z M106.8,120.3C106.9,120.3,106.9,120.3,106.8,120.3
							C107.2,120.3,107.1,120.3,106.8,120.3z M106.2,120.4c0,0.1,0,0.1,0,0.2c0-0.1,0.1-0.2,0.3-0.2
							C106.4,120.2,106.3,120.2,106.2,120.4z M159.6,82.4l-0.2,0C159.5,82.1,159.5,82.3,159.6,82.4z"/>
						<path class="st0" d="M131.1,102.6c0.1,0,0.1,0.1,0.2,0.2C131.3,102.7,131.3,102.6,131.1,102.6z"/>
						<path class="st0" d="M146,89.5L146,89.5C146,89.5,145.9,89.5,146,89.5L146,89.5z"/>
						<path class="st0" d="M113.1,112.7c0.1,0,0.2,0.1,0.3,0.1C113.4,112.8,113.3,112.7,113.1,112.7z"/>
						<path class="st0" d="M103.5,122.3l0.3-0.3c-0.2,0.1-0.3,0-0.4,0C103.4,122.1,103.6,122.2,103.5,122.3z"/>
						<path class="st0" d="M99.2,120.7c0,0.1-0.1,0-0.1,0.1l0.1,0.2C99.4,120.9,99.5,120.7,99.2,120.7z"/>
						<path class="st0" d="M102.5,120.9c-0.2-0.4-0.4-0.2-0.6,0c0,0,0,0,0,0C102.1,121.5,102.3,121.2,102.5,120.9z"/>
						<path class="st0" d="M101.9,121c-0.1,0-0.1,0.1-0.2,0.1C101.7,121.3,101.8,121.1,101.9,121z"/>
						<path class="st0" d="M105.6,120.9c-0.2,0,0.1,0.5,0,0.4C105.6,121.8,106.1,120.4,105.6,120.9z"/>
						<polygon class="st0" points="101.9,119.8 102.1,120.2 102.1,119.8 						"/>
						<path class="st0" d="M104,119.3l-0.5,0c0,0.1,0,0.1,0,0.2C103.8,119.5,104.1,119.5,104,119.3z"/>
						<path class="st0" d="M103.5,119.6c-0.1,0-0.3,0.1-0.3,0.2C103.3,119.7,103.4,119.6,103.5,119.6z"/>
						<polygon class="st0" points="102.4,119.4 102.5,119.5 102.8,119.4 						"/>
						<path class="st0" d="M108.4,117.6l0.4-0.3c0-0.2-0.2-0.2-0.3-0.1C108.4,117.3,108.2,117.5,108.4,117.6z"/>
						<path class="st0" d="M106.5,116.9c0.2,0,0.2,0.1,0.3,0.3l-0.2-0.6L106.5,116.9z"/>
						<path class="st0" d="M107.7,116.2c0-0.2,0.4-0.7-0.1-0.5C107.6,116,107.3,116.3,107.7,116.2z"/>
						<polygon class="st0" points="114.5,114 114.4,114 114.9,114.9 						"/>
						<path class="st0" d="M118.9,108.9c-0.6,0.1,0.2,0.6-0.4,0.6c0,0.3,0.5,0,0.5,0.3C119.1,109.4,119.4,109.4,118.9,108.9z"/>
						<path class="st0" d="M119,109.8c0,0.1-0.1,0.1-0.1,0.2C118.9,109.9,119,109.8,119,109.8z"/>
						<polygon class="st0" points="173.5,64.9 173.9,64.7 173.5,64.7 						"/>
						<path class="st0" d="M173.3,63.9l0.6,0.3l-0.4-0.5C173.5,63.8,173.4,63.9,173.3,63.9z"/>
						<path class="st0" d="M136.5,96.5l0.1,0.1c0.1,0.1,0.2,0.1,0.4,0L136.5,96.5z"/>
						<polygon class="st0" points="140.6,93.9 140.5,93.9 141,94.3 						"/>
						<path class="st0" d="M143.2,90.7c-0.1,0.1-0.2,0.3-0.3,0.4C143,90.8,143.7,91.2,143.2,90.7z"/>
					</g>
				</g>
			</g>
		</g>
	</g>
</g>
</svg>
