<?xml version="1.0" encoding="utf-8"?>
<!-- Generator: Adobe Illustrator 25.2.3, SVG Export Plug-In . SVG Version: 6.00 Build 0)  -->
<svg version="1.1" id="Layer_1" xmlns="http://www.w3.org/2000/svg" xmlns:xlink="http://www.w3.org/1999/xlink" x="0px" y="0px"
	 viewBox="0 0 1280 900" style="enable-background:new 0 0 1280 900;" xml:space="preserve">
<style type="text/css">
	.st0{fill:none;stroke:#020202;stroke-miterlimit:10;}
	.st1{fill:#020202;}
</style>
<g id="Layer_6">
	<path class="st0" d="M604.8,349.5"/>
	<path class="st0" d="M614.1,366.1"/>
	<path class="st0" d="M572.2,355.6"/>
	<path class="st0" d="M1229.2,467.5l-22.2,23.1c-8.1,6.2-26.6,20.2-34.4,26.8c-12.8,10.8-37.9,13.9-45.5,16.7
		c-32.9,11.9-136.1-41.6-247.9-78.2c-3.4-1.1-7-1.7-10.4-3l-94-35c0,0-10,33-35.4,40.2c0,0-33,17.8-41.5-3.5c0,0,18.5,10,41.6-6.2
		c0,0,22.9-11.5,25.9-26.2c0,0,0.4-0.7-1.2-3.7c-1.9-3.5-6.7-9.9-22.8-18.7c0,0-52.1-60.5-59.5-61.9c0,0-35.4-39.7-39.8-38.7
		c0,0-5.5-4.9-20.3,0.3c0,0-36.8,16.9-59.6,17.8c0,0-5.5-0.7-14.2,13c0,0-18,22.3-19.6,24s-6.7,16.4-6.4,17.5c0,0-6.4,13.8-5.8,15
		c0,0-0.9,4.8,3.6,6.2l4.2-0.6c0,0-2.9,5.5,13.2,9.7c0,0,18.3,1.6,18.9-15.2c0,0-5-18-27.6-3.4c0,0,5.4-13.4,27.3-12.4
		c0,0,54.6,6.2,58.4,2c0,0,20.9-9.5,28.4-4.2c0,0-1.6,10.9-26.5,2.6c0,0,0.1-12.6,7.7-32.8c0,0,3-6.1,5-3.2c0,0,1.8,11.1-10,13.9
		c0,0-28.9,1.6-16.5-18.6c0,0,6.2-4.2-1.2,7.8c0,0-14.3,12.8-30.1,7.4c0,0-2.8,5.7-4.9,7.4c0,0-3.2,1.7-7.4,3.7"/>
	<path class="st0" d="M709.9,430.9c0,0-30.6-1.1-32.6-1.6s-10.1,0.5-55-19.4c0,0-34.3-11.8-56.6-8.5l-18.3,2.2c0,0,3.8,5.2,24.7,2
		c0,0,37.8-2.7,57.9,12.9c0,0,23.4,13.6,43.6,16.9c0,0,0.6,5.9,23.4,15.1c0,0,17.2,5.6,5.8,24.4l27.3,21.6
		c21,13.4,52.9,30.9,68.4,37.4l295.7,137.7"/>
	<path class="st0" d="M645.8,405.5"/>
	<path class="st0" d="M558.8,357.1c0,0-6.9,14.4-16.3,4.5c0,0-4.2-5.6,1.8-4.9c0,0,11.1,5.6,4,14.6c3.4,0.3-11.5-2.9-19.8,12.1
		c0,0-3.1,5.2-1.5,5.4c0,0,11.4-2.6,16.5,0.7c0,0,6.8,10.1,19.8,9.6c0,0,2.5-0.2,6-2.6c0,0,4.1-1.2,7.3,1.3c0,0,1.2-0.3,6.9-3.7
		c0,0,3.6-1.7,6.3,1.5c0,0,9.5,6.7,15.3,4.9c0,0,14.2-5.2,20.2,6.1"/>
</g>
<g>
	<g>
		<path class="st1" d="M522.9,393.6c-12.1,14.5-25,28.2-38.2,41.6c-6.7,6.8-13.4,13.6-20.2,20.4c-6.7,6.7-13.5,13.2-19.8,20.2
			c-1.7,1.9-3.4,3.9-5,6c-1.2,1.6-2.7,3.3-2.9,5.4c-0.4,4.5,4.1,7.1,7.6,8.8c0.7,0.3,1.4-0.7,0.6-1.1c-3.3-1.6-8.8-4.7-6.5-9.3
			c1-1.9,2.6-3.6,3.9-5.2c1.4-1.6,2.8-3.2,4.2-4.8c6.2-6.7,12.7-13,19.1-19.4c12.7-12.8,25.5-25.6,37.8-38.8
			c6.9-7.4,13.7-15,20.2-22.9C524.3,393.8,523.5,392.9,522.9,393.6L522.9,393.6z"/>
	</g>
</g>
<g>
	<g>
		<path class="st1" d="M445.4,495.5c0.5-3.2,2.6-5.9,5.5-7.2c0.3-0.1,0.4-0.6,0.2-0.9c-0.2-0.3-0.5-0.4-0.9-0.2
			c-3.2,1.4-5.5,4.5-6,7.9c-0.1,0.3,0.1,0.7,0.4,0.8C445,496,445.4,495.8,445.4,495.5L445.4,495.5z"/>
	</g>
</g>
<g>
	<g>
		<path class="st1" d="M437.8,487.1c3.3,1.5,6.7,1.9,10.3,1.5c3.9-0.5,7.8-1.2,11.8-1.3c7.8-0.2,15.7,0.9,23.2,3.3
			c2,0.7,4.1,1.3,6,2.3c1.8,1,3.8,3.1,2.5,5.3c-0.4,0.7,0.7,1.3,1.1,0.6c1.9-2.9-0.7-5.9-3.3-7.2c-3.6-1.8-7.5-2.9-11.4-3.8
			c-8.1-1.9-16.6-2.4-24.9-1.3c-2.4,0.3-4.8,0.9-7.3,1c-2.5,0.1-5-0.5-7.3-1.5C437.7,485.7,437.1,486.7,437.8,487.1L437.8,487.1z"/>
	</g>
</g>
<g>
	<g>
		<path class="st1" d="M505.6,460.1c-3.2,6.3-5.8,12.9-7.8,19.7c-1,3.3-1.8,6.7-2.5,10.2c-0.6,3.1-1.2,6.4-3.5,8.7
			c-0.6,0.6,0.3,1.5,0.9,0.9c2-2.1,2.9-4.9,3.5-7.8c0.7-3.5,1.5-6.9,2.4-10.3c2-7.2,4.7-14.1,8-20.8
			C507,460,505.9,459.4,505.6,460.1L505.6,460.1z"/>
	</g>
</g>
<g>
	<g>
		<path class="st1" d="M459.6,487.7c-0.6,5.8-4.3,10.5-7,15.5c-2.8,5.1-4.8,10.6-6.2,16.3c-0.2,0.8,1,1.1,1.2,0.3
			c1.4-6,3.7-11.8,6.7-17.2c2.7-4.8,5.9-9.4,6.5-15C461,486.9,459.7,486.9,459.6,487.7L459.6,487.7z"/>
	</g>
</g>
<g>
	<g>
		<path class="st1" d="M492.8,497.6c-3.1,3.5-7.9,4.7-12.3,6.1c-5,1.6-10.1,3.3-15.1,4.9c-4.3,1.4-8.7,2.6-12.7,4.7
			c-1.7,0.9-3.4,2.1-4.8,3.5c-1.3,1.3-2.6,2.9-2.3,4.8c0.6,3.8,5.8,5,8.8,5.6c4.7,1.1,9.6,1.2,14.4,0.9c10.2-0.7,20.2-3.2,30.4-4.3
			c5.9-0.6,11.9-0.9,17.9-0.9c4.8,0,10.9-0.4,14.6,3.3c0.1-0.3,0.2-0.7,0.3-1c-4.9,1.6-9.3,4.5-12.8,8.4c0.4,0.1,0.7,0.3,1.1,0.4
			c-0.5-4-0.9-7.9-1.1-11.9c0-0.8-1.3-0.8-1.2,0c0.2,4,0.6,8,1.1,11.9c0.1,0.5,0.7,0.9,1.1,0.4c3.3-3.7,7.5-6.5,12.2-8.1
			c0.4-0.1,0.6-0.7,0.3-1c-2.7-2.7-6.5-3.4-10.2-3.6c-5-0.2-10.1-0.1-15.1,0.2c-9.9,0.6-19.6,2.4-29.4,3.9
			c-4.9,0.8-9.8,1.3-14.8,1.2c-2.5-0.1-5-0.3-7.5-0.8c-2.1-0.4-4.4-0.9-6.3-2c-2-1.2-3.3-3-1.8-5.2c1.3-1.8,3.2-3.2,5.1-4.3
			c3.8-2.2,8-3.4,12.2-4.7c5.6-1.8,11.2-3.6,16.7-5.4c4.3-1.4,9-2.7,12.1-6.2C494.2,497.9,493.3,497,492.8,497.6L492.8,497.6z"/>
	</g>
</g>
<g>
	<g>
		<path class="st1" d="M529.2,488.2c-0.7,6.3,0.1,12.6,0.9,18.8c0.8,6.2,1.5,12.5,2.3,18.7c0.1,0.8,1.3,0.8,1.2,0
			c-0.8-6.2-1.5-12.5-2.3-18.7c-0.8-6.2-1.5-12.5-0.9-18.8C530.5,487.4,529.3,487.4,529.2,488.2L529.2,488.2z"/>
	</g>
</g>
<g>
	<g>
		<path class="st1" d="M520.7,532.7c-2.2,1.1-2.3,4-1.2,5.9c1.6,2.7,5.1,3,7.9,2.9c7.7-0.4,15.4-1.4,23-2.7c7.8-1.3,15.5-3.1,23-5.6
			c3.6-1.2,7.2-2.7,10.6-4.3c1.8-0.8,3.5-1.7,5.2-2.7c1.2-0.6,2.7-1.4,2.9-2.9c0.2-1.6-1.5-3-2.6-3.9c-1.4-1.2-3-2.2-4.7-3
			c-3.5-1.7-7.4-2.6-11.2-3.5c0.1,0.1,0.3,0.3,0.4,0.4c0.1-0.1,0.1-0.3,0.2-0.4c0.7-0.3,0.4-1.5-0.3-1.2c-0.9,0.3-1.3,1-1.1,2
			c0,0.2,0.2,0.4,0.4,0.4c5.8,1.4,12.2,2.9,16.5,7.4c0.7,0.7,1.4,1.6,0.6,2.5c-0.6,0.6-1.5,1-2.2,1.4c-1.5,0.8-3.1,1.6-4.7,2.4
			c-3,1.4-6.1,2.7-9.3,3.9c-12.7,4.5-26,6.7-39.4,8c-1.8,0.2-3.7,0.3-5.5,0.5c-1.8,0.1-3.6,0.4-5.4,0c-1.7-0.3-3.2-1.1-3.8-2.8
			c-0.5-1.3-0.3-2.9,1-3.6C522,533.4,521.4,532.3,520.7,532.7L520.7,532.7z"/>
	</g>
</g>
<g>
	<g>
		<path class="st1" d="M567.4,474.2c-1.8,6.1,1.3,12.4,2.6,18.4c1.5,6.7,2.3,13.6,3,20.4c0.1,0.8,1.3,0.8,1.2,0
			c-0.7-6.5-1.4-13-2.7-19.3c-0.7-3.1-1.6-6.2-2.4-9.3c-0.9-3.2-1.5-6.5-0.5-9.8C568.8,473.8,567.6,473.5,567.4,474.2L567.4,474.2z"
			/>
	</g>
</g>
<g>
	<g>
		<path class="st1" d="M574.5,513.6c-0.3-3.1,4.9-2.6,6.8-2.8c2.5-0.2,5-0.4,7.4-0.8c5-0.7,9.9-1.7,14.6-3.2
			c2.4-0.8,4.7-1.6,6.9-2.7c1.4-0.7,3.2-1.7,3.4-3.5c0.3-1.9-1.5-3.3-2.7-4.5c-1.6-1.6-3.2-3.3-4.7-5c-12.6-14.7-19.5-33.4-26.9-51
			c-4.5-10.7-9.7-21.8-9.3-33.7c0-0.8-1.2-0.8-1.2,0c-0.3,10.3,3.5,20,7.4,29.3c3.8,9.1,7.5,18.3,11.7,27.4
			c3.9,8.5,8.3,16.9,13.9,24.4c2.7,3.7,5.7,7.1,9,10.2c0.9,0.8,2,1.9,1.4,3.3c-0.4,0.9-1.6,1.5-2.5,1.9c-2.4,1.1-4.9,2-7.4,2.8
			c-5.5,1.7-11.2,2.8-17,3.4c-2.8,0.3-5.7,0.3-8.5,0.7c-1.9,0.3-3.9,1.5-3.7,3.7C573.3,514.4,574.5,514.4,574.5,513.6L574.5,513.6z"
			/>
	</g>
</g>
<g>
	<g>
		<path class="st1" d="M569.5,400.9c0-0.2,0-0.3,0-0.5c0-0.1,0-0.1,0-0.2c0-0.2,0,0.1,0,0c0,0,0-0.1,0-0.1c0-0.2,0.1-0.3,0.1-0.5
			c0-0.1,0.1-0.2,0.1-0.2c0,0,0-0.1,0-0.1c0-0.1,0,0,0,0c0.1-0.3,0.3-0.6,0.5-0.8c0,0,0,0,0,0c0,0,0.1-0.1,0.1-0.1
			c0-0.1,0.1-0.1,0.2-0.2c0.1-0.1,0.3-0.2,0.4-0.4c0.3-0.2,0.2-0.7,0-0.9c-0.3-0.3-0.6-0.2-0.9,0c-1.2,1-1.9,2.5-1.8,4.1
			c0,0.3,0.3,0.6,0.6,0.6C569.2,401.5,569.6,401.2,569.5,400.9L569.5,400.9z"/>
	</g>
</g>
<g>
	<g>
		<path class="st1" d="M589.1,510c0.1,2.4,0,4.8,0.3,7.2c0.1,1,0.4,2,0.9,2.9c0.5,0.9,1.2,1.7,1.1,2.8c-0.1,0.8,1.2,0.8,1.2,0
			c0.1-1-0.3-1.9-0.8-2.7c-0.6-0.9-1-1.8-1.1-2.9c-0.2-1.1-0.1-2.3-0.2-3.4c0-1.3-0.1-2.5-0.1-3.8
			C590.4,509.2,589.1,509.2,589.1,510L589.1,510z"/>
	</g>
</g>
<g>
	<g>
		<path class="st1" d="M624.9,407.1c0.8,1.9,1.8,4.7-0.4,6.1c-1.9,1.2-4.7,1.5-6.9,1.7c-4.7,0.4-9.4-0.3-13.9-1.7
			c-4.3-1.4-8.3-3.5-12.1-5.9c-3.5-2.3-6.7-5-10-7.5c-3.1-2.4-6.6-4.6-10.7-3.9c-0.6,0.1-0.4,1.1,0.3,1c4.4-0.8,8.3,2.4,11.5,5
			c3.5,2.8,7,5.5,10.9,7.8c8,4.7,17.5,7.6,26.8,5.9c2-0.4,4.7-0.8,5.9-2.6c1.2-1.8,0.4-4.2-0.4-6
			C625.6,406.2,624.7,406.5,624.9,407.1L624.9,407.1z"/>
	</g>
</g>
<g>
	<g>
		<path class="st1" d="M509.4,429.4c6.3-4.5,12.3-9.2,18.2-14.1c-0.3-0.1-0.7-0.2-1-0.3c1.8,6,1.5,12.4-0.9,18.2
			c-1.2,2.9-2.8,5.7-4.4,8.5c-1.6,2.9-3.1,5.8-4.7,8.7c-0.4,0.7,0.6,1.3,1.1,0.6c4.5-6,7.5-12.9,10.4-19.8c1.5-3.6,3-7.2,4.6-10.7
			c0.8-1.7,1.6-3.3,2.4-4.9c0.9-1.7,1.8-3.8,3.5-5c-0.3-0.1-0.6-0.1-0.9-0.2c1.6,3.7,3.3,7.4,4.9,11.2c1.5,3.4,2.9,6.9,4.8,10.1
			c3.3,5.8,8.5,10.1,14.9,12.1c0.5,0.2,0.9-0.5,0.7-0.9c-2.7-5.2-5.2-10.5-7.4-15.9c-1.1-2.6-2.1-5.2-3.1-7.9
			c-1-2.7-2.2-5.6-1.6-8.6c0.2-0.8-1-1.1-1.2-0.3c-0.6,2.8,0.3,5.5,1.2,8.1c1,2.9,2.1,5.7,3.3,8.6c2.3,5.6,4.9,11.2,7.7,16.6
			c0.2-0.3,0.5-0.6,0.7-0.9c-6.6-2-11.5-6.6-14.8-12.6c-1.6-3-3-6.3-4.3-9.4c-1.6-3.6-3.1-7.1-4.7-10.7c-0.1-0.3-0.6-0.4-0.9-0.2
			c-1.4,1-2.3,2.5-3.1,4c-1,1.7-1.9,3.5-2.7,5.2c-1.7,3.5-3.1,7.1-4.6,10.6c-3,7.3-6.1,14.7-10.9,21.1c0.4,0.2,0.7,0.4,1.1,0.6
			c1.6-3,3.3-6.1,4.9-9.1c1.6-2.9,3.2-5.7,4.4-8.8c2.3-5.9,2.5-12.4,0.7-18.5c-0.1-0.5-0.7-0.6-1-0.3c-5.8,4.9-11.8,9.5-18,13.9
			C508.1,428.8,508.7,429.9,509.4,429.4L509.4,429.4z"/>
	</g>
</g>
<g>
	<g>
		<path class="st1" d="M509.9,428.1c1.3-1.1,2.3-2.6,3.2-4c1-1.7,2-3.4,3-5.1c2.1-3.5,4.2-7,6.3-10.5c0.4-0.7-0.7-1.3-1.1-0.6
			c-2,3.4-4.1,6.8-6.1,10.2c-1,1.7-2,3.3-3,5c-0.9,1.5-1.9,3-3.2,4.2C508.4,427.7,509.3,428.6,509.9,428.1L509.9,428.1z"/>
	</g>
</g>
<g>
	<g>
		<path class="st1" d="M596.5,487.2c2.3,1.4,4.9,2.3,7.6,2.8c0.3,0.1,0.7-0.1,0.8-0.4c0.1-0.3-0.1-0.7-0.4-0.8
			c-2.6-0.4-5-1.3-7.3-2.6C596.5,485.7,595.8,486.8,596.5,487.2L596.5,487.2z"/>
	</g>
</g>
<g>
	<g>
		<path class="st1" d="M589.3,478.3c1.8,1.3,3.5,2.5,5.3,3.8c1.6,1.1,3.2,2.1,5.1,2.3c0.8,0.1,0.8-1.2,0-1.2
			c-1.8-0.2-3.3-1.3-4.8-2.3c-1.7-1.2-3.3-2.4-5-3.6C589.3,476.7,588.6,477.8,589.3,478.3L589.3,478.3z"/>
	</g>
</g>
<g>
	<g>
		<path class="st1" d="M584.2,467.9c2.7,2.3,5.5,4.4,8.6,6.1c0.7,0.4,1.3-0.7,0.6-1.1c-3-1.7-5.8-3.6-8.4-5.9
			C584.5,466.5,583.6,467.4,584.2,467.9L584.2,467.9z"/>
	</g>
</g>
<g>
	<g>
		<path class="st1" d="M576.6,455.3c3.4,4,7.5,7.2,12.2,9.5c0.7,0.3,1.4-0.7,0.6-1.1c-4.6-2.2-8.7-5.3-12-9.3
			C577,453.8,576.1,454.7,576.6,455.3L576.6,455.3z"/>
	</g>
</g>
<g>
	<g>
		<path class="st1" d="M571.5,443.6c1.9,2.1,3.8,4.3,6,6.1c1.1,0.9,2.2,1.7,3.4,2.3c0.6,0.3,1.2,0.6,1.8,0.8
			c0.5,0.2,1.2,0.5,1.3,1.1c0.2,0.8,1.4,0.5,1.2-0.3c-0.3-1.3-1.6-1.7-2.7-2.2c-1.4-0.6-2.7-1.4-3.9-2.3c-2.4-1.8-4.4-4.1-6.4-6.4
			C571.9,442.1,571,443,571.5,443.6L571.5,443.6z"/>
	</g>
</g>
<g>
	<g>
		<path class="st1" d="M568,433.3c1,1.3,2.1,2.6,3.4,3.6c1.2,1,2.6,1.7,3.8,2.6c2.8,1.9,4.6,4.8,6,7.9c0.3,0.7,1.4,0.1,1.1-0.6
			c-1.4-3-3.2-6-5.9-7.9c-1.3-0.9-2.7-1.7-4-2.7c-1.4-1.1-2.5-2.4-3.5-3.8C568.4,431.8,567.5,432.7,568,433.3L568,433.3z"/>
	</g>
</g>
</svg>
