<?xml version="1.0" encoding="utf-8"?>
<!-- Generator: Adobe Illustrator 25.2.3, SVG Export Plug-In . SVG Version: 6.00 Build 0)  -->
<svg version="1.1" id="Layer_1" xmlns="http://www.w3.org/2000/svg" xmlns:xlink="http://www.w3.org/1999/xlink" x="0px" y="0px"
	 viewBox="0 0 244 137" style="enable-background:new 0 0 244 137;" xml:space="preserve">
<style type="text/css">
	.st0{fill:#0D0D0D;}
</style>
<g>
	<g>
		<g>
			<g>
				<g>
					<path class="st0" d="M151.5,35.5c0.7,0.1,0.5-0.1,0.6-0.1C150.9,35.2,151.5,35.5,151.5,35.5z"/>
					<polygon class="st0" points="139.9,34.2 140.1,34.1 138.3,34.1 					"/>
					<path class="st0" d="M129,33.1c1,0.4,3.9,0.2,5.9,0.6l0.3,0.1l0.9-0.2C133.7,33.4,130.7,33.3,129,33.1z"/>
					<path class="st0" d="M123.2,32c0.3,0.2-1.3,0.1,1.4,0.1c-0.1,0-0.2,0-0.2,0C124.1,32.1,123.8,32,123.2,32z"/>
					<path class="st0" d="M124.3,32.1C125.5,32.1,123.6,31.9,124.3,32.1L124.3,32.1z"/>
					<path class="st0" d="M119,32l1.5-0.1c-0.3-0.1-1.7-0.1-1.2-0.2C117.8,31.7,118.1,31.8,119,32z"/>
					<path class="st0" d="M117.6,32.2l0.8,0C118.2,32.1,118,32.1,117.6,32.2z"/>
					<path class="st0" d="M120,32.1l-1.7,0.1c0.2,0.1,0.2,0.2,0.8,0C119,32.2,119.3,32.1,120,32.1z"/>
					<path class="st0" d="M121,32.2c0.8,0.1,1.9,0.2,0.4,0.3C124.3,32.5,123.9,32.2,121,32.2z"/>
					<path class="st0" d="M128.4,33.5l1.1,0.2l1,0C130,33.6,128.4,33.3,128.4,33.5z"/>
					<path class="st0" d="M109.6,31.8c-0.1,0.1,0.5,0.2,0.6,0.3l1.1-0.1C110.7,31.9,109.6,31.9,109.6,31.8z"/>
					<path class="st0" d="M110.2,32l-1.7,0.1C110,32.2,110.3,32.1,110.2,32z"/>
					<polygon class="st0" points="117.3,32.6 120.1,32.4 116.8,32.6 					"/>
					<polygon class="st0" points="103.2,32 104.1,31.7 102.4,32.1 					"/>
					<path class="st0" d="M98.9,32.2c0.7-0.2-1-0.2-0.2-0.3c-1.2,0.1-2.1,0.3-3,0.5C96.6,32.3,97.6,32.2,98.9,32.2z"/>
					<path class="st0" d="M94.2,32.7c0.5-0.1,0.9-0.2,1.5-0.3C95.2,32.5,94.7,32.5,94.2,32.7z"/>
					<path class="st0" d="M105.7,32.3c-0.1,0-0.4-0.1-1.3-0.2l0.7,0.2C105.2,32.3,105.4,32.3,105.7,32.3z"/>
					<path class="st0" d="M105,32.3L105,32.3c-0.7,0-1.2,0-1.4,0C103.8,32.3,104.2,32.3,105,32.3z"/>
					<path class="st0" d="M105.8,32.3c-0.1,0-0.1,0-0.2,0C105.7,32.3,105.8,32.3,105.8,32.3z"/>
					<path class="st0" d="M112.9,32.4c-1,0.1-3,0.3-1,0.4C112.6,32.7,111.4,32.6,112.9,32.4z"/>
					<path class="st0" d="M106.7,32.5l1.8,0c0-0.1-0.4-0.1,0.1-0.2L106.7,32.5z"/>
					<polygon class="st0" points="105.8,32.6 106.7,32.5 106,32.5 					"/>
					<path class="st0" d="M97.2,32.6c-0.8,0.1-1.6,0.2-2.5,0.3c1,0,2.1-0.1,3.1-0.2C97.9,32.7,98.3,32.5,97.2,32.6z"/>
					<path class="st0" d="M101,32.5c0,0-0.1,0-0.2,0C101,32.5,101,32.5,101,32.5z"/>
					<path class="st0" d="M85.4,34c0,0,0.1,0,0.2,0c0,0,0,0,0,0L85.4,34z"/>
					<path class="st0" d="M98,32.8c0.8,0,1.2-0.1,1.7-0.2c-0.6,0-1.2,0.1-1.8,0.2C97.7,32.8,97.7,32.8,98,32.8z"/>
					<path class="st0" d="M91.6,33c0.4,0,0.9,0,1.3,0C92.5,33,91.7,33,91.6,33z"/>
					<path class="st0" d="M100.6,32.4c0,0,0.1,0,0.1,0C100.5,32.4,100.5,32.4,100.6,32.4z"/>
					<path class="st0" d="M100.6,32.4c-0.4,0-0.7,0.1-1,0.2c0.5,0,0.9-0.1,1.3-0.1C100.8,32.5,100.7,32.5,100.6,32.4z"/>
					<path class="st0" d="M82.8,35.7c0.1-0.2,2.1-0.7,3.8-0.7c1.7-0.4,0.5-0.9-1-1c0,0.1,0,0.2-1.8,0.5c0.6,0,3.9-0.3,2.5,0.1
						c-2.3,0.4-1.9,0.2-3,0.2c1,0.1-2.9,0.8-2.3,1.1c0.7-0.2,1.3-0.3,2-0.4C83,35.6,82.2,35.8,82.8,35.7z"/>
					<path class="st0" d="M88.9,33.6l0.7-0.1c-0.8,0.1-1.4,0.1-2.5,0c-1.2,0.2-1.4,0.3-1.5,0.4l3.5-0.4L88.9,33.6z"/>
					<path class="st0" d="M92.8,33.2c-0.5,0.3-2.3,0.5-1.2,0.7c2.1-0.2,1.5-0.3,2.7-0.5C91,33.7,95.3,33.1,92.8,33.2
						c0.7-0.1,1.3-0.1,1.9-0.2c-0.6,0-1.2,0-1.8,0.1c0,0,0,0,0.1,0h0l0,0c0.2,0,0.2,0,0,0c0,0,0,0-0.1,0
						C93,33.1,92.9,33.1,92.8,33.2c-1,0-0.2,0,0.2-0.1c0,0,0,0,0,0h0l-3.4,0.5C90.3,33.4,91.2,33.4,92.8,33.2z"/>
					<path class="st0" d="M110,33.3c-0.1,0-0.1,0-0.1,0C109.7,33.3,109.6,33.3,110,33.3z"/>
					<path class="st0" d="M108.7,33.2c0.2,0,0.5-0.1,1.3-0.1c0.7,0.1,0,0.1,0,0.2c0.5-0.1,1.7-0.2,0.2-0.3l-0.2,0
						c-1.4-0.1-3.2-0.2-2.9-0.3C107.4,32.9,107.7,33,108.7,33.2z"/>
					<path class="st0" d="M100.7,33.1c-1,0.1-1.9,0.2-2.8,0.3l1.5,0.1l-0.1-0.1C100.8,33.3,100.5,33.2,100.7,33.1z"/>
					<polygon class="st0" points="85.1,33.9 85.4,33.6 83.8,34.2 					"/>
					<path class="st0" d="M81.4,34.5l0.1-0.2c-0.3,0.1-0.6,0.2-1,0.3L81.4,34.5z"/>
					<path class="st0" d="M134.1,111.4l0.8-0.1C134.5,111.4,134.3,111.4,134.1,111.4z"/>
					<path class="st0" d="M128.1,111.9l-0.1,0.1C128.2,111.9,128.3,111.9,128.1,111.9z"/>
					<path class="st0" d="M22.8,86.5c0.6,1.1,1.3,2.4,1.4,2.2l-0.1-0.4C23.5,87.5,23.1,86.9,22.8,86.5z"/>
					<path class="st0" d="M78.8,111.6c-0.1,0-0.2-0.1-0.3-0.1c-0.3,0-0.6,0-0.8,0.1C77.9,111.6,78.3,111.6,78.8,111.6z"/>
					<path class="st0" d="M79.7,110.9l1.5,0.4C81,111.2,80.5,111,79.7,110.9z"/>
					<path class="st0" d="M166.5,106.2l0.9-0.4C165.9,106.2,166.6,106.1,166.5,106.2z"/>
					<path class="st0" d="M44.8,44.9c-1,0.4-1.8,0.7-2.5,1C43.5,45.4,44.5,45.2,44.8,44.9z"/>
					<path class="st0" d="M131.9,113.9c0.5-0.1,0.7-0.1,0.7-0.2C132.1,113.8,131.8,113.9,131.9,113.9z"/>
					<path class="st0" d="M39.6,47.3c0.2-0.1,0.3-0.1,0.5-0.2c0.7-0.4,1.4-0.8,2.2-1.2C41.4,46.2,40.4,46.6,39.6,47.3z"/>
					<path class="st0" d="M179.4,36.8c-0.1,0-0.2-0.1-0.2-0.1C179.1,36.7,179.2,36.7,179.4,36.8z"/>
					<path class="st0" d="M145.7,28.1c0.3,0,0.9,0,1.4,0.1C146.8,28.2,146.4,28.2,145.7,28.1z"/>
					<path class="st0" d="M66.7,37.3C67.5,37.1,66.8,37.2,66.7,37.3L66.7,37.3z"/>
					<path class="st0" d="M70.6,37.3c-0.2,0.1-0.3,0.1-0.3,0.2C70.4,37.4,70.5,37.3,70.6,37.3z"/>
					<path class="st0" d="M33.5,52.5C33.5,52.5,33.5,52.5,33.5,52.5C33.7,52.4,33.7,52.5,33.5,52.5z"/>
					<path class="st0" d="M67.9,37.1c-0.3,0-0.6,0.1-1,0.2C67,37.3,67.3,37.2,67.9,37.1z"/>
					<path class="st0" d="M67.7,37c0.3-0.1,0.5-0.1,0.7-0.1C68.5,36.8,68.4,36.8,67.7,37z"/>
					<path class="st0" d="M65.6,37.6c0.4-0.1,0.8-0.2,1.2-0.3c-0.2,0-0.2,0-0.2,0C66.5,37.4,66.2,37.4,65.6,37.6z"/>
					<path class="st0" d="M213.2,80.5c0,0,0.1-0.1,0.1-0.1C213.5,79.7,213.4,80,213.2,80.5z"/>
					<path class="st0" d="M39.8,97.9C39.7,97.9,39.7,97.9,39.8,97.9C39.7,97.9,39.8,97.9,39.8,97.9L39.8,97.9z"/>
					<path class="st0" d="M42.3,99.1c-1.2-0.3-1.7-0.7-2.5-1.2l0.5,1C41,99,41.6,99,42.3,99.1z"/>
					<path class="st0" d="M148.4,109.7l-2,0.1c2.3-0.7,4-0.8,2.2-0.8c-0.1,0.3-2,0.7-3.9,0.9c-1.9,0.2-3.8,0.5-3.9,0.8l-1.3,0
						c0.4,0,0.4-0.1,0.8-0.1c-2.5,0-1.8,0.7-5.1,0.9c-1.1,0.1-1.9,0-1.2-0.1c-0.8,0.1-1.7,0.2-2.5,0.4c-0.7,0-0.6-0.1,0.2-0.1
						l-3.8,0.3l0,0c-0.5,0.2-1.8,0.4-2.4,0.5c-1,0,0.5-0.1,0.2-0.2l-2.1,0.3c-0.9-0.1,0.9-0.4,2.3-0.5c-2-0.6-1.8,0.3-6.1,0.1
						c0.7,0,1.3-0.1,2-0.2c-1.3-0.3-2.9-0.1-5.2-0.2c0.5,0.1,4.6,0.4,2.3,0.7c-0.7,0-1.5,0-2.8,0.2c0-0.2-1.2-0.1-2.8-0.1l0.1-0.3
						c-1.6,0.1-1.5,0.3-2.5,0.5c-1.8,0-2.2-0.2-2.7-0.4c-2.9-0.1,2,0.4-1.5,0.5c-2.4-0.1-4.2,0-7.1,0.1c-1.7-0.2,0.3-0.2-0.3-0.3
						c-0.5,0.1-1,0.1-1.5,0.2c-0.4,0-0.2-0.1-0.2-0.1c-1.3,0-0.1,0.3-2.1,0.3c-0.6,0.3-4.1-0.8-6.6-0.7c-0.6-0.2,0.3-0.2,0.1-0.3
						c-3.4-0.1-2.9-0.1-5.8-0.1l-2.3-0.5c1.7,0.5-0.6,0.5-2.5,0.4c0.6,0.2,1.1,0.4,1.5,0.5l-3.1-0.3c-0.4-0.1,0-0.2,0.5-0.2
						c-0.2,0-0.4,0-0.6,0c-1.1-0.3-0.5-0.4,0.3-0.4c0.4,0.1,0.7,0.2,1.1,0.4c0.8-0.1,1.5-0.2,1.4-0.4c-0.2,0-0.6,0-1-0.1
						c0.2,0,0.3,0,0.3-0.1c-0.1,0-0.4,0-1,0l-0.6-0.5l-0.2,0.1l-4-1c-1.5-0.1-2.9-0.2-4.5-0.3c-1.6-0.2-3.4-0.4-5.7-1
						c1.2,0.1,0.3-0.3,0.5-0.6c1.1,0.7,3.5,0.8,5.8,1.4c-1.2-0.3-0.9-0.4-0.6-0.4l-4.2-0.8c0.2-0.2-0.8-0.4-1.9-0.8
						c0.3,0.3-0.5,0.2-1.5,0c-1.1-0.3-2.5-0.7-3.3-0.9c0-0.2,0.4-0.2,2.4,0.4c-2.1-1-3.1-0.3-5.2-1.4c0.5,0.2,0.8,0.3,1,0.3
						c-0.6-0.1-1.6-0.5-2.3-0.8s-1.2-0.6-0.9-0.5l0.5,0.2c-0.8-0.3-1.8-0.7-2.9-1.1c-1.1-0.4-2.2-0.9-3.2-1.3c-1-0.5-2-0.8-2.7-1.1
						c-0.7-0.3-1.2-0.5-1.4-0.4c0-0.1,0.6-0.2,0.9-0.2c-1-0.3-2-0.5-3.1-0.8c-1-0.3-2-0.6-3.1-0.9c0.7,0-0.7-1.8,1.9-0.6
						c-0.7-0.4-1.5-1-3-1.8c0.4,0.3,0.9,1.2,0.2,0.8c-1.6-1.4-1.1-1-3-2.7c0.6,0.5-0.5,0.5-1.5-0.3c0.2,0.1,0.3-0.5,0.7-0.3
						c-1-0.5-2-1-2.9-1.6c0.7,0.5,0.4-0.3,0-0.9c0.2,0.3-2.1-1.9-2.7-2.5c0.3,0.4,0.6,0.7,0.9,1.1c-0.7-0.6-1.1-1.1-1.6-1.5
						c-0.4-0.4-0.8-0.6-1.2-0.9c-0.7-0.6-1.5-1.2-2.5-2.7c0.3,0.3,1.2,0.5,0.2-1c-0.3-0.3-1.1-0.9-1.9-1.9c-0.4-0.5-0.9-1.1-1.2-1.8
						c-0.2-0.3-0.4-0.7-0.5-1.1c-0.2-0.4-0.3-0.8-0.4-1.2l0-0.7c-0.2-0.8-0.3-1.7-0.5-2.6c0.1,0.4,0.3,1,0.5,1.7
						c0.3,0.7,0.5,1.4,0.9,2.1c0.4,0.7,0.7,1.5,1.2,2.1c0.4,0.6,0.8,1.3,1.1,1.7c-0.5-1.3,0-0.4-0.8-2.2c-0.1-0.7,0.6,0.9,0.9,1.5
						c-0.6-1.4-1.1-2.9-1.3-4.4c-0.1,0.1-0.2-0.1-0.3-0.4c-0.1-0.3-0.2-0.7-0.3-1.2c-0.1-0.4-0.1-0.9-0.2-1.2s-0.1-0.5-0.2-0.5
						c0,0.4,0.1,0.8,0.1,1.3c0.1,0.4,0.1,0.8,0.2,1.2c0.2,0.8,0.4,1.6,0.7,2.4c-0.1,0.1-0.6-0.5-1-1.6c-0.1-0.3-0.2-0.6-0.3-0.9
						c-0.1-0.3-0.1-0.7-0.2-1.1c-0.1-0.8-0.1-1.6,0-2.5c0.2-0.8,0.6,0.7,0.7,0.6c-0.2-0.4,0.2-3.1,0.4-3.4c-0.1,0.5-0.1,0.9-0.1,1.4
						c0.4-1.7,0.3-3,1.5-5c0.4-0.7,1.5-1.8,1.4-2c-1,0.8-2.1,0.6-2-0.4c0.1-0.1,0.8-1,1.5-1.9c0.8-0.8,1.6-1.7,2-2
						c0.6-0.4,0.3,0.1,0.1,0.6c-0.2,0.5-0.4,1,0.1,0.7c0-0.1,0.3-0.7,0.5-1c0.6-0.6,0,0.4,1.2-0.9c-0.1-0.5,2.7-2.5,0.4-0.8
						c1.2-1.3,1.4-1.3,3-2.6c-0.3,0.1-0.1-0.3,0.4-1c0.5-0.6,1.3-1.4,2-2c0,0.1,0.4,0,0.5-0.1c0.8-0.5,1.5-0.9,2.1-1.3
						c0.7-0.4,1.3-0.7,1.9-1c1.2-0.7,2.4-1.3,3.9-2.1c0.3-0.1,1.8-0.7,1.3-0.3c0.4-0.3,0.8-0.6,1.7-1c1-0.3,0.5,0-0.1,0.2
						c-0.6,0.3-1.2,0.6-0.4,0.5c0-0.3,2.3-1.4,3.7-2.1c-0.5-0.1-3.2,1.3-4.5,2.1c-0.2-0.4,2-2,5.2-3.5c2.6-1.2,1.2-0.2,1.7-0.5
						c2.5-0.9,3.5-1.5,4.5-2c0.9-0.5,1.8-0.9,3.9-1.4c1.8-0.3,0.2,0.5,0.7,0.6c-2.2,0.8-3.4,0.9-4.9,1.4l1.9-0.5
						c-0.7,0.3-2.1,0.9-2.9,1.1c0.7-0.1,2.9-0.9,5.3-1.6c2.5-0.8,5.3-1.5,7.3-1.9c0.7-0.3,1.9-0.6,1.3-0.6l-1.3,0.4
						c-1.2,0.1,2.3-0.9,0.7-0.6c1.7-0.6,3.5-1.2,6-1.6l0.5,0.2c-0.1-0.1-1.6,0.2-2.3,0.4c1-0.4,3.8-0.4,4.8-1l-1.7,0.1
						c1.7-0.5,3.8-1.2,6-1.5c-1-0.1-0.5,0.1-2.1,0c1.4,0.2-5.5,1-3.3,1.1c-1.7-0.1-2.8,0.4-4.9,0.5c0.1,0.1,0.8,0-1,0.4
						c-0.1,0-0.3,0.1-0.4,0.2c-0.1,0-0.1,0-0.1,0c0,0,0.1,0,0.1,0c-0.1,0-0.1,0,0,0c0.4-0.1,0.8-0.1,1-0.1c-0.8,0.4-3.7,1.1-4.6,1.5
						c-1.1,0.2,0.4-0.2-0.2-0.2l-1.4,0.6c-0.2-0.2-2.9,0.4-0.5-0.4c-0.8,0.2-1.5,0.4-2.2,0.6c-1.3,0.3-3.2,0.8-4.2,1.2
						c-1.1,0.3-2.5,1.1-1.7,0.6c-1.1,0.4-2.3,0.9-3.4,1.4l0,0c-3.4,1.3-6.7,3.1-10.6,4.7c-1,0.6-2.1,1.3-3.9,2.3l-0.4,0
						c-1.3,0.9-4.1,2.4-4.5,3c-0.8,0.3-2.4,1.5-3.9,2.9c-1.5,1.4-3,3.1-3.9,4.2l0.1,0.2l-0.9,1.1c-0.3,0.4-0.5,0.8-0.8,1.3
						c-0.6,0.8-1,1.9-1.5,3l0.3,0c-0.3,1-0.9,2.2-1.4,3.7c-0.3,0.7-0.4,1.5-0.6,2.3c-0.2,0.8-0.2,1.6-0.2,2.5
						c-0.1-0.2,0-1.1,0.1-1.7c-0.5,2-0.2,4.2,0.4,6.2c0.6,2,1.4,3.8,2.2,5.4c0.2,0.4,0.4,0.7,0.6,1c0.2,0.3,0.3,0.6,0.5,0.8
						c0-0.1-0.1-0.1-0.1-0.2c0,0.1,0.1,0.2,0.2,0.3c0.2,0.3,0.4,0.7,0.6,1.1c-0.2-0.3-0.3-0.7-0.5-0.9c0.4,0.6,1,1.4,1.7,2.2
						l0.1,0.5c0,0.1,0.1,0.1,0.2,0.2c0.6,0.8,0.6,0.5,0.4,0c0.4,0.3,0.7,0.7,1,0.9c0.2,0.9,1.9,1.8,2.4,2.8c0.3,0.2,1.3,0.9,2.3,1.7
						c1,0.7,2,1.4,2.4,1.3c0,0.1,0.2,0.3-0.2-0.1c0.8,0.7,1.8,1.3,2.6,1.8c0.1,0.2,0.2,0.3,0.2,0.5l2.3,0.9c1.2,0.9,1.7,1.3,0.3,0.8
						c3.2,1.4,2.5,1.3,5.4,2.3l-0.2,0.1c1,0.5,2.6,0.9,3.1,1.4c1,0.7,3.7,1.8,6.9,3c3.2,1.2,6.9,2.4,9.8,3.3c-1-0.9,2.7,1,3,0.6
						c0.3,0.2,1.1,0.5,0.1,0.4c3,0.6,4.5,1.3,6.7,1.4c0.3,0.2-0.7,0.1-0.4,0.2c0.2,0,1,0.1,1.3,0.2c0.3,0.1-0.5,0-1,0
						c3.1,0.6,3.5,0.2,3.8-0.1c1.5,0.5,2.3,0.5,3.5,0.5c0.5,0.2,1.4,0.5-0.5,0.2c1.1,0.2,6.7,1.1,6.8,0.8c0.3,0.1,1.5,0.2,1.8,0.2
						c2.5,0.3,2.7,0.3,5.1,0.5l-0.7-0.1c1-0.3,2,0.1,4,0.2l-0.1,0c4.5,0.5,2,0,6.4,0.5l-0.2-0.2c0.4-0.5,3.9,0.4,6.5,0.2l-0.9-0.1
						c1.4-0.2,4,0.6,5.4,0.7c0.3,0-0.5,0.1-0.9,0.1c3.7,0.2,0.5-0.3,3.2-0.5c0.5,0.2-0.6,0.5,1.2,0.4c0.5,0,1.8-0.1,3.3-0.3
						c1.5-0.2,3.3-0.4,4.6-0.3c-0.6-0.1-1.1-0.2,0.2-0.4c2-0.1,5.3,0.1,7.1-0.4c0.2,0,0.3,0,0.4,0.1c1.5-0.2,4.8-0.6,5.7-0.9
						c1.5,0.7,9.2-1.5,9.3-0.8c1.5-0.2,3.1-0.4,4.6-0.7l-0.1,0.1c2.9-0.4,3.9-0.8,4.9-1.1c0.7-0.1,0.2,0.1,0.2,0.1
						c2.1-0.3,3.3-0.5,4.4-0.8c1.1-0.3,2-0.6,3.8-1.2l0.4,0.2c0.9-0.3,6.2-1,10.2-2.5c0,0-0.1,0.1-0.4,0.2c1.1-0.4,2.4-0.8,3.7-1.2
						c1.3-0.4,2.6-0.8,3.8-1.1c2.4-0.8,4.4-1.5,5-2.3c0.9-0.5,1.9-1,2.8-1.5c-3.8,1.5,0.4-0.6-1.2-0.1c1.4-0.7,3.9-1.5,2.1-0.6
						l-0.3,0.1c-0.2,0.4,0.9-0.1,2.2-0.7c1.2-0.6,2.5-1.3,2.5-1.1c3.5-1.9,6.9-4.1,10-6.5c3.1-2.5,5.8-5.4,7.8-8.7
						c-0.3,0.2-0.5,0.4-0.8,0.6c0.5-0.8,0.9-1.5,1.3-2.3c0.4-0.6,0.7-0.7-0.2,1c0.7-0.8,1.3-3,1.2-3.1c1.4-3.5-0.1,1.5,0.3,0.5
						l0.5-1.5l-0.2,0.3c0.2-0.6,0.2-1,0.2-1.5c0-0.5,0.2-1.1,0.4-2.2c0.3-1.4,0.4-0.7,0.4-1.3c0,0,0-0.2,0.1-0.9l0.1-0.9v-0.9
						c0-0.6,0-1.2-0.1-1.7c0,0.5-0.1,0.9-0.2,1.4c-0.1-0.8-0.2-1.5-0.2-2c-0.1-0.4-0.1-0.4-0.2,0.4c0.2-1.2-0.3-4.3-1.6-7.1
						c-1.2-2.8-3-5.2-3.3-5.8c-1.4-1.5-2.7-3.1-4.5-4.9c0.4,0.5,0.5,1-1.1-0.6c0.5,0-0.2-0.7-1.1-1.6c-1-0.9-2.2-2-2.8-2.7
						c0.5,0.6-0.7-0.3-1.9-1.1c-1.2-0.8-2.3-1.5-1.4-0.6c-1.5-1,0-0.3-1-1.1c-3.8-2.1-8.2-4.9-13.2-6.8c-0.1,0,0.7,0.5-0.4,0.2
						l-2.5-1.4c-1-0.3-1.1,0.2-2.8-0.8c0.2,0.2,0.6,0.4-0.1,0.2c-4.9-1.9-10.1-3.1-15.3-4c-5.3-1-10.6-1.6-15.8-2.5
						c1.4,0.3,0.5,0.2-0.6,0.1c0.7,0.1,0,0.2,0.1,0.3c-1.5-0.2-2.9-0.4-4.4-0.6c-0.4,0.1-1.6,0.1-2.7,0.1c-1.1,0-2.2,0-2.5,0.1
						l1.4,0c-0.9,0.2-0.3,0.4,0.5,0.6c0.8,0.2,1.9,0.5,1.7,0.8c2.1-0.4,5.4,0.9,8.8,0.6c0.7,0.2-0.7,0.1-0.3,0.2
						c0.9-0.1,1.9-0.1,3.8,0.2l-0.2,0c5.4,0.6,7.6,1.2,13.5,2.5l-0.4-0.3c1.3,0.3,1.5,0.4,2.1,0.6c0.8,0-0.1-0.2-1-0.5
						c-0.9-0.2-1.8-0.4-1.1-0.5c0.8,0.4,3,0.9,5.2,1.5c1.1,0.3,2.1,0.6,3,0.9c0.8,0.3,1.5,0.6,1.7,0.8c1.9,0.6-0.5-0.4,1.4,0.2
						l0.5,0.3l0.5,0c1.2,0.5,1.8,0.9,1.8,1c-0.3-0.1-0.9-0.3-1.2-0.4c1.5,0.7,4.5,1.6,5,1.9c-0.6-0.3-1.2-0.5-1.8-0.8
						c5.2,1.8,11,4.9,15.5,7.6L198,45c1.7,1,2.4,1.5,3,2.1c0.3,0.3,0.7,0.5,1.1,0.9c0.5,0.4,1,0.9,1.9,1.6l-0.1-0.1
						c0.7,0.5,1.7,1.2,2.5,2.1c-0.9-0.7,1.3,1.7,0.2,0.7c0.8,0.7,1.3,1.2,1.6,1.5c0.3,0.3,0.5,0.5,0.6,0.6c0.3,0.2,0.5,0.3,1.5,1.3
						l0.2,0.6c0.4,0.3,0.5,0.5,0.8,0.9c0.3,0.3,0.7,0.8,1.2,1.7c-1-1.5,0.5,1.4-0.7-0.3c0.5,1,0.9,1.9,1.3,2.7
						c0.4,0.8,0.7,1.5,1,2.1c0.5,1.3,0.9,2.3,0.8,3.3c0.5,1,0.3,0,0.1-1.1c-0.3-1-0.7-2.2-0.5-1.7c-0.1-0.5,0.2-0.1,0.4,0.6
						c0.1,0.3,0.3,0.8,0.4,1.2c0.1,0.4,0.2,0.9,0.3,1.2c0.2,1.5-0.1,2.5-0.4,6.1c0-0.3,0-0.4,0-0.7c-0.1,0.7-0.2,1.3-0.2,2
						c0,0.7-0.3,1.4-0.6,2.2c0,1-0.7,2-0.5,2.4c0.4-1,0.8-2.1,1-3.2c-0.3,1.8-0.5,3.8-2.3,6.4c0-0.3,0.5-1.1,0.7-1.7
						c-0.5,0.8-0.8,1.6-1.4,2.3c-0.1-0.2,0.4-1.1,1-2.2c0.3-0.5,0.5-1.2,0.8-1.7c0.2-0.6,0.4-1.2,0.5-1.7c-0.3,0.4-0.5,1.3-0.8,2
						c-0.3,0.7-0.5,1.1-0.4,0.5c0,0.8-0.5,1.5-1,2.4c-0.3,0.4-0.6,0.8-0.9,1.3c-0.2,0.2-0.3,0.5-0.5,0.7c-0.2,0.2-0.3,0.5-0.5,0.8
						l-0.1-0.3c-0.2,0.3-0.6,1-1.1,1.6c0.2-0.4,0.4-0.8,0.6-1.2c-1,1.7-2.7,2.7-4,4c2.9-2.7,0.9-0.4,2.2-1.5
						c-0.8,0.9-1.4,1.5-1.9,1.8c-0.5,0.3-0.8,0.5-1.2,0.7c-0.4,0.2-0.7,0.4-1.3,0.7c-0.6,0.3-1.3,0.8-2.4,1.7
						c0.6-0.5,2.4-1.5,1.5-0.8c-0.9,0.6-2.1,1.3-2.7,1.5c-3.1,2,0.6-0.1-0.6,0.9c-1.2,0.4-1.5,1-2.9,1.9l-0.1-0.2
						c-1.9,0.9-2.1,1.2-2.2,1.4c-0.2,0.2-0.2,0.4-2,1.2l1.3-1l-1.8,0.9l0.3-0.4c-1.9,1.1-2.5,1.3-4.5,2.1c0.5,0-0.1,0.5-1.9,1.2
						c-1.3,0.3,0.6-0.5-1.9,0.5c0.5-0.4,1.1-0.8,2.2-1c0.1-0.1,0.5-0.3,0.6-0.5c-1.4,0.3-3.2,1.2-4.2,1.5c0.4-0.1,0.8-0.2,1-0.3
						l-3.6,1.6c-0.6,0.1-0.2-0.1,0.3-0.3c-0.7,0.3-1.2,0.5-2.3,0.9c0.2-0.3,0.1-0.5,1.6-1l-3.5,1.3c-0.3,0-1.9,0.3-1.5,0.1
						c-1,0.2-2.2,0.6-3.5,1.1c-1.3,0.4-2.7,0.8-4,1.1c-0.1,0.1-0.4,0.2-1,0.3c-2.5,0.5-4.8,0.8-7.7,1.5l-1.8,0
						c-2.3,0.5,2.4,0.1-1.5,0.8c-2.8,0.6-1.1-0.1-2.1-0.1c-1.3,0.4-3.7,1.1-6.3,1.2C147,109.9,147.6,109.9,148.4,109.7z
						 M119.1,112.5c0.6-0.1,1.7-0.3,2.1-0.2C120.6,112.7,120.1,112.6,119.1,112.5z M74.6,110.4c0.4,0,1.1,0.2,1.8,0.4
						C75.8,110.7,75.2,110.6,74.6,110.4z M58.4,39.8C58.4,39.8,58.4,39.8,58.4,39.8C57.1,40.1,57.5,40,58.4,39.8z M61,39.1
						c0.2-0.1,0.2-0.1,0.1-0.1c-0.2,0.1-0.7,0.3-1.4,0.5C59.9,39.5,60.2,39.4,61,39.1z M217.1,73l-0.1,0.5
						C217,72.3,217.1,72.6,217.1,73z"/>
					<path class="st0" d="M79.6,111c0.2,0.1,0.2,0.1,0.2,0.2C80.1,111.1,80.1,111.1,79.6,111z"/>
					<path class="st0" d="M166.3,106.3L166.3,106.3c0.1-0.1,0.2-0.1,0.2-0.1L166.3,106.3z"/>
					<path class="st0" d="M26.3,60c-0.4,0.4-0.6,0.6-0.8,0.7C25.6,60.8,25.7,60.6,26.3,60z"/>
					<path class="st0" d="M74.7,35.5L73,35.8c0.8-0.2,1.1-0.2,1.5-0.2C74.5,35.6,74.1,35.5,74.7,35.5z"/>
					<path class="st0" d="M89.5,34.7c0.2-0.1,0.5-0.1,0.8-0.1l-0.1-0.1C89.1,34.6,88.4,34.8,89.5,34.7z"/>
					<path class="st0" d="M76.4,35.9c0.2,0.2,1.2-0.1,2.4-0.3l-0.2,0C78.8,35.3,77.6,35.6,76.4,35.9z"/>
					<path class="st0" d="M79,35.6c0.4-0.1,0.7-0.1,1.1-0.2C80.2,35.2,79.7,35.4,79,35.6z"/>
					<path class="st0" d="M64.2,38.1c0.6-0.1,0.3-0.3,0.6-0.3C65.4,37.3,61.2,39,64.2,38.1z"/>
					<path class="st0" d="M77.4,36.4L77,36.2l-0.6,0.3C76.7,36.5,77.1,36.5,77.4,36.4z"/>
					<path class="st0" d="M68.2,38.1c0.6-0.1,1.2-0.2,1.9-0.4c0,0,0.2-0.1,0.5-0.2C69.4,37.8,68.1,38.1,68.2,38.1z"/>
					<path class="st0" d="M70.5,37.6c0.6-0.1,1.2-0.3,1.5-0.4C71.7,37.3,71,37.5,70.5,37.6z"/>
					<polygon class="st0" points="74.9,37 74.3,37 73,37.3 					"/>
					<path class="st0" d="M48.7,44.2c-0.6,0.3-1.3,0.6-1.9,0.9c-0.2,0.2,0.4,0,1.1-0.3C48.3,44.5,49,44.2,48.7,44.2z"/>
					<path class="st0" d="M54.8,42.7c-0.5,0.1-0.6,0.1-0.9,0.1l0,0.3L54.8,42.7z"/>
					<path class="st0" d="M49.2,44.8c-0.2,0.2-2.7,1.4-0.3,0.4C49.1,45,51,44.2,49.2,44.8z"/>
					<path class="st0" d="M23.7,62c0.1-0.1,0.2-0.3,0.3-0.4l-0.5-0.2C23.6,61.5,23.6,61.7,23.7,62z"/>
					<path class="st0" d="M26,86.4c-0.7-1-0.8-1-1-1.1c-0.1,0-0.3,0-0.8-1c-0.2-0.2,0,0.2,0.2,0.6c0.2,0.4,0.5,0.7,0.2,0.5
						C25.7,86.5,26.1,87.1,26,86.4z"/>
					<path class="st0" d="M24.7,85.4c-0.2-0.2-0.3-0.3-0.5-0.5C24.5,85.2,24.7,85.3,24.7,85.4z"/>
					<polygon class="st0" points="139.8,27.6 138.3,27.5 139.3,27.7 					"/>
					<path class="st0" d="M136.8,27.9l-0.4-0.3l-1,0.3C135.8,27.9,136.5,27.9,136.8,27.9z"/>
					<path class="st0" d="M114.7,112.1l-0.1,0.1c0.2,0.1,0.6,0.1,1.3,0L114.7,112.1z"/>
					<polygon class="st0" points="136,110.9 135.7,111 136.4,111.2 					"/>
					<path class="st0" d="M153.7,108.3c-0.7,0.1-1.6,0.3-2.3,0.4C153,108.4,154,108.6,153.7,108.3z"/>
				</g>
			</g>
		</g>
	</g>
</g>
</svg>
