<?xml version="1.0" encoding="utf-8"?>
<!-- Generator: Adobe Illustrator 25.2.3, SVG Export Plug-In . SVG Version: 6.00 Build 0)  -->
<svg version="1.1" xmlns="http://www.w3.org/2000/svg" xmlns:xlink="http://www.w3.org/1999/xlink" x="0px" y="0px"
	 viewBox="0 0 235.2 294.8" style="enable-background:new 0 0 235.2 294.8;" xml:space="preserve">
<style type="text/css">
	.st0{fill:none;stroke:#000000;stroke-miterlimit:10;}
</style>
<g id="Layer_1">
</g>
<g id="Layer_2">
	<path class="st0" d="M90.6,213.7c-1.5-0.2-3.4-0.6-5.6-1.3c-6.8-2-19.2-7.6-19.9-13.6c-1.4-11.8,44.4-28.7,46.6-24.9
		c0.7,1.2-5.4,3.9-8.3,10.6c-2.4,5.6-5.7,18.5,1.8,24.8c6,5,16.8,4.1,21.5-1c3.6-4,3.7-10.8,2-17.3c-1.7-6.1-5.4-11.5-10.4-15.5
		c-0.8-0.6-1.3-1.2-1-1.6c1.2-2.2,15.1,1.4,20.9,3.7c7.1,2.8,17.8,8.5,28.8,20.9c0.9,1,0.9,2.6-0.1,3.5
		c-4.7,4.8-11.4,10.5-20.4,15.2c-4.9,2.6-14.9,7.7-28.9,8.7c-13.2,1-23.2-2.1-25.5-2.9c-18.2-5.9-27-18.1-30.2-15.6
		c-2.1,1.6,0.3,7.9,2,12.5c2.2,5.7,6.2,16.2,16.1,24c16.6,13,42,12.2,42,12.2c0,0,0,0,0,0c18.4,0,36.6-10,47.2-25.1
		c3.1-4.5,9-14.1,10.2-27.4c0.8-8.7-0.7-15.4-1.3-17.9c-0.8-3.3-4.5-16.8-16.2-27c-3.7-3.2-7.9-5.4-15.9-10.6
		c-4.1-2.7-8.3-5.3-12.3-7.9c-2.8-1.9-6.1-4.5-9.4-8.3c-2.9-3.3-5.1-6.5-6.6-9.4c-0.9-1.7-3.3-1.8-4.4-0.3c-2.1,3-5,6.5-8.7,10.1
		c-4.6,4.4-7.8,6.3-19.2,14c-10,6.8-15.1,10.3-17.6,12.3c-1.5,1.2-11.2,9.3-19.3,20.9c-2.6,3.7-4.3,6.8-5.4,10.9
		c-1.4,5.5-0.6,9.6-1.1,9.6c-1.1,0.1-1.4-20.7-12.3-41.4c-6.8-13-14.5-19.6-21.2-23.3L7.2,135c-1.7-1-1.8-3.4-0.1-4.5
		c1.1-0.7,2.2-1.4,2.9-1.8c4.1-1.2,9.9-2.4,16.8-2.1c12.9,0.6,22.3,5.9,26.7,8.9"/>
	<path class="st0" d="M139.9,114.9c-1.7,0.4-3.6,0.1-4.9-0.9c-1.5-1.1-2-2.9-2.2-3.5c-2.3-8.6,0.3-82.2-0.1-91.4c0-0.3,0-1.1-0.3-2
		C130.5,11,121.1,6,112.4,7.5c-7.7,1.4-13.5,7.7-15,13.8c-0.4,1.8-0.4,3.4-0.4,4.1c0,0.2,0,0.4,0,0.5c0.9,10.3,0.4,26.6,0.4,26.6
		C97.2,65,98,103,97.6,109.3c0,0.4-0.1,1.5-0.9,2.6c-1,1.3-2.7,2-4.3,1.9c-2.1-0.2-4-1.9-4.7-4.3c-0.1-0.2-0.1-0.4-0.1-0.7
		c-0.1-23-0.2-46.1-0.3-69.1c0-0.2,0-0.4-0.1-0.6c-0.4-1.6-2.1-6.8-7.4-10.1c-4.9-3-9.7-2.4-11.1-2.2c-1.4,0-5.8,0.3-9.9,3.6
		c-4.5,3.6-5.5,8.5-5.8,10c0,0.1,0,0.3,0,0.4c0.2,73.4,0.3,94.8,0.3,94.8c0,0,0.2-0.4,0-0.5"/>
	<path class="st0" d="M42.1,207.5c3.1,10.8,3.5,30.8,15.9,49.9c3.2,5,8.1,12.4,17.4,18.4c12.6,8.2,26.7,13,37.8,13.3
		c14,0.3,30.4-3.6,46.5-15.3c14.4-10.5,20.4-25.6,23.1-32.4c3.3-8.3,5.4-17.8,7.4-26.7c1.9-8.4,1.8-9.7,4.2-20.5
		c0.8-3.4,2.8-12.3,6.3-23.5c2.9-9.3,4.6-13.6,7.7-18.1c1.3-1.9,3.6-4.8,6.2-7.6c2.8-3.1,4.2-4.6,6.6-6.4c3.9-2.9,5.8-3.1,5.9-4.5
		c0.2-2.6-6-5.2-8-6c-3.6-1.5-10.4-4.2-19.7-3.3c-7.8,0.7-14,3.6-18.1,6.1c-0.4,0.2-1.5,0.6-2.4,0.2c-1.1-0.5-1.4-1.9-1.5-2.4
		c-1.6-6.5,0.5-89.4,0.5-89.7c0-0.4-0.1-0.7-0.2-1c-0.4-1-1.1-2.3-2.1-3.6c-4.8-6.1-15-9.4-23.2-5.4c-5.5,2.7-8,7.7-9,9.9
		c0,0-0.1,0.5-0.2,1.1c-1.1,8.5,3,67.6,0.7,72c-0.6,1.1-1.5,1.9-1.5,1.9c-0.9,0.8-1.9,1.1-2.6,1.2"/>
</g>
</svg>
