<?xml version="1.0" encoding="utf-8"?>
<!-- Generator: Adobe Illustrator 25.2.3, SVG Export Plug-In . SVG Version: 6.00 Build 0)  -->
<svg version="1.1" id="Layer_1" xmlns="http://www.w3.org/2000/svg" xmlns:xlink="http://www.w3.org/1999/xlink" x="0px" y="0px"
	 viewBox="0 0 792 612" style="enable-background:new 0 0 792 612;" xml:space="preserve">
<style type="text/css">
	.st0{fill:none;stroke:#000000;stroke-miterlimit:10;}
</style>
<g id="Layer_1_1_">
</g>
<g id="Layer_2_1_">
	<path class="st0" d="M74.7,390.1h72.8l169.5-108.9l11.2,7.5c13.2,18.4,23,31.9,30.1,41.6c1.4,1.9,2.6,3.8,3.9,5.3
		c11.9,14.1,16.3,19.3,16.4,19.2c0.4-0.2-26.7-33.9-50-80.9c-22-44.1-21.7-58.1-21.5-63.3c1.3-23.6,14.4-56.8,46.6-70.1
		c36.8-15.2,70.2,7.1,72.2,8.5c3.6,2.5,25.6,18.3,31,46.6c3.5,18.1-1.4,33.2-7.5,48.7c-9.6,24.3-26.8,61.2-58.2,104.9l31.7-36.4
		l55.1-4.1l86.8,58.9l-82,88.5l10.2-20.1c-3.4-0.1-9.1-0.8-15.3-3.7c-2.7-1.3-8.8-4.6-13.6-10.9c-6.5-8.5-7.9-18.8-10.2-36.1
		c-1-7.7-1.1-11.7-4.4-16c-3.4-4.3-7.8-6.1-14-8.5c-14-5.4-20.2-3.2-22.5-7.5c-2.7-5,3.4-13.1,7.1-18c3.3-4.4,10.5-13.9,21.8-15.7
		c5.3-0.8,7,0.8,16.3,0c5.3-0.5,9.5-1.4,12.3-2L348.7,450l-119.5-0.7l-72.2-54.5l160.3-105.5l52.4,38.5
		c-23.9-60.3-34.2-85.8-36.4-90.7c-0.1-0.3-0.7-1.5-1.4-3.2c0,0-2.8-7.1-4.1-14c-1.1-5.9-4.2-31.6,13.7-50.5c0.5-0.5,0.9-1,1.6-1.6
		c14.9-14,42.8-15.5,63-3.7c3.2,1.9,25.2,15.2,27.2,41.2c1.7,21.6-11.3,41.7-30,50.7c-27.5,13.3-53.4-4.1-54.8-5.1
		c-21.9-15.2-31-45.9-20.3-68.9c9.5-20.3,30.9-26.9,36.4-28.6c5.6-1.7,23.1-6.2,42.5,1.7c12.8,5.2,20.4,13.4,22.5,15.8
		c17.3,19.7,15.1,44.4,14.5,50.2c-0.9,9.3-4.2,17-10.5,32.2c-8.4,20.2-15.8,32.4-34.9,65.9c-4.5,7.9-11.5,20.3-20.3,35.7l-93.3-51.1
		l-70.8,46l110.6,7.1l32.7-24.5l3.1,4.9L284.3,397L224,357.9l-53.4,34.7l59.2,43.4l1.8,0.8l41.4-32.2l6.6,4.6l15.1-2l-7.1,34.5
		l-47.5-0.5l50-42.9l84-0.5L378,362l8.2-3.8l-2,36l-0.5,2h7.4l-43.9,48.3l-50.8-0.8l8.9-36.5l91.5-0.8l81.6,53.6l-35,39.6l-86-50.5
		l-4.1,4.1l86.5,53.9c63.8,0,127.7,0,191.5,0"/>
</g>
</svg>
