<?xml version="1.0" encoding="utf-8"?>
<!-- Generator: Adobe Illustrator 25.2.3, SVG Export Plug-In . SVG Version: 6.00 Build 0)  -->
<svg version="1.1" xmlns="http://www.w3.org/2000/svg" xmlns:xlink="http://www.w3.org/1999/xlink" x="0px" y="0px"
	 viewBox="0 0 552.9 423.5" style="enable-background:new 0 0 552.9 423.5;" xml:space="preserve">
<style type="text/css">
	.st0{fill:none;stroke:#000000;stroke-miterlimit:10;}
</style>
<g id="Layer_1">
</g>
<g id="Layer_2">
	<path class="st0" d="M541.6,383.8L281.2,381l67.9-86.5c1.9-2.6,1.4-6.2-1.2-8.1l-21.2-14.1c-5.8-4.2-12.3-7.5-19.2-9.5L161,219
		c4.2,6.5,2.6,13.6-1,15.7c-4.2,2.4-11.6-1.8-13.3-7.1c-0.3-0.9-0.8-2.7,0-4.1c1.7-2.9,8.3-3.1,16.7,0c4.1,4.8,10.3,11.2,18.7,17.7
		c19.8,15.2,34.6,17.1,34,19.7c-1,4.4-41.5-4-51.1-13.3c-1.2-1.2-4.2-4.1-3.4-5.8c0.6-1.3,3.2-1.4,4.4-1.4c7.7,2,15.4,4.1,23.1,6.1
		L306.6,280c2,0.6,4.1-0.4,4.9-2.3l3.6-8l1,8.3c0.7,1.1,1.8,2.6,3.6,3.9c2.5,1.7,5.1,2,8.3,2.3c3.7,0.3,8.4,0.5,13.9,0.5
		c-0.7,3-1.3,5.9-2,8.9c-12.9,5.1-36.1,16.3-56.5,39.8c-12.5,14.4-19.9,28.9-24.3,39.7c-0.4,1.1-1.8,1.4-2.6,0.6L82,218.5
		c-1.1,1.8-2.6,3.9-4.6,3.9c-3.7,0.1-3.9-7-10.6-12.4c-3.8-3.1-5.1-1.8-18.6-8.2c-3-1.4-4.6-2.2-5.8-2.8
		c-10.9-6.2-19.3-18.3-17.2-20.8c1.9-2.4,13.5,3.2,20.7,8.2c4.6,3.2,7.8,6.4,11.8,10.4c9.1,9.2,12.4,14.9,13.1,14.5
		c1-0.6-3.2-13.5-12.9-23.9c-8.2-8.9-17.8-13.4-24.9-15.7c-1.4-0.5-1.9-2.2-0.9-3.3L156.8,16.7c1.2-1.4,3.3-1.5,4.6-0.3l36.6,34.8
		c2.5,2.4,2.8,6.3,0.6,9L78.9,211.6c-0.8,1.1-0.4,2.7,0.8,3.2l0.7,0.3c1.7,0.7,3.8,0.2,4.9-1.3l121-154.4c1.7-2.2,4.8-2.5,6.9-0.7
		L410,226.7c1.8,1.6,2.1,4.3,0.6,6.1L277,396.8c-1.5,1.8-4.1,2-5.9,0.5l-12.8-11c-2-1.7-4.5-2.7-7.1-2.8
		c-31.2-0.8-226.3-1.1-226.3-1.1"/>
</g>
</svg>
