<?xml version="1.0" encoding="utf-8"?>
<!-- Generator: Adobe Illustrator 25.2.3, SVG Export Plug-In . SVG Version: 6.00 Build 0)  -->
<svg version="1.1" id="Layer_1" xmlns="http://www.w3.org/2000/svg" xmlns:xlink="http://www.w3.org/1999/xlink" x="0px" y="0px"
	 viewBox="0 0 303.6 192.8" style="enable-background:new 0 0 303.6 192.8;" xml:space="preserve">
<style type="text/css">
	.st0{fill:none;stroke:#000000;stroke-width:0.75;stroke-miterlimit:10;}
</style>
<g>
	<g>
		<path class="st0" d="M246.3,103.9c0.2-0.5-9.7,27.4-73.8,30.8c0,0-37.5,3.7-57.9-1.1c0,0-20.2-3.6-31.4-5.2c0,0-36.5-7-39.2-24.9
			c0,0-12.7,5.5-7.1,12.9c0.3,0.4,0.8,0.6,1.1,1c0.9,0.9,4,2.8,14.5,1.9c0,0,8.2,4.9,3,7.7c0,0-12.7,3.8-28.7-6.8
			c0,0-7.6-4.9,0.5-14.1c0,0,6.8-10.3,16.2-6c0,0,4.8,15.4,12.2,18.1l14.5,30.3c0,0,6.2,14.4,18.3,19.8c0,0,16.4,9.8,46,11.9
			c0,0,49,2.8,77.3-12.3c1.7-0.9,3.1-2.1,4.2-3.4c3.3-3.8,9.7-12.4,10.2-22.1l0.1-1.3l6.8-2.9c0,0-4,23.3-13.9,30.4
			c-0.5,0.4-1.1,0.8-1.5,1.2c-2.3,2.1-12.7,9.4-45.8,11.7c0,0-21.8,3.9-47.2,1c0,0-17.3,0.3-35.8-9.8c0,0-18.8-16-20.4-15.3"/>
		<path class="st0" d="M198.9,75c9.4,1.8,18.9,4,28.7,6.9c5.6,1.6,14.8,6.5,18.4,11.6c4.2,6-4.1,22.6-4,22.2
			c-0.7,1.1-4.2,11.7-4.2,11.7c24.5-3.7,30.2-8.1,30.2-8.1c8.2-4.9,2.4-7.8,2.4-7.8c-2.4-2.2-14.6-2.4-14.6-2.4s-9-0.8-9.2-3.9
			s4.8-3.5,4.8-3.5c28.9,2.5,28.7,17.1,28.7,17.1c0.6,7.6-9.9,11.6-9.9,11.6c-3.1,1.8-9.8,2.7-9.8,2.7l-29.3,1.8
			c-5.1-0.1-1.7-1.4-1.7-1.4c3.2-1.2,7.5-5.7,7.5-5.7c-11.5,0.3-16.4,7.6-16.4,7.6c-0.8,1.1-1,3.9-0.8,5.3c0.2,1.1,1.6,1.7,2.9,1.4
			l3.2-0.8"/>
		<path class="st0" d="M44.6,100.1"/>
	</g>
	<g>
		<path class="st0" d="M102.1,45.4c0,0-63.4,34.6-58.5,61c0,0,6.3,20,39.6,16.3c0,0,27.4-5,60.4-18.3c0.2,0.4,87.4-36.8,90.5-66.5"
			/>
		<path class="st0" d="M234.3,38.6c-1-4.1-2.5-9.2-5-12.2c0,0-6.9-9.8-24.8-11c0,0-41.8-3-66,13.5c0,0-4.5,3.5,1,0.9
			c0,0,10.4-2.2,7.3,6.9c0,0-2.7,11.3-19.7,19.5c0,0-14.3,8.5-26.4,8.9c0,0-12.2-0.7-9.9-7c0,0,1.7-5.1,9.2-8.6c0,0,3.2-2.1-0.2,1.4
			c0,0-4.4,6.9,3.2,6.5c0,0,4.8,2.1,17.4-3.9c0,0,14.5-6.5,17.1-10c0,0,4.1-6,2.8-8.1c-1.3-2.2-4.4-1.4-6.1,0.4s-0.6,0.5-0.6,0.5
			s-5.5,8.8-7.6,9.8s-9.3,6.2-15.9,4.3c0,0-3.7-1.5-5-4.4c0,0-7.8,0.3-9.6-2.9c0,0-2.4-3.3,2.4-6.4c0,0,11.1-10.3,18.5-12.7
			c0,0,14.8-8.2,17-1.7c0,0-0.7,1.6-2.4,4c-3.6,4.8-11.6,12.7-27.4,15.6c0,0-5.7,1.2-1.9-3.3c0,0,21.2-19.4,28.5-12.9
			s-7.4,18-7.4,18s-4.2,2.6-7.8,2.6s-9.3-1.6-9.7-0.3"/>
	</g>
</g>
</svg>
