<?xml version="1.0" encoding="utf-8"?>
<!-- Generator: Adobe Illustrator 25.2.3, SVG Export Plug-In . SVG Version: 6.00 Build 0)  -->
<svg version="1.1" id="Layer_2_1_" xmlns="http://www.w3.org/2000/svg" xmlns:xlink="http://www.w3.org/1999/xlink" x="0px" y="0px"
	 viewBox="0 0 368.2 227.2" style="enable-background:new 0 0 368.2 227.2;" xml:space="preserve">
<style type="text/css">
	.st0{fill:none;stroke:#000000;stroke-miterlimit:10;}
</style>
<path class="st0" d="M19.7,185.7l-6.4-70.6c-0.4-4.8-0.7-9.5-0.7-14.3c-0.2-17.7-1.7-55.9,8.3-71.3c2.5-3.9,6.9-6.3,11.5-6.5
	L87,20.7l212-3.9c0,0,32.1-1.7,32.2,20.3l4.9,53c0.8,8.5,1,17,0.7,25.5c-0.8,22.3-2.7,66.1-4.4,70c-2.9,6.5-1.8,14.7-23.7,19.8
	c-1.2,0.3-2.4,0.5-3.7,0.6c-15.5,1.4-132.9,11.5-218,5.5c0,0-62.5,2.4-58.4-32.5c0.3-2.3,0.5-4.5,0.6-6.8L33.8,57
	c0-1.1,0.1-2.2,0.1-3.3c-0.1-4,2-23.1,50.4-24.5c0,0,126.5-10.3,209.2-1c1.9,0.2,3.8,0,5.6,0.3c7.8,1.6,22.6,3,22.2,32.7
	c0,0,6.8,105,3.2,118c0,0,1.8,14.6-38.4,13.9c0,0-44.6,3.3-50.1,2.6c0,0-103.6,0-104.5,1.2c0,0-53.7,3.8-57.4,4.1
	c0,0-27.2,3.2-29.5-15.8c0,0-0.9-15.3,21.9-21.3c0,0,49.3-11.8,51-12.4c1.9-0.7,8.4-0.5,9-15.9c0.1-3.2,0.4-6.3,1-9.5
	c2.5-14.3,9.3-51.3,12.5-54.3c0,0,4.3-7.6,35.1,10l53.9,26c0,0,7.7,3.7,2.9,9.4c-1.3,1.6-3.1,2.7-5.1,3.3
	c-12.2,3.8-71.9,22.3-90.4,25.5c-5.3,0.9-10.2-3.3-10-8.7c0-0.1,0-0.2,0-0.3"/>
</svg>
