<?xml version="1.0" encoding="utf-8"?>
<!-- Generator: Adobe Illustrator 25.2.3, SVG Export Plug-In . SVG Version: 6.00 Build 0)  -->
<svg version="1.1" id="Layer_1" xmlns="http://www.w3.org/2000/svg" xmlns:xlink="http://www.w3.org/1999/xlink" x="0px" y="0px"
	 viewBox="0 0 916.1 474.2" style="enable-background:new 0 0 916.1 474.2;" xml:space="preserve">
<style type="text/css">
	.st0{fill:none;stroke:#FCB331;stroke-width:2;stroke-miterlimit:8;}
</style>
<path class="st0" d="M740.6,155.8c50-1.1,74.2,15.5,85.2,31.6c2,5.6-2,16,0,25.3c2,9.3-1.9,19.5,0,25.3c1.9,5.8,0.9,14.6,0,21.5
	c-0.9,6.9,1.6,15.4,0,22.8c-1.6,7.3-3.3,16.8,0,31.6c-0.4,18.2-38.2,30.6-85.2,31.6c-22.9,0.6-34.5-0.9-62,0
	c-27.6,0.9-45.2,0.8-78.5,0c-33.4-0.8-42.8,0.6-84,0c-41.3-0.6-50-1.4-89.5,0c-39.5,1.4-57-0.1-73,0c-16.1,0.1-53.8,1-67.5,0
	c-13.7-1-61.5,1.5-95,0c-48.7-1.8-79-17.5-85.2-31.6c-1.8-7,1.9-14.2,0-21.5c-1.9-7.3,1.1-11.6,0-22.8c-1.1-11.2,1.8-17.5,0-26.6
	c-1.8-9.1,1-20.8,0-26.6c-1-5.8,2.3-22.3,0-29.1c3.7-19.4,39.2-31.5,85.2-31.6c28.6-1.1,44-1.3,73,0c29,1.3,65.3,1.1,89.5,0
	c24.2-1.1,35.1,0.2,62,0c26.9-0.2,39.3,0.5,62,0c22.7-0.5,35.3,0.9,62,0c26.7-0.9,58.3,1.1,89.5,0
	C660.3,154.7,708.3,154.7,740.6,155.8z"/>
</svg>
