<?xml version="1.0" encoding="utf-8"?>
<!-- Generator: Adobe Illustrator 25.3.1, SVG Export Plug-In . SVG Version: 6.00 Build 0)  -->
<svg version="1.1" id="Layer_1" xmlns="http://www.w3.org/2000/svg" xmlns:xlink="http://www.w3.org/1999/xlink" x="0px" y="0px"
	 viewBox="0 0 571 567.7" style="enable-background:new 0 0 571 567.7;" xml:space="preserve">
<style type="text/css">
	.st0{stroke:#231F20;stroke-width:36;stroke-miterlimit:10;}
</style>
<g>
	<g>
		<g>
			<g>
				<g>
					<path class="st0" d="M495.2,288.2c0,1.9,0.9,1.2,1.1,1.5C496,286.5,495,288.3,495.2,288.2z"/>
					<polygon class="st0" points="490.3,257.5 490.8,257.9 489,253.6 					"/>
					<path class="st0" d="M483.1,229.5c-0.2,0.8,0.1,1.7,0.3,2.9c0.3,1.1,0.8,2.5,1.3,3.8c0.5,1.4,1.1,2.8,1.6,4.2
						c0.5,1.4,0.8,2.8,1,4.1l-0.1,0.9l1.8,2C487.3,241.4,484.1,233.8,483.1,229.5z"/>
					<path class="st0" d="M480.6,213.8c-0.2,1.1-1.8-2.9,1.2,3.4c-0.1-0.4-0.1-0.5-0.1-0.7C481.5,216,481.2,215.2,480.6,213.8z"/>
					<path class="st0" d="M481.7,216.6C483,219.4,481.5,214.5,481.7,216.6L481.7,216.6z"/>
					<path class="st0" d="M475.5,203.8l2.3,3.4c0-0.9-1.5-4.2-0.7-3.1C474.8,200.5,474.9,201.5,475.5,203.8z"/>
					<path class="st0" d="M472.6,201l1.2,1.7C473.8,202.3,473.6,201.8,472.6,201z"/>
					<path class="st0" d="M476.3,206.4c-0.8-1.3-1.6-2.5-2.4-3.8c0,0.6-0.4,0.9,1.1,1.7C474.4,204.3,475.1,204.9,476.3,206.4z"/>
					<path class="st0" d="M477.1,208.8c0.7,2.2,1.7,4.9-0.5,1.5c1.8,3.4,2.7,4.8,2.8,4.5c0.1-0.2-0.1-0.8-0.4-1.8
						C478.7,211.9,478,210.6,477.1,208.8z"/>
					<path class="st0" d="M481.1,228.7l0.6,3c0.5,0.7,0.9,1.5,1.3,2.3C482.4,232.8,481.5,228.4,481.1,228.7z"/>
					<path class="st0" d="M463.1,181.6c-0.4,0,0,1.6-0.2,2.1l2,2.3C464.3,184.6,462.8,182.1,463.1,181.6z"/>
					<path class="st0" d="M463,183.8l-3-3.4C462.2,183.7,462.8,184.2,463,183.8z"/>
					<path class="st0" d="M470.7,201.2l2.3,2.9c0.8,1,1.4,2,2.2,3c-1.6-2.5-3.4-4.8-5.1-7.1L470.7,201.2z"/>
					<polygon class="st0" points="452.8,167.9 455,169.3 451.2,166.6 					"/>
					<path class="st0" d="M445.2,159.4c1.8,1-1-2.7,0.7-1.4c-1.1-1.1-2.2-2.1-3.3-2.9c-1.1-0.8-2.2-1.5-3.2-2.2c1,0.8,2,1.7,3,2.7
						C443.3,156.6,444.2,157.9,445.2,159.4z"/>
					<path class="st0" d="M436,150.6c1,0.8,2.1,1.5,3.3,2.3C438.3,152,437.2,151.2,436,150.6z"/>
					<path class="st0" d="M455.6,174.2c-0.1-0.4,0-1.3-1.4-3.4l0.3,2C454.8,173.2,455.2,173.7,455.6,174.2z"/>
					<path class="st0" d="M454.5,172.8L454.5,172.8c-1.1-1.6-2-2.6-2.3-3.1C452.5,170.2,453.3,171,454.5,172.8z"/>
					<path class="st0" d="M455.8,174.5c-0.1-0.1-0.2-0.2-0.3-0.4C455.6,174.4,455.6,174.5,455.8,174.5z"/>
					<path class="st0" d="M465.6,190.7c-1.8-2-5.3-6.1-3.1-1.3C464.1,190.6,462.9,187.8,465.6,190.7z"/>
					<path class="st0" d="M456.2,177c0.9,1.3,1.8,2.6,2.6,3.9c0.2-0.2,0-1.1,0.9-0.2C458.6,179.4,457.4,178.2,456.2,177z"/>
					<polygon class="st0" points="454.6,175.3 456.2,177 455.2,175.5 					"/>
					<path class="st0" d="M441.2,156.9c-1.7-1.2-3.4-2.7-5.2-4.4c0.9,1,1.8,2,2.8,3c1,1,1.9,2,2.8,3
						C442,158.5,443.2,159,441.2,156.9z"/>
					<path class="st0" d="M447.8,164.5c-0.1-0.1-0.2-0.2-0.3-0.3C447.6,164.5,447.7,164.7,447.8,164.5z"/>
					<path class="st0" d="M417.1,136.3c0.1,0.1,0.1,0.2,0.2,0.4c0.1,0,0.1-0.1,0.2-0.1L417.1,136.3z"/>
					<path class="st0" d="M441.7,158.9c1.2,1.6,2.2,2.4,3.2,3c-1.1-1.1-2.2-2.2-3.4-3.5C441.3,158.4,441.3,158.5,441.7,158.9z"/>
					<path class="st0" d="M430.6,146.1c0.7,0.9,1.4,1.8,2.3,2.7C432.3,148,431,146.2,430.6,146.1z"/>
					<path class="st0" d="M447.2,163.5c0.1,0.1,0.2,0.1,0.2,0.2C447.2,163.1,447.1,163.2,447.2,163.5z"/>
					<path class="st0" d="M447.2,163.5c-0.8-0.7-1.5-1.1-2.3-1.6c0.9,0.9,1.8,1.6,2.5,2.3C447.4,164,447.3,163.7,447.2,163.5z"/>
					<path class="st0" d="M407.6,136.7c0.8-0.5,5.5,1.9,8.5,5.4c1.9,1.1,2.8,0.7,2.9-0.5c0.1-1.2-0.5-3.2-1.6-5
						c-0.3,0.2-0.6,0.5-4.6-1.8c0.5,0.7,2.4,2.4,3.7,3.8c1.3,1.3,2,2.4,0.2,1.5c-5.2-3.3-3.8-3.2-6-5.4c0.7,1.2-1.1,0.3-3.1-0.5
						c-2-0.8-4.1-1.6-4-0.5c1.6,0.8,3.2,1.6,4.7,2.5C408.3,136.5,406.5,135.7,407.6,136.7z"/>
					<path class="st0" d="M424.2,142.3l1.6,1.1c-1.6-1.5-2.6-2.8-4.4-5.1c-2.8-1.7-3.5-1.8-3.9-1.7c1.3,0.9,2.5,2,3.7,3l3.6,3
						L424.2,142.3z"/>
					<path class="st0" d="M432.3,149.1c-1.8-0.3-5.5-3.1-4-0.4c4.2,3.7,3.5,2,6.2,4c-6.8-6.1,2.3,1.3-2.1-3.5
						c1.5,1.1,2.6,2.2,3.7,3.2c-1.1-1.2-2.1-2.5-3.1-3.6c0,0.1,0.1,0.1,0.1,0.2l0,0c0,0,0,0,0,0c0.2,0.4,0.3,0.5,0,0.1
						c0,0-0.1-0.1-0.2-0.1C432.7,149.2,432.5,149.2,432.3,149.1c-1.8-1.9-0.1-0.5,0.6,0c0.1,0,0.1,0,0.2,0c0,0,0,0,0,0
						c-2.4-1.9-4.8-3.8-7.2-5.7C427.2,144.7,429,146.4,432.3,149.1z"/>
					<path class="st0" d="M458.2,186.5c-0.1-0.3,0-0.3,0-0.4C457.8,185.7,457.6,185.6,458.2,186.5z"/>
					<path class="st0" d="M456.6,183.1c0.5,0.5,1.1,0.7,2.2,2.5c0.8,1.7-0.4,0.3-0.6,0.5c0.9,0.9,3.1,3.3,1.2-0.3l-0.5-0.5
						c-0.9-1.6-1.7-3.5-2.3-5c-0.6-1.4-1-2.4-0.7-2.2c0,0.7,0,1.3,0.1,2C456.1,181,456.3,181.9,456.6,183.1z"/>
					<path class="st0" d="M445.1,165.5l-5.4-5.2l2,3.4l0.2-0.5C444.6,166.5,444.4,165.4,445.1,165.5z"/>
					<polygon class="st0" points="416.7,135.4 418.1,135.2 413.7,133.7 					"/>
					<polygon class="st0" points="408.6,129.7 409.4,129.2 406.9,128.2 					"/>
					<path class="st0" d="M115.9,386.8l1.4,1.6C116.7,387.6,116.3,387.2,115.9,386.8z"/>
					<path class="st0" d="M108.2,373.6l-0.6-0.1C108.2,374,108.4,374.1,108.2,373.6z"/>
					<path class="st0" d="M178,120.4c-3.2,0.9-7,1.8-6.2,2.4l1.4,0.3C175,121.7,176.6,120.9,178,120.4z"/>
					<path class="st0" d="M86,250.8c0.2-0.3,0.3-0.6,0.5-0.8c-0.1-0.8-0.3-1.6-0.4-2.3C86.1,248.6,86,249.7,86,250.8z"/>
					<path class="st0" d="M89.5,253.8l-1.4,3.9C88.5,256.8,88.9,255.6,89.5,253.8z"/>
					<path class="st0" d="M176,444.1l2.6,0.4C175.4,442.5,176.6,443.8,176,444.1z"/>
					<path class="st0" d="M314.6,94.5c-2.7-0.7-4.9-1.1-6.9-1.4C311,94,313.6,95.2,314.6,94.5z"/>
					<path class="st0" d="M104,387c0.9,1.1,1.3,1.5,1.5,1.3C104.6,387.2,104.1,386.6,104,387z"/>
					<path class="st0" d="M299.6,92.5c0.5,0.1,1,0.2,1.5,0.3c2.1,0,4.1,0,6.6,0.3C305.3,92.5,302.4,92,299.6,92.5z"/>
					<path class="st0" d="M448.9,396c0.2-0.2,0.3-0.4,0.5-0.5C449.3,395.4,449.1,395.6,448.9,396z"/>
					<path class="st0" d="M492.1,316.6c-0.1,0.9-0.2,2.4-0.5,3.8C491.8,319.8,491.9,318.6,492.1,316.6z"/>
					<path class="st0" d="M373.9,110.1C375.9,110.8,374.3,110.1,373.9,110.1L373.9,110.1z"/>
					<path class="st0" d="M381.5,117.8c-0.4-0.1-0.8-0.1-1,0.1C380.8,117.7,381.2,117.7,381.5,117.8z"/>
					<path class="st0" d="M278.9,98.2c-0.1,0-0.1,0-0.2,0C279.4,98.3,279.3,98.3,278.9,98.2z"/>
					<path class="st0" d="M376.7,111.7c-0.7-0.4-1.5-0.9-2.4-1.3C374.7,110.6,375.4,111,376.7,111.7z"/>
					<path class="st0" d="M376.5,111.1c0.7,0.3,1.1,0.6,1.6,0.9C378.4,112,378.2,111.8,376.5,111.1z"/>
					<path class="st0" d="M371.2,109c1.1,0.5,2.1,0.9,3.1,1.4c-0.4-0.2-0.5-0.3-0.4-0.3C373.4,109.9,372.6,109.5,371.2,109z"/>
					<path class="st0" d="M311.4,477c0.1,0,0.3,0,0.4,0C313.8,476.4,312.9,476.6,311.4,477z"/>
					<path class="st0" d="M141.4,160.2c0.1-0.1,0.1-0.1,0.1-0.2C141.5,160.1,141.4,160.2,141.4,160.2L141.4,160.2z"/>
					<path class="st0" d="M136.9,165.8c0.3-0.8,0.6-1.4,0.9-2c0.3-0.6,0.7-1,1.1-1.4c0.7-0.8,1.5-1.5,2.4-2.2l-3.7-0.3l-0.4,2.9
						C137.1,163.9,137,164.9,136.9,165.8z"/>
					<path class="st0" d="M139.1,415.3c-1-1.4-1.9-2.8-2.8-4.2c1.3,0.9,2.4,1.7,3.3,2.5c1,0.7,1.7,1.3,2.2,1.7
						c1,0.7,1.1,0.5-0.1-1.5c-1.4,0.9-4.7-2.7-8-6.2c-3.2-3.6-6.3-7.3-7.7-6.6l-1.5-3c0.5,0.8,0.8,0.8,1.3,1.5
						c-1.4-3-2.5-3.6-3.9-4.3c-1.4-0.7-3-1.6-5.2-5.2c-1.5-2.5-2.2-4.4-0.8-3c-1.4-1.7-2.7-3.4-4-5.1c-0.9-1.6-0.2-1.5,0.7,0.1
						c-0.9-1.4-1.8-2.7-2.6-4.2l-2.5-4.3l0.1,0c-0.5-0.5-1.4-1.4-2.2-2.3c-0.8-0.9-1.5-1.9-2-2.5c-0.7-2.5,0.8,1,0.9,0.3l-3-4.6
						c-0.3-2.3,2.4,1.4,3.9,4.9c0.2-3-0.4-3.9-1.5-5.4c-1.2-1.5-2.6-3.7-3.9-9.1l2.3,4.6c0.1-1.9-0.3-3.6-0.9-5.6
						c-0.6-2-1.3-4.4-1.7-7.2c0,0.7,0.3,3.6,0.3,5.7c0,1.1,0,1.9-0.3,2.1c-0.2,0.2-0.7-0.1-1.4-1.4c-0.4-1.6-1-3.7-2.6-6.5
						c1-0.4-0.2-3.2-1.4-6.9l1.4-0.1c-0.8-1.9-1.4-2.8-1.9-3.4c-0.5-0.6-0.9-1.1-1.5-2.2c-1-4.6-0.2-5.8,0.5-7
						c-1.2-7.4-0.8,5.4-2.7-3.2c-0.3-3.1-0.9-5.7-1.4-8.5c-0.5-2.8-1.4-5.6-2.1-9.3c0.1-4.4,0.9,0.7,1.2-0.9l-1.4-3.8
						c-0.1-1,0.3-0.7,0.5-0.5c-0.7-3.2-1.4-0.2-2-5.3c-0.8-0.7-0.4-3.4,0.2-6.6c0.3-1.6,0.6-3.4,0.8-5.2c0.1-1.8,0.1-3.5-0.2-5.2
						c0.5-1.5,0.8,0.8,1.4,0.4c-0.2-4.4-0.3-6.3-0.4-8c0-1.7-0.1-3.2-0.4-6.9c0.3-1,0.6-2,0.9-3l1-2.9c-1.9,4.3-2.1-1.6-2.1-6.9
						c-0.8,1.5-1.5,2.8-1.9,3.7c0.1-1.4,0.2-2.8,0.4-4.1l0.6-4.1c0.5-0.9,0.7,0,1,1.5c0-0.6,0-1.1,0-1.5c1.2-2.7,1.6-1,1.9,1.2
						c-0.5,0.9-1.1,1.8-1.5,2.7c0.3,2.2,1,4.2,1.9,3.9c-0.1-0.5,0-1.6,0.1-2.7c0.1,0.6,0.3,0.9,0.4,0.7c0.2-0.2,0.1-1.1,0.1-2.5
						l2-1.4l-0.5-0.6c0.6-1.7,1.1-3.3,1.7-5l2-4.9c0.7-7.6,0.7-14.7,5.3-26.1c-0.3,3.2,1.4,1.4,2.6,2.1c-0.7,0.6-1.2,1.4-1.7,2.4
						c-0.5,1-0.8,2.2-1.2,3.5c-0.8,2.6-1.6,5.6-2.7,8.4c1.2-3,1.6-2.1,1.5-1.2c0.4-1.8,1-3.6,1.4-5.4c0.5-1.8,1-3.6,1.5-5.4
						c0.9,0.7,1.8-1.8,3.4-4.2c-1.5,0.5-0.9-1.5,0.2-4.2c1.2-2.6,3-5.9,3.8-8.1c0.8,0.1,0.9,1.5-1.9,6.2c2.2-2.3,2.5-4.3,2.9-6.3
						c0.4-2,0.8-4,3-6.2c-0.7,1.2-1.2,1.7-1.1,2.4c0.6-1.5,1.9-3.9,3.2-5.5c1.3-1.7,2.4-2.7,2.1-1.8l-0.7,1.1c0.6-0.9,1.4-1.9,2.2-3
						c0.8-1.1,1.6-2.3,2.5-3.5c0.9-1.2,1.8-2.4,2.7-3.7c0.9-1.2,1.8-2.5,2.7-3.6c1.8-2.3,3.3-4.5,4.4-6.3c1.2-1.7,1.8-3,1.7-3.5
						c0.2,0.1,0.9,2.4,0.8,3c1-2.6,2-5.4,3.1-8l3.6-7.9c0.1,2.2,6.6,1.2,2,7c0.8-0.7,1.8-1.4,2.8-2.4c1.1-1,2.4-2.2,3.8-3.9
						c-1.2,0.8-4.3,0.7-2.9-0.8c5.3-2.3,3.4-1.9,9.6-4.9c-1.9,1.1-1.6-2.4,1.1-4.5c-0.2,0.6,1.8,1.8,1,2.8l1.3-1.8l1.3-1.8l2.7-3.5
						c-1.5,1.6,0.9,1.9,2.9,1.4c-1.1,0,6.1-4.1,7.8-5.6l-3.3,1.5c4.1-2.6,5.7-4.5,7.3-6.5c0.8-1,1.6-2,2.7-3.1
						c1.1-1.1,2.6-2.1,4.8-3.2c-0.8,1-1,4.1,3.4,2.1c0.3-0.5,0.9-1.4,1.6-2.6c0.8-1.1,1.7-2.4,2.9-3.8s2.5-2.9,4.1-4.3
						c1.6-1.3,3.3-2.6,5.3-3.7l1.8,0c1.9-1.2,3.9-2.1,5.9-3.2c-0.8,0.8-2,1.9-3.4,3.2c-1.4,1.3-3,2.7-4.6,4.3
						c-3.3,2.9-6.6,6.1-9.1,8.2c3.5-1,1.3,0.3,6.1-2.1c2-0.2-2.2,2.2-3.6,2.9c1.9-0.8,3.8-1.7,5.7-2.5l5.8-2.2
						c-0.5-0.6,1.5-1.9,3.6-3c2.1-1.1,4.3-2.3,3.9-2.8l-6.1,3.1l-5.9,3.4c-0.6-0.6,0.8-2.3,3.4-4.3c0.7-0.5,1.4-1,2.2-1.5
						c0.8-0.5,1.7-1,2.6-1.4c1.8-0.9,3.9-1.8,6-2.6c1.2-0.1,1,0.7,0.5,1.5c-0.4,0.9-1.1,1.8-0.9,2c0.2-0.2,0.8-0.6,1.6-1
						c0.8-0.4,1.7-0.8,2.7-1.1c1.9-0.8,3.9-1.4,4.3-1.3l-3.4,1.9c2.4-0.5,4.2-1.6,6.2-2.5c2-0.9,4.1-1.8,7.2-1.9c1-0.2,2.6-0.1,4,0
						c1.4,0.1,2.5,0.1,2.6-0.4c-3.6-1-5.5-5.9-3.5-7.6c0.4,0,3.2-0.2,6.2-0.4c3-0.1,6.3,0,7.5,0.2c3.6,0.8-4.6,4-1.5,4.6
						c0.1-0.4,1.8-1.2,2.6-1.5c2.2,0-0.7,1.4,3.9,0.5c0.6-1.6,9.5-1,2-1.5c2.3-0.5,3.5-0.6,4.8-0.6c0.7,0,1.4,0,2.2-0.1
						c0.9,0,1.9-0.1,3.3-0.2c-0.9-0.4,0.2-1.3,2.2-2.2c2-0.9,4.8-1.9,7.1-2.1c-0.3,0.4,0.8,0.9,1.3,1.1c2.4,0,4.5,0,6.5,0
						c2,0.1,3.8,0.3,5.6,0.4c1.8,0.1,3.6,0.3,5.4,0.4c1.9,0.2,3.9,0.4,6.1,0.6c0.8,0.4,5,1.2,3.1,1.7c1.3-0.2,2.5-0.5,5.2-0.2
						c5.1,1.9-6.1-0.5-2.2,1.5c0.2-0.4,2-0.5,4.2-0.5c1.1,0,2.3,0,3.5,0c1.2,0.1,2.3,0.1,3.3,0.2c-0.5-0.7-2.7-1.3-5.3-1.4
						c-2.6-0.1-5.6-0.1-7.5,0c0.1-0.9,1.9-1.7,4.8-2.2c1.5-0.2,3.3-0.4,5.3-0.5c2,0,4.2,0.1,6.6,0.3c3.8,0.4,4.5,0.9,4.5,1.2
						c0,0.3-0.8,0.5-0.2,0.5c6.8,1.6,10,1.4,12.7,1.5c1.4,0,2.7,0,4.4,0.3c0.8,0.2,1.8,0.4,2.8,0.7c1,0.4,2.2,0.8,3.6,1.4
						c4.1,2.5-0.5,2.3,0.2,3.4c-5.9-1.5-8.7-3.3-12.7-4.4l4.8,1.8c-2-0.1-5.9-0.9-8-1.7c0.9,0.4,2.7,1.1,5.2,1.8
						c2.4,0.8,5.5,1.5,8.7,2.6c3.2,1.1,6.6,2.1,9.8,3.4c3.2,1.3,6.2,2.5,8.5,3.8c1.9,0.4,5.1,1.3,3.9,0.2l-3.2-1.2
						c-2.5-2.1,6.4,1.3,2.6-0.8c1.1,0.3,2.3,0.6,3.5,0.9c1.2,0.3,2.4,0.7,3.7,1.2c1.3,0.5,2.6,1,3.9,1.6c0.7,0.3,1.4,0.6,2,1
						c0.7,0.4,1.4,0.8,2,1.2l0.4,1.8c0-0.2-0.8-0.9-1.9-1.6c-1.1-0.7-2.4-1.3-3.3-1.5c0.7,0.2,1.5,0.6,2.5,1.2
						c0.9,0.6,1.9,1.4,3,2.1c2.1,1.5,4.2,2.8,6,2.8c-1.2-1-2.4-2-3.5-3c1.1,0.4,2.3,0.8,3.5,1.2c1.2,0.4,2.5,1,3.8,1.5
						c1.3,0.5,2.6,1.1,3.9,1.8c0.6,0.3,1.3,0.7,1.9,1.1c0.6,0.4,1.2,0.8,1.8,1.3c-1.5-2.6-1.2-0.7-3.9-4.1c1,1.8-2.2-0.2-5.1-2
						c-3-1.8-5.8-3.2-3.8-1c-1.4-1.8-3-2.9-4.7-3.9c-1.7-1.1-3.6-2.1-5.8-4c0,0.5,1.4,1.6-2.9-0.7c-0.3,0-0.8-0.1-1.1-0.1
						c-0.1-0.1-0.2-0.1-0.3-0.2c0.1,0.1,0.1,0.1,0.2,0.2c-0.2,0-0.2,0,0.1,0.1c1,0.7,1.7,1.3,2,1.7c-0.7,0-1.6-0.3-2.6-0.6
						c-1.1-0.3-2.3-0.7-3.5-1.1c-2.4-0.8-4.9-1.7-6.2-2c-2.6-1.2,1.3,0,0-1.1l-4-0.6c0-1.1-6.7-4.2,0-2.4c-1.9-0.7-3.8-1.5-5.8-2.1
						c-1.6-0.8-3.6-1.7-5.6-2.4c-1-0.4-2-0.7-2.9-0.9c-0.9-0.2-1.8-0.4-2.6-0.5c-2.8-1-7.4-0.8-4.8-0.9c-3.2-0.7-6.4-1.1-9.6-1.6
						l0-0.3c-1.2-0.3-2.3-0.5-3.5-0.7c-1.2-0.2-2.4-0.3-3.6-0.5c-2.5-0.3-4.9-0.6-7.5-0.8c-2.5-0.2-5.1-0.5-7.7-0.9
						c-0.7-0.1-1.3-0.2-2-0.3c-0.7-0.1-1.3-0.2-2-0.3c-1.3-0.2-2.7-0.5-4-0.8c-1.6,0-3.3,0-5.2,0c-1.9,0-4.1,0-6.8-0.2l-1-0.9
						c-2.1,0-5.2-0.1-8-0.1c-2.8-0.1-5.4-0.1-6.2,0.4c-1.1-0.5-3-0.7-5.2-0.7c-2.2,0-4.8,0.1-7.5,0.6c-2.7,0.4-5.4,0.8-8,1.2
						c-2.5,0.5-4.8,0.9-6.7,1.1l-0.1,1.1c-1.2,0.2-2.5,0.4-3.7,0.7c-1.2,0.3-2.4,0.6-3.7,0.9c-2.5,0.7-5.2,1.4-8.1,2.4l0.6,0.9
						c-1.2,0.5-2.7,1-4.3,1.4c-1.6,0.4-3.4,0.7-5.2,1.2c-3.7,0.9-7.9,1.7-11.8,3.3c0.4-0.6,2.5-1.2,4-1.5c-5.1,0.7-10,2.8-14.6,5.4
						c-4.7,2.4-8.9,5.2-13.4,6.4c-1.8,1.4-3.3,2.1-4.9,2.6c0.2-0.1,0.3-0.2,0.5-0.3c-0.2,0.1-0.5,0.3-0.8,0.4c-1,0.3-2,0.7-3.1,1.1
						c1-0.2,1.9-0.5,2.6-0.8c-0.8,0.4-1.7,1-2.8,1.6c-1,0.7-2.1,1.4-3.2,2.2l-1.5-0.3c-0.2,0.1-0.3,0.2-0.5,0.3
						c-2.4,1-1.5,1.5,0.1,1.5c-1,0.8-2,1.6-2.6,2.3c-2.7-0.3-5.4,4.3-8.8,4.3c-1,1.7-10.2,8.3-10,10.7c-0.2-0.1-0.9,0.3,0.2-0.6
						c-1.2,0.8-2.4,1.7-3.5,2.5c-0.6,0.4-1.1,0.9-1.6,1.4c-0.5,0.5-0.9,1-1.3,1.5l-1.8-0.2l-3.5,5.6c-3.3,2.1-4.8,2.9-2.8-0.6
						c-2.7,3.8-4,5.2-5.1,6.5c-1,1.3-2,2.6-4,6l-0.4-0.9c-1.9,2-3.8,6.3-5.5,7.1c-0.7,0.5-1.5,1.2-2.4,2.1c-0.9,1-1.9,2.1-3,3.5
						c-1.1,1.3-2.3,2.8-3.5,4.5c-1.2,1.7-2.4,3.5-3.7,5.3c-5,7.5-10.2,16.3-14.2,23.3c1.8-0.9,0.8,0.7-0.6,2.7c-0.3,0.5-0.7,1-1,1.5
						c-0.3,0.5-0.6,1-0.8,1.5c-0.4,1-0.6,1.7-0.2,2.1c-0.9,0.6-2.1,2.6-1.6,0c-0.7,2-1.4,3.6-2,5.2c-0.6,1.5-1.2,2.9-1.7,4.2
						c-1.1,2.6-1.9,4.9-1.9,7.9c-0.9,0.7-0.3-2-0.9-1.3c-0.1,0.7-0.3,2.7-0.9,3.4c-0.6,0.7-0.1-1.3,0-2.7c-2.4,8.2-0.6,9.5,0.9,10.6
						c-1.8,3.9-2.3,6-1.7,9.3c-0.8,1.3-1.9,3.6-1.1-1.5c-0.2,0.7-0.5,2.2-0.9,3.9c-0.4,1.8-0.9,3.9-1.1,6c-0.6,4.1-1,7.9-0.2,8.2
						c-0.4,0.9-0.4,4.1-0.3,4.9c-0.3,3.3-0.5,5.1-0.6,6.8c-0.1,1.8-0.1,3.5-0.1,6.8l0.3-1.8c1.6,2.6,0.4,5.3,0.7,10.5l-0.2-0.1
						c-0.3,3-0.2,4.8-0.1,6c0.1,1.2,0.2,1.9,0.3,2.5c0.3,1.2,0.3,2.5,0.4,8.4l1-0.8c1.2,0.4,1.2,3,1.2,6.3c0.1,1.7,0.1,3.5,0.3,5.4
						c0.2,1.8,0.4,3.7,1.1,5.3c0-0.8,0-1.7,0.1-2.5c0.7,1.7,0.7,4.4,0.4,7.2c-0.1,1.4-0.3,2.8-0.4,4.1c0,1.3,0,2.4,0.2,3.4
						c0,0.9-0.7-1.2-1.2-2.2c1.6,9.9,1.7,0.9,4.1,7.8c-0.3,1.5-2.4-1.1-0.9,3.7c0.1,0.6,0.6,1.8,1.3,3.2c0.7,1.4,1.6,3.2,2.7,5
						c1,1.8,2.1,3.8,3,5.7c0.9,1.9,1.8,3.7,2.1,5.4c-0.1-1.6-0.2-3.2,1.6-0.3c0.6,1.1,1.2,2.6,1.7,4.1c0.6,1.5,1.3,3.2,2,4.8
						c0.7,1.6,1.4,3.2,2.2,4.5c0.9,1.3,1.8,2.5,2.8,3.2c0.2,0.7,0.2,0.9,0.1,1c0.6,0.8,1.4,1.9,2.2,3c0.9,1.1,1.9,2.4,2.9,3.5
						c1.9,2.4,3.8,4.5,4.9,5.2c-0.4,2.5,3.7,7.3,7.8,11.3c1,1,2,2,2.9,2.9c0.9,0.9,1.8,1.7,2.5,2.5c1.3,1.5,2,2.7,1.4,3.2
						c1.4,1.5,2.9,2.9,4.4,4.3c1.5,1.4,2.9,2.8,4.5,4.2l-0.5,0c2.9,2.7,4.9,4.4,6.6,5.5c1.7,1.1,3.1,1.6,4.4,2.2
						c1.2,1.3,0,0.7-0.2,0.8c4.2,3.9,6.7,5.8,9.1,7.5c1.2,0.8,2.4,1.5,3.9,2.2c1.5,0.7,3.2,1.5,5.4,2.5l0.2,1.5c1.2,0.5,4.5,3,8.8,6
						c4.4,2.9,9.8,6.2,15.2,7.9c-0.2,0.1-0.5,0.2-1.3-0.1c1.5,0.5,3,1.2,4.6,1.9c1.6,0.7,3.2,1.4,4.7,2.2c1.6,0.8,3.2,1.6,4.7,2.3
						c1.6,0.7,3.2,1.4,4.7,2.1c1.5,0.7,3,1.3,4.4,1.9c1.4,0.5,2.7,0.9,4,1.2c2.5,0.6,4.5,0.7,5.9,0.1c2.8,0.4,5.5,0.8,8.3,1.2
						c-10.3-3.1,2-1.3-2.1-3c2,0.4,4.6,1.5,6,2.1c1.4,0.7,1.7,1.1-0.8,0.7c-0.2-0.1-0.5-0.2-0.7-0.4c-2.3,1.6,12.8,3.6,12.3,4.8
						c2.6,0.4,5.2,0.9,7.8,1.3c2.6,0.3,5.2,0.7,7.8,1c2.6,0.4,5.2,0.6,7.8,0.8c2.6,0.2,5.2,0.6,7.7,0.6c2.6,0.1,5.1,0.3,7.7,0.4
						c2.6,0.1,5.1,0,7.7,0c1.3,0,2.5,0,3.8,0c1.3-0.1,2.5-0.1,3.8-0.2c2.5-0.2,5-0.2,7.5-0.5c-0.8-0.4-1.6-0.9-2.4-1.4
						c2.3-0.1,4.6-0.4,6.9-0.7c1.8,0.2,2.6,1-2.3,1.5c2.7,0.6,8.2-1.7,8.2-2.2c9.7-1-3.4,2.5-0.5,2l4-0.8l-0.9,0
						c1.6-0.6,2.4-1.1,3.5-1.5c1.2-0.5,2.7-0.8,5.6-1.4c3.7-0.5,2.1,0.6,3.6,0.3c0,0.1,0.5,0.1,2.2-0.4l2.1-0.4l2.1-0.5l4.3-1.1
						l-3.7-0.3c3.6-1.6,7.9-2,3.7-2.4c0.8,0.1,1.9,0,3.2-0.2c1.3-0.2,2.8-0.6,4.4-1c1.6-0.4,3.4-0.9,5.3-1.5c1.8-0.6,3.7-1.3,5.5-2
						c3.7-1.3,7.2-2.9,10.1-4.1c2.9-1.2,5-2.2,5.9-2.4c2.2-1.6,4.6-2.9,7-4.3c2.4-1.4,5.1-2.8,8-4.4c-0.8,0.3-1.6,0.2-1.5-0.2
						c0.1-0.4,0.9-1.3,3.4-2.7c-0.1,1.8,2.3,0.7,5.3-0.9c3-1.6,6.6-4,9.2-4.4c-4.1,1.3,12.9-9.9,6.5-7.7c3.9-2.7,0.9,0.7,4.2-1
						c4.1-4,8.9-7.9,13.9-12.3c4.9-4.4,10.1-9.2,14.4-14.7c-0.2-0.4-2.1,1-0.6-1.7c2.1-1.5,4.2-2.9,6.2-4.5c1.5-2.4-0.2-3.4,3.9-6.6
						c-0.7,0.4-1.7,1-0.7-0.6c8.8-10.6,15.5-23.2,20.8-36.2c5.4-13.1,9.4-26.6,13.6-40.1c-1.4,3.6-1.1,1.1-0.5-1.8
						c-0.5,1.8-0.9-0.2-1.5,0.1c0.6-1.9,1-3.8,1.6-5.7c0.5-1.9,1-3.8,1.5-5.7c-0.6-1.1-0.4-4.3-0.2-7.3c0.1-0.8,0.1-1.5,0.2-2.2
						c0-0.7,0-1.4,0-2c-0.1-1.2-0.2-2.1-0.6-2.4l0.2,3.7c-0.8-2.5-1.7-0.8-2.8,1.3c-1.1,2.2-2.4,4.8-3.4,4.3c0.4,1.4,0.3,2.9,0,4.6
						c-0.4,1.7-0.9,3.5-1.5,5.4c-1,3.8-2.5,7.9-1.9,12.5c-0.8,1.8-0.4-1.8-1-0.8c0.5,2.4-0.1,5-1.6,9.7l-0.1-0.6
						c-0.2,0.9-0.4,1.7-0.6,2.4c-0.2,0.8-0.5,1.5-0.7,2.3c-0.5,1.4-0.9,2.8-1.3,4.1c-0.4,1.3-0.9,2.5-1.4,3.7
						c-0.5,1.2-1,2.4-1.5,3.6c-0.9,2.4-2.2,4.8-3.4,7.4c-0.7,1.3-1.3,2.8-2.1,4.2c-0.8,1.5-1.6,3.1-2.6,4.8l1.4-0.6
						c-1.6,3-2.1,3.4-3.2,4.7c-0.1,1,0.1,1,0.5,0.5s1-1.5,1.5-2.6c1.1-2.1,2.2-4.3,2.2-2.4c-1,0.8-2,2.5-3.3,4.6
						c-1.3,2.1-2.7,4.7-4.1,7.1c-1.5,2.4-3,4.8-4.4,6.7c-1.3,1.8-2.7,3.1-3.6,3.4c-2.9,4.2,1.8-0.6-1.1,3.7l-1.3,0.8
						c0,0.5,0,1-0.1,1.5c-2.2,2.6-3.8,3.5-4.3,3.2c0.5-0.6,1.3-1.9,1.8-2.7c-0.8,0.8-1.7,1.7-2.5,2.8c-0.8,1.1-1.7,2.3-2.5,3.3
						c-1.6,2.2-3,4.1-3.6,4.6l3.5-3.5c-1.1,1.4-2.2,2.8-3.3,4.2c-1.1,1.5-2.4,2.8-3.7,4.2c-1.3,1.4-2.5,2.8-3.9,4.2
						c-1.4,1.3-2.7,2.7-4.1,4.1l-2.1,2c-0.7,0.7-1.4,1.3-2.1,1.9c-1.4,1.3-2.8,2.6-4.1,3.9c-1.4,1.2-2.8,2.5-4.1,3.7
						c-1.3,1.2-2.6,2.4-3.8,3.6c0.4-0.1,0.8-0.1,1.1-0.2c-3.9,3.5-5.7,4.6-7.6,5.7c-2,1.1-4,2.2-8.7,5.5l0.3-0.3
						c-1.7,1.6-4.2,3.4-6.9,5c1.1-1-0.2-0.5-1.4-0.2c-1.2,0.3-2.4,0.6-0.9-0.6c-4.7,3.1-5.8,3.9-6.5,4.6c-0.7,0.7-0.9,1.2-3.8,3.7
						l-1.9,0c-2,1.8-2,2.3-7.2,4.7c4.1-2.5-3.8,0.3,0.6-2.6c-1.5,0.4-2.8,0.8-4,1.2c-1.2,0.5-2.4,0.9-3.4,1.3
						c-2.1,0.8-4,1.7-5.6,2.5c-1.6,0.8-3.1,1.4-4.6,1.8c-1.4,0.4-2.9,0.6-4.4,0.4c-4.6,3.8,10.3-1.9,7.5-0.5
						c1.3-0.1,0.4,0.7-1.3,1.6c-1.8,0.9-4.3,1.9-6.2,2.3c-1.8,0.6-3.6,0.3-6.1,0.2c-2.5-0.1-5.6,0.1-10.3,1.1c0.9-0.2,1-0.4,1.9-0.6
						c-3.6,0.2-6.7,2.3-11.2,2.1c-2.2,1.7-5.6,0.9-6.1,2.7c2.9-0.6,5.8-1.2,8.7-1.8c-2.4,0.6-4.7,1.7-7.5,2.6
						c-2.8,0.8-6,1.4-10.2,1.4c0.6-0.4,3-1.2,4.7-1.6c-2.5-0.3-4.6,1-7.1,0.6c0.1-0.5,0.9-0.7,2-1c1.1-0.3,2.6-0.5,4.2-0.7
						c1.6-0.2,3.4-0.4,5.1-0.7c1.7-0.3,3.3-0.8,4.5-1.3c-2.6-0.2-9.8,2.6-7.4,0.4c-1.8,1.4-4.1,1.6-6.8,1.8c-2.7,0-5.7,0-8.9,1.2
						l0.4-1.1c-1,0.3-3.1,0.8-5,0.8l3.4-1.4c-5.2,1.3-10.1-0.7-15.1-0.3c5.2,0.1,5.8,0.4,5.7,0.8c-0.2,0.4-1.1,1,1.1,1.3
						c-1.6,0.2-3,0.3-4.1,0.3c-1.1,0-2-0.1-2.8-0.2c-1.5-0.2-2.5-0.6-3.5-1c-1-0.4-2.1-0.9-3.8-1.3c-1.7-0.4-4-0.8-7.7-0.9
						c2,0,7.3,1.1,4.2,1.4c-1.4-0.2-3-0.5-4.4-0.8c-1.4-0.4-2.7-0.8-3.5-1.1c-9.5-0.9,1.3,1.2-2.8,1.4c-1.5-0.8-2.7-0.8-4.1-0.7
						c-1.3,0.1-2.8,0.4-5,0.3l0.1-1.1c-5.4-1.2-6.2-0.9-6.9-0.5c-0.7,0.4-1.2,0.8-6-0.6l4.4-0.6l-5.1-0.7l1.3-1
						c-1.4-0.1-2.6-0.2-3.6-0.4c-1-0.2-1.9-0.4-2.8-0.6c-1.8-0.5-3.5-1-6.1-2c1,1.1-1.2,1.6-5.9,0.2c-1.5-0.8-1-0.9-0.9-1.1
						c0-0.1,0-0.2-0.6-0.3c-0.5-0.2-1.4-0.5-3.1-1.1c0.9-0.1,1.7-0.1,2.7,0.1c1,0.1,2.1,0.5,3.4,1.4c0.4-0.2,1.7-0.2,2.1-0.4
						c-1.6-0.9-3.7-1.6-5.7-2.2c-2-0.7-3.9-1.2-5-1.7c0.9,0.4,1.9,0.8,2.4,1.2c-3.3-0.7-6.6-1.3-9.8-2.2c-1.3-1,0-0.8,1.2-0.6
						c-1.9-0.7-3.4-0.8-6.2-1.9c1.1-0.5,1.3-1.4,5.3-0.1l-4.5-1.4c-1.5-0.5-3-1.1-4.5-1.6c-0.4-0.6-3.9-3-2.7-2.8
						c-0.6-0.3-1.2-0.7-1.8-1c-0.6-0.3-1.3-0.7-2-1c-1.4-0.6-3-1.2-4.6-1.9c-0.8-0.3-1.6-0.6-2.4-1c-0.8-0.4-1.6-0.8-2.4-1.2
						c-1.6-0.8-3.1-1.7-4.5-2.8c-0.4,0-1.1-0.3-2.4-1c-1.3-1-2.6-1.9-3.9-2.9c-1.2-1-2.5-1.9-3.8-3c-1.3-1-2.6-2-4-3
						c-0.7-0.5-1.5-1-2.2-1.4c-0.8-0.5-1.6-1-2.4-1.5l-2.4-4c-2.5-1.8-1.6-0.5-1.2,0.6c0.2,0.5,0.3,0.9-0.1,0.9
						c-0.5-0.1-1.5-0.6-3.5-2.2c-5.7-4.4-1.1-2.8-2.7-4.8c-1.6-0.9-3.7-2.2-6-3.9c-1.1-0.9-2.3-1.8-3.4-3c-1.1-1.2-2.1-2.5-2.9-3.9
						C136.6,412.4,137.5,413.9,139.1,415.3z M98.2,353c0.7,1.3,2.5,3.7,2.3,4.9C98.7,356.9,98.7,355.5,98.2,353z M90.8,240.4
						c0,0.6-0.1,1.2-0.4,2c-0.2,0.8-0.6,1.6-1,2.5C89.6,243.5,90,242,90.8,240.4z M352.1,102.9c-0.1,0-0.1,0-0.2,0
						C348.8,101.4,349.9,101.9,352.1,102.9z M358.7,105.5c0.7,0.1,0.7-0.1,0.5-0.3c-0.3,0-0.8-0.1-1.4-0.3c-0.7-0.2-1.5-0.5-2.3-0.8
						C355.8,104.6,356.6,105,358.7,105.5z M334.2,480.4l-1.4,0C335.7,479.4,335,479.9,334.2,480.4z"/>
					<path class="st0" d="M89.1,253.4c-0.3,0.4-0.5,0.4-0.7,0.5C88.4,254.5,88.6,254.6,89.1,253.4z"/>
					<path class="st0" d="M175.6,444l0.2,0.1c0.1,0,0.2,0,0.3,0L175.6,444z"/>
					<path class="st0" d="M252.2,104.9c-1.4,0.1-2.2,0-2.7-0.1C249.4,105.1,250,105.2,252.2,104.9z"/>
					<path class="st0" d="M393.7,119.3l-4.1-1.9c2,1,2.6,1.6,3.4,2.3C393,119.4,392.4,118.7,393.7,119.3z"/>
					<path class="st0" d="M422,147c0.6,0.3,1.1,0.9,1.6,1.2l0.2-0.5C421.7,145.9,419.9,145,422,147z"/>
					<path class="st0" d="M395.5,124.5c-0.2,1,2.4,2.1,5.2,3.6c-0.2-0.1-0.3-0.2-0.5-0.3C401.7,127.3,398.6,125.9,395.5,124.5z"/>
					<path class="st0" d="M401.3,128.5c0.8,0.5,1.7,1,2.4,1.6C404.3,129.9,402.8,129.4,401.3,128.5z"/>
					<path class="st0" d="M367.3,108.1c1.3,0.8,1.3-0.7,2,0c1-0.2-1.4-0.9-3.2-1.1C364.3,106.8,363.3,106.9,367.3,108.1z"/>
					<polygon class="st0" points="396.2,128.4 395.8,126.8 393.8,126.7 					"/>
					<path class="st0" d="M374.9,116.2l4.4,2.4c0-0.2,0.6,0,1.4,0.2C377.8,117.5,374.9,115.8,374.9,116.2z"/>
					<path class="st0" d="M380.6,118.8c1.4,0.7,2.8,1.3,3.7,1.6C383.5,120,381.8,119.3,380.6,118.8z"/>
					<polygon class="st0" points="390.2,125.2 389,124.3 386,122.6 					"/>
					<path class="st0" d="M323.9,100.2l-5.4-0.6c-0.6,0.3,0.8,0.8,2.8,0.9C322.6,100.5,324.7,100.7,323.9,100.2z"/>
					<path class="st0" d="M339.2,106.6c-1.3-0.6-1.4-0.9-2.1-1.4l-0.5,1.3L339.2,106.6z"/>
					<path class="st0" d="M323.9,103.6c-0.6,0.3-7.8-0.2-1.1,0.8C323.3,104.1,328.7,104.7,323.9,103.6z"/>
					<polygon class="st0" points="243.3,102.6 244.7,102.3 244.1,100.1 					"/>
					<path class="st0" d="M179.5,132.8c5.6-2.7,0.5-2,5.8-4.2c1-1.2-4.3,1.7-3.2,0.6C179.1,131.7,177.3,132.4,179.5,132.8z"/>
					<path class="st0" d="M182.1,129.2c0.5-0.4,1-0.8,1.5-1.2C182.7,128.7,182.3,129,182.1,129.2z"/>
					<path class="st0" d="M494.9,301.4c0.3-1.4,0.5-2.8,0.7-4.2l-0.8,2.7L494.9,301.4z"/>
					<path class="st0" d="M493.5,293.2l1.5-1l-1.2-2.5C493.8,290.6,493.9,292.5,493.5,293.2z"/>
					<path class="st0" d="M97.3,341.6l-0.4-0.2c-0.2,0.7,0,1.6,0.6,3.4C97.4,343.8,97.3,342.7,97.3,341.6z"/>
					<polygon class="st0" points="119.9,390.2 119.4,389.4 119.3,391.6 					"/>
					<path class="st0" d="M151,422.8c-1.3-1.3-3.2-2.5-4.5-3.8C149.7,421.5,150.3,424.3,151,422.8z"/>
				</g>
			</g>
		</g>
	</g>
</g>
</svg>
