<?xml version="1.0" encoding="utf-8"?>
<!-- Generator: Adobe Illustrator 25.2.3, SVG Export Plug-In . SVG Version: 6.00 Build 0)  -->
<svg version="1.1" id="Layer_1" xmlns="http://www.w3.org/2000/svg" xmlns:xlink="http://www.w3.org/1999/xlink" x="0px" y="0px"
	 viewBox="0 0 1280 900" style="enable-background:new 0 0 1280 900;" xml:space="preserve">
<style type="text/css">
	.st0{fill:#58595B;}
</style>
<g>
	<g>
		<g>
			<g>
				<g>
					<path class="st0" d="M817.69,521.14c-0.03,1.71,0.79,1.1,0.95,1.35C818.38,519.62,817.47,521.22,817.69,521.14z"/>
					<polygon class="st0" points="813.24,493.38 813.66,493.81 812.07,489.92 					"/>
					<path class="st0" d="M806.72,468.12c-0.14,0.7,0.05,1.58,0.3,2.63c0.26,1.04,0.68,2.22,1.14,3.45c0.46,1.23,0.97,2.53,1.42,3.8
						c0.42,1.28,0.71,2.56,0.88,3.71l-0.13,0.82l1.62,1.77C810.52,478.8,807.67,472,806.72,468.12z"/>
					<path class="st0" d="M804.49,453.92c-0.17,1.03-1.62-2.63,1.12,3.11c-0.07-0.32-0.07-0.42-0.1-0.61
						C805.27,455.9,804.97,455.17,804.49,453.92z"/>
					<path class="st0" d="M805.5,456.43C806.63,458.99,805.23,454.55,805.5,456.43L805.5,456.43z"/>
					<path class="st0" d="M799.81,444.83l2.04,3.1c-0.04-0.84-1.4-3.84-0.66-2.84C799.23,441.83,799.26,442.71,799.81,444.83z"/>
					<path class="st0" d="M797.24,442.26l1.09,1.57C798.29,443.47,798.09,443.01,797.24,442.26z"/>
					<path class="st0" d="M800.53,447.22c-0.72-1.14-1.41-2.3-2.21-3.4c0.04,0.58-0.32,0.82,1.01,1.56
						C798.82,445.28,799.52,445.81,800.53,447.22z"/>
					<path class="st0" d="M801.33,449.38c0.61,1.99,1.58,4.45-0.46,1.36c1.64,3.08,2.4,4.38,2.55,4.03
						c0.06-0.17-0.05-0.74-0.37-1.66C802.72,452.19,802.13,450.94,801.33,449.38z"/>
					<path class="st0" d="M804.88,467.36l0.52,2.67c0.43,0.67,0.77,1.38,1.16,2.07C806.05,471.04,805.24,467.06,804.88,467.36z"/>
					<path class="st0" d="M788.65,424.78c-0.38-0.02,0.03,1.48-0.14,1.92l1.82,2.05C789.72,427.49,788.39,425.19,788.65,424.78z"/>
					<path class="st0" d="M788.51,426.71l-2.71-3.04C787.79,426.68,788.36,427.08,788.51,426.71z"/>
					<path class="st0" d="M795.53,442.44l2.06,2.64c0.69,0.88,1.3,1.81,1.95,2.72c-1.42-2.23-3.06-4.34-4.63-6.46L795.53,442.44z"/>
					<polygon class="st0" points="779.31,412.32 781.35,413.66 777.88,411.17 					"/>
					<path class="st0" d="M772.44,404.63c1.59,0.87-0.87-2.4,0.62-1.31c-1-1-1.99-1.86-2.97-2.62c-1.01-0.72-1.99-1.36-2.92-1.96
						c0.9,0.72,1.79,1.51,2.67,2.46C770.69,402.18,771.54,403.31,772.44,404.63z"/>
					<path class="st0" d="M764.14,396.67c0.91,0.7,1.93,1.35,3.03,2.07C766.21,397.98,765.22,397.28,764.14,396.67z"/>
					<path class="st0" d="M781.82,418.05c-0.05-0.36-0.02-1.14-1.25-3.07l0.3,1.79C781.16,417.16,781.48,417.6,781.82,418.05z"/>
					<path class="st0" d="M780.88,416.83l-0.01-0.06c-1.01-1.4-1.8-2.3-2.11-2.71C779.01,414.42,779.73,415.19,780.88,416.83z"/>
					<path class="st0" d="M782.06,418.37c-0.09-0.12-0.15-0.21-0.24-0.32C781.84,418.22,781.88,418.31,782.06,418.37z"/>
					<path class="st0" d="M790.92,432.96c-1.59-1.81-4.78-5.54-2.76-1.22C789.53,432.86,788.45,430.32,790.92,432.96z"/>
					<path class="st0" d="M782.39,420.59c0.79,1.18,1.65,2.32,2.38,3.54c0.14-0.2-0.03-1.03,0.82-0.2
						C784.6,422.76,783.46,421.7,782.39,420.59z"/>
					<polygon class="st0" points="780.91,419.09 782.39,420.59 781.49,419.28 					"/>
					<path class="st0" d="M768.82,402.43c-1.57-1.06-3.05-2.45-4.71-4.02c0.82,0.92,1.66,1.84,2.51,2.74
						c0.86,0.9,1.72,1.78,2.52,2.68C769.56,403.89,770.63,404.34,768.82,402.43z"/>
					<path class="st0" d="M774.81,409.32c-0.09-0.09-0.21-0.2-0.3-0.28C774.62,409.28,774.73,409.45,774.81,409.32z"/>
					<path class="st0" d="M747.04,383.74c0.07,0.12,0.13,0.22,0.2,0.34c0.05-0.02,0.1-0.05,0.16-0.07L747.04,383.74z"/>
					<path class="st0" d="M769.3,404.24c1.13,1.47,2.02,2.13,2.93,2.72c-1-0.96-2.03-1.99-3.09-3.14
						C768.94,403.8,768.87,403.84,769.3,404.24z"/>
					<path class="st0" d="M759.22,392.69c0.6,0.78,1.31,1.62,2.07,2.48C760.77,394.35,759.62,392.75,759.22,392.69z"/>
					<path class="st0" d="M774.28,408.42c0.07,0.06,0.14,0.11,0.22,0.18C774.22,408.03,774.2,408.14,774.28,408.42z"/>
					<path class="st0" d="M774.28,408.42c-0.74-0.62-1.4-1.03-2.05-1.45c0.81,0.78,1.59,1.48,2.28,2.07
						C774.42,408.82,774.32,408.6,774.28,408.42z"/>
					<path class="st0" d="M738.4,384.17c0.69-0.46,4.97,1.74,7.7,4.88c1.74,1.03,2.51,0.63,2.61-0.46c0.09-1.07-0.45-2.9-1.47-4.52
						c-0.31,0.2-0.51,0.45-4.17-1.67c0.47,0.61,2.19,2.2,3.38,3.44c1.2,1.22,1.79,2.2,0.21,1.36c-4.68-2.95-3.47-2.91-5.39-4.85
						c0.62,1.1-0.97,0.29-2.78-0.41c-1.81-0.71-3.74-1.43-3.65-0.49c1.41,0.75,2.86,1.47,4.26,2.26
						C739.06,383.94,737.43,383.25,738.4,384.17z"/>
					<path class="st0" d="M753.49,389.17l1.41,1.02c-1.45-1.36-2.35-2.5-4-4.64c-2.49-1.55-3.19-1.62-3.5-1.54
						c1.16,0.84,2.23,1.79,3.33,2.7l3.29,2.75L753.49,389.17z"/>
					<path class="st0" d="M760.74,395.39c-1.6-0.28-4.93-2.77-3.66-0.38c3.79,3.34,3.16,1.8,5.58,3.66
						c-6.11-5.48,2.1,1.22-1.94-3.16c1.33,0.95,2.37,1.98,3.38,2.91c-0.99-1.11-1.9-2.24-2.82-3.24c0.04,0.07,0.07,0.11,0.1,0.17
						l0.03,0.02c0,0-0.01,0-0.02,0c0.19,0.32,0.23,0.44-0.02,0.13c-0.03-0.01-0.11-0.07-0.14-0.1
						C761.12,395.44,760.94,395.42,760.74,395.39c-1.66-1.73-0.13-0.42,0.5,0.01c0.05-0.01,0.12,0,0.16-0.03
						c0-0.01-0.01-0.02-0.02-0.03c-2.17-1.72-4.3-3.47-6.49-5.14C756.16,391.41,757.78,392.88,760.74,395.39z"/>
					<path class="st0" d="M784.19,429.18c-0.08-0.25-0.02-0.28,0.02-0.33C783.82,428.48,783.65,428.35,784.19,429.18z"/>
					<path class="st0" d="M782.74,426.13c0.43,0.42,0.99,0.63,2,2.26c0.72,1.52-0.35,0.23-0.53,0.46c0.84,0.82,2.79,2.99,1.09-0.24
						l-0.42-0.41c-0.81-1.43-1.55-3.19-2.12-4.5c-0.58-1.3-0.9-2.21-0.67-2.01c-0.02,0.61-0.02,1.17,0.08,1.85
						C782.27,424.21,782.45,425.01,782.74,426.13z"/>
					<path class="st0" d="M772.31,410.21l-4.92-4.71l1.79,3.05l0.21-0.43C771.87,411.06,771.72,410.09,772.31,410.21z"/>
					<polygon class="st0" points="746.67,382.93 747.96,382.75 743.98,381.41 					"/>
					<polygon class="st0" points="739.32,377.8 740.05,377.33 737.81,376.41 					"/>
					<path class="st0" d="M474.6,610.37l1.27,1.46C475.3,611.12,474.91,610.68,474.6,610.37z"/>
					<path class="st0" d="M467.6,598.4l-0.51-0.11C467.59,598.75,467.85,598.9,467.6,598.4z"/>
					<path class="st0" d="M530.75,369.37c-2.92,0.8-6.34,1.59-5.58,2.15l1.23,0.27C528.09,370.62,529.47,369.83,530.75,369.37z"/>
					<path class="st0" d="M447.54,487.34c0.15-0.25,0.3-0.5,0.46-0.76c-0.12-0.74-0.24-1.44-0.35-2.07
						C447.62,485.36,447.58,486.33,447.54,487.34z"/>
					<path class="st0" d="M450.67,490.05l-1.24,3.53C449.78,492.8,450.18,491.66,450.67,490.05z"/>
					<path class="st0" d="M528.99,662.17l2.37,0.4C528.38,660.78,529.45,661.94,528.99,662.17z"/>
					<path class="st0" d="M654.33,345.98c-2.48-0.64-4.47-1.02-6.24-1.27C651.09,345.56,653.43,346.6,654.33,345.98z"/>
					<path class="st0" d="M463.85,610.5c0.78,0.97,1.21,1.33,1.35,1.2C464.41,610.69,463.89,610.16,463.85,610.5z"/>
					<path class="st0" d="M640.76,344.16c0.44,0.12,0.88,0.19,1.33,0.3c1.86,0,3.74-0.02,6,0.25
						C645.88,344.13,643.29,343.75,640.76,344.16z"/>
					<path class="st0" d="M775.75,618.65c0.15-0.14,0.31-0.32,0.46-0.43C776.15,618.1,775.98,618.31,775.75,618.65z"/>
					<path class="st0" d="M814.84,546.9c-0.08,0.83-0.2,2.18-0.44,3.43C814.59,549.74,814.72,548.7,814.84,546.9z"/>
					<path class="st0" d="M707.98,360.07C709.75,360.76,708.29,360.1,707.98,360.07L707.98,360.07z"/>
					<path class="st0" d="M714.85,367.04c-0.4-0.08-0.73-0.1-0.86,0.06C714.22,366.98,714.51,366.97,714.85,367.04z"/>
					<path class="st0" d="M622.04,349.28c-0.05,0-0.1,0-0.16,0C622.43,349.43,622.34,349.4,622.04,349.28z"/>
					<path class="st0" d="M710.45,361.56c-0.61-0.39-1.33-0.78-2.13-1.19C708.65,360.58,709.3,360.94,710.45,361.56z"/>
					<path class="st0" d="M710.26,361.03c0.59,0.3,1.03,0.56,1.47,0.79C712.01,361.79,711.86,361.6,710.26,361.03z"/>
					<path class="st0" d="M705.52,359.08c1.01,0.41,1.92,0.85,2.8,1.29c-0.32-0.2-0.44-0.31-0.34-0.29
						C707.46,359.86,706.73,359.57,705.52,359.08z"/>
					<path class="st0" d="M651.41,691.93c0.12,0.01,0.26,0.01,0.4,0.04C653.59,691.39,652.79,691.54,651.41,691.93z"/>
					<path class="st0" d="M497.67,405.43c0.05-0.07,0.07-0.11,0.12-0.17c-0.07,0.05-0.15,0.12-0.21,0.17L497.67,405.43z"/>
					<path class="st0" d="M493.58,410.49c0.27-0.69,0.55-1.28,0.84-1.79c0.31-0.5,0.62-0.91,0.95-1.29
						c0.66-0.75,1.38-1.34,2.21-1.99l-3.31-0.26l-0.39,2.65C493.76,408.7,493.68,409.61,493.58,410.49z"/>
					<path class="st0" d="M495.54,636.1c-0.88-1.25-1.68-2.57-2.52-3.84c1.16,0.78,2.17,1.57,3,2.24c0.86,0.65,1.56,1.18,2.02,1.51
						c0.94,0.66,1,0.49-0.11-1.37c-1.24,0.78-4.23-2.41-7.26-5.57c-2.88-3.29-5.73-6.59-6.98-6.01l-1.35-2.73
						c0.49,0.7,0.7,0.71,1.19,1.4c-1.23-2.71-2.27-3.26-3.53-3.93c-1.29-0.65-2.71-1.49-4.68-4.72c-1.32-2.28-1.99-4.01-0.73-2.71
						c-1.25-1.5-2.42-3.06-3.64-4.6c-0.84-1.48-0.22-1.36,0.62,0.1c-0.78-1.25-1.65-2.46-2.37-3.76l-2.22-3.85l0.1,0.02
						c-0.49-0.46-1.23-1.24-1.96-2.05c-0.7-0.83-1.36-1.7-1.8-2.27c-0.64-2.22,0.75,0.9,0.8,0.23l-2.74-4.18
						c-0.23-2.11,2.16,1.29,3.54,4.4c0.22-2.67-0.37-3.5-1.38-4.88c-1.06-1.35-2.33-3.38-3.52-8.23l2.11,4.12
						c0.13-1.68-0.27-3.27-0.85-5.1c-0.55-1.83-1.15-3.95-1.58-6.52c-0.03,0.65,0.27,3.29,0.29,5.2c0,0.96-0.03,1.71-0.24,1.94
						c-0.2,0.22-0.64-0.05-1.23-1.25c-0.32-1.49-0.89-3.38-2.39-5.91c0.86-0.32-0.19-2.92-1.25-6.27l1.3-0.13
						c-0.72-1.75-1.23-2.51-1.68-3.09c-0.43-0.58-0.84-0.97-1.39-1.99c-0.89-4.15-0.14-5.21,0.46-6.35
						c-1.05-6.65-0.69,4.91-2.41-2.9c-0.28-2.82-0.78-5.15-1.23-7.65c-0.47-2.49-1.28-5.09-1.86-8.44c0.12-3.98,0.84,0.62,1.09-0.82
						l-1.3-3.41c-0.05-0.86,0.29-0.6,0.46-0.47c-0.59-2.93-1.31-0.16-1.81-4.83c-0.7-0.61-0.33-3.04,0.2-6
						c0.29-1.48,0.57-3.1,0.69-4.7c0.12-1.61,0.06-3.21-0.19-4.67c0.48-1.39,0.73,0.74,1.26,0.33c-0.2-3.96-0.26-5.67-0.37-7.21
						c-0.03-1.53-0.13-2.89-0.39-6.24c0.27-0.9,0.51-1.8,0.8-2.69l0.93-2.66c-1.7,3.85-1.87-1.46-1.89-6.24
						c-0.75,1.34-1.37,2.51-1.72,3.31c0.13-1.24,0.22-2.5,0.38-3.74l0.56-3.72c0.42-0.83,0.67,0.01,0.89,1.32
						c0.02-0.52,0.03-1.01,0.03-1.4c1.1-2.48,1.48-0.94,1.72,1.06c-0.47,0.81-0.95,1.62-1.4,2.41c0.3,1.95,0.91,3.8,1.69,3.57
						c-0.05-0.49-0.03-1.42,0.13-2.42c0.08,0.5,0.23,0.84,0.39,0.65c0.17-0.22,0.09-1.01,0.05-2.25l1.78-1.28l-0.45-0.52
						c0.53-1.5,1.03-3.01,1.58-4.5l1.8-4.41c0.62-6.88,0.63-13.31,4.76-23.58c-0.24,2.91,1.29,1.25,2.35,1.92
						c-0.62,0.53-1.12,1.28-1.58,2.19c-0.41,0.93-0.75,2.02-1.1,3.19c-0.68,2.36-1.44,5.02-2.46,7.63c1.12-2.7,1.45-1.88,1.39-1.11
						c0.33-1.64,0.87-3.22,1.31-4.84c0.47-1.61,0.91-3.23,1.4-4.84c0.83,0.62,1.61-1.6,3.12-3.76c-1.32,0.45-0.83-1.38,0.18-3.81
						c1.12-2.38,2.75-5.35,3.46-7.3c0.7,0.12,0.83,1.32-1.68,5.59c1.98-2.04,2.28-3.87,2.62-5.71c0.38-1.81,0.76-3.65,2.71-5.62
						c-0.62,1.05-1.05,1.56-1.01,2.14c0.51-1.35,1.69-3.52,2.9-4.98c1.16-1.5,2.13-2.44,1.91-1.6l-0.67,1.01
						c0.58-0.82,1.24-1.75,1.95-2.75c0.69-1.01,1.44-2.09,2.26-3.15c0.8-1.09,1.62-2.2,2.44-3.31c0.81-1.12,1.59-2.25,2.41-3.29
						c1.6-2.1,3.02-4.08,4.02-5.66c1.06-1.53,1.67-2.68,1.56-3.19c0.22,0.09,0.8,2.16,0.72,2.75c0.92-2.38,1.82-4.84,2.83-7.24
						l3.22-7.19c0.11,1.95,5.95,1.07,1.77,6.35c0.75-0.6,1.59-1.27,2.56-2.18c0.99-0.89,2.15-1.99,3.47-3.53
						c-1.1,0.71-3.86,0.62-2.6-0.68c4.78-2.06,3.08-1.73,8.67-4.47c-1.72,1-1.48-2.15,1-4.08c-0.17,0.58,1.59,1.62,0.86,2.52
						l1.15-1.65l1.21-1.59l2.46-3.21c-1.33,1.48,0.85,1.74,2.6,1.24c-0.96,0.03,5.52-3.71,7.1-5.03l-3,1.38
						c3.68-2.32,5.13-4.05,6.56-5.87c0.71-0.91,1.43-1.82,2.44-2.79c1.01-0.97,2.38-1.88,4.32-2.91c-0.72,0.92-0.91,3.74,3.09,1.9
						c0.31-0.49,0.79-1.31,1.46-2.34c0.68-0.99,1.56-2.16,2.61-3.42c1.05-1.26,2.28-2.59,3.68-3.88c1.43-1.21,3.03-2.37,4.76-3.35
						l1.65,0.02c1.75-1.06,3.57-1.93,5.38-2.88c-0.74,0.73-1.82,1.73-3.1,2.85c-1.25,1.15-2.69,2.48-4.18,3.85
						c-3,2.61-6,5.56-8.21,7.39c3.16-0.94,1.16,0.31,5.51-1.86c1.8-0.18-1.99,2-3.25,2.64c1.72-0.74,3.42-1.54,5.16-2.23l5.25-2.01
						c-0.48-0.5,1.34-1.74,3.28-2.74c1.92-1.04,3.88-2.07,3.49-2.52l-5.53,2.8l-5.38,3.04c-0.5-0.52,0.75-2.08,3.11-3.91
						c0.59-0.45,1.24-0.94,1.97-1.39c0.73-0.44,1.52-0.88,2.35-1.3c1.67-0.85,3.52-1.66,5.45-2.31c1.08-0.06,0.9,0.62,0.49,1.37
						c-0.39,0.77-1,1.61-0.85,1.79c0.21-0.19,0.73-0.53,1.44-0.87c0.71-0.33,1.58-0.7,2.46-1.04c1.75-0.68,3.49-1.26,3.89-1.22
						l-3.04,1.72c2.21-0.42,3.79-1.45,5.57-2.3c1.78-0.83,3.71-1.61,6.47-1.68c0.9-0.22,2.36-0.11,3.59-0.03
						c1.24,0.06,2.25,0.06,2.32-0.36c-3.26-0.86-4.99-5.34-3.2-6.91c0.34-0.02,2.89-0.2,5.61-0.33c2.74-0.08,5.67,0.02,6.8,0.2
						c3.24,0.68-4.12,3.6-1.34,4.18c0.05-0.38,1.65-1.11,2.33-1.37c1.99,0-0.63,1.23,3.55,0.42c0.52-1.43,8.62-0.91,1.85-1.38
						c2.05-0.44,3.17-0.5,4.37-0.54c0.6-0.02,1.23-0.02,2.01-0.07c0.78-0.02,1.72-0.05,2.94-0.15c-0.81-0.38,0.22-1.21,2-2.03
						c1.78-0.8,4.32-1.68,6.44-1.87c-0.24,0.35,0.73,0.78,1.2,0.98c2.17-0.02,4.08,0,5.86,0.03c1.78,0.09,3.42,0.24,5.04,0.36
						c1.62,0.12,3.22,0.23,4.92,0.36c1.7,0.18,3.49,0.35,5.49,0.5c0.72,0.38,4.54,1.06,2.84,1.52c1.17-0.17,2.26-0.46,4.73-0.21
						c4.61,1.74-5.49-0.47-2.02,1.37c0.2-0.38,1.8-0.46,3.82-0.46c1.01,0.01,2.11,0.03,3.19,0.04c1.07,0.05,2.11,0.13,3,0.15
						c-0.44-0.67-2.44-1.15-4.8-1.23c-2.35-0.12-5.03-0.07-6.8-0.03c0.07-0.84,1.68-1.52,4.36-1.95c1.34-0.22,2.95-0.37,4.77-0.46
						c1.8-0.02,3.81,0.07,5.96,0.23c3.4,0.34,4.07,0.77,4.04,1.07c-0.02,0.3-0.73,0.47-0.14,0.47c6.18,1.49,9,1.31,11.52,1.4
						c1.26,0.02,2.46,0.04,3.97,0.31c0.75,0.14,1.59,0.32,2.53,0.62c0.94,0.33,2,0.75,3.23,1.3c3.7,2.3-0.47,2.1,0.19,3.12
						c-5.32-1.35-7.9-3.01-11.51-3.96l4.3,1.67c-1.79-0.08-5.36-0.84-7.24-1.55c0.81,0.39,2.48,1,4.69,1.66
						c2.21,0.69,4.99,1.36,7.87,2.36c2.9,0.95,6.01,1.89,8.86,3.09c2.87,1.14,5.59,2.23,7.72,3.44c1.72,0.34,4.62,1.17,3.49,0.22
						l-2.9-1.07c-2.29-1.92,5.83,1.18,2.38-0.73c1.02,0.26,2.08,0.53,3.18,0.81c1.1,0.28,2.2,0.67,3.36,1.07
						c1.15,0.41,2.34,0.88,3.56,1.43c0.61,0.28,1.23,0.57,1.85,0.9c0.62,0.33,1.23,0.72,1.85,1.12l0.4,1.61
						c0.03-0.19-0.73-0.81-1.7-1.43c-0.96-0.65-2.2-1.18-3.02-1.39c0.61,0.14,1.38,0.55,2.24,1.08c0.83,0.57,1.75,1.26,2.69,1.93
						c1.87,1.34,3.83,2.54,5.39,2.51c-1.05-0.93-2.14-1.81-3.21-2.72c1,0.37,2.08,0.72,3.2,1.1c1.12,0.39,2.25,0.86,3.41,1.34
						c1.16,0.49,2.33,1.03,3.49,1.63c0.58,0.3,1.15,0.62,1.71,0.96c0.55,0.36,1.08,0.75,1.61,1.16c-1.35-2.35-1.06-0.59-3.54-3.73
						c0.94,1.59-1.95-0.17-4.63-1.79c-2.71-1.59-5.28-2.89-3.42-0.86c-1.29-1.63-2.68-2.58-4.21-3.57c-1.52-1.02-3.27-1.9-5.24-3.65
						c-0.03,0.43,1.28,1.47-2.65-0.64c-0.23,0.02-0.72-0.05-1.03-0.1c-0.12-0.07-0.16-0.1-0.26-0.16c0.07,0.05,0.13,0.09,0.2,0.15
						c-0.2-0.03-0.22-0.02,0.08,0.05c0.88,0.62,1.56,1.18,1.78,1.54c-0.59-0.03-1.43-0.24-2.39-0.55c-0.97-0.29-2.08-0.64-3.18-1.02
						c-2.2-0.75-4.4-1.56-5.58-1.8c-2.37-1.11,1.19-0.04,0.02-0.96l-3.58-0.56c0-0.96-6.04-3.83-0.04-2.17
						c-1.75-0.64-3.47-1.36-5.25-1.94c-1.49-0.74-3.3-1.5-5.09-2.14c-0.89-0.32-1.78-0.61-2.62-0.84c-0.85-0.21-1.65-0.35-2.35-0.45
						c-2.51-0.87-6.69-0.76-4.3-0.85c-2.86-0.63-5.78-0.98-8.66-1.44l-0.03-0.24c-1.05-0.24-2.12-0.46-3.2-0.66
						c-1.09-0.15-2.18-0.29-3.29-0.42c-2.22-0.25-4.46-0.53-6.74-0.75c-2.29-0.18-4.61-0.41-6.96-0.77c-0.59-0.1-1.18-0.2-1.77-0.3
						c-0.59-0.08-1.19-0.17-1.79-0.27c-1.2-0.2-2.4-0.44-3.62-0.73c-1.46,0.02-2.94,0.01-4.66,0c-1.72,0.02-3.69-0.02-6.11-0.2
						l-0.94-0.8c-1.87,0.04-4.68-0.05-7.23-0.12c-2.55-0.05-4.84-0.11-5.62,0.4c-1.03-0.45-2.7-0.62-4.71-0.63
						c-2.01,0-4.37,0.13-6.79,0.51c-2.42,0.35-4.92,0.73-7.21,1.1c-2.28,0.45-4.37,0.83-6.02,1.02l-0.07,1.04
						c-1.12,0.19-2.23,0.34-3.33,0.61c-1.1,0.26-2.21,0.55-3.35,0.85c-2.27,0.64-4.69,1.23-7.33,2.21l0.55,0.78
						c-1.12,0.49-2.43,0.89-3.89,1.26c-1.46,0.38-3.07,0.65-4.74,1.09c-3.34,0.84-7.11,1.57-10.65,3.02
						c0.37-0.5,2.22-1.11,3.58-1.36c-4.61,0.62-9.09,2.56-13.21,4.89c-4.21,2.16-8.05,4.72-12.12,5.83
						c-1.67,1.26-3.03,1.88-4.41,2.36c0.17-0.09,0.31-0.19,0.43-0.28c-0.19,0.09-0.47,0.24-0.75,0.39c-0.88,0.3-1.79,0.59-2.76,0.95
						c0.87-0.22,1.68-0.46,2.36-0.73c-0.7,0.39-1.56,0.89-2.5,1.46c-0.93,0.59-1.9,1.3-2.86,1.99l-1.36-0.31
						c-0.16,0.11-0.29,0.19-0.46,0.31c-2.18,0.9-1.36,1.35,0.07,1.33c-0.93,0.75-1.77,1.47-2.36,2.1c-2.43-0.31-4.85,3.85-7.92,3.9
						c-0.86,1.55-9.24,7.51-9.05,9.72c-0.2-0.12-0.8,0.23,0.17-0.58c-1.07,0.75-2.15,1.5-3.14,2.29c-0.5,0.4-0.98,0.8-1.42,1.23
						c-0.43,0.45-0.83,0.91-1.18,1.39l-1.64-0.18l-3.15,5.03c-2.97,1.87-4.32,2.6-2.5-0.52c-2.48,3.46-3.58,4.73-4.57,5.91
						c-0.94,1.22-1.79,2.33-3.64,5.41l-0.35-0.78c-1.76,1.84-3.46,5.69-4.95,6.41c-0.6,0.42-1.33,1.07-2.18,1.91
						c-0.82,0.86-1.71,1.93-2.7,3.14c-0.98,1.22-2.07,2.56-3.18,4.04c-1.05,1.52-2.17,3.13-3.33,4.8
						c-4.54,6.76-9.19,14.74-12.87,21.1c1.66-0.77,0.7,0.64-0.52,2.41c-0.3,0.45-0.63,0.91-0.92,1.38
						c-0.27,0.47-0.52,0.94-0.72,1.37c-0.39,0.86-0.55,1.56-0.19,1.87c-0.83,0.57-1.92,2.34-1.44-0.04
						c-0.6,1.78-1.23,3.29-1.82,4.66c-0.54,1.39-1.06,2.62-1.54,3.79c-0.95,2.34-1.71,4.46-1.69,7.18
						c-0.78,0.66-0.31-1.78-0.84-1.15c-0.06,0.62-0.23,2.43-0.77,3.08c-0.54,0.64-0.13-1.19-0.01-2.4c-2.2,7.41-0.55,8.63,0.82,9.55
						c-1.64,3.54-2.06,5.45-1.5,8.37c-0.76,1.2-1.72,3.3-1.02-1.37c-0.15,0.65-0.45,1.96-0.81,3.57c-0.35,1.61-0.82,3.52-1.04,5.39
						c-0.52,3.73-0.86,7.18-0.21,7.38c-0.39,0.79-0.39,3.68-0.3,4.39c-0.28,2.96-0.47,4.57-0.5,6.17c-0.07,1.6-0.11,3.19-0.13,6.11
						l0.25-1.61c1.42,2.31,0.33,4.83,0.64,9.52l-0.16-0.13c-0.25,2.7-0.14,4.34-0.09,5.44c0.07,1.11,0.18,1.68,0.28,2.24
						c0.25,1.13,0.26,2.24,0.4,7.59l0.87-0.7c1.1,0.36,1.08,2.7,1.06,5.73c0.05,1.5,0.09,3.18,0.24,4.85
						c0.17,1.67,0.36,3.35,0.96,4.8c0-0.76,0-1.52,0.05-2.28c0.65,1.57,0.59,3.98,0.34,6.48c-0.11,1.25-0.27,2.51-0.33,3.68
						c-0.02,1.15,0.02,2.21,0.2,3.05c0.04,0.77-0.62-1.05-1.05-2.02c1.44,8.97,1.54,0.77,3.75,7.05c-0.23,1.38-2.18-0.96-0.77,3.34
						c0.06,0.58,0.5,1.59,1.14,2.88c0.63,1.29,1.45,2.86,2.42,4.5c0.94,1.65,1.9,3.4,2.7,5.13c0.81,1.73,1.59,3.37,1.94,4.9
						c-0.12-1.45-0.22-2.86,1.47-0.26c0.56,1.04,1.06,2.34,1.58,3.74c0.57,1.38,1.17,2.85,1.77,4.31c0.63,1.45,1.24,2.9,2.01,4.11
						c0.78,1.21,1.61,2.23,2.52,2.93c0.19,0.59,0.19,0.85,0.1,0.94c0.56,0.72,1.26,1.68,2.03,2.73c0.82,1.02,1.71,2.13,2.58,3.21
						c1.74,2.15,3.43,4.09,4.47,4.66c-0.33,2.29,3.33,6.62,7.06,10.23c0.92,0.91,1.79,1.84,2.64,2.64c0.85,0.81,1.62,1.56,2.23,2.24
						c1.22,1.35,1.82,2.4,1.26,2.91c1.25,1.37,2.61,2.62,3.95,3.91c1.34,1.27,2.66,2.57,4.03,3.83l-0.43,0.03
						c2.58,2.45,4.46,3.96,5.99,4.98c1.52,1.03,2.77,1.49,3.95,2c1.13,1.19,0.03,0.66-0.18,0.7c3.78,3.56,6.05,5.29,8.26,6.75
						c1.11,0.71,2.18,1.39,3.54,2.03c1.35,0.64,2.92,1.34,4.92,2.22l0.21,1.33c1.1,0.47,4.11,2.68,7.99,5.4
						c3.95,2.59,8.87,5.57,13.74,7.17c-0.14,0.06-0.41,0.14-1.2-0.08c1.35,0.49,2.74,1.08,4.13,1.74c1.41,0.61,2.86,1.25,4.29,1.95
						c1.43,0.71,2.86,1.42,4.27,2.11c1.44,0.65,2.85,1.29,4.21,1.9c1.37,0.61,2.69,1.18,3.94,1.68c1.27,0.45,2.48,0.81,3.58,1.08
						c2.22,0.54,4.05,0.67,5.3,0.12c2.5,0.4,5,0.73,7.49,1.1c-9.28-2.77,1.79-1.14-1.9-2.75c1.85,0.36,4.12,1.33,5.42,1.9
						c1.28,0.61,1.54,1.04-0.76,0.64c-0.22-0.11-0.45-0.21-0.67-0.34c-2.12,1.46,11.59,3.28,11.13,4.31c2.36,0.4,4.72,0.8,7.06,1.19
						c2.36,0.31,4.71,0.63,7.05,0.94c2.34,0.37,4.69,0.52,7.03,0.76c2.34,0.21,4.67,0.51,7,0.58c2.33,0.12,4.65,0.24,6.96,0.36
						c2.31,0.05,4.62,0.03,6.92,0.04c1.15-0.01,2.29,0.01,3.44-0.02c1.14-0.06,2.28-0.12,3.42-0.18c2.27-0.14,4.54-0.22,6.78-0.45
						c-0.74-0.39-1.47-0.83-2.2-1.27c2.08-0.1,4.14-0.4,6.22-0.6c1.67,0.14,2.34,0.87-2.12,1.34c2.44,0.53,7.38-1.54,7.44-1.95
						c8.73-0.86-3.12,2.25-0.47,1.84l3.6-0.71l-0.84-0.03c1.42-0.54,2.16-0.98,3.21-1.38c1.05-0.42,2.43-0.72,5.05-1.29
						c3.38-0.43,1.89,0.51,3.22,0.28c0.01,0.1,0.47,0.05,2.02-0.4l1.94-0.39l1.92-0.48l3.85-0.96l-3.35-0.3
						c3.23-1.45,7.17-1.85,3.32-2.18c0.71,0.07,1.69,0.02,2.86-0.14c1.16-0.2,2.52-0.51,4-0.89c1.48-0.38,3.09-0.83,4.75-1.33
						c1.63-0.57,3.32-1.18,4.98-1.79c3.35-1.17,6.52-2.63,9.1-3.72c2.6-1.06,4.51-1.97,5.31-2.19c2.02-1.47,4.15-2.63,6.36-3.92
						c2.21-1.31,4.61-2.53,7.24-3.95c-0.69,0.29-1.41,0.21-1.37-0.18c0.05-0.39,0.81-1.18,3.04-2.43c-0.12,1.64,2.04,0.67,4.82-0.77
						c2.75-1.49,6-3.61,8.3-3.97c-3.71,1.22,11.69-8.99,5.87-6.94c3.51-2.48,0.83,0.65,3.77-0.91c3.71-3.6,8.07-7.19,12.57-11.13
						c4.47-3.97,9.1-8.29,13.07-13.3c-0.14-0.38-1.91,0.9-0.57-1.52c1.86-1.35,3.82-2.64,5.61-4.11c1.39-2.13-0.22-3.07,3.53-6.01
						c-0.63,0.35-1.56,0.86-0.66-0.56c7.93-9.61,13.99-20.99,18.83-32.78c4.86-11.83,8.53-24.04,12.34-36.3
						c-1.31,3.27-0.95,0.99-0.49-1.59c-0.48,1.65-0.85-0.18-1.38,0.07c0.57-1.69,0.94-3.41,1.42-5.13c0.44-1.72,0.94-3.44,1.34-5.18
						c-0.58-1.03-0.37-3.86-0.17-6.59c0.05-0.68,0.11-1.36,0.14-2c0-0.64,0-1.24-0.03-1.78c-0.05-1.07-0.19-1.87-0.5-2.16l0.14,3.35
						c-0.7-2.26-1.52-0.72-2.53,1.22c-1.04,1.95-2.17,4.3-3.1,3.9c0.32,1.24,0.28,2.65,0.01,4.17c-0.33,1.52-0.84,3.16-1.34,4.88
						c-0.92,3.48-2.22,7.19-1.73,11.33c-0.71,1.63-0.32-1.59-0.93-0.76c0.44,2.13-0.06,4.51-1.46,8.77l-0.08-0.54
						c-0.16,0.77-0.35,1.5-0.57,2.2c-0.21,0.7-0.41,1.38-0.61,2.04c-0.41,1.31-0.8,2.55-1.18,3.73c-0.36,1.19-0.83,2.29-1.27,3.39
						c-0.45,1.09-0.89,2.16-1.34,3.24c-0.85,2.17-1.96,4.3-3.12,6.71c-0.6,1.2-1.16,2.49-1.89,3.82c-0.72,1.33-1.48,2.76-2.31,4.31
						l1.3-0.52c-1.43,2.67-1.94,3.12-2.85,4.24c-0.1,0.93,0.11,0.93,0.48,0.46c0.37-0.47,0.91-1.4,1.38-2.37
						c0.97-1.93,1.98-3.9,2.01-2.13c-0.9,0.69-1.84,2.28-3.02,4.18c-1.19,1.9-2.44,4.21-3.72,6.46c-1.37,2.2-2.72,4.36-3.94,6.04
						c-1.22,1.67-2.42,2.79-3.24,3.05c-2.62,3.82,1.67-0.51-0.96,3.33l-1.18,0.68c-0.01,0.48-0.04,0.93-0.07,1.4
						c-1.95,2.37-3.47,3.14-3.93,2.92c0.49-0.55,1.15-1.75,1.59-2.41c-0.73,0.68-1.5,1.58-2.26,2.56c-0.76,0.98-1.5,2.06-2.26,3.02
						c-1.48,1.95-2.71,3.7-3.23,4.14l3.13-3.18c-0.96,1.26-1.97,2.53-3,3.83c-1.01,1.32-2.21,2.52-3.34,3.8
						c-1.16,1.26-2.3,2.56-3.52,3.8c-1.24,1.22-2.48,2.45-3.72,3.68l-1.86,1.84c-0.64,0.59-1.28,1.17-1.92,1.75
						c-1.27,1.17-2.52,2.34-3.74,3.5c-1.26,1.13-2.49,2.24-3.7,3.32c-1.19,1.11-2.35,2.2-3.48,3.26c0.34-0.07,0.69-0.13,1.02-0.21
						c-3.53,3.14-5.13,4.16-6.84,5.2c-1.77,0.97-3.64,1.97-7.85,4.95l0.26-0.28c-1.53,1.44-3.79,3.06-6.25,4.48
						c0.99-0.91-0.19-0.47-1.29-0.15c-1.12,0.31-2.14,0.56-0.79-0.51c-4.25,2.8-5.28,3.56-5.88,4.19c-0.6,0.65-0.79,1.12-3.48,3.34
						l-1.73,0.01c-1.79,1.6-1.79,2.07-6.52,4.26c3.67-2.25-3.48,0.25,0.56-2.38c-1.33,0.34-2.54,0.72-3.65,1.12
						c-1.11,0.41-2.14,0.82-3.12,1.18c-1.94,0.76-3.59,1.56-5.07,2.28c-1.48,0.75-2.83,1.3-4.15,1.66
						c-1.31,0.36-2.59,0.51-3.94,0.32c-4.15,3.47,9.28-1.75,6.76-0.49c1.2-0.1,0.38,0.66-1.22,1.43c-1.59,0.79-3.91,1.7-5.58,2.12
						c-1.66,0.54-3.3,0.23-5.53,0.17c-2.23-0.08-5.05,0.09-9.29,0.97c0.85-0.17,0.87-0.34,1.71-0.51
						c-3.28,0.16-6.07,2.12-10.16,1.87c-2,1.58-5.1,0.82-5.52,2.43c2.63-0.5,5.23-1.11,7.84-1.66c-2.2,0.58-4.27,1.5-6.76,2.33
						c-2.5,0.74-5.42,1.3-9.2,1.31c0.55-0.39,2.73-1.07,4.22-1.48c-2.23-0.23-4.15,0.88-6.46,0.51c0.13-0.41,0.79-0.67,1.79-0.87
						c1-0.25,2.32-0.44,3.78-0.63c1.46-0.19,3.05-0.39,4.57-0.65c1.51-0.27,2.94-0.71,4.08-1.19c-2.37-0.17-8.89,2.38-6.7,0.4
						c-1.59,1.28-3.73,1.49-6.16,1.61c-2.44,0.04-5.17,0.04-8.06,1.08l0.34-0.98c-0.91,0.25-2.82,0.71-4.54,0.73l3.04-1.3
						c-4.71,1.15-9.13-0.62-13.64-0.25c4.74,0.11,5.27,0.38,5.12,0.75c-0.15,0.38-1,0.87,1.03,1.16c-1.47,0.22-2.69,0.23-3.71,0.24
						c-1.02,0-1.84-0.06-2.54-0.16c-1.39-0.2-2.27-0.56-3.19-0.94c-0.92-0.36-1.87-0.82-3.41-1.2c-1.54-0.38-3.66-0.68-6.93-0.8
						c1.77-0.01,6.59,1.04,3.79,1.28c-1.24-0.19-2.68-0.42-3.98-0.71c-1.3-0.34-2.48-0.69-3.21-1.03c-8.63-0.83,1.21,1.13-2.54,1.27
						c-1.4-0.76-2.48-0.73-3.69-0.62c-1.21,0.11-2.55,0.39-4.48,0.25l0.13-0.96c-4.85-1.09-5.57-0.83-6.2-0.45
						c-0.62,0.36-1.13,0.73-5.45-0.58l4-0.5l-4.64-0.65l1.19-0.87c-1.29-0.05-2.33-0.18-3.26-0.35c-0.93-0.15-1.74-0.33-2.54-0.54
						c-1.59-0.44-3.16-0.91-5.48-1.8c0.91,1-1.12,1.48-5.36,0.17c-1.35-0.73-0.87-0.82-0.81-0.95c0.03-0.06-0.04-0.14-0.5-0.31
						c-0.46-0.15-1.29-0.44-2.77-0.96c0.77-0.05,1.56-0.09,2.47,0.05c0.91,0.13,1.91,0.48,3.06,1.31c0.36-0.22,1.51-0.16,1.87-0.37
						c-1.43-0.81-3.35-1.44-5.16-1.99c-1.79-0.62-3.5-1.11-4.56-1.5c0.8,0.33,1.75,0.74,2.2,1.06c-2.96-0.64-5.98-1.19-8.9-2.02
						c-1.17-0.89-0.02-0.72,1.12-0.54c-1.72-0.62-3.06-0.7-5.58-1.68c0.96-0.44,1.14-1.25,4.76-0.11l-4.11-1.27
						c-1.38-0.41-2.7-0.95-4.06-1.43c-0.37-0.56-3.54-2.74-2.42-2.52c-0.51-0.31-1.06-0.59-1.65-0.87c-0.58-0.3-1.19-0.59-1.83-0.88
						c-1.29-0.57-2.69-1.12-4.14-1.69c-0.72-0.3-1.47-0.57-2.19-0.91c-0.72-0.34-1.44-0.7-2.15-1.07c-1.42-0.75-2.81-1.57-4.08-2.51
						c-0.36-0.04-1.01-0.24-2.17-0.91c-1.21-0.86-2.35-1.74-3.49-2.61c-1.13-0.88-2.28-1.73-3.4-2.68
						c-1.14-0.92-2.32-1.83-3.62-2.71c-0.65-0.44-1.33-0.87-2.03-1.31c-0.69-0.46-1.41-0.92-2.17-1.36l-2.18-3.59
						c-2.22-1.6-1.47-0.42-1.08,0.5c0.19,0.46,0.3,0.85-0.12,0.8c-0.41-0.06-1.37-0.53-3.15-1.99c-5.15-4.01-1.01-2.51-2.43-4.31
						c-1.47-0.77-3.37-1.97-5.41-3.54c-1.01-0.79-2.07-1.66-3.04-2.69c-0.95-1.05-1.86-2.22-2.65-3.51
						C493.31,633.55,494.17,634.86,495.54,636.1z M458.56,579.82c0.62,1.17,2.27,3.32,2.1,4.43
						C459.07,583.29,459.05,582.03,458.56,579.82z M451.87,477.92c0.01,0.52-0.13,1.13-0.39,1.81c-0.22,0.69-0.54,1.45-0.92,2.24
						C450.78,480.74,451.14,479.36,451.87,477.92z M688.22,353.53c-0.06,0-0.1,0-0.15,0C685.24,352.24,686.24,352.71,688.22,353.53z
						 M694.17,355.92c0.65,0.1,0.65-0.05,0.44-0.27c-0.25,0.04-0.71-0.06-1.3-0.25c-0.59-0.18-1.33-0.41-2.09-0.7
						C691.56,355.1,692.32,355.44,694.17,355.92z M672.02,694.98l-1.27,0.02C673.43,694.14,672.72,694.55,672.02,694.98z"/>
					<path class="st0" d="M450.31,489.7c-0.23,0.33-0.42,0.4-0.62,0.45C449.75,490.7,449.94,490.75,450.31,489.7z"/>
					<path class="st0" d="M528.55,662.09l0.17,0.12c0.13,0.01,0.21-0.01,0.27-0.04L528.55,662.09z"/>
					<path class="st0" d="M597.83,355.37c-1.27,0.07-1.99,0.01-2.48-0.09C595.32,355.52,595.92,355.62,597.83,355.37z"/>
					<path class="st0" d="M725.82,368.44l-3.75-1.74c1.78,0.91,2.31,1.43,3.12,2.04C725.21,368.5,724.68,367.84,725.82,368.44z"/>
					<path class="st0" d="M751.43,393.42c0.53,0.28,0.98,0.77,1.48,1.07l0.17-0.45C751.15,392.45,749.54,391.66,751.43,393.42z"/>
					<path class="st0" d="M727.5,373.13c-0.14,0.87,2.18,1.94,4.69,3.28c-0.15-0.09-0.29-0.16-0.43-0.26
						C733.09,375.62,730.28,374.37,727.5,373.13z"/>
					<path class="st0" d="M732.77,376.73c0.75,0.45,1.5,0.93,2.2,1.44C735.49,377.98,734.13,377.5,732.77,376.73z"/>
					<path class="st0" d="M701.98,358.25c1.18,0.73,1.18-0.63,1.77-0.02c0.89-0.16-1.31-0.83-2.9-0.98
						C699.27,357.06,698.38,357.19,701.98,358.25z"/>
					<polygon class="st0" points="728.09,376.61 727.74,375.23 725.98,375.11 					"/>
					<path class="st0" d="M708.82,365.56l3.94,2.2c0.01-0.18,0.57-0.02,1.24,0.22C711.51,366.75,708.85,365.25,708.82,365.56z"/>
					<path class="st0" d="M714,367.98c1.29,0.66,2.56,1.2,3.33,1.46C716.65,369.04,715.09,368.39,714,367.98z"/>
					<polygon class="st0" points="722.66,373.76 721.6,372.95 718.85,371.38 					"/>
					<path class="st0" d="M662.73,351.13l-4.89-0.53c-0.54,0.26,0.74,0.69,2.56,0.85C661.59,351.41,663.42,351.58,662.73,351.13z"/>
					<path class="st0" d="M676.58,356.93c-1.22-0.54-1.25-0.78-1.89-1.29l-0.44,1.17L676.58,356.93z"/>
					<path class="st0" d="M662.72,354.2c-0.54,0.26-7.07-0.18-1.03,0.75C662.22,354.7,667.05,355.22,662.72,354.2z"/>
					<polygon class="st0" points="589.86,353.31 591.07,353.03 590.51,351.07 					"/>
					<path class="st0" d="M532.13,380.61c5.08-2.46,0.48-1.85,5.26-3.77c0.94-1.05-3.92,1.55-2.93,0.54
						C531.78,379.59,530.11,380.27,532.13,380.61z"/>
					<path class="st0" d="M534.47,377.39c0.44-0.33,0.91-0.69,1.39-1.1C535.04,376.87,534.68,377.18,534.47,377.39z"/>
					<path class="st0" d="M817.39,533.07c0.27-1.27,0.42-2.54,0.6-3.82l-0.75,2.45L817.39,533.07z"/>
					<path class="st0" d="M816.16,525.68l1.32-0.88l-1.11-2.3C816.4,523.35,816.47,525.03,816.16,525.68z"/>
					<path class="st0" d="M457.76,569.5l-0.38-0.17c-0.16,0.63,0.04,1.45,0.51,3.07C457.82,571.44,457.81,570.46,457.76,569.5z"/>
					<polygon class="st0" points="478.22,613.42 477.77,612.71 477.69,614.68 					"/>
					<path class="st0" d="M506.37,642.91c-1.2-1.15-2.85-2.24-4.03-3.42C505.14,641.78,505.74,644.3,506.37,642.91z"/>
				</g>
			</g>
		</g>
	</g>
</g>
</svg>
