<?xml version="1.0" encoding="utf-8"?>
<!-- Generator: Adobe Illustrator 25.2.3, SVG Export Plug-In . SVG Version: 6.00 Build 0)  -->
<svg version="1.1" id="Layer_1" xmlns="http://www.w3.org/2000/svg" xmlns:xlink="http://www.w3.org/1999/xlink" x="0px" y="0px"
	 viewBox="0 0 280.88 170.81" style="enable-background:new 0 0 280.88 170.81;" xml:space="preserve">
<style type="text/css">
	.st0{fill:none;stroke:#010101;stroke-width:0.75;stroke-miterlimit:10;}
</style>
<g>
	<g>
		<path class="st0" d="M232.88,79.35c0.8-0.8,2.5,18.4-74.1,29.6c0,0-37.5,3.7-57.9-1.1c0,0-20.2-3.6-31.4-5.2c0,0-36.5-7-39.2-24.9
			c0,0-12.7,5.5-7.1,12.9c0.3,0.4,0.8,0.6,1.1,1c0.9,0.9,4,2.8,14.5,1.9c0,0,8.2,4.9,3,7.7c0,0-12.7,3.8-28.7-6.8
			c0,0-7.6-4.9,0.5-14.1c0,0,6.8-10.3,16.2-6c0,0,4.8,15.4,12.2,18.1l14.5,30.3c0,0,6.2,14.4,18.3,19.9c0,0,16.4,9.8,46,11.9
			c0,0,49,2.8,77.3-12.3c1.7-0.9,3.1-2.1,4.2-3.4c3.3-3.8,9.7-12.4,10.2-22.1l0.1-1.3l6.8-2.9c0,0-4,23.3-13.9,30.4
			c-0.5,0.4-1.1,0.8-1.5,1.2c-2.3,2.1-12.7,9.4-45.8,11.7c0,0-21.8,3.9-47.2,1c0,0-17.3,0.3-35.8-9.8c0,0-18.8-16-20.4-15.3"/>
		<path class="st0" d="M186.08,39.05c9.4,1.8,21.3,6.5,31.2,11.5c5.6,1.6,14.5,11.1,15,17.1c4.2,6-4.1,22.6-4,22.2
			c-0.7,1.1-4.2,11.7-4.2,11.7c24.5-3.7,30.2-8.1,30.2-8.1c8.2-4.9,2.4-7.8,2.4-7.8c-2.4-2.2-14.6-2.4-14.6-2.4s-9-0.8-9.2-3.9
			s4.8-3.5,4.8-3.5c28.9,2.5,28.7,17.1,28.7,17.1c0.6,7.6-9.9,11.6-9.9,11.6c-3.1,1.8-9.8,2.7-9.8,2.7l-29.3,1.8
			c-5.1-0.1-1.7-1.4-1.7-1.4c3.2-1.2,7.5-5.7,7.5-5.7c-11.5,0.3-16.4,7.6-16.4,7.6c-0.8,1.1-1,3.9-0.8,5.3c0.2,1.1,1.6,1.7,2.9,1.4
			l3.2-0.8"/>
		<path class="st0" d="M30.98,74.25"/>
	</g>
	<g>
		<path class="st0" d="M107.88,38.95c0,0-71.7,8.7-76.9,35.1c0,0-1.5,20.9,30.8,29.8c0,0,27.3,5.4,62.9,5.4
			c0.1,0.4,94.8-1.8,108.7-28.3"/>
		<path class="st0" d="M233.28,81.45c0.6-4.2,1.1-9.5-0.1-13.2c0,0-2.8-11.6-18.9-19.4c0,0-37.7-18.3-66.3-11.9c0,0-5.5,1.6,0.6,1.2
			c0,0,10.5,1.8,4.2,9.1c0,0-6.7,9.5-25.5,10.8c0,0-16.5,2.6-27.8-1.5c0,0-11-5.1-6.6-10.2c0,0,3.4-4.1,11.8-4.6
			c0,0,3.7-0.7-0.7,1.2c0,0-6.6,4.7,0.5,7.3c0,0,3.7,3.8,17.6,2.8c0,0,15.9-0.7,19.6-3c0,0,6-4,5.6-6.5s-3.6-3-5.8-1.9
			s-0.7,0.2-0.7,0.2s-8.3,6.2-10.6,6.3c-2.3,0.1-10.9,2.4-16.3-1.9c0,0-2.9-2.8-3.1-5.9c0,0-7.4-2.6-7.8-6.3c0,0-1-4,4.6-5
			c0,0,14.1-5.4,21.8-5c0,0,16.8-2.1,16.4,4.7c0,0-1.2,1.3-3.7,2.8c-5.1,3.2-15.5,7.5-31.2,4.4c0,0-5.7-1-0.6-3.7
			c0,0,26.9-10.2,31.3-1.4c4.4,8.8-13.5,14-13.5,14s-4.8,0.8-8.2-0.5s-8-4.9-8.9-3.9"/>
	</g>
</g>
</svg>
