<?xml version="1.0" encoding="utf-8"?>
<!-- Generator: Adobe Illustrator 25.3.1, SVG Export Plug-In . SVG Version: 6.00 Build 0)  -->
<svg version="1.1" id="Layer_1" xmlns="http://www.w3.org/2000/svg" xmlns:xlink="http://www.w3.org/1999/xlink" x="0px" y="0px"
	 viewBox="0 0 1280 66" style="enable-background:new 0 0 1280 66;" xml:space="preserve">
<style type="text/css">
	.st0{fill:#F3E2B9;}
	.st1{fill:#F3E2B9;stroke:#F3E2B9;stroke-miterlimit:10;}
</style>
<g>
	<g>
		<g>
			<g>
				<g>
					<g>
						<path class="st0" d="M1531.5,13.1c1.1,0.2,0.7-1.9,0.8-2.3C1530.6,11.3,1531.6,13.6,1531.5,13.1z"/>
						<polygon class="st0" points="1514.2,17.9 1514.6,17 1512,19.1 						"/>
						<path class="st0" d="M1498.1,17.8c1.5,3.6,5.9-0.6,8.7,0.7l0.5,0.8l1.3-2.9C1505.1,16.9,1500.5,18.8,1498.1,17.8z"/>
						<path class="st0" d="M1489.4,10.1c0.5,1.4-1.9,1.2,2,0.4c-0.2-0.1-0.2-0.2-0.4-0.4C1490.7,10.2,1490.3,10.2,1489.4,10.1z"/>
						<path class="st0" d="M1491.1,10.2C1492.8,10.1,1490,9,1491.1,10.2L1491.1,10.2z"/>
						<path class="st0" d="M1483.2,11l2.2-1.2c-0.5-0.8-2.5-1-1.7-1.6C1481.4,8.8,1481.9,9.6,1483.2,11z"/>
						<path class="st0" d="M1481.1,13.6l1.2-0.5C1482.1,12.7,1481.8,12.6,1481.1,13.6z"/>
						<path class="st0" d="M1484.7,12l-2.5,1.1c0.3,0.6,0.4,1.7,1.1-0.4C1483.2,13.7,1483.7,12.7,1484.7,12z"/>
						<path class="st0" d="M1486.1,12.5c1.3,0.8,2.9,1.3,0.6,2.5C1491.1,14.5,1490.4,12,1486.1,12.5z"/>
						<path class="st0" d="M1497.2,21.5l1.7,1l1.4-1.2C1499.7,22,1497.2,20.4,1497.2,21.5z"/>
						<path class="st0" d="M1469.2,9.1c-0.1,0.8,0.8,2,0.9,3l1.7-0.9C1471,10.8,1469.4,10.3,1469.2,9.1z"/>
						<path class="st0" d="M1470.2,12.1l-2.5,1.3C1469.9,13.6,1470.3,13,1470.2,12.1z"/>
						<polygon class="st0" points="1480.7,17.6 1484.8,14.8 1479.9,17.6 						"/>
						<polygon class="st0" points="1459.8,9.1 1461.2,7.3 1458.7,10 						"/>
						<path class="st0" d="M1453.5,9.4c1-1.5-1.4-2.5-0.3-3.4c-1.7,0.3-3.2,1.5-4.5,2.6C1450.1,8,1451.6,8.2,1453.5,9.4z"/>
						<path class="st0" d="M1446.5,10.3c0.7-0.4,1.4-1,2.2-1.6C1448,9,1447.2,9.5,1446.5,10.3z"/>
						<path class="st0" d="M1463.5,13.1c-0.2-0.5-0.6-1.7-1.9-2.2l1,2.1C1462.8,13.1,1463.1,13.1,1463.5,13.1z"/>
						<path class="st0" d="M1462.5,13.1L1462.5,13.1c-1.1-0.1-1.8-0.2-2.1-0.2C1460.7,13,1461.3,13,1462.5,13.1z"/>
						<path class="st0" d="M1463.7,13.1c-0.1,0-0.2,0-0.2,0C1463.6,13.3,1463.6,13.4,1463.7,13.1z"/>
						<path class="st0" d="M1474.2,15.6c-1.5,1.2-4.5,2.5-1.6,4.3C1473.7,18.5,1472,17.4,1474.2,15.6z"/>
						<path class="st0" d="M1464.9,15.8l2.6,0.5c-0.1-0.6-0.5-1.4,0.2-2L1464.9,15.8z"/>
						<polygon class="st0" points="1463.7,16.4 1464.9,15.8 1464,15.6 						"/>
						<path class="st0" d="M1451,12.3c-1.1,0.9-2.4,1-3.8,1.2c1.5,0.4,3.1,0.6,4.5,0.6C1452,13.4,1452.6,12.2,1451,12.3z"/>
						<path class="st0" d="M1456.6,12.9c-0.1,0-0.2,0.1-0.2,0.1C1456.5,13.2,1456.6,13.2,1456.6,12.9z"/>
						<path class="st0" d="M1433.4,13.4c0.1,0.1,0.1,0.3,0.2,0.4c0-0.1,0-0.2,0.1-0.4L1433.4,13.4z"/>
						<path class="st0" d="M1452,14.5c1.1,0.4,1.8-0.1,2.4-0.8c-0.8,0.2-1.7,0.4-2.7,0.4C1451.7,14.4,1451.7,14.6,1452,14.5z"/>
						<path class="st0" d="M1442.6,11.3c0.6,0.5,1.3,0.8,2,1.2C1444,11.8,1442.8,10.7,1442.6,11.3z"/>
						<path class="st0" d="M1456,12.4c0.1,0,0.1-0.1,0.2-0.1C1455.8,11.9,1455.8,12.1,1456,12.4z"/>
						<path class="st0" d="M1456,12.4c-0.6,0.3-1,0.8-1.5,1.3c0.7-0.2,1.3-0.4,1.9-0.7C1456.2,12.9,1456.1,12.6,1456,12.4z"/>
						<path class="st0" d="M1429.2,27.2c0.2-2,3.2-3.8,5.7-1.7c2.5-1.5,0.9-8-1.3-11.6c-0.1,0.9-0.1,1.7-2.7,2.8
							c0.9,1.1,5.8,2.5,3.6,4.3c-3.4,1-2.8-0.7-4.5-1.7c1.4,2.5-4.4,3.6-3.6,7.2l3-1.3C1429.5,25.8,1428.4,26.7,1429.2,27.2z"/>
						<path class="st0" d="M1438.6,14l1.1-0.2c-1.2-0.4-2.1-1.1-3.7-2.7c-1.8,1-2.2,1.7-2.3,2.4l5.3,0.3L1438.6,14z"/>
						<path class="st0" d="M1444.4,13.8c-0.8,2.2-3.4,3.1-1.8,5.4c3.1-0.1,2.2-1.8,4.1-2.7c-5.1,0.5,1.5-1.2-2.2-2.4
							c1-0.4,1.9-0.5,2.7-0.6c-0.9-0.3-1.8-0.6-2.6-1c0.1,0,0.1,0.1,0.1,0.1l0,0c0,0,0,0,0,0c0.2,0.3,0.3,0.4,0,0.3c0,0-0.1,0-0.1,0
							C1444.7,13.2,1444.6,13.5,1444.4,13.8c-1.5-0.5-0.2-0.6,0.2-0.8c0-0.1,0.1-0.2,0.1-0.3c0,0,0,0,0,0l-5.1,1.2
							C1440.7,14.1,1442.1,14,1444.4,13.8z"/>
						<path class="st0" d="M1469.9,24.6c-0.2-0.2-0.2-0.3-0.2-0.5C1469.5,24.3,1469.3,24.5,1469.9,24.6z"/>
						<path class="st0" d="M1467.9,23.3c0.4-0.3,0.7-1.2,1.9-0.9c1,0.6,0,1,0.1,1.7c0.7-0.6,2.5-1.5,0.3-2.6l-0.4,0.3
							c-2.1-0.7-4.7-3.4-4.3-3.7C1466,20,1466.5,21.4,1467.9,23.3z"/>
						<path class="st0" d="M1456,19.1l-4.2,1.1l2.2,1.9l-0.1-1.1C1456.2,21.3,1455.7,19.9,1456,19.1z"/>
						<polygon class="st0" points="1432.9,12.4 1433.5,10.1 1431,13.3 						"/>
						<polygon class="st0" points="1427.4,12.6 1427.6,10.7 1426.2,11.9 						"/>
						<path class="st0" d="M1117.2,37.4L1116,38C1116.6,37.8,1117,37.6,1117.2,37.4z"/>
						<path class="st0" d="M1126.2,37.5l0.2-1C1126,37.1,1125.9,37.5,1126.2,37.5z"/>
						<path class="st0" d="M1292.4,13c-1.8-1.9-3.8-4.7-3.6-2.5l0.6,2.2C1290.6,12.3,1291.6,12.5,1292.4,13z"/>
						<path class="st0" d="M1200,26c0.2,0.2,0.3,0.4,0.5,0.7c0.4-0.7,0.8-1.4,1.2-2.1C1201.2,25,1200.6,25.5,1200,26z"/>
						<path class="st0" d="M1198.7,35l-2.4-1.4C1196.8,34,1197.6,34.5,1198.7,35z"/>
						<path class="st0" d="M1068.1,39.7l-1.4,2.2C1068.9,41.9,1067.9,40.8,1068.1,39.7z"/>
						<path class="st0" d="M1371.1,13.5c-1.6-0.9-2.8-1.2-3.9-1.3C1369.1,13.4,1370.6,15.3,1371.1,13.5z"/>
						<path class="st0" d="M1120.8,14.4c-0.8,0.4-1.1,0.8-1.1,1.3C1120.5,15.3,1120.9,14.9,1120.8,14.4z"/>
						<path class="st0" d="M1362.7,12.2c0.3,0.2,0.6,0.3,0.8,0.5c1.1-0.4,2.3-0.7,3.7-0.5C1365.8,11.2,1364.2,10.7,1362.7,12.2z"/>
						<path class="st0" d="M889.9,38.1c-0.1-0.1-0.3-0.1-0.4-0.3C889.4,38.1,889.6,38.1,889.9,38.1z"/>
						<path class="st0" d="M837.9,16.2c0.5-0.1,1.3-0.1,2.1-0.2C839.7,15.9,839,15.9,837.9,16.2z"/>
						<path class="st0" d="M1405.3,11.7C1406.5,11.6,1405.5,11.5,1405.3,11.7L1405.3,11.7z"/>
						<path class="st0" d="M1411,20.3c-0.2,0.2-0.4,0.5-0.5,1.1C1410.6,20.8,1410.8,20.5,1411,20.3z"/>
						<path class="st0" d="M1351.1,25.7C1351.1,25.7,1351,25.7,1351.1,25.7C1351.3,26.1,1351.3,26,1351.1,25.7z"/>
						<path class="st0" d="M1407.1,12.7c-0.4-0.3-0.9-0.5-1.5-0.6C1405.8,12.2,1406.2,12.4,1407.1,12.7z"/>
						<path class="st0" d="M1406.8,11.7c0.4,0.1,0.7,0.1,1,0.2C1408,11.5,1407.8,11.3,1406.8,11.7z"/>
						<path class="st0" d="M1403.7,11.8c0.7,0,1.3,0.1,1.9,0.2c-0.2-0.1-0.3-0.3-0.3-0.3C1404.9,11.8,1404.5,11.8,1403.7,11.8z"/>
						<path class="st0" d="M985.4,32.2c-0.1-0.1-0.2-0.1-0.2-0.2C983.9,32.9,984.5,32.8,985.4,32.2z"/>
						<path class="st0" d="M1262.1,35.5c0.1,0,0.1-0.1,0.1-0.1c-0.1,0-0.1,0-0.2-0.1L1262.1,35.5z"/>
						<path class="st0" d="M1257.9,37.1c1.8-2.7,2.8-2.4,4.2-1.8l-1.4-6.2L1257.9,37.1z"/>
						<path class="st0" d="M1095.7,38l2.9,2c-3.6,3.2-6.1,2.1-3.3,4.8c0.4-6.8,11.4-0.7,11.8-7.5l1.9,1.4c-0.6-0.1-0.6,0.3-1.2,0.3
							c3.8,3.2,2.8-4.9,7.7-4c1.7,0.5,2.9,1.5,1.7,2.3l3.8-1.7c1.1,0.1,0.8,1.3-0.3,1.2l5.8-0.5l0,0.2c0.8-1.1,2.7-2.7,3.6-3.4
							c1.5,1-0.7,0.7-0.4,1.6l3.2-1.7c1.3,1.8-1.3,3.5-3.5,3.2c3,6.8,2.6-1.7,9.1,2.2l-3,0.9c1.9,3.8,4.3,2.5,7.7,4.8
							c-0.8-1.2-6.8-6-3.4-7.7c1,0.5,2.3,0.8,4.1-0.6c0,2.4,1.8,1.8,4.1,1.7l-0.2,3.2c2.5-0.9,2.3-2.5,3.7-4c2.8,0.3,3.3,2.8,4,4.9
							c4.4,0.5-3-4,2.2-4.6c3.7,1.2,6.2-0.1,10.6-2c2.6,1.1-0.4,2,0.5,2.9l2.3-2.5c0.6,0.1,0.4,0.8,0.3,1.2c1.9-1,0.2-3.2,3.2-4.1
							c0.8-3.5,6.2,5.1,9.9,1.1c0.9,0.9-0.4,2-0.2,3.2c5.1-2.6,4.4-1.9,8.6-5.5l3.6,2.1c-2.6-2.4,0.7-5.2,3.7-7.6
							c-0.9-1.2-1.7-2.2-2.3-2.7l4.7-1.7c0.6,0.5,0.1,1.6-0.7,3c0.3-0.3,0.6-0.5,0.9-0.8c1.7,1.2,0.8,3-0.4,4.8
							c-0.6-0.6-1.1-1.3-1.7-2c-1.2,1.9-2.2,4.1-2,6c0.3-0.4,0.9-0.7,1.5-0.9c-0.3,0.5-0.5,1-0.3,1.3c0.2,0.3,0.7-0.4,1.4-1.2
							l1.1,3.6l0.3-1.4l6.1,2.2c4.4-3.6,8.2-8.9,15.2-10.3c-1.7,2.6-0.4,4.3-0.5,7.4c-1.9-3.3-5.4,1.4-9,0.7c1.9,0.3,1.5,1.8,1,2.3
							l6.4-3c-0.1,2.5,1.4,1.9,3.1,2.9c-1.3-5,4.8-3.3,7.4-4.9c0.2,1.7-0.5,3.4-3.7,3c3.5,3.8,4.6-5.9,8-2.7c-0.8,0-1.2-0.2-1.5,0.6
							c1.8-1.5,6.3-0.3,5.2,1.2l-0.8,0c5.2,0.6,15.8,0,16.5-4.2c0.1,0.5-0.7,5.1-1,6l9.2-14.3c-0.8,3.7,2.3,12.3-2,14.4
							c1.2,0.5,2.8,1.1,5.4-0.2c-0.8-0.5-2.1-5.3-0.9-5.6c3.2,4.1,2.2,2.2,6.1,5.6c-1.3-0.8,0.1-6.5,2.1-6.3
							c-0.3,0.9,0.2,5.7-0.6,6.2l4.9-5.6c-1.2,1-0.2,4.8,0.9,6.3c-0.5-1.1,4.3,0.1,5.6-0.5l-2.1-1.3c5.6,0.8,5.5-7.9,11.1-7.6
							c-0.7,1.2-1.7,7.2,1.2,7.9c1.3-2.9,5.7-13.9,10.6-16.1l0.9,1.6l3.8-1.9c-2.3,4.3-8.9,13.5-12.5,17c2.1,1.3,0.6,1.9,3.7,1.8
							c1.1,1.5-1.7,2.3-2.6,2.4l7.3,1c-0.3-3.4,5.6-3.4,5.3-6.2l-7.9,3.5c-0.3-3.3,4.6-9.5,9.8-9c1.3,1.3-1,6-0.9,7.1
							c0.7-1.2,4.9-2.2,5.4-1.4l-2.2,1.8c2.9,1.3,4.7-4.5,8.2-1.2c1.2,0.2,3.6,4.3,3.8,2.3c-1.9-3.8-2.3-15.7-1-18.6
							c0.4,0.3,6.3,3.7,7.6,5.6c2,3-2.9,7.2-1.3,9.8c0.1-0.9,1.2-2,1.6-2.4c1.3,0.8-0.5,2.8,2.2,2.4c0.4-3.4,5.6,0.3,1.3-2.9
							c2.7-1,2.8,0.7,6,0.5c-1-2.2,2.8-7.5,5.5-8.5c-0.2,0.9,0.4,2,0.7,2.5c5.5,0.3,8.4,1.8,13.5,1.9c0.5,0.8,2.9,1.8,1.9,3.3
							c0.7-0.6,1.4-1.8,3-1.8c3.1,2.9-3.5,0.5-1.2,4c0.2-2,4.1-2.7,6.3-4c-0.7-3.1-5.2-0.6-7.4,0.7c0-4.2,3.9-8.6,9.2-10.6
							c4.2-1,1.8,2.7,2.6,2.1c8,0.7,6.8-7.4,13.4-4.3c2.6,2.7,0.1,5.4,0.7,7.3c-3.4,1-5.3-1.7-7.6-1.6l2.9,1.3
							c-1.1,0.9-3.4,1.6-4.7,0.8c2.2,2.4,13.4,0.5,19.6,2.7c1.1-0.9,3-1.8,2.1-2.9l-1.9,0.4c-1.8-2.2,3.7-3,1.2-4
							c2.6-1.5,5.5-3.9,9.2-2.7l0.7,3.1c-0.1-0.9-2.4-1.8-3.4-0.9c1.5-1.4,5.6,4.1,7.3,0.1l-2.6-2.1c2.6-1.5,5.8-4.8,9.1-3.8
							c-1.5-3-0.8,0.4-3.1-3.2c2,4.4-8.3-0.2-5.1,4.5c-2.4-4.1-4.1-1.7-7.2-5.2c0.1,1,1.1,1.9-1.6,1.4c-0.1,0.3-0.4,0.7-0.6,0.9
							c-0.1,0-0.1,0-0.2-0.1c0.1,0,0.1,0.1,0.2,0.1c-0.1,0.1-0.1,0.2,0.1,0c0.7,0.4,1.2,1,1.4,1.5c-1.3,2.3-5.7,2.2-7.2,3.5
							c-1.6-0.5,0.7-1.2-0.2-2.2l-2.2,1.8c-0.2-2.2-4.3-3.7-0.5-5l-3.4-0.1c-2-1.3-4.8-1.8-6.5-0.8c-1.6-0.5-4.1,2.5-2.7,0.7
							l-5.4,1.4l-0.1-0.6c-5.3-0.3-10.9,3.7-17-0.3c-1.8,0.6-3.6,1.3-6.6,0.6l-0.6-1.9c-2.3,0.7-6.9-1.9-7.9,0.1
							c-2.5-5.2-11.1-1.1-15.2-2.1l-0.2,2.5c-2.8-0.1-5.4,0.6-8.9,1.6l0.2,2.2c-3,1.8-7.7-1.6-12.3-1.4c0.3-0.9,1.5-0.6,2.4-0.1
							c-5.6-5.1-11.9,3.7-17,0c-1.3,0.8-2.2,0.5-3.1,0c0.1,0,0.2,0,0.3-0.1c-0.1,0-0.3,0-0.5,0c-0.6-0.4-1.1-0.8-1.8-1.2
							c0.5,0.5,1,1,1.5,1.2c-1,0-2.5,0.3-3.9,0.9l-0.6-2.4c-0.1,0-0.2,0-0.3,0.1c-1.4-0.9-1.2,1.1-0.4,3c-0.7,0.4-1.4,0.9-1.9,1.5
							c-1.2-3.9-3.8,1.3-5.4-2.8c-1,2-7.3,1.5-8.1,5.8c-0.1-0.5-0.5-0.8,0.3-0.9c-1.6-0.5-3.2-1-4.7,0.2l-0.7-3.1l-3.5,4.1
							c-2.2-1.9-3.1-3-0.9-5.3c-5.2,3.6-4.2,1.4-8.6,5l0.2-2c-1.6,0.1-4.1,2.7-5,1.1c-3.5-3.8-17.4-0.5-26.4-4
							c1.8,5.8-4.2-2.6-4.6,1.9c-0.5-1.4-1.8-2.1-0.3-3.4c-4.6,1.4-6.9-2.2-10.1,1.6c-0.5-1.4,1-2,0.5-2.8c-0.4,0.3-1.5,1.2-1.9,0.4
							c-0.5-0.8,0.7-1.2,1.4-1.8c-4.7,0.2-5.2,4.5-5.5,8.5c-2.4-1.9-3.6-1.6-5.3,1c-0.8-1.3-2.2-2.7,0.7-3.1
							c-1.6-0.2-10-1.9-10.2,1.3c-0.5-0.8-2.3-0.2-2.7,0.1c-3.7-0.2-4-0.5-7.6-0.2l1,0.5c-1.4,3.9-3,0.9-5.9,1.3l0.1-0.4
							c-6.7-2.8-2.9,1.3-9.5-1.8l0.4,2.4c-0.6,5.2-5.8-3-9.7-1.1l1.4,1.4c-2.1,1.8-5.8-7-8-7.6c-0.5-0.5,0.7-0.7,1.4-1
							c-5.5-3-0.7,3.1-4.8,3.9c-0.8-1.7,1-4.3-1.8-4.6c-1.4-1.4-8,5.5-11.8,2.3c0.8,1.3,1.7,2.6-0.2,3.6c-2.9,0.5-7.9-4.9-10.5-0.8
							c-0.4-0.4-0.5-0.7-0.5-1c-2.2,1.1-7.2,1.8-8.6,4c-2.1-8.3-13.9,4-13.8-3.6l-6.9,0.4l0.2-0.8c-4.4-0.5-5.9,1.3-7.5,3.2
							c-1-0.5-0.3-1.2-0.2-1.6c-6.4-1.5-7.1-1.2-12.4,2.6l-0.6-2.5c-1.5,1.4-9.3-3.9-15.6-1c0.1-0.3,0.2-0.8,0.7-1.1
							c-7.1,2.9-16.9-6.9-19.5,2.2l-4.7,2.2c6,0.7-0.9,3.9,1.6,5.4c-2.4,0.5-6.1-2.7-3.2-3.2l0.5,0.5c1.1-4.7-7.5-1.7-7.3-4.9
							c-11.9,0.2-23.5-2.4-34.6-2.5l1.3,3.7l-3.9-0.2c-1-0.9-1.4-2.9,1.4-2.7c-1.5-2.1-4.6,1.7-4.7,2.5c-5.4-1.5,2.1-4.3,0.5-4.4
							l-2.3,0.3l0.5,0.4c-1.8,1.5-2,3.1-5.3,2.9c-2.1-0.7-1.1-2.2-1.9-2.4c0-0.3-0.3-0.4-1.3-0.1l-4.9-0.3l2,2.9
							c-2.2,1.4-4.6-0.1-2.3,3.1c-3.3-5-18.2-1.8-20.3-3.4c-3,2.1-6,2.1-9.8,1.8c0.9,0.6,1.5,3.9-1.7,3.5c1.2-6.7-5.9-2.9-8.5-7.7
							c2.3,3.2-9.1,0.8-5.5,5.3c-2.7-0.5-0.2-2.5-2.2-4.1c-6.4,2.6-14-1.7-21.9-0.8c-0.1,0.9,1.2,2.2-0.5,3.5l-4.2-4.4
							c-1.5,0.4-1.4,5.1-4.3,2c0.4,0.7,1,1.9,0,2.1c-15.4-4.3-31.5,3.5-47.1-4.5c2.1,1.7,0.7,1.9-0.9,1.9c1,0.4,0,2.2,0.2,3.4
							l-6.5-3.3c-1.2,3.3-7,0.2-7.7,3.4l2.1-0.6c-2.8,3.7,3.9,8.3,3.5,13.1c3.1-4.2,8.2,6.3,13.2,0.2c1.1,1-1,1.5-0.3,2.7
							c1.3-2,2.8-2.5,5.7-1.6l-0.3,0.5c8.1-0.5,11.5,1.5,20.6,2.9l-0.7-2.4c2,0.3,2.4,1.1,3.3,1.7c2.2-3.6-5.5-0.2-3.4-4.2
							c2.6,4.8,13.7,0.1,15.5,5.5c3,0-0.9-2.7,2.1-2.7l0.8,1.5l0.8-1.9c2,0.3,3,2.2,3,3.4c-0.5-0.2-1.4,0.3-1.9,0.5
							c2.5,1.7,7.2-0.6,8.1,0l-2.9-0.9c8.2-1.4,18.2,0.5,26.1-2.5l-0.6-1.1c6-2.1,4.8,1.2,11.5,0.3l-0.2,0.3
							c1.3-1.1,3.1-1.7,4.9-1.5c-1.7,1.3,3.2,2.5,1,4c6.5-2.2,3.2-1.8,7.6-5.9l1,1.8c1.5-1.7,1.6-2.6,4.9-3
							c-2.7,1.6,2.1,2.8-0.9,4.9c7,4,10.3-4.1,13.5,1.8c3.2-5.1-6-2.8-4.2-4c-1.5-1.7,2.6-3.8,4.8-3.3c2.2,0.1,3.8,6.6,9.4,6.5
							c-0.6,0-0.6,0.4-1.2,0.3c2.1,1.3,4.1-1.8,6.7,0.3c1.4-3.1,3.3,0.2,3.7-3.8l-5.1,0.9c2.9-1,5.6-5.7,10.4-3.4
							c-0.4,0.8-1.8,1.8-2.8,2.4c1.4,1.2,2.7-0.8,4.1,0.4c-0.4,4-6.2,0.9-9.3,3.9c1.5,1.7,5.9-2.9,4.3,1.4c2.2-5.5,5.5,0.7,9.3-3.5
							l-0.2,2.4c0.6-0.4,1.8-1.5,2.9-1.4l-2,3.1c3.1-2.6,5.9,2.3,8.8,0.9c-6.2,0.1-1.4-2.9-4-4.6c7.6-3.2,4.4,6.2,12.8,5.1
							c-1.2,0.3-4.3-1.4-2.5-2.5c1.6,0.5,3.8,1.4,4.7,2.6c5.6-0.5-0.9-2.4,1.5-3.9c1.9,2.9,2.8-1.2,5.2-2.1l0,2.4
							c6.4,1.5,1.7-5,7.5-3.2l-2.4,3.3l3-0.9l-0.6,2.7c3.3-2,4.3-1.5,7.5-0.7c-0.8-1.7,0.4-4.4,3.2-4.5c1.9,1.4-1.1,2.3,2.9,2
							c-0.9,1.5-1.9,3.4-3.7,1.2c-0.2,0.8-0.9,1.5-1.1,2.3c2.1,1.7,5.2,0.4,6.7,0.3c-0.6-0.1-1.2-0.2-1.6-0.6l5.8-3.3
							c0.9,0.9,0.2,1.6-0.5,2.3c1.2-0.3,2-1.4,3.7-1.6c-0.4,2-0.3,4-2.8,4.9l5.6-2.2c0.4,0.8,2.8,2.3,2.1,3.1
							c3.1,1.2,7.6-3.8,11.6-2.3c0.2-0.4,0.6-0.7,1.5-1c3.8,0.4,7.2,2.8,11.8,0.2l2.6,3.5c3.6-0.8-3.5-4.4,2.4-5.8
							c4.2-1.1,1.6,3,3,4c2.1-1.8,5.7-5.4,9.6-2.5C1097.9,38.3,1096.9,37.8,1095.7,38z M1139.6,36.5c-0.8,0.5-2.6,2.1-3.2,0.7
							C1137.4,34.3,1138.2,35.7,1139.6,36.5z M1206.4,30.6c-0.6,0.8-1.6,0.4-2.7-0.5C1204.5,29.9,1205.4,30,1206.4,30.6z
							 M1392.5,13.7c0,0-0.1,0.1-0.1,0.1C1390.5,12.9,1391.2,13.2,1392.5,13.7z M1396.5,14.7c0.4-0.3,0.4-0.7,0.2-1
							c-0.3,0.6-1.2,0.6-2.2,0.5C1394.8,14.8,1395.3,15.3,1396.5,14.7z M972.9,16l0.8,0.6C971.9,17.3,972.4,16.7,972.9,16z"/>
						<path class="st0" d="M1198.9,33.9c-0.2-0.4-0.3-0.9-0.4-1.3C1198.2,33,1198.2,33.5,1198.9,33.9z"/>
						<path class="st0" d="M1068.4,39.3c0,0-0.1,0-0.1,0c-0.1,0.1-0.1,0.3-0.1,0.4L1068.4,39.3z"/>
						<path class="st0" d="M1335.4,35.2c-0.8-0.3-1.3-0.8-1.6-1.2C1333.8,34.6,1334.1,35.1,1335.4,35.2z"/>
						<path class="st0" d="M1417.4,10.6l-2.5,0.6c1.2-0.1,1.7,0.4,2.3,0.8C1417.1,11.5,1416.6,10.7,1417.4,10.6z"/>
						<path class="st0" d="M1439.3,25.5c0.4-0.3,0.8,0,1.2-0.3l-0.1-1.1C1438.8,24.2,1437.7,25.1,1439.3,25.5z"/>
						<path class="st0" d="M1419.7,18.6c0.2,2,1.8,1.3,3.6,1c-0.1,0-0.2,0-0.3,0C1423.5,16.8,1421.6,17.7,1419.7,18.6z"/>
						<path class="st0" d="M1423.7,19.5c0.6-0.1,1.1-0.1,1.6,0C1425.5,18.3,1424.6,19.2,1423.7,19.5z"/>
						<path class="st0" d="M1401.5,13.4c0.8,0.5,0.5-2.6,1-1.8C1403.4,9,1396.9,14.8,1401.5,13.4z"/>
						<polygon class="st0" points="1421.1,25.3 1420.5,22.8 1419.5,24.8 						"/>
						<path class="st0" d="M1407.2,23.5l2.8,0.7c0-0.4,0.3-0.7,0.8-0.8C1409,23.2,1407.1,22.8,1407.2,23.5z"/>
						<path class="st0" d="M1410.8,23.3c0.9,0,1.8,0,2.3-0.4C1412.5,22.9,1411.5,23,1410.8,23.3z"/>
						<polygon class="st0" points="1417.3,26.1 1416.4,25.5 1414.4,25.4 						"/>
						<path class="st0" d="M1376.8,23l-3.1,0.7c-0.3,0.9,0.5,1.4,1.7,1C1376.1,24.2,1377.2,23.9,1376.8,23z"/>
						<path class="st0" d="M1386.1,29.9c-0.8-0.5-0.9-1.1-1.4-1.9l-0.1,3.1L1386.1,29.9z"/>
						<path class="st0" d="M1377.1,30.6c-0.3,0.9-4.5,2.5-0.6,2.3C1376.8,32,1379.9,31.3,1377.1,30.6z"/>
						<polygon class="st0" points="1330.6,26.7 1331.4,26.7 1331.3,21.6 						"/>
						<path class="st0" d="M1289.6,38.9c3.7,1.2,0.9-3.1,4.2-1.6c0.9-1.2-2.7-1.2-1.8-2.3C1289.8,36.3,1288.6,35.6,1289.6,38.9z"/>
						<path class="st0" d="M1292,35c0.3-0.2,0.7-0.4,1.1-0.8C1292.5,34.6,1292.2,34.8,1292,35z"/>
						<polygon class="st0" points="829.3,13.5 827,12.4 828.5,14.1 						"/>
						<path class="st0" d="M824.8,17.3l-0.6-3.2l-1.4,2.9C823.4,16.8,824.4,16.5,824.8,17.3z"/>
						<path class="st0" d="M1146.2,43l0.2-0.8c-0.4-0.8-0.9-0.9-2-1L1146.2,43z"/>
						<polygon class="st0" points="1114.3,40.6 1114.8,40.7 1113.8,37.7 						"/>
						<path class="st0" d="M1087.5,44.3c1.1,0.1,2.4-0.5,3.5-0.4C1088.6,44.5,1087.2,40.7,1087.5,44.3z"/>
					</g>
				</g>
			</g>
		</g>
	</g>
	<g>
		<g>
			<g>
				<g>
					<g>
						<path class="st0" d="M1018.8,16.2c0.8,0.2,0.5-1.9,0.6-2.3C1018.1,14.4,1018.9,16.8,1018.8,16.2z"/>
						<polygon class="st0" points="1006,21 1006.2,20.2 1004.3,22.3 						"/>
						<path class="st0" d="M993.9,21.1c1.2,3.6,4.4-0.6,6.5,0.7l0.4,0.8l1-2.9C999.1,20.1,995.7,22,993.9,21.1z"/>
						<path class="st0" d="M987.4,13.4c0.4,1.4-1.4,1.2,1.5,0.4c-0.2-0.1-0.2-0.2-0.3-0.4C988.4,13.5,988,13.5,987.4,13.4z"/>
						<path class="st0" d="M988.6,13.5C989.9,13.3,987.8,12.3,988.6,13.5L988.6,13.5z"/>
						<path class="st0" d="M982.8,14.3l1.7-1.2c-0.3-0.8-1.8-1-1.3-1.6C981.4,12.1,981.8,12.9,982.8,14.3z"/>
						<path class="st0" d="M981.2,16.9l0.9-0.5C981.9,16,981.7,15.9,981.2,16.9z"/>
						<path class="st0" d="M983.9,15.2l-1.8,1.1c0.2,0.6,0.3,1.7,0.8-0.4C982.8,17,983.1,16,983.9,15.2z"/>
						<path class="st0" d="M984.9,15.8c0.9,0.8,2.2,1.2,0.5,2.5C988.6,17.8,988.1,15.3,984.9,15.8z"/>
						<path class="st0" d="M993.3,24.8l1.3,1l1.1-1.2C995.1,25.2,993.2,23.6,993.3,24.8z"/>
						<path class="st0" d="M972.3,12.5c-0.1,0.8,0.6,2,0.7,3l1.2-0.9C973.6,14.1,972.4,13.6,972.3,12.5z"/>
						<path class="st0" d="M973,15.5l-1.8,1.3C972.8,16.9,973.1,16.3,973,15.5z"/>
						<polygon class="st0" points="980.9,20.9 983.9,18.1 980.3,20.9 						"/>
						<polygon class="st0" points="965.3,12.4 966.3,10.7 964.5,13.3 						"/>
						<path class="st0" d="M960.6,12.8c0.8-1.5-1.1-2.5-0.3-3.4c-1.3,0.3-2.3,1.5-3.3,2.6C958,11.4,959.1,11.6,960.6,12.8z"/>
						<path class="st0" d="M955.4,13.7c0.5-0.4,1-1,1.6-1.6C956.4,12.4,955.9,12.9,955.4,13.7z"/>
						<path class="st0" d="M968,16.4c-0.2-0.5-0.4-1.7-1.5-2.2l0.7,2.1C967.5,16.4,967.8,16.4,968,16.4z"/>
						<path class="st0" d="M967.3,16.5L967.3,16.5c-0.8-0.1-1.4-0.2-1.6-0.2C965.9,16.3,966.4,16.4,967.3,16.5z"/>
						<path class="st0" d="M968.2,16.4c-0.1,0-0.1,0-0.2,0C968.1,16.6,968.2,16.7,968.2,16.4z"/>
						<path class="st0" d="M976.1,19c-1.1,1.2-3.3,2.5-1.1,4.3C975.7,21.8,974.4,20.8,976.1,19z"/>
						<path class="st0" d="M969.1,19.1l2,0.5c0-0.6-0.4-1.4,0.1-2L969.1,19.1z"/>
						<polygon class="st0" points="968.2,19.8 969.1,19.1 968.4,18.9 						"/>
						<path class="st0" d="M958.7,15.7c-0.8,0.9-1.8,1-2.8,1.2c1.1,0.4,2.3,0.6,3.4,0.6C959.5,16.8,959.9,15.6,958.7,15.7z"/>
						<path class="st0" d="M962.9,16.3c-0.1,0-0.1,0.1-0.2,0.1C962.8,16.6,962.9,16.6,962.9,16.3z"/>
						<path class="st0" d="M945.6,16.9c0.1,0.1,0.1,0.3,0.2,0.4c0-0.1,0-0.2,0-0.4L945.6,16.9z"/>
						<path class="st0" d="M959.5,17.9c0.8,0.4,1.3-0.1,1.8-0.8c-0.6,0.2-1.3,0.4-2,0.4C959.2,17.8,959.2,18,959.5,17.9z"/>
						<path class="st0" d="M952.5,14.7c0.4,0.4,0.9,0.8,1.5,1.2C953.5,15.2,952.6,14.2,952.5,14.7z"/>
						<path class="st0" d="M962.4,15.8c0,0,0.1-0.1,0.1-0.1C962.3,15.2,962.3,15.5,962.4,15.8z"/>
						<path class="st0" d="M962.4,15.8c-0.4,0.3-0.8,0.8-1.1,1.3c0.5-0.2,1-0.4,1.4-0.7C962.6,16.2,962.5,16,962.4,15.8z"/>
						<path class="st0" d="M942.5,30.6c0.1-2,2.3-3.8,4.3-1.7c1.9-1.5,0.6-8-1.1-11.6c0,0.9,0,1.7-2,2.8c0.7,1.1,4.3,2.5,2.7,4.3
							c-2.6,1-2.1-0.7-3.4-1.7c1.1,2.5-3.2,3.6-2.7,7.2l2.2-1.3C942.7,29.2,941.9,30.1,942.5,30.6z"/>
						<path class="st0" d="M949.5,17.5l0.8-0.2c-0.9-0.3-1.6-1.1-2.8-2.7c-1.3,1-1.6,1.7-1.7,2.4l3.9,0.2L949.5,17.5z"/>
						<path class="st0" d="M953.8,17.2c-0.6,2.2-2.5,3.1-1.3,5.4c2.3-0.2,1.6-1.8,3-2.8c-3.8,0.6,1.1-1.2-1.7-2.4
							c0.7-0.4,1.4-0.5,2-0.6c-0.7-0.3-1.3-0.6-2-1c0,0,0.1,0.1,0.1,0.1l0,0c0,0,0,0,0,0c0.2,0.3,0.2,0.4,0,0.3c0,0-0.1,0-0.1,0
							C954,16.7,953.9,16.9,953.8,17.2c-1.1-0.5-0.2-0.6,0.2-0.8c0-0.1,0-0.2,0-0.3c0,0,0,0,0,0l-3.8,1.2
							C951.1,17.5,952.1,17.5,953.8,17.2z"/>
						<path class="st0" d="M972.9,27.9c-0.1-0.2-0.1-0.3-0.1-0.5C972.6,27.7,972.5,27.8,972.9,27.9z"/>
						<path class="st0" d="M971.4,26.6c0.3-0.3,0.5-1.2,1.4-1c0.8,0.6,0,1,0,1.7c0.5-0.6,1.9-1.6,0.2-2.6l-0.3,0.3
							c-1.5-0.7-3.5-3.4-3.2-3.7C969.9,23.3,970.3,24.7,971.4,26.6z"/>
						<path class="st0" d="M962.5,22.5l-3.2,1.1l1.6,1.9l-0.1-1.1C962.7,24.7,962.3,23.3,962.5,22.5z"/>
						<polygon class="st0" points="945.2,15.8 945.6,13.5 943.8,16.8 						"/>
						<polygon class="st0" points="941.1,16.1 941.3,14.1 940.2,15.3 						"/>
						<path class="st0" d="M709.8,41.9l-0.9,0.6C709.3,42.3,709.6,42.1,709.8,41.9z"/>
						<path class="st0" d="M716.5,42l0.2-1C716.3,41.6,716.2,42,716.5,42z"/>
						<path class="st0" d="M840.4,16.9c-1.4-1.8-2.9-4.7-2.7-2.5l0.4,2.2C839,16.2,839.8,16.4,840.4,16.9z"/>
						<path class="st0" d="M771.5,30.2c0.1,0.2,0.3,0.4,0.4,0.7c0.3-0.7,0.6-1.4,0.9-2.1C772.3,29.2,771.9,29.7,771.5,30.2z"/>
						<path class="st0" d="M770.5,39.2l-1.8-1.4C769.2,38.3,769.7,38.8,770.5,39.2z"/>
						<path class="st0" d="M673.1,44.4l-1.1,2.2C673.7,46.6,673,45.5,673.1,44.4z"/>
						<path class="st0" d="M899.1,17.1c-1.2-0.8-2.1-1.2-2.9-1.3C897.6,17.1,898.8,19,899.1,17.1z"/>
						<path class="st0" d="M712.3,18.9c-0.6,0.4-0.8,0.8-0.8,1.3C712.1,19.9,712.4,19.4,712.3,18.9z"/>
						<path class="st0" d="M892.8,15.9c0.2,0.2,0.4,0.3,0.6,0.5c0.8-0.4,1.7-0.7,2.8-0.5C895.2,14.9,894,14.4,892.8,15.9z"/>
						<path class="st0" d="M540.1,43.4c-0.1-0.1-0.2-0.1-0.3-0.3C539.8,43.4,539.9,43.4,540.1,43.4z"/>
						<path class="st0" d="M501.2,21.7c0.4-0.1,1-0.1,1.6-0.2C502.5,21.4,502,21.4,501.2,21.7z"/>
						<path class="st0" d="M924.6,15.3C925.5,15.1,924.8,15,924.6,15.3L924.6,15.3z"/>
						<path class="st0" d="M928.9,23.8c-0.2,0.2-0.3,0.6-0.3,1.1C928.6,24.4,928.7,24,928.9,23.8z"/>
						<path class="st0" d="M884.2,29.4C884.2,29.4,884.2,29.4,884.2,29.4C884.4,29.8,884.4,29.8,884.2,29.4z"/>
						<path class="st0" d="M925.9,16.2c-0.3-0.3-0.7-0.5-1.1-0.6C925,15.8,925.3,16,925.9,16.2z"/>
						<path class="st0" d="M925.7,15.2c0.3,0.1,0.5,0.1,0.8,0.2C926.6,15.1,926.5,14.8,925.7,15.2z"/>
						<path class="st0" d="M923.4,15.4c0.5,0,1,0.1,1.4,0.2c-0.2-0.1-0.2-0.3-0.2-0.3C924.3,15.3,924,15.4,923.4,15.4z"/>
						<path class="st0" d="M611.3,37.2c-0.1-0.1-0.1-0.1-0.2-0.2C610.3,37.9,610.6,37.7,611.3,37.2z"/>
						<path class="st0" d="M817.8,39.5c0,0,0.1-0.1,0.1-0.1c0,0-0.1,0-0.1-0.1L817.8,39.5z"/>
						<path class="st0" d="M814.7,41.2c1.3-2.7,2.1-2.4,3.1-1.8l-1.1-6.2L814.7,41.2z"/>
						<path class="st0" d="M693.7,42.7l2.2,1.9c-2.6,3.2-4.5,2.1-2.5,4.9c0.3-6.8,8.5-0.7,8.8-7.5l1.5,1.4c-0.4-0.1-0.5,0.3-0.9,0.3
							c2.8,3.2,2.1-4.9,5.7-4c1.3,0.5,2.2,1.5,1.3,2.3l2.8-1.7c0.8,0.1,0.6,1.3-0.2,1.2l4.3-0.6l0,0.2c0.6-1.1,2-2.7,2.7-3.4
							c1.1,1-0.5,0.7-0.3,1.6l2.4-1.7c1,1.8-1,3.5-2.6,3.2c2.3,6.8,2-1.7,6.8,2.2l-2.2,0.9c1.5,3.8,3.2,2.4,5.8,4.8
							c-0.6-1.2-5.1-6-2.5-7.7c0.7,0.5,1.7,0.8,3.1-0.6c0,2.4,1.4,1.8,3.1,1.7l-0.1,3.2c1.8-0.9,1.7-2.6,2.8-4c2,0.3,2.5,2.8,3,4.9
							c3.3,0.5-2.3-4,1.6-4.6c2.7,1.2,4.7-0.1,7.9-2c1.9,1.1-0.3,2,0.4,2.9l1.7-2.6c0.4,0.1,0.3,0.8,0.2,1.2c1.4-1,0.1-3.2,2.3-4.1
							c0.6-3.5,4.6,5.1,7.4,1.1c0.7,0.9-0.3,2-0.1,3.2c3.8-2.7,3.3-1.9,6.4-5.5l2.7,2.1c-2-2.4,0.5-5.2,2.7-7.6
							c-0.7-1.2-1.3-2.2-1.7-2.7l3.5-1.7c0.4,0.5,0.1,1.6-0.5,3c0.2-0.3,0.5-0.5,0.6-0.8c1.3,1.2,0.6,3-0.3,4.8
							c-0.4-0.6-0.9-1.3-1.3-2c-0.8,2-1.7,4.1-1.5,6c0.2-0.4,0.7-0.7,1.1-0.9c-0.2,0.5-0.4,1-0.3,1.3c0.1,0.3,0.5-0.4,1-1.2l0.8,3.6
							l0.2-1.4l4.6,2.2c3.2-3.6,6.1-8.9,11.3-10.4c-1.3,2.6-0.2,4.3-0.3,7.4c-1.4-3.3-4,1.4-6.7,0.8c1.4,0.3,1.1,1.8,0.8,2.3l4.8-3
							c-0.1,2.5,1,1.9,2.3,2.9c-1-5,3.6-3.3,5.5-4.9c0.1,1.7-0.3,3.4-2.7,3c2.7,3.8,3.4-5.9,6-2.7c-0.6,0-0.9-0.2-1.1,0.6
							c1.3-1.5,4.7-0.3,3.9,1.1l-0.6,0c3.9,0.6,11.8,0,12.3-4.3c0,0.5-0.5,5.1-0.7,6l6.8-14.3c-0.6,3.7,1.8,12.3-1.4,14.4
							c0.9,0.5,2.1,1.1,4-0.2c-0.6-0.5-1.6-5.3-0.7-5.6c2.4,4,1.7,2.2,4.6,5.6c-1-0.8,0.1-6.5,1.6-6.3c-0.2,0.9,0.2,5.7-0.4,6.2
							l3.7-5.6c-0.9,1-0.1,4.8,0.7,6.3c-0.4-1.1,3.2,0.1,4.2-0.5l-1.6-1.3c4.2,0.8,4.1-7.9,8.2-7.7c-0.5,1.2-1.2,7.2,0.9,7.8
							c1-2.9,4.2-13.9,7.9-16.1l0.7,1.6l2.8-1.9c-1.7,4.3-6.6,13.5-9.3,17c1.6,1.3,0.5,1.9,2.8,1.8c0.8,1.5-1.3,2.3-2,2.4l5.5,1
							c-0.3-3.4,4.2-3.4,3.9-6.2l-5.9,3.5c-0.3-3.3,3.4-9.6,7.2-9c1,1.3-0.7,6-0.6,7.1c0.5-1.2,3.7-2.2,4-1.4l-1.6,1.8
							c2.2,1.2,3.5-4.5,6.1-1.3c0.9,0.2,2.7,4.3,2.8,2.3c-1.5-3.8-1.8-15.7-0.9-18.6c0.3,0.3,4.7,3.6,5.7,5.5c1.5,3-2.2,7.2-0.9,9.8
							c0-0.9,0.8-2.1,1.2-2.4c0.9,0.8-0.4,2.8,1.7,2.4c0.3-3.4,4.1,0.3,1-2.9c2-1,2.1,0.7,4.5,0.5c-0.8-2.2,2.1-7.5,4-8.5
							c-0.1,0.9,0.3,2,0.6,2.5c4.1,0.3,6.3,1.8,10.1,1.8c0.4,0.8,2.2,1.8,1.4,3.3c0.5-0.6,1-1.8,2.2-1.8c2.3,2.9-2.6,0.5-0.9,4
							c0.1-2,3-2.8,4.7-4c-0.5-3.1-3.9-0.6-5.5,0.7c0-4.2,2.9-8.7,6.8-10.6c3.2-1.1,1.4,2.7,1.9,2.1c5.9,0.7,5-7.4,10-4.4
							c2,2.7,0.1,5.3,0.6,7.3c-2.6,1-4-1.7-5.7-1.6l2.2,1.3c-0.8,0.9-2.5,1.6-3.5,0.8c1.7,2.4,10,0.4,14.6,2.6
							c0.8-0.9,2.2-1.8,1.5-2.9l-1.5,0.4c-1.3-2.2,2.7-3,0.9-4c1.9-1.5,4.1-3.9,6.8-2.7l0.5,3.1c-0.1-0.9-1.8-1.8-2.6-0.9
							c1.1-1.4,4.2,4.1,5.5,0.1l-1.9-2.1c1.9-1.5,4.3-4.8,6.8-3.9c-1.1-3-0.6,0.4-2.3-3.2c1.5,4.4-6.2-0.1-3.8,4.5
							c-1.8-4.1-3.1-1.7-5.4-5.2c0.1,1,0.8,1.9-1.2,1.4c-0.1,0.3-0.3,0.7-0.4,0.9c-0.1,0-0.1,0-0.1-0.1c0,0,0.1,0.1,0.1,0.1
							c-0.1,0.1-0.1,0.2,0,0c0.5,0.4,0.9,1,1,1.5c-1,2.3-4.2,2.3-5.3,3.5c-1.2-0.5,0.5-1.2-0.2-2.2L920,21c-0.2-2.2-3.2-3.7-0.4-5
							l-2.6-0.1c-1.5-1.2-3.6-1.7-4.9-0.8c-1.2-0.5-3,2.5-2,0.7l-4,1.4l0-0.6c-4-0.3-8.1,3.8-12.7-0.3c-1.3,0.6-2.7,1.3-4.9,0.6
							l-0.5-1.9c-1.7,0.7-5.2-1.9-5.9,0.1c-1.9-5.2-8.3-1.1-11.3-2l-0.1,2.5c-2.1-0.1-4.1,0.6-6.6,1.6l0.2,2.2
							c-2.2,1.9-5.7-1.6-9.2-1.3c0.2-0.9,1.1-0.6,1.8-0.1c-4.2-5-8.8,3.7-12.7,0.1c-0.9,0.8-1.6,0.5-2.3,0c0.1,0,0.2,0,0.2-0.1
							c-0.1,0-0.2,0-0.4,0c-0.4-0.4-0.8-0.8-1.3-1.2c0.4,0.5,0.8,1,1.1,1.2c-0.7,0-1.8,0.3-2.9,0.9l-0.5-2.4c-0.1,0-0.2,0-0.2,0.1
							c-1.1-0.9-0.8,1.1-0.3,3c-0.5,0.4-1,0.9-1.4,1.5c-0.9-3.9-2.8,1.3-4-2.8c-0.7,2-5.5,1.5-6,5.8c0-0.5-0.4-0.8,0.2-0.8
							c-1.2-0.5-2.4-1-3.5,0.2l-0.5-3.1l-2.6,4.1c-1.6-1.9-2.3-2.9-0.7-5.3c-3.8,3.6-3.1,1.4-6.4,5l0.2-2c-1.2,0.1-3,2.7-3.8,1.1
							c-2.6-3.8-13-0.5-19.7-3.9c1.3,5.8-3.1-2.6-3.4,1.9c-0.4-1.4-1.3-2.1-0.3-3.4c-3.4,1.4-5.2-2.2-7.5,1.7
							c-0.4-1.4,0.7-2,0.4-2.8c-0.3,0.3-1.1,1.2-1.5,0.4c-0.3-0.8,0.5-1.2,1-1.8c-3.5,0.2-3.8,4.5-4.1,8.5c-1.8-1.9-2.7-1.6-3.9,1
							c-0.6-1.3-1.7-2.7,0.5-3.1c-1.2-0.2-7.5-1.9-7.6,1.3c-0.4-0.8-1.7-0.2-2,0.1c-2.8-0.2-3-0.5-5.7-0.2l0.8,0.5
							c-1,3.9-2.2,0.9-4.4,1.3l0.1-0.4c-5-2.8-2.2,1.3-7.1-1.8l0.3,2.4c-0.4,5.2-4.4-3-7.2-1l1,1.4c-1.5,1.8-4.4-7-6-7.6
							c-0.3-0.5,0.5-0.7,1-1.1c-4.1-3-0.5,3.1-3.6,3.9c-0.6-1.7,0.7-4.3-1.4-4.6c-1-1.4-5.9,5.5-8.8,2.3c0.6,1.3,1.2,2.6-0.2,3.6
							c-2.2,0.5-5.9-4.9-7.9-0.8c-0.3-0.4-0.4-0.7-0.4-1c-1.7,1.1-5.4,1.8-6.4,4c-1.6-8.3-10.3,4.1-10.3-3.5l-5.1,0.4l0.1-0.8
							c-3.3-0.5-4.4,1.4-5.6,3.2c-0.8-0.5-0.2-1.2-0.2-1.6c-4.8-1.5-5.3-1.2-9.3,2.6l-0.4-2.5c-1.1,1.4-6.9-3.9-11.6-0.9
							c0-0.3,0.1-0.8,0.5-1.1c-5.3,2.9-12.7-6.8-14.6,2.2l-3.5,2.2c4.5,0.7-0.7,3.9,1.2,5.4c-1.8,0.5-4.6-2.7-2.4-3.2l0.3,0.5
							c0.8-4.7-5.6-1.6-5.5-4.8c-8.9,0.3-17.5-2.3-25.8-2.4l1,3.6l-2.9-0.2c-0.8-0.9-1-2.9,1-2.7c-1.1-2.1-3.5,1.8-3.5,2.6
							c-4.1-1.5,1.6-4.3,0.3-4.4l-1.7,0.3l0.4,0.4c-1.4,1.5-1.5,3.1-4,2.9c-1.6-0.7-0.8-2.2-1.4-2.4c0-0.3-0.2-0.4-1-0.1l-3.7-0.3
							l1.5,2.9c-1.6,1.4-3.4-0.1-1.7,3.1c-2.5-5-13.6-1.7-15.2-3.3c-2.2,2.1-4.5,2.1-7.3,1.9c0.7,0.6,1.1,3.8-1.3,3.5
							c0.8-6.7-4.4-2.9-6.3-7.7c1.7,3.2-6.8,0.8-4.1,5.3c-2-0.5-0.1-2.5-1.7-4.1c-4.7,2.6-10.5-1.6-16.3-0.7
							c-0.1,0.9,0.9,2.2-0.3,3.5l-3.1-4.4c-1.2,0.4-1,5.1-3.2,2c0.3,0.7,0.8,1.9,0,2.1c-11.5-4.2-23.5,3.6-35.2-4.4
							c1.6,1.7,0.5,1.9-0.7,1.9c0.8,0.4,0,2.2,0.1,3.4l-4.9-3.3c-0.9,3.3-5.2,0.2-5.7,3.4l1.5-0.6c-2,3.7,2.9,8.3,2.6,13.1
							c2.3-4.3,6.1,6.2,9.9,0.2c0.8,1-0.7,1.5-0.2,2.7c1-2.1,2.1-2.5,4.2-1.6l-0.2,0.5c6-0.5,8.6,1.5,15.4,2.8l-0.5-2.4
							c1.5,0.3,1.8,1,2.5,1.6c1.7-3.6-4.1-0.2-2.6-4.2c2,4.8,10.3,0,11.6,5.5c2.2,0-0.7-2.7,1.6-2.7l0.6,1.5l0.6-1.9
							c1.5,0.3,2.2,2.2,2.3,3.4c-0.4-0.2-1,0.4-1.4,0.5c1.9,1.7,5.4-0.6,6-0.1l-2.2-0.9c6.1-1.4,13.6,0.5,19.5-2.6l-0.5-1.1
							c4.5-2.1,3.6,1.2,8.6,0.2l-0.2,0.3c1-1.1,2.3-1.7,3.7-1.6c-1.2,1.3,2.4,2.5,0.7,4c4.9-2.2,2.4-1.8,5.6-5.9l0.8,1.8
							c1.1-1.7,1.2-2.6,3.7-3.1c-2,1.6,1.6,2.8-0.7,4.9c5.2,4,7.7-4.1,10.1,1.8c2.3-5.1-4.5-2.8-3.2-3.9c-1.1-1.7,1.9-3.8,3.6-3.3
							c1.7,0.1,2.8,6.5,7,6.4c-0.4,0-0.4,0.4-0.8,0.3c1.6,1.3,3-1.8,5,0.3c1-3.1,2.5,0.2,2.8-3.8l-3.8,0.9c2.2-1,4.2-5.7,7.8-3.5
							c-0.3,0.8-1.3,1.9-2.1,2.5c1,1.2,2-0.8,3.1,0.4c-0.3,4-4.6,0.9-6.9,3.9c1.1,1.7,4.4-2.9,3.2,1.4c1.7-5.5,4.1,0.7,6.9-3.5
							l-0.2,2.4c0.4-0.4,1.4-1.5,2.2-1.5l-1.5,3.1c2.3-2.6,4.4,2.3,6.6,0.8c-4.6,0.1-1-2.8-3-4.6c5.6-3.2,3.3,6.2,9.6,5
							c-0.9,0.3-3.2-1.4-1.9-2.5c1.2,0.5,2.8,1.4,3.5,2.6c4.2-0.5-0.7-2.4,1.1-3.9c1.4,2.9,2-1.2,3.9-2.1l0,2.4
							c4.8,1.5,1.2-5,5.6-3.2l-1.8,3.3l2.2-0.9l-0.5,2.8c2.4-2,3.2-1.5,5.6-0.8c-0.6-1.7,0.3-4.4,2.4-4.5c1.5,1.4-0.8,2.3,2.2,1.9
							c-0.7,1.5-1.4,3.4-2.7,1.2c-0.1,0.8-0.7,1.5-0.8,2.3c1.6,1.6,3.9,0.3,5,0.3c-0.4-0.1-0.9-0.2-1.2-0.6l4.3-3.4
							c0.7,0.9,0.2,1.6-0.4,2.3c0.9-0.3,1.5-1.4,2.8-1.6c-0.3,2-0.2,4-2.1,4.9l4.1-2.2c0.3,0.8,2.1,2.3,1.6,3.1
							c2.3,1.1,5.6-3.8,8.7-2.3c0.2-0.4,0.5-0.8,1.1-1c2.9,0.4,5.4,2.8,8.8,0.1l2,3.5c2.7-0.8-2.6-4.4,1.8-5.8c3.1-1.1,1.2,3,2.3,4
							c1.5-1.8,4.2-5.4,7.1-2.6C695.3,42.9,694.6,42.4,693.7,42.7z M726.5,40.9c-0.6,0.5-1.9,2.1-2.4,0.7
							C724.8,38.8,725.4,40.1,726.5,40.9z M776.3,34.8c-0.5,0.8-1.2,0.4-2-0.5C774.9,34.1,775.5,34.2,776.3,34.8z M915.1,17.3
							c0,0,0,0.1-0.1,0.1C913.6,16.5,914.1,16.8,915.1,17.3z M918,18.3c0.3-0.3,0.3-0.7,0.2-1c-0.2,0.6-0.9,0.7-1.6,0.5
							C916.8,18.4,917.2,18.9,918,18.3z M601.9,21l0.6,0.6C601.2,22.3,601.6,21.7,601.9,21z"/>
						<path class="st0" d="M770.7,38.2c-0.2-0.4-0.2-0.9-0.3-1.3C770.1,37.3,770.1,37.7,770.7,38.2z"/>
						<path class="st0" d="M673.3,44C673.3,44,673.2,44,673.3,44c-0.1,0.1-0.2,0.3-0.2,0.4L673.3,44z"/>
						<path class="st0" d="M872.5,39c-0.6-0.3-1-0.8-1.2-1.2C871.3,38.4,871.6,38.9,872.5,39z"/>
						<path class="st0" d="M933.6,14.1l-1.9,0.6c0.9-0.1,1.2,0.4,1.7,0.8C933.4,15,933,14.2,933.6,14.1z"/>
						<path class="st0" d="M950,29c0.3-0.3,0.6,0,0.8-0.3l-0.1-1.1C949.7,27.6,948.8,28.5,950,29z"/>
						<path class="st0" d="M935.4,22.1c0.2,2,1.3,1.3,2.7,1c-0.1,0-0.2,0-0.2,0C938.2,20.2,936.8,21.2,935.4,22.1z"/>
						<path class="st0" d="M938.4,23c0.4-0.1,0.8-0.1,1.2-0.1C939.7,21.8,939.1,22.7,938.4,23z"/>
						<path class="st0" d="M921.8,17c0.6,0.5,0.4-2.6,0.7-1.8C923.2,12.6,918.3,18.3,921.8,17z"/>
						<polygon class="st0" points="936.5,28.8 936,26.3 935.3,28.3 						"/>
						<path class="st0" d="M926.1,27l2.1,0.7c0-0.4,0.2-0.7,0.6-0.9C927.4,26.8,926,26.3,926.1,27z"/>
						<path class="st0" d="M928.7,26.9c0.7,0,1.3,0,1.7-0.4C930.1,26.5,929.3,26.5,928.7,26.9z"/>
						<polygon class="st0" points="933.6,29.6 933,29.1 931.5,28.9 						"/>
						<path class="st0" d="M903.4,26.7l-2.3,0.7c-0.2,0.9,0.4,1.4,1.3,1C902.9,27.8,903.7,27.5,903.4,26.7z"/>
						<path class="st0" d="M910.4,33.5c-0.6-0.5-0.7-1.1-1-1.9l0,3.1L910.4,33.5z"/>
						<path class="st0" d="M903.7,34.3c-0.2,0.9-3.3,2.5-0.4,2.3C903.5,35.7,905.8,35,903.7,34.3z"/>
						<polygon class="st0" points="868.9,30.5 869.5,30.5 869.4,25.4 						"/>
						<path class="st0" d="M838.4,42.9c2.7,1.2,0.6-3.2,3.1-1.6c0.6-1.2-2-1.2-1.4-2.3C838.5,40.2,837.6,39.5,838.4,42.9z"/>
						<path class="st0" d="M840.2,39c0.3-0.2,0.5-0.5,0.8-0.8C840.5,38.5,840.3,38.7,840.2,39z"/>
						<polygon class="st0" points="494.8,19 493,17.9 494.1,19.6 						"/>
						<path class="st0" d="M491.4,22.8l-0.4-3.2l-1,2.9C490.4,22.3,491.1,22,491.4,22.8z"/>
						<path class="st0" d="M731.4,47.4l0.1-0.8c-0.3-0.8-0.7-0.9-1.5-1L731.4,47.4z"/>
						<polygon class="st0" points="707.6,45.1 708,45.2 707.2,42.3 						"/>
						<path class="st0" d="M687.6,49c0.8,0.1,1.8-0.5,2.6-0.4C688.4,49.1,687.4,45.3,687.6,49z"/>
					</g>
				</g>
			</g>
		</g>
	</g>
	<g>
		<g>
			<g>
				<g>
					<g>
						<path class="st0" d="M1053,13.4c1.2,0.2,0.7-1.9,0.9-2.3C1052,11.6,1053,14,1053,13.4z"/>
						<polygon class="st0" points="1033.9,18.2 1034.2,17.3 1031.4,19.4 						"/>
						<path class="st0" d="M1016,18.1c1.7,3.6,6.5-0.6,9.7,0.7l0.5,0.8l1.4-2.9C1023.8,17.2,1018.7,19.1,1016,18.1z"/>
						<path class="st0" d="M1006.5,10.4c0.6,1.4-2.1,1.2,2.2,0.4c-0.2-0.1-0.3-0.2-0.4-0.4C1007.9,10.5,1007.4,10.5,1006.5,10.4z"/>
						<path class="st0" d="M1008.3,10.5C1010.2,10.4,1007.1,9.3,1008.3,10.5L1008.3,10.5z"/>
						<path class="st0" d="M999.6,11.3l2.5-1.2c-0.5-0.8-2.7-1-1.9-1.6C997.7,9.1,998.2,10,999.6,11.3z"/>
						<path class="st0" d="M997.3,13.9l1.3-0.5C998.3,13,998,12.9,997.3,13.9z"/>
						<path class="st0" d="M1001.3,12.3l-2.7,1.1c0.4,0.6,0.4,1.7,1.2-0.4C999.6,14,1000.1,13,1001.3,12.3z"/>
						<path class="st0" d="M1002.8,12.8c1.4,0.8,3.2,1.3,0.7,2.5C1008.3,14.8,1007.6,12.3,1002.8,12.8z"/>
						<path class="st0" d="M1015.1,21.8l1.9,1l1.6-1.2C1017.8,22.3,1015,20.7,1015.1,21.8z"/>
						<path class="st0" d="M984.2,9.5c-0.2,0.8,0.8,2,1,3l1.8-0.9C986.1,11,984.3,10.6,984.2,9.5z"/>
						<path class="st0" d="M985.2,12.5l-2.7,1.3C984.9,13.9,985.3,13.3,985.2,12.5z"/>
						<polygon class="st0" points="996.8,17.9 1001.3,15.1 996,17.9 						"/>
						<polygon class="st0" points="973.7,9.4 975.3,7.6 972.5,10.2 						"/>
						<path class="st0" d="M966.8,9.7c1.2-1.5-1.6-2.5-0.4-3.4c-1.9,0.3-3.5,1.5-4.9,2.6C963,8.3,964.7,8.5,966.8,9.7z"/>
						<path class="st0" d="M959,10.6c0.8-0.4,1.6-1,2.4-1.6C960.7,9.3,959.8,9.8,959,10.6z"/>
						<path class="st0" d="M977.8,13.4c-0.2-0.5-0.6-1.7-2.2-2.2l1.1,2.1C977,13.4,977.4,13.4,977.8,13.4z"/>
						<path class="st0" d="M976.8,13.4L976.8,13.4c-1.2-0.1-2-0.2-2.4-0.2C974.7,13.2,975.4,13.3,976.8,13.4z"/>
						<path class="st0" d="M978.1,13.4c-0.1,0-0.2,0-0.3,0C977.9,13.6,978,13.6,978.1,13.4z"/>
						<path class="st0" d="M989.6,15.9c-1.6,1.2-5,2.5-1.7,4.3C989.1,18.8,987.2,17.7,989.6,15.9z"/>
						<path class="st0" d="M979.4,16l2.9,0.5c-0.1-0.6-0.6-1.4,0.2-2L979.4,16z"/>
						<polygon class="st0" points="978,16.7 979.4,16 978.3,15.9 						"/>
						<path class="st0" d="M964,12.6c-1.3,0.9-2.6,1-4.2,1.2c1.7,0.4,3.4,0.6,5,0.6C965.1,13.7,965.8,12.5,964,12.6z"/>
						<path class="st0" d="M970.2,13.2c-0.1,0-0.2,0.1-0.3,0.1C970.1,13.5,970.2,13.5,970.2,13.2z"/>
						<path class="st0" d="M944.5,13.7c0.1,0.1,0.2,0.3,0.2,0.4c0-0.1,0-0.2,0.1-0.4L944.5,13.7z"/>
						<path class="st0" d="M965.1,14.8c1.2,0.4,2-0.1,2.7-0.8c-0.9,0.2-1.9,0.4-3,0.4C964.8,14.7,964.7,14.9,965.1,14.8z"/>
						<path class="st0" d="M954.8,11.6c0.7,0.5,1.4,0.8,2.2,1.2C956.3,12.1,955,11,954.8,11.6z"/>
						<path class="st0" d="M969.5,12.7c0.1,0,0.1-0.1,0.2-0.1C969.3,12.1,969.3,12.4,969.5,12.7z"/>
						<path class="st0" d="M969.5,12.7c-0.6,0.3-1.2,0.8-1.7,1.3c0.8-0.2,1.5-0.4,2.1-0.7C969.8,13.1,969.6,12.9,969.5,12.7z"/>
						<path class="st0" d="M939.9,27.4c0.2-2,3.5-3.8,6.3-1.7c2.8-1.5,1-8-1.5-11.6c-0.1,0.9-0.1,1.7-3,2.8c1,1.1,6.4,2.5,4,4.3
							c-3.8,1-3.1-0.7-5-1.8c1.6,2.5-4.8,3.6-4,7.2l3.3-1.3C940.2,26,939,26.9,939.9,27.4z"/>
						<path class="st0" d="M950.3,14.3l1.2-0.2c-1.3-0.4-2.3-1.1-4.1-2.7c-2,1-2.4,1.7-2.5,2.4l5.8,0.3L950.3,14.3z"/>
						<path class="st0" d="M956.8,14c-0.9,2.2-3.8,3.1-2,5.4c3.5-0.1,2.4-1.8,4.5-2.7c-5.6,0.5,1.6-1.2-2.4-2.4
							c1.1-0.4,2.1-0.5,3-0.6c-1-0.3-2-0.6-2.9-1c0,0,0.1,0.1,0.1,0.1l0,0c0,0,0,0,0,0c0.2,0.3,0.3,0.4,0,0.3c0,0-0.1,0-0.1,0
							C957,13.5,956.9,13.8,956.8,14c-1.6-0.5-0.3-0.6,0.2-0.8c0-0.1,0.1-0.2,0.1-0.3c0,0,0,0,0,0l-5.6,1.2
							C952.6,14.4,954.1,14.3,956.8,14z"/>
						<path class="st0" d="M984.9,24.9c-0.2-0.2-0.2-0.3-0.2-0.5C984.4,24.6,984.2,24.8,984.9,24.9z"/>
						<path class="st0" d="M982.6,23.6c0.4-0.3,0.8-1.2,2.1-0.9c1.2,0.7,0,1,0,1.7c0.8-0.6,2.8-1.5,0.3-2.6l-0.4,0.3
							c-2.3-0.7-5.2-3.4-4.8-3.7C980.5,20.3,981.1,21.7,982.6,23.6z"/>
						<path class="st0" d="M969.5,19.4l-4.7,1.1l2.4,1.9l-0.1-1.1C969.8,21.6,969.2,20.2,969.5,19.4z"/>
						<polygon class="st0" points="944,12.6 944.6,10.4 941.9,13.6 						"/>
						<polygon class="st0" points="937.9,12.9 938.2,10.9 936.6,12.1 						"/>
						<path class="st0" d="M595.2,37.4l-1.4,0.6C594.5,37.8,594.9,37.6,595.2,37.4z"/>
						<path class="st0" d="M605.1,37.5l0.2-1C604.9,37.1,604.7,37.5,605.1,37.5z"/>
						<path class="st0" d="M788.8,13.1c-2-1.9-4.2-4.7-4-2.5l0.6,2.2C786.8,12.4,787.8,12.6,788.8,13.1z"/>
						<path class="st0" d="M686.6,26c0.2,0.2,0.4,0.4,0.6,0.7c0.5-0.7,0.9-1.4,1.3-2.1C688,25,687.3,25.5,686.6,26z"/>
						<path class="st0" d="M685.2,35l-2.6-1.4C683.1,34.1,684,34.5,685.2,35z"/>
						<path class="st0" d="M540.9,39.7l-1.6,2.2C541.8,41.8,540.7,40.7,540.9,39.7z"/>
						<path class="st0" d="M875.7,13.7c-1.7-0.9-3.1-1.2-4.3-1.3C873.5,13.6,875.2,15.5,875.7,13.7z"/>
						<path class="st0" d="M599.1,14.3c-0.8,0.4-1.2,0.8-1.2,1.3C598.8,15.3,599.3,14.9,599.1,14.3z"/>
						<path class="st0" d="M866.4,12.4c0.3,0.2,0.6,0.3,0.9,0.5c1.3-0.4,2.5-0.7,4.1-0.5C869.9,11.5,868.1,10.9,866.4,12.4z"/>
						<path class="st0" d="M343.9,37.8c-0.1-0.1-0.3-0.1-0.5-0.3C343.4,37.8,343.6,37.8,343.9,37.8z"/>
						<path class="st0" d="M286.6,15.9c0.6-0.1,1.5-0.1,2.4-0.2C288.5,15.6,287.8,15.6,286.6,15.9z"/>
						<path class="st0" d="M913.5,12C914.8,11.8,913.7,11.7,913.5,12L913.5,12z"/>
						<path class="st0" d="M919.8,20.5c-0.3,0.2-0.5,0.5-0.5,1C919.3,21.1,919.5,20.7,919.8,20.5z"/>
						<path class="st0" d="M853.6,25.9c0,0-0.1,0-0.1,0C853.9,26.3,853.8,26.2,853.6,25.9z"/>
						<path class="st0" d="M915.4,12.9c-0.5-0.3-1-0.5-1.7-0.6C914.1,12.5,914.6,12.7,915.4,12.9z"/>
						<path class="st0" d="M915.2,11.9c0.4,0.1,0.8,0.1,1.1,0.2C916.5,11.8,916.3,11.5,915.2,11.9z"/>
						<path class="st0" d="M911.7,12.1c0.7,0,1.4,0.1,2.1,0.2c-0.2-0.1-0.4-0.3-0.3-0.3C913.1,12,912.6,12,911.7,12.1z"/>
						<path class="st0" d="M449.5,32c-0.1-0.1-0.2-0.1-0.3-0.2C447.9,32.7,448.5,32.6,449.5,32z"/>
						<path class="st0" d="M755.2,35.6c0.1,0,0.1-0.1,0.2-0.1c-0.1,0-0.1,0-0.2-0.1L755.2,35.6z"/>
						<path class="st0" d="M750.6,37.2c2-2.7,3.1-2.4,4.6-1.8l-1.5-6.3L750.6,37.2z"/>
						<path class="st0" d="M571.4,38l3.2,2c-3.9,3.2-6.8,2.1-3.7,4.8c0.5-6.8,12.6-0.7,13.1-7.5l2.1,1.4c-0.6-0.1-0.7,0.3-1.3,0.3
							c4.2,3.2,3.1-4.9,8.5-3.9c1.9,0.5,3.2,1.5,1.9,2.3l4.2-1.7c1.2,0.1,0.9,1.3-0.3,1.2l6.4-0.5l0,0.2c0.9-1.1,3-2.7,4-3.4
							c1.6,1-0.8,0.7-0.4,1.6l3.5-1.6c1.4,1.8-1.5,3.5-3.9,3.2c3.3,6.8,2.9-1.7,10,2.2l-3.3,0.9c2.1,3.8,4.7,2.5,8.5,4.9
							c-0.9-1.3-7.5-6-3.7-7.7c1.1,0.5,2.5,0.8,4.6-0.6c0,2.4,2,1.8,4.5,1.7l-0.2,3.2c2.7-0.9,2.5-2.5,4.1-4c3,0.3,3.7,2.8,4.4,4.9
							c4.9,0.5-3.3-4,2.4-4.6c4,1.2,6.9-0.1,11.7-2c2.8,1.1-0.5,2,0.5,2.9l2.5-2.5c0.6,0.1,0.4,0.8,0.3,1.2c2.1-1,0.2-3.2,3.5-4.1
							c0.9-3.5,6.8,5.2,10.9,1.2c1,0.9-0.5,2-0.2,3.2c5.6-2.6,4.8-1.9,9.5-5.4l3.9,2.1c-2.9-2.4,0.8-5.2,4-7.6
							c-1-1.2-1.9-2.2-2.5-2.7l5.2-1.7c0.6,0.5,0.1,1.6-0.8,3c0.3-0.3,0.7-0.5,1-0.8c1.8,1.2,0.9,3-0.4,4.8c-0.6-0.6-1.3-1.3-1.9-2
							c-1.3,1.9-2.5,4.1-2.2,6c0.3-0.4,1-0.7,1.7-0.9c-0.3,0.5-0.5,1-0.4,1.3c0.2,0.3,0.7-0.4,1.6-1.2l1.2,3.6l0.3-1.4l6.8,2.2
							c4.8-3.6,9.1-8.9,16.8-10.3c-1.9,2.6-0.4,4.3-0.5,7.4c-2.1-3.3-6,1.4-9.9,0.7c2.1,0.3,1.6,1.8,1.1,2.3l7.1-3
							c-0.2,2.5,1.5,1.9,3.4,3c-1.4-5,5.3-3.3,8.2-4.9c0.2,1.7-0.5,3.4-4,3c3.9,3.8,5-5.9,8.8-2.7c-0.9,0-1.3-0.2-1.7,0.6
							c2-1.5,6.9-0.3,5.8,1.2l-0.9,0c5.7,0.6,17.4,0,18.3-4.2c0.1,0.5-0.8,5.1-1.1,6l10.2-14.3c-0.9,3.7,2.5,12.3-2.2,14.4
							c1.4,0.5,3,1.1,5.9-0.2c-0.9-0.5-2.3-5.3-1-5.6c3.5,4.1,2.4,2.2,6.7,5.6c-1.4-0.8,0.2-6.5,2.4-6.3c-0.3,0.9,0.2,5.7-0.6,6.2
							l5.5-5.6c-1.4,1-0.2,4.8,1,6.4c-0.6-1.1,4.7,0.1,6.2-0.5l-2.3-1.3c6.2,0.8,6.1-7.9,12.2-7.6c-0.7,1.2-1.8,7.2,1.3,7.9
							c1.4-2.9,6.3-13.9,11.8-16.1l1,1.6l4.2-1.9c-2.6,4.3-9.9,13.4-13.8,17c2.3,1.3,0.6,1.9,4.1,1.8c1.2,1.5-1.9,2.3-2.9,2.4l8.1,1
							c-0.4-3.4,6.2-3.4,5.9-6.2l-8.8,3.5c-0.3-3.3,5.1-9.5,10.8-8.9c1.5,1.3-1.1,6-1,7.1c0.7-1.2,5.4-2.2,6-1.4l-2.4,1.8
							c3.2,1.3,5.2-4.5,9-1.2c1.3,0.2,3.9,4.3,4.2,2.3c-2.2-3.8-2.6-15.7-1.1-18.6c0.5,0.3,6.9,3.7,8.4,5.6c2.2,3-3.3,7.2-1.4,9.8
							c0.1-0.9,1.3-2,1.8-2.4c1.4,0.8-0.6,2.8,2.4,2.4c0.5-3.4,6.1,0.3,1.4-2.9c3-1,3.1,0.7,6.6,0.5c-1.1-2.2,3.1-7.5,6.1-8.5
							c-0.2,0.9,0.5,2,0.8,2.5c6,0.3,9.3,1.9,14.9,1.9c0.5,0.8,3.2,1.8,2.1,3.3c0.8-0.6,1.6-1.8,3.3-1.8c3.4,3-3.9,0.5-1.3,4
							c0.2-2,4.5-2.7,7-4c-0.8-3.1-5.7-0.6-8.2,0.7c0-4.2,4.3-8.6,10.2-10.6c4.7-1,2,2.7,2.8,2.1c8.8,0.7,7.5-7.4,14.8-4.3
							c2.9,2.7,0.1,5.4,0.8,7.3c-3.8,1-5.8-1.7-8.4-1.6l3.2,1.3c-1.2,0.9-3.8,1.6-5.1,0.8c2.4,2.4,14.8,0.5,21.6,2.7
							c1.2-0.9,3.3-1.8,2.3-2.9l-2.2,0.4c-2-2.2,4-3,1.3-4c2.9-1.5,6.1-3.9,10.2-2.7l0.8,3.1c-0.1-0.9-2.7-1.8-3.8-0.9
							c1.7-1.4,6.2,4.2,8.1,0.1l-2.8-2.1c2.9-1.5,6.5-4.8,10.1-3.8c-1.6-3-0.8,0.4-3.4-3.2c2.2,4.4-9.2-0.2-5.6,4.4
							c-2.6-4.1-4.5-1.7-8-5.2c0.1,1,1.2,1.9-1.8,1.4c-0.1,0.3-0.5,0.7-0.7,0.9c-0.1,0-0.1,0-0.2-0.1c0.1,0,0.1,0.1,0.2,0.1
							c-0.1,0.1-0.1,0.2,0.1,0c0.7,0.4,1.3,1,1.5,1.5c-1.5,2.3-6.3,2.2-7.9,3.5c-1.8-0.5,0.8-1.2-0.2-2.2l-2.4,1.8
							c-0.2-2.2-4.8-3.7-0.5-5l-3.8-0.1c-2.2-1.3-5.3-1.8-7.2-0.8c-1.8-0.5-4.5,2.5-3,0.7l-6,1.4l0-0.6c-5.9-0.3-12.1,3.7-18.8-0.3
							c-2,0.6-4,1.3-7.3,0.6l-0.6-1.9c-2.5,0.7-7.6-2-8.7,0.1c-2.7-5.2-12.3-1.1-16.8-2.1l-0.2,2.5c-3.1-0.1-6,0.6-9.8,1.6l0.2,2.2
							c-3.3,1.8-8.5-1.6-13.7-1.4c0.3-0.9,1.7-0.6,2.6-0.1c-6.2-5.1-13.1,3.7-18.7,0c-1.4,0.8-2.4,0.5-3.4,0c0.1,0,0.2,0,0.3-0.1
							c-0.1,0-0.4,0-0.6,0c-0.6-0.4-1.3-0.8-2-1.2c0.6,0.5,1.2,1,1.6,1.2c-1.1,0-2.7,0.3-4.3,0.9l-0.7-2.4c-0.1,0-0.2,0-0.4,0.1
							c-1.6-0.9-1.3,1.1-0.4,3c-0.8,0.4-1.5,0.9-2.1,1.5c-1.3-3.9-4.2,1.3-6-2.8c-1.1,2-8.1,1.5-9,5.8c0-0.5-0.5-0.8,0.3-0.9
							c-1.8-0.5-3.6-1-5.2,0.2l-0.8-3.1l-3.9,4.1c-2.4-1.9-3.4-3-1-5.3c-5.7,3.6-4.6,1.4-9.5,5l0.2-2c-1.7,0.1-4.5,2.7-5.5,1.1
							c-3.9-3.8-19.2-0.5-29.2-4c1.9,5.8-4.6-2.6-5,1.9c-0.6-1.4-2-2.2-0.3-3.4c-5.1,1.4-7.6-2.2-11.2,1.6c-0.6-1.4,1.1-2,0.6-2.8
							c-0.4,0.3-1.6,1.2-2.1,0.4s0.7-1.2,1.5-1.8c-5.2,0.2-5.7,4.5-6.1,8.5c-2.6-1.9-3.9-1.6-5.8,1c-0.9-1.3-2.4-2.7,0.8-3.1
							c-1.8-0.2-11.1-1.9-11.3,1.3c-0.6-0.8-2.5-0.2-3,0.1c-4.1-0.2-4.4-0.5-8.4-0.2l1.1,0.5c-1.6,3.8-3.3,0.9-6.5,1.3l0.1-0.4
							c-7.4-2.8-3.2,1.3-10.5-1.8l0.4,2.4c-0.7,5.2-6.5-3-10.7-1.1l1.5,1.4c-2.3,1.8-6.5-7-8.8-7.7c-0.5-0.5,0.8-0.7,1.5-1
							c-6.1-3-0.8,3.1-5.3,3.9c-0.8-1.7,1.1-4.3-2-4.6c-1.5-1.4-8.8,5.5-13,2.2c0.9,1.3,1.8,2.6-0.3,3.6c-3.2,0.5-8.7-4.9-11.6-0.8
							c-0.4-0.4-0.6-0.7-0.6-1c-2.5,1.1-8,1.8-9.5,4c-2.3-8.3-15.3,4-15.3-3.6l-7.6,0.4l0.2-0.8c-4.8-0.5-6.6,1.3-8.3,3.2
							c-1.1-0.5-0.3-1.2-0.2-1.6c-7.1-1.5-7.8-1.2-13.7,2.6l-0.6-2.5c-1.6,1.4-10.2-3.9-17.2-1c0.1-0.3,0.2-0.8,0.8-1.1
							c-7.8,2.9-18.7-6.9-21.6,2.1l-5.2,2.2c6.7,0.7-1,3.9,1.8,5.4c-2.6,0.5-6.8-2.7-3.6-3.2l0.5,0.5c1.2-4.7-8.3-1.7-8.1-4.9
							c-13.1,0.2-25.9-2.4-38.2-2.6l1.4,3.7l-4.3-0.2c-1.1-0.9-1.5-2.9,1.5-2.7c-1.6-2.1-5.1,1.7-5.2,2.5c-6-1.5,2.3-4.3,0.5-4.4
							l-2.5,0.3l0.6,0.4c-2,1.5-2.2,3.1-5.9,2.9c-2.3-0.7-1.2-2.3-2.1-2.4c0-0.3-0.3-0.4-1.4-0.1l-5.4-0.3l2.2,2.9
							c-2.4,1.4-5.1-0.1-2.6,3.1c-3.7-5-20.2-1.8-22.4-3.4c-3.4,2.1-6.7,2.1-10.8,1.8c1,0.6,1.6,3.9-1.9,3.5
							c1.3-6.7-6.5-2.9-9.3-7.7c2.6,3.2-10.1,0.8-6,5.3c-3-0.5-0.2-2.5-2.4-4.1c-7,2.6-15.5-1.7-24.2-0.8c-0.1,0.9,1.3,2.2-0.5,3.5
							l-4.6-4.4c-1.7,0.4-1.6,5.1-4.7,2c0.4,0.7,1.1,1.9,0,2.1c-17-4.3-34.8,3.5-52.1-4.6c2.3,1.7,0.8,1.9-1,1.9
							c1.2,0.4,0,2.2,0.2,3.4l-7.2-3.3c-1.3,3.3-7.8,0.2-8.5,3.4l2.3-0.6c-3,3.7,4.3,8.3,3.8,13.1c3.4-4.2,9,6.3,14.6,0.2
							c1.2,1-1,1.5-0.4,2.7c1.4-2,3.1-2.5,6.3-1.6l-0.4,0.5c8.9-0.5,12.8,1.5,22.8,2.9l-0.7-2.4c2.1,0.3,2.6,1.1,3.6,1.7
							c2.5-3.6-6-0.2-3.8-4.2c2.9,4.8,15.2,0.1,17.1,5.5c3.3,0-1-2.7,2.3-2.7l0.9,1.5l0.8-1.9c2.2,0.3,3.3,2.2,3.4,3.4
							c-0.5-0.2-1.5,0.3-2.1,0.5c2.8,1.8,7.9-0.6,8.9,0l-3.2-0.9c9-1.4,20.1,0.6,28.8-2.5l-0.7-1.1c6.7-2.1,5.3,1.2,12.7,0.3
							l-0.3,0.3c1.5-1.1,3.4-1.7,5.4-1.5c-1.9,1.3,3.5,2.5,1,4c7.2-2.2,3.6-1.7,8.4-5.9l1.1,1.8c1.6-1.7,1.8-2.6,5.4-3
							c-3,1.6,2.3,2.8-1,4.9c7.7,4.1,11.4-4.1,14.9,1.8c3.5-5.1-6.6-2.8-4.7-4c-1.6-1.7,2.9-3.8,5.3-3.3c2.5,0.1,4.2,6.6,10.3,6.5
							c-0.6,0-0.7,0.4-1.3,0.3c2.3,1.3,4.5-1.8,7.4,0.4c1.6-3.1,3.7,0.2,4.1-3.8L441,33c3.2-1,6.2-5.7,11.5-3.4
							c-0.4,0.8-2,1.8-3.1,2.4c1.5,1.2,3-0.8,4.6,0.4c-0.5,4-6.9,0.9-10.3,3.9c1.7,1.7,6.5-2.9,4.8,1.4c2.5-5.5,6.1,0.7,10.3-3.5
							l-0.3,2.4c0.7-0.4,2-1.5,3.2-1.4l-2.2,3.1c3.4-2.6,6.5,2.3,9.8,0.9c-6.8,0.1-1.5-2.9-4.4-4.6c8.4-3.2,4.8,6.2,14.2,5.1
							c-1.3,0.3-4.8-1.4-2.8-2.5c1.8,0.5,4.1,1.4,5.2,2.7c6.2-0.5-1-2.4,1.7-3.9c2.1,2.9,3-1.2,5.8-2.1l0,2.4c7.1,1.5,1.9-5,8.2-3.2
							l-2.7,3.3l3.3-0.9l-0.7,2.7c3.6-2,4.7-1.5,8.3-0.7c-0.8-1.7,0.5-4.4,3.6-4.5c2.1,1.4-1.2,2.3,3.2,2c-1,1.5-2.1,3.4-4,1.2
							c-0.2,0.8-1,1.5-1.2,2.3c2.3,1.7,5.8,0.4,7.4,0.4c-0.6-0.1-1.4-0.2-1.7-0.6l6.5-3.3c1,0.9,0.2,1.6-0.6,2.3
							c1.3-0.3,2.2-1.4,4.1-1.6c-0.5,2-0.4,4-3.1,4.9l6.1-2.2c0.4,0.8,3.2,2.3,2.3,3.1c3.4,1.2,8.3-3.8,12.9-2.3
							c0.2-0.4,0.7-0.7,1.7-1c4.2,0.5,8,2.8,13,0.2l2.8,3.5c3.9-0.8-3.9-4.4,2.7-5.8c4.6-1.1,1.7,3,3.4,4c2.3-1.8,6.3-5.4,10.6-2.5
							C573.8,38.2,572.7,37.7,571.4,38z M619.9,36.4c-0.9,0.5-2.8,2.1-3.5,0.6C617.5,34.3,618.3,35.6,619.9,36.4z M693.7,30.7
							c-0.7,0.8-1.8,0.4-3-0.5C691.6,29.9,692.6,30,693.7,30.7z M899.4,13.9c0,0-0.1,0.1-0.1,0.1C897.2,13.1,897.9,13.5,899.4,13.9z
							 M903.7,15c0.4-0.3,0.4-0.7,0.2-1c-0.3,0.6-1.3,0.6-2.4,0.5C901.9,15.1,902.4,15.5,903.7,15z M435.7,15.8l0.9,0.6
							C434.6,17.1,435.2,16.5,435.7,15.8z"/>
						<path class="st0" d="M685.4,34c-0.3-0.4-0.3-0.9-0.4-1.3C684.6,33,684.6,33.5,685.4,34z"/>
						<path class="st0" d="M541.2,39.2c0,0-0.1,0-0.2,0c-0.1,0.1-0.1,0.3-0.2,0.4L541.2,39.2z"/>
						<path class="st0" d="M836.2,35.4c-0.9-0.3-1.4-0.8-1.7-1.2C834.4,34.7,834.8,35.2,836.2,35.4z"/>
						<path class="st0" d="M926.8,10.9l-2.8,0.6c1.3-0.1,1.8,0.4,2.5,0.8C926.5,11.7,926,10.9,926.8,10.9z"/>
						<path class="st0" d="M951.1,25.8c0.4-0.3,0.9,0,1.3-0.3l-0.1-1.1C950.5,24.4,949.3,25.3,951.1,25.8z"/>
						<path class="st0" d="M929.4,18.9c0.2,2,2,1.3,3.9,1c-0.1,0-0.2,0-0.3,0C933.6,17,931.5,18,929.4,18.9z"/>
						<path class="st0" d="M933.8,19.8c0.6-0.1,1.2-0.1,1.8,0C935.8,18.6,934.9,19.5,933.8,19.8z"/>
						<path class="st0" d="M909.3,13.6c0.9,0.5,0.6-2.6,1.1-1.8C911.4,9.3,904.2,15,909.3,13.6z"/>
						<polygon class="st0" points="931,25.6 930.3,23.1 929.2,25.1 						"/>
						<path class="st0" d="M915.6,23.7l3.1,0.7c0-0.4,0.3-0.7,0.8-0.8C917.6,23.5,915.5,23,915.6,23.7z"/>
						<path class="st0" d="M919.5,23.6c1,0,2,0,2.5-0.4C921.5,23.2,920.3,23.3,919.5,23.6z"/>
						<polygon class="st0" points="926.7,26.3 925.8,25.8 923.6,25.6 						"/>
						<path class="st0" d="M882,23.2l-3.4,0.7c-0.3,0.9,0.6,1.4,1.8,1C881.2,24.4,882.5,24.1,882,23.2z"/>
						<path class="st0" d="M892.3,30.1c-0.9-0.5-1-1.1-1.5-1.9l-0.1,3.1L892.3,30.1z"/>
						<path class="st0" d="M882.3,30.8c-0.3,0.9-5,2.5-0.6,2.3C882,32.2,885.5,31.5,882.3,30.8z"/>
						<polygon class="st0" points="831,26.9 831.8,26.8 831.7,21.7 						"/>
						<path class="st0" d="M785.7,39c4,1.2,1-3.1,4.6-1.6c1-1.2-3-1.2-2-2.3C785.8,36.4,784.5,35.7,785.7,39z"/>
						<path class="st0" d="M788.2,35.1c0.4-0.2,0.8-0.4,1.2-0.8C788.8,34.7,788.5,34.9,788.2,35.1z"/>
						<polygon class="st0" points="277,13.1 274.4,12.1 276.1,13.8 						"/>
						<path class="st0" d="M272,16.9l-0.6-3.2l-1.6,2.9C270.5,16.5,271.6,16.2,272,16.9z"/>
						<path class="st0" d="M627.1,43l0.2-0.8c-0.4-0.8-1-0.9-2.2-1L627.1,43z"/>
						<polygon class="st0" points="591.9,40.5 592.5,40.6 591.4,37.7 						"/>
						<path class="st0" d="M562.3,44.3c1.2,0.1,2.6-0.5,3.8-0.4C563.5,44.4,562,40.6,562.3,44.3z"/>
					</g>
				</g>
			</g>
		</g>
	</g>
	<g>
		<g>
			<g>
				<g>
					<g>
						<path class="st0" d="M570.8,12.6c0.9,0.2,0.6-1.9,0.7-2.3C570,10.8,570.9,13.2,570.8,12.6z"/>
						<polygon class="st0" points="556.2,17.3 556.4,16.5 554.3,18.5 						"/>
						<path class="st0" d="M542.5,17.2c1.3,3.6,5-0.5,7.4,0.7l0.4,0.8l1.1-2.9C548.4,16.3,544.6,18.2,542.5,17.2z"/>
						<path class="st0" d="M535.2,9.4c0.4,1.4-1.6,1.2,1.7,0.4c-0.2-0.1-0.2-0.2-0.3-0.4C536.3,9.5,535.9,9.5,535.2,9.4z"/>
						<path class="st0" d="M536.6,9.5C538.1,9.4,535.7,8.4,536.6,9.5L536.6,9.5z"/>
						<path class="st0" d="M530,10.3l1.9-1.2c-0.4-0.8-2.1-1-1.5-1.6C528.5,8.1,528.9,8.9,530,10.3z"/>
						<path class="st0" d="M528.2,12.9l1-0.5C529,12,528.7,11.9,528.2,12.9z"/>
						<path class="st0" d="M531.2,11.3l-2.1,1.1c0.3,0.6,0.3,1.7,1-0.4C529.9,13,530.3,12,531.2,11.3z"/>
						<path class="st0" d="M532.4,11.8c1.1,0.8,2.4,1.3,0.5,2.5C536.6,13.9,536,11.3,532.4,11.8z"/>
						<path class="st0" d="M541.8,20.9l1.4,1l1.2-1.2C543.8,21.3,541.7,19.8,541.8,20.9z"/>
						<path class="st0" d="M518.2,8.4c-0.1,0.8,0.6,2,0.8,3l1.4-0.9C519.6,10,518.2,9.5,518.2,8.4z"/>
						<path class="st0" d="M518.9,11.4l-2.1,1.3C518.7,12.9,519,12.2,518.9,11.4z"/>
						<polygon class="st0" points="527.8,16.9 531.3,14.1 527.1,16.9 						"/>
						<polygon class="st0" points="510.1,8.3 511.4,6.5 509.2,9.1 						"/>
						<path class="st0" d="M504.8,8.5c0.9-1.5-1.2-2.5-0.3-3.4c-1.4,0.2-2.7,1.5-3.8,2.6C502,7.2,503.2,7.3,504.8,8.5z"/>
						<path class="st0" d="M498.9,9.4c0.6-0.4,1.2-1,1.9-1.6C500.1,8.1,499.5,8.6,498.9,9.4z"/>
						<path class="st0" d="M513.2,12.3c-0.2-0.5-0.5-1.7-1.6-2.2l0.8,2.1C512.7,12.3,513,12.3,513.2,12.3z"/>
						<path class="st0" d="M512.5,12.3L512.5,12.3c-0.9-0.1-1.6-0.2-1.8-0.2C510.9,12.1,511.4,12.2,512.5,12.3z"/>
						<path class="st0" d="M513.5,12.3c-0.1,0-0.1,0-0.2,0C513.3,12.5,513.4,12.6,513.5,12.3z"/>
						<path class="st0" d="M522.3,14.9c-1.2,1.2-3.8,2.5-1.3,4.3C521.9,17.7,520.5,16.7,522.3,14.9z"/>
						<path class="st0" d="M514.5,15l2.2,0.5c0-0.6-0.4-1.4,0.2-2L514.5,15z"/>
						<polygon class="st0" points="513.4,15.6 514.5,15 513.7,14.8 						"/>
						<path class="st0" d="M502.7,11.4c-1,0.9-2,1-3.2,1.1c1.3,0.4,2.6,0.7,3.8,0.7C503.5,12.6,504.1,11.4,502.7,11.4z"/>
						<path class="st0" d="M507.5,12.1c-0.1,0-0.1,0.1-0.2,0.1C507.4,12.4,507.5,12.4,507.5,12.1z"/>
						<path class="st0" d="M487.8,12.5c0.1,0.1,0.1,0.3,0.2,0.4c0-0.1,0-0.2,0-0.4L487.8,12.5z"/>
						<path class="st0" d="M503.6,13.6c1,0.4,1.5-0.1,2.1-0.8c-0.7,0.2-1.5,0.4-2.3,0.4C503.3,13.5,503.2,13.7,503.6,13.6z"/>
						<path class="st0" d="M495.6,10.4c0.5,0.5,1.1,0.8,1.6,1.2C496.8,10.9,495.8,9.9,495.6,10.4z"/>
						<path class="st0" d="M506.9,11.6c0,0,0.1-0.1,0.1-0.1C506.8,11,506.8,11.2,506.9,11.6z"/>
						<path class="st0" d="M506.9,11.6c-0.5,0.3-0.9,0.8-1.3,1.3c0.6-0.2,1.1-0.4,1.6-0.7C507.1,12,507,11.8,506.9,11.6z"/>
						<path class="st0" d="M484.2,26.2c0.2-2,2.7-3.8,4.9-1.7c2.1-1.5,0.8-8-1.1-11.6c-0.1,0.9-0.1,1.7-2.3,2.8
							c0.8,1.1,4.9,2.5,3,4.3c-2.9,1-2.4-0.7-3.8-1.8c1.2,2.5-3.7,3.6-3.1,7.2l2.6-1.3C484.4,24.8,483.5,25.7,484.2,26.2z"/>
						<path class="st0" d="M492.2,13.1l0.9-0.2c-1-0.4-1.8-1.1-3.1-2.7c-1.5,1-1.8,1.7-1.9,2.4l4.5,0.3L492.2,13.1z"/>
						<path class="st0" d="M497.2,12.9c-0.7,2.1-2.9,3.1-1.6,5.4c2.7-0.1,1.9-1.8,3.5-2.7c-4.3,0.5,1.2-1.2-1.9-2.4
							c0.8-0.4,1.6-0.5,2.3-0.6c-0.8-0.3-1.5-0.6-2.2-1c0,0,0.1,0.1,0.1,0.1l0,0c0,0,0,0,0,0c0.2,0.3,0.2,0.4,0,0.3c0,0-0.1,0-0.1,0
							C497.3,12.4,497.3,12.6,497.2,12.9c-1.2-0.5-0.2-0.6,0.2-0.8c0-0.1,0-0.2,0-0.3c0,0,0,0,0,0l-4.3,1.2
							C494,13.2,495.1,13.1,497.2,12.9z"/>
						<path class="st0" d="M518.7,23.8c-0.1-0.2-0.1-0.3-0.1-0.5C518.2,23.6,518.1,23.8,518.7,23.8z"/>
						<path class="st0" d="M516.9,22.5c0.3-0.3,0.6-1.2,1.6-0.9c0.9,0.6,0,1,0,1.7c0.6-0.6,2.2-1.5,0.2-2.6l-0.3,0.3
							c-1.7-0.8-3.9-3.5-3.6-3.7C515.3,19.2,515.8,20.6,516.9,22.5z"/>
						<path class="st0" d="M506.9,18.2l-3.6,1l1.8,1.9L505,20C507.1,20.5,506.6,19.1,506.9,18.2z"/>
						<polygon class="st0" points="487.4,11.4 487.9,9.2 485.8,12.4 						"/>
						<polygon class="st0" points="482.8,11.7 482.9,9.7 481.7,10.9 						"/>
						<path class="st0" d="M220.2,34.9l-1.1,0.6C219.7,35.3,220,35.1,220.2,34.9z"/>
						<path class="st0" d="M227.9,35.1l0.2-1C227.7,34.7,227.5,35.1,227.9,35.1z"/>
						<path class="st0" d="M368.5,11.3c-1.5-1.9-3.2-4.7-3-2.5L366,11C367,10.6,367.9,10.9,368.5,11.3z"/>
						<path class="st0" d="M290.3,23.9c0.1,0.2,0.3,0.4,0.4,0.7c0.4-0.7,0.7-1.4,1-2.1C291.3,22.9,290.8,23.4,290.3,23.9z"/>
						<path class="st0" d="M289.1,32.9l-2-1.4C287.6,32,288.2,32.4,289.1,32.9z"/>
						<path class="st0" d="M178.7,37l-1.2,2.2C179.3,39.2,178.5,38.1,178.7,37z"/>
						<path class="st0" d="M435.1,12.2c-1.3-0.9-2.4-1.2-3.3-1.3C433.4,12.2,434.7,14,435.1,12.2z"/>
						<path class="st0" d="M223.4,11.9c-0.6,0.4-0.9,0.8-0.9,1.3C223.1,12.9,223.5,12.5,223.4,11.9z"/>
						<path class="st0" d="M428,10.9c0.2,0.2,0.5,0.3,0.7,0.5c1-0.4,1.9-0.6,3.1-0.5C430.7,10,429.3,9.4,428,10.9z"/>
						<path class="st0" d="M27.9,34.5c-0.1-0.1-0.2-0.2-0.3-0.3C27.5,34.5,27.7,34.5,27.9,34.5z"/>
						<path class="st0" d="M-15.9,12.4c0.4-0.1,1.1-0.1,1.8-0.2C-14.4,12.1-15,12.1-15.9,12.4z"/>
						<path class="st0" d="M464,10.6C465,10.5,464.2,10.4,464,10.6L464,10.6z"/>
						<path class="st0" d="M468.8,19.2c-0.2,0.2-0.4,0.5-0.4,1C468.5,19.8,468.6,19.5,468.8,19.2z"/>
						<path class="st0" d="M418.1,24.4C418.1,24.4,418.1,24.3,418.1,24.4C418.3,24.8,418.3,24.7,418.1,24.4z"/>
						<path class="st0" d="M465.5,11.6c-0.4-0.3-0.8-0.5-1.3-0.6C464.5,11.2,464.9,11.4,465.5,11.6z"/>
						<path class="st0" d="M465.3,10.6c0.3,0.1,0.6,0.1,0.9,0.2C466.3,10.5,466.2,10.2,465.3,10.6z"/>
						<path class="st0" d="M462.7,10.8c0.6,0,1.1,0.1,1.6,0.2c-0.2-0.1-0.3-0.3-0.2-0.3C463.8,10.7,463.4,10.7,462.7,10.8z"/>
						<path class="st0" d="M108.7,29.1c-0.1-0.1-0.1-0.1-0.2-0.2C107.5,29.8,107.9,29.6,108.7,29.1z"/>
						<path class="st0" d="M342.8,33.7c0,0,0.1-0.1,0.1-0.1c0,0-0.1,0-0.1-0.1L342.8,33.7z"/>
						<path class="st0" d="M339.2,35.3c1.5-2.7,2.4-2.4,3.5-1.8l-1.1-6.3L339.2,35.3z"/>
						<path class="st0" d="M202,35.5l2.5,2c-3,3.2-5.2,2.1-2.9,4.8c0.4-6.8,9.7-0.7,10.1-7.4l1.6,1.4c-0.5-0.1-0.6,0.3-1,0.3
							c3.2,3.3,2.4-4.9,6.5-3.9c1.4,0.5,2.4,1.5,1.4,2.3l3.2-1.7c0.9,0.1,0.7,1.3-0.2,1.2l4.9-0.5l0,0.2c0.7-1.1,2.3-2.7,3.1-3.4
							c1.2,1-0.6,0.7-0.3,1.6l2.7-1.6c1.1,1.8-1.1,3.5-3,3.2c2.5,6.8,2.2-1.7,7.7,2.3l-2.6,0.8c1.6,3.9,3.6,2.5,6.5,4.9
							c-0.7-1.3-5.7-6.1-2.8-7.8c0.8,0.5,1.9,0.8,3.5-0.6c0,2.4,1.6,1.8,3.5,1.7l-0.1,3.2c2.1-0.9,1.9-2.5,3.2-4
							c2.3,0.3,2.8,2.8,3.3,4.9c3.7,0.5-2.6-4,1.9-4.6c3.1,1.2,5.3-0.1,9-2c2.2,1.1-0.4,2,0.4,2.9l1.9-2.5c0.5,0.1,0.3,0.8,0.2,1.2
							c1.6-1,0.1-3.2,2.7-4c0.7-3.5,5.2,5.2,8.4,1.2c0.8,0.9-0.4,2-0.1,3.2c4.3-2.6,3.7-1.9,7.3-5.4l3,2.1c-2.2-2.4,0.6-5.2,3.1-7.6
							c-0.8-1.2-1.5-2.2-1.9-2.7l4-1.7c0.5,0.5,0.1,1.6-0.6,3c0.3-0.3,0.5-0.5,0.7-0.8c1.4,1.2,0.7,3-0.4,4.8c-0.5-0.6-1-1.3-1.4-2
							c-1,1.9-1.9,4.1-1.7,6c0.3-0.4,0.8-0.7,1.3-0.9c-0.3,0.5-0.4,1-0.3,1.3c0.1,0.3,0.5-0.4,1.2-1.2l0.9,3.6l0.2-1.4l5.2,2.3
							c3.7-3.6,7-8.8,12.9-10.3c-1.5,2.6-0.3,4.3-0.4,7.4c-1.6-3.3-4.6,1.4-7.6,0.7c1.6,0.3,1.2,1.8,0.8,2.3l5.5-3
							c-0.1,2.5,1.1,1.9,2.6,3c-1-5,4.1-3.3,6.3-4.8c0.1,1.7-0.4,3.4-3.1,3c3,3.8,3.9-5.9,6.8-2.6c-0.7,0-1-0.2-1.3,0.6
							c1.5-1.5,5.3-0.3,4.4,1.2l-0.7,0c4.4,0.6,13.3,0.1,14-4.2c0,0.5-0.6,5.1-0.9,6l7.9-14.3c-0.7,3.6,1.9,12.4-1.8,14.4
							c1,0.5,2.3,1.1,4.5-0.1c-0.7-0.5-1.8-5.3-0.8-5.6c2.6,4.1,1.8,2.2,5.1,5.7c-1.1-0.8,0.1-6.5,1.8-6.3c-0.3,0.9,0.1,5.7-0.5,6.2
							l4.2-5.6c-1,1-0.2,4.8,0.7,6.4c-0.4-1.1,3.6,0.1,4.8-0.4l-1.8-1.3c4.7,0.9,4.7-7.9,9.4-7.6c-0.6,1.2-1.4,7.1,1,7.9
							c1.1-2.9,4.9-13.8,9.1-16l0.8,1.6l3.2-1.9c-2,4.3-7.6,13.4-10.7,17c1.8,1.3,0.5,1.9,3.1,1.8c0.9,1.5-1.5,2.3-2.2,2.4l6.2,1
							c-0.3-3.4,4.7-3.3,4.5-6.2l-6.7,3.5c-0.3-3.4,3.9-9.5,8.3-8.9c1.1,1.3-0.9,6-0.8,7.1c0.6-1.2,4.2-2.2,4.6-1.4l-1.9,1.8
							c2.4,1.3,4-4.4,6.9-1.2c1,0.2,3,4.3,3.2,2.3c-1.6-3.8-1.9-15.7-0.8-18.6c0.4,0.3,5.3,3.7,6.4,5.6c1.6,3-2.5,7.2-1.1,9.8
							c0.1-0.9,1-2,1.4-2.4c1.1,0.8-0.5,2.8,1.9,2.4c0.4-3.4,4.7,0.3,1.1-2.9c2.3-1,2.4,0.7,5,0.6c-0.8-2.2,2.4-7.5,4.7-8.4
							c-0.1,0.9,0.4,2,0.6,2.5c4.6,0.3,7.1,1.9,11.4,1.9c0.4,0.8,2.5,1.8,1.6,3.3c0.6-0.6,1.2-1.8,2.5-1.8c2.6,3-3,0.4-1,4
							c0.2-2,3.5-2.7,5.4-3.9c-0.6-3.1-4.4-0.6-6.3,0.6c0-4.2,3.3-8.6,7.9-10.5c3.6-1,1.5,2.7,2.2,2.1c6.7,0.8,5.8-7.3,11.3-4.3
							c2.2,2.7,0.1,5.4,0.6,7.3c-2.9,1-4.5-1.7-6.5-1.6l2.4,1.3c-0.9,0.9-2.9,1.6-3.9,0.8c1.9,2.4,11.4,0.5,16.5,2.8
							c0.9-0.9,2.5-1.8,1.8-2.9l-1.6,0.4c-1.5-2.2,3.1-3,1-4c2.2-1.5,4.7-3.9,7.8-2.6l0.6,3.1c-0.1-0.9-2-1.8-2.9-0.9
							c1.3-1.4,4.7,4.2,6.2,0.2l-2.2-2.1c2.2-1.5,5-4.8,7.7-3.8c-1.2-3-0.6,0.3-2.6-3.2c1.7,4.4-7-0.2-4.3,4.4
							c-2-4.1-3.5-1.8-6.1-5.3c0.1,1,0.9,1.9-1.4,1.4c-0.1,0.3-0.4,0.7-0.5,0.9c-0.1,0-0.1,0-0.2-0.1c0,0,0.1,0.1,0.1,0.1
							c-0.1,0.1-0.1,0.2,0,0c0.5,0.4,1,1,1.2,1.5c-1.2,2.3-4.8,2.2-6.1,3.4c-1.4-0.5,0.6-1.2-0.2-2.2l-1.9,1.8
							c-0.2-2.2-3.6-3.8-0.4-5l-2.9-0.1c-1.7-1.3-4-1.8-5.5-0.8c-1.4-0.5-3.5,2.5-2.3,0.7l-4.6,1.4l0-0.6c-4.5-0.3-9.3,3.7-14.4-0.4
							c-1.5,0.6-3.1,1.2-5.6,0.6l-0.5-2c-2,0.7-5.8-2-6.7,0c-2.1-5.2-9.4-1.2-12.8-2.1l-0.1,2.5c-2.4-0.2-4.6,0.5-7.5,1.6l0.2,2.2
							c-2.5,1.8-6.5-1.6-10.4-1.4c0.3-0.9,1.3-0.6,2-0.1c-4.7-5.1-10,3.6-14.4-0.1c-1.1,0.8-1.9,0.5-2.6,0c0.1,0,0.2,0,0.3-0.1
							c-0.1,0-0.3,0-0.4,0c-0.5-0.4-1-0.8-1.5-1.2c0.5,0.5,0.9,1,1.2,1.2c-0.8,0-2.1,0.3-3.3,0.9L366,11c-0.1,0-0.2,0-0.3,0.1
							c-1.2-0.9-1,1.1-0.3,3c-0.6,0.4-1.2,0.9-1.6,1.4c-1-3.9-3.2,1.3-4.6-2.9c-0.8,2-6.2,1.5-6.9,5.7c0-0.5-0.4-0.8,0.3-0.9
							c-1.4-0.5-2.7-1-4,0.2l-0.6-3.1l-3,4.1c-1.8-1.9-2.6-3-0.7-5.3c-4.4,3.6-3.5,1.4-7.3,4.9l0.2-2c-1.3,0.1-3.5,2.7-4.3,1.1
							c-3-3.8-14.7-0.6-22.3-4.1c1.5,5.8-3.5-2.6-3.9,1.9c-0.4-1.4-1.5-2.2-0.3-3.4c-3.9,1.3-5.8-2.2-8.5,1.6
							c-0.4-1.4,0.8-2,0.5-2.8c-0.3,0.3-1.2,1.2-1.6,0.4c-0.4-0.8,0.6-1.1,1.2-1.8c-4,0.2-4.4,4.5-4.7,8.4c-2-1.9-3-1.6-4.5,1
							c-0.7-1.3-1.9-2.7,0.6-3.1c-1.4-0.2-8.5-2-8.6,1.2c-0.4-0.8-1.9-0.2-2.3,0.1c-3.1-0.2-3.4-0.5-6.5-0.2l0.9,0.5
							c-1.2,3.9-2.5,0.9-5,1.3l0.1-0.4c-5.6-2.8-2.5,1.3-8-1.9l0.3,2.4c-0.5,5.2-4.9-3.1-8.2-1.1l1.2,1.4c-1.8,1.8-4.9-7-6.7-7.7
							c-0.4-0.5,0.6-0.7,1.2-1c-4.6-3.1-0.6,3.1-4.1,3.9c-0.6-1.7,0.9-4.3-1.5-4.6c-1.2-1.4-6.8,5.5-10,2.2c0.7,1.3,1.4,2.6-0.2,3.6
							c-2.5,0.5-6.6-5-8.9-0.9c-0.3-0.4-0.4-0.7-0.4-1c-1.9,1-6.1,1.7-7.3,4c-1.7-8.3-11.8,4-11.7-3.7l-5.8,0.4l0.2-0.8
							c-3.7-0.5-5,1.3-6.3,3.1c-0.9-0.5-0.2-1.2-0.1-1.6c-5.4-1.6-6-1.2-10.5,2.5l-0.5-2.5c-1.2,1.4-7.8-3.9-13.1-1.1
							c0.1-0.3,0.2-0.8,0.6-1.1c-6,2.9-14.3-7-16.5,2.1l-4,2.2c5.1,0.7-0.8,3.9,1.3,5.4c-2,0.5-5.2-2.8-2.7-3.2l0.4,0.5
							c0.9-4.7-6.3-1.7-6.2-4.9c-10.1,0.2-19.8-2.5-29.2-2.7l1.1,3.7l-3.3-0.2c-0.9-0.9-1.1-2.9,1.2-2.7c-1.2-2.1-3.9,1.7-4,2.5
							c-4.6-1.5,1.8-4.3,0.4-4.4l-1.9,0.3l0.4,0.4c-1.6,1.5-1.7,3.1-4.5,2.9c-1.8-0.7-0.9-2.3-1.6-2.4c0-0.3-0.2-0.4-1.1-0.1
							l-4.1-0.3l1.6,2.9c-1.8,1.4-3.9-0.2-2,3.1c-2.8-5.1-15.4-1.9-17.1-3.5c-2.6,2.1-5.1,2-8.2,1.8c0.8,0.6,1.2,3.9-1.5,3.4
							c1-6.7-5-2.9-7.1-7.8c1.9,3.2-7.7,0.8-4.7,5.3c-2.3-0.5-0.1-2.5-1.8-4.1c-5.4,2.6-11.9-1.8-18.5-0.9c-0.1,0.9,1,2.2-0.4,3.5
							l-3.5-4.4c-1.3,0.4-1.2,5.1-3.6,2c0.3,0.7,0.8,1.9,0,2.1c-13-4.4-26.6,3.4-39.8-4.7c1.8,1.7,0.6,1.9-0.8,1.9
							c0.9,0.4,0,2.2,0.1,3.4l-5.5-3.3c-1,3.3-5.9,0.2-6.5,3.4l1.8-0.6c-2.4,3.7,3.2,8.3,2.9,13.1c2.6-4.2,6.9,6.3,11.2,0.3
							c0.9,1-0.8,1.5-0.3,2.7c1.1-2,2.4-2.5,4.8-1.5L-6,30.1c6.8-0.5,9.8,1.6,17.4,3l-0.6-2.4c1.6,0.3,2,1.1,2.8,1.7
							c1.9-3.6-4.6-0.2-2.9-4.2c2.2,4.8,11.6,0.1,13.1,5.6c2.5,0-0.7-2.8,1.8-2.7l0.7,1.5l0.6-1.9c1.7,0.3,2.5,2.2,2.5,3.4
							c-0.4-0.2-1.1,0.3-1.6,0.5c2.1,1.8,6.1-0.6,6.8,0l-2.4-0.9c6.9-1.3,15.4,0.6,22.1-2.3l-0.5-1.1c5.1-2,4.1,1.2,9.7,0.3
							l-0.2,0.3c1.1-1.1,2.6-1.7,4.2-1.5c-1.4,1.3,2.7,2.6,0.8,4c5.6-2.2,2.8-1.7,6.4-5.9l0.8,1.9c1.2-1.7,1.4-2.5,4.2-3
							c-2.3,1.6,1.8,2.8-0.8,4.9c5.9,4.1,8.8-4,11.4,1.9c2.7-5.1-5.1-2.9-3.6-4c-1.3-1.7,2.2-3.8,4.1-3.3c1.9,0.1,3.2,6.6,7.9,6.5
							c-0.5,0-0.5,0.4-1,0.3c1.8,1.3,3.5-1.8,5.6,0.4c1.2-3.1,2.8,0.2,3.2-3.8l-4.3,0.9c2.5-1,4.8-5.6,8.8-3.4
							c-0.3,0.8-1.5,1.8-2.4,2.4c1.2,1.2,2.3-0.8,3.5,0.4c-0.4,4-5.3,0.8-7.9,3.8c1.3,1.7,5-2.8,3.7,1.4c1.9-5.5,4.7,0.7,7.9-3.4
							l-0.2,2.4c0.5-0.4,1.6-1.5,2.5-1.4l-1.7,3.1c2.6-2.6,5,2.3,7.5,0.9c-5.2,0-1.2-2.9-3.3-4.6c6.4-3.1,3.7,6.2,10.8,5.1
							c-1,0.3-3.6-1.4-2.1-2.5c1.4,0.5,3.2,1.4,4,2.7c4.8-0.5-0.7-2.4,1.3-3.9c1.6,2.9,2.3-1.2,4.4-2.1v2.4c5.4,1.6,1.5-5,6.3-3.1
							l-2.1,3.3l2.6-0.8l-0.5,2.7c2.8-2,3.6-1.5,6.4-0.7c-0.6-1.7,0.4-4.4,2.8-4.4c1.6,1.4-0.9,2.3,2.5,2c-0.8,1.5-1.6,3.4-3.1,1.2
							c-0.2,0.8-0.8,1.5-0.9,2.3c1.8,1.7,4.4,0.4,5.7,0.4c-0.5-0.1-1-0.2-1.3-0.6l4.9-3.3c0.8,0.9,0.1,1.6-0.5,2.3
							c1-0.3,1.7-1.4,3.2-1.6c-0.4,2-0.3,4-2.4,4.9l4.7-2.2c0.3,0.8,2.4,2.3,1.8,3.1c2.6,1.2,6.4-3.8,9.9-2.2c0.2-0.4,0.5-0.7,1.3-1
							c3.2,0.5,6.1,2.9,10,0.2l2.2,3.5c3-0.8-2.9-4.4,2.1-5.7c3.6-1.1,1.3,3,2.6,4c1.8-1.8,4.9-5.3,8.1-2.5
							C203.9,35.7,203,35.2,202,35.5z M239.2,34.1c-0.7,0.5-2.2,2.1-2.7,0.6C237.3,32,238,33.3,239.2,34.1z M295.7,28.6
							c-0.5,0.8-1.4,0.4-2.3-0.5C294.1,27.8,294.9,27.9,295.7,28.6z M453.2,12.5c0,0,0,0.1-0.1,0.1
							C451.5,11.7,452.1,12.1,453.2,12.5z M456.6,13.6c0.3-0.3,0.3-0.7,0.2-1c-0.2,0.6-1,0.6-1.8,0.5
							C455.1,13.7,455.6,14.1,456.6,13.6z M98.3,12.8l0.7,0.6C97.4,14.1,97.8,13.5,98.3,12.8z"/>
						<path class="st0" d="M289.3,31.8c-0.2-0.4-0.3-0.9-0.3-1.3C288.7,30.9,288.7,31.4,289.3,31.8z"/>
						<path class="st0" d="M178.9,36.6c0,0-0.1,0-0.1,0c-0.1,0.1-0.1,0.3-0.1,0.4L178.9,36.6z"/>
						<path class="st0" d="M404.8,33.8c-0.7-0.3-1.1-0.8-1.3-1.2C403.4,33.2,403.7,33.7,404.8,33.8z"/>
						<path class="st0" d="M474.3,9.6l-2.1,0.6c1-0.1,1.4,0.4,1.9,0.8C474,10.5,473.6,9.6,474.3,9.6z"/>
						<path class="st0" d="M492.7,24.6c0.3-0.3,0.7,0,1-0.3l-0.1-1.1C492.3,23.2,491.4,24.1,492.7,24.6z"/>
						<path class="st0" d="M476.2,17.6c0.2,2,1.5,1.4,3,1c-0.1,0-0.2,0-0.3,0C479.4,15.8,477.8,16.7,476.2,17.6z"/>
						<path class="st0" d="M479.5,18.5c0.5-0.1,0.9-0.1,1.4,0C481.1,17.4,480.4,18.3,479.5,18.5z"/>
						<path class="st0" d="M460.8,12.3c0.7,0.5,0.5-2.6,0.9-1.8C462.5,8,456.9,13.6,460.8,12.3z"/>
						<polygon class="st0" points="477.4,24.3 476.9,21.8 476,23.8 						"/>
						<path class="st0" d="M465.6,22.4l2.4,0.7c0-0.4,0.3-0.7,0.6-0.9C467.1,22.2,465.5,21.7,465.6,22.4z"/>
						<path class="st0" d="M468.6,22.3c0.8,0,1.5,0,1.9-0.4C470.1,21.9,469.2,22,468.6,22.3z"/>
						<polygon class="st0" points="474.1,25.1 473.4,24.5 471.7,24.3 						"/>
						<path class="st0" d="M439.9,21.8l-2.6,0.7c-0.3,0.9,0.4,1.4,1.4,1.1C439.3,23,440.2,22.6,439.9,21.8z"/>
						<path class="st0" d="M447.7,28.7c-0.7-0.5-0.8-1.1-1.1-1.9l-0.1,3.1L447.7,28.7z"/>
						<path class="st0" d="M440.1,29.4c-0.3,0.9-3.8,2.5-0.5,2.3C439.9,30.8,442.5,30.1,440.1,29.4z"/>
						<polygon class="st0" points="400.8,25.3 401.4,25.2 401.4,20.1 						"/>
						<path class="st0" d="M366,37.3c3.1,1.2,0.8-3.1,3.5-1.6c0.7-1.2-2.3-1.2-1.5-2.3C366.2,34.7,365.2,33.9,366,37.3z"/>
						<path class="st0" d="M368.1,33.4c0.3-0.2,0.6-0.4,1-0.8C368.5,32.9,368.2,33.2,368.1,33.4z"/>
						<polygon class="st0" points="-23.2,9.6 -25.2,8.5 -23.9,10.2 						"/>
						<path class="st0" d="M-27,13.4l-0.5-3.2l-1.2,2.9C-28.2,12.9-27.4,12.6-27,13.4z"/>
						<path class="st0" d="M244.7,40.7l0.2-0.8c-0.3-0.8-0.8-0.9-1.7-1L244.7,40.7z"/>
						<polygon class="st0" points="217.7,38.1 218.2,38.2 217.3,35.2 						"/>
						<path class="st0" d="M195.1,41.7c0.9,0.1,2-0.5,2.9-0.4C196,41.8,194.8,38.1,195.1,41.7z"/>
					</g>
				</g>
			</g>
		</g>
	</g>
	<path class="st1" d="M-6,59.5c0,0,601.8,0,1300.8,0l-0.3-37.5H-13.1L-6,59.5z"/>
</g>
</svg>
