<?xml version="1.0" encoding="utf-8"?>
<!-- Generator: Adobe Illustrator 25.2.3, SVG Export Plug-In . SVG Version: 6.00 Build 0)  -->
<svg version="1.1" id="Layer_1" xmlns="http://www.w3.org/2000/svg" xmlns:xlink="http://www.w3.org/1999/xlink" x="0px" y="0px"
	 viewBox="0 0 388.13 354.59" style="enable-background:new 0 0 388.13 354.59;" xml:space="preserve">
<style type="text/css">
	.st0{fill:none;stroke:#010101;stroke-miterlimit:10;}
	.st1{fill:#5A3F3E;}
</style>
<g id="Layer_6">
	<path class="st0" d="M137.1,85.32"/>
	<path class="st0" d="M146.3,102.02"/>
	<path class="st0" d="M104.5,91.32"/>
	<path class="st0" d="M375,230.22l-68.1-75.9c0,0-10.1,32.9-35.5,40.1c0,0-33.1,17.6-41.5-3.6c0,0,18.5,10.1,41.6-6
		c0,0,22.9-11.5,25.9-26.1c0,0,0.4-0.7-1.2-3.7c-1.9-3.6-6.6-9.9-22.8-18.8c0,0-51.9-60.7-59.3-62c0,0-35.3-39.8-39.7-38.8
		c0,0-5.5-4.9-20.3,0.2c0,0-36.9,16.8-59.7,17.6c0,0-5.5-0.8-14.3,12.9c0,0-18,22.2-19.6,23.9c-1.6,1.7-6.8,16.3-6.5,17.5
		c0,0-6.4,13.8-5.8,15c0,0-0.9,4.8,3.6,6.2l4.2-0.5c0,0-2.9,5.5,13.1,9.7c0,0,18.3,1.6,19-15.1c0,0-5-18-27.6-3.5
		c0,0,5.5-13.4,27.3-12.3c0,0,54.6,6.4,58.4,2.2c0,0,21-9.4,28.4-4.1c0,0-1.7,10.9-26.5,2.5c0,0,0.1-12.6,7.8-32.8c0,0,3-6.1,5-3.2
		c0,0,1.8,11.1-10,13.9c0,0-28.9,1.5-16.5-18.7c0,0,6.2-4.2-1.2,7.8c0,0-14.4,12.8-30.1,7.3c0,0-2.8,5.7-4.9,7.4
		c0,0-3.2,1.7-7.4,3.7"/>
	<path class="st0" d="M241.9,167.02c0,0-30.6-1.2-32.6-1.7s-10.1,0.5-54.9-19.5c0,0-34.3-11.9-56.6-8.7l-18.3,2.2
		c0,0,3.8,5.2,24.7,2.1c0,0,37.8-2.6,57.9,13.1c0,0,23.4,13.7,43.6,17c0,0,0.6,5.9,23.4,15.2c0,0,17.2,5.7,5.8,24.4l89.4,130.6"/>
	<path class="st0" d="M177.9,141.42"/>
	<path class="st0" d="M91.1,92.92c0,0-7,14.4-16.3,4.4c0,0-4.2-5.6,1.8-4.9c0,0,11.1,5.7,4,14.7c3.3,0.3-11.5-2.9-19.9,12.1
		c0,0-3.1,5.2-1.5,5.4c0,0,11.4-2.6,16.5,0.8c0,0,6.8,10.1,19.7,9.6c0,0,2.5-0.2,6-2.5c0,0,4.1-1.2,7.3,1.3c0,0,1.2-0.3,6.9-3.6
		c0,0,3.6-1.6,6.3,1.5c0,0,9.4,6.7,15.3,5c0,0,14.2-5.2,20.2,6.1"/>
</g>
<path class="st1" d="M81.4,205.32c0,5.7-4.5,10.3-10.1,10.3s0-3.3,0-9s-0.4-6.7,5.1-6.7C82,199.92,81.4,199.62,81.4,205.32z"/>
<path class="st1" d="M68.9,180.62c0,3.7-2.3,6.6-5.2,6.6c-2.9,0-5.2-1.4-5.2-5.1s2.4-8.2,5.2-8.2
	C66.6,173.92,68.9,176.92,68.9,180.62z"/>
<path class="st1" d="M51.3,206.12c0,3.5-2.1,6.3-4.6,6.3s-4.6-1.3-4.6-4.8s2.1-7.8,4.6-7.8S51.3,202.72,51.3,206.12z"/>
<path class="st1" d="M87.2,183.12c-2.4,2-5.3,2.3-6.6,0.8s1.4-1.1,3.7-3.1c2.4-2,3.6-5.5,4.8-4C90.4,178.32,89.5,181.22,87.2,183.12
	z"/>
<path class="st1" d="M56.9,276.02c0,3.5-2.1,6.3-4.6,6.3s-4.6-1.3-4.6-4.8s2.1-7.8,4.6-7.8S56.9,272.52,56.9,276.02z"/>
<path class="st1" d="M73.1,256.82c-1.9,4.7-6,7.5-9.1,6.3c-3.1-1.2,1.1-2.7,3-7.4c1.9-4.7,2-5.7,5.1-4.4S75,252.12,73.1,256.82z"/>
<path class="st1" d="M47.9,158.92c-0.3-4.4,3-8.1,7.4-8.5s0.2,2.5,0.5,6.9s0.7,5.1-3.7,5.4C47.7,163.12,48.2,163.32,47.9,158.92z"/>
<path class="st1" d="M65.8,153.82c0,1.8-1.2,3.3-2.6,3.3c-1.4,0-2.6-0.7-2.6-2.5s1.2-4.1,2.6-4.1
	C64.6,150.52,65.8,152.02,65.8,153.82z"/>
<path class="st1" d="M73.9,240.92c0,1.8-1.2,3.3-2.6,3.3s-2.6-0.7-2.6-2.5s1.2-4.1,2.6-4.1S73.9,239.12,73.9,240.92z"/>
<path class="st1" d="M28.9,227.02c2.8-5.7,7.9-9,11.5-7.2c3.6,1.7-1.6,3.3-4.4,9c-2.8,5.7-2,13.5-5.7,11.7
	C26.8,238.82,26.1,232.82,28.9,227.02z"/>
<path class="st1" d="M58,242.62c0,4.7-2.7,8.6-5.9,8.5s-5.6,2.7-5.6-2s2.4-15.2,5.7-15.1C55.4,234.02,58,237.82,58,242.62z"/>
</svg>
