<?xml version="1.0" encoding="utf-8"?>
<!-- Generator: Adobe Illustrator 25.2.3, SVG Export Plug-In . SVG Version: 6.00 Build 0)  -->
<svg version="1.1" id="Layer_1" xmlns="http://www.w3.org/2000/svg" xmlns:xlink="http://www.w3.org/1999/xlink" x="0px" y="0px"
	 viewBox="0 0 164 53" style="enable-background:new 0 0 164 53;" xml:space="preserve">
<g>
	<g>
		<g>
			<g>
				<g>
					<path d="M153.41,25.6c0.21,0.07,0.14-0.76,0.17-0.91C153.23,24.87,153.42,25.82,153.41,25.6z"/>
					<polygon points="149.88,27.5 149.94,27.16 149.42,28 					"/>
					<path d="M146.57,27.49c0.31,1.43,1.2-0.23,1.79,0.28l0.1,0.33l0.27-1.15C148.01,27.12,147.08,27.88,146.57,27.49z"/>
					<path d="M144.81,24.4c0.11,0.56-0.38,0.48,0.41,0.17c-0.04-0.06-0.05-0.1-0.07-0.14C145.07,24.44,144.98,24.44,144.81,24.4z"/>
					<path d="M145.15,24.43C145.49,24.39,144.92,23.96,145.15,24.43L145.15,24.43z"/>
					<path d="M143.54,24.75l0.46-0.5c-0.1-0.33-0.5-0.4-0.35-0.64C143.17,23.88,143.27,24.21,143.54,24.75z"/>
					<path d="M143.1,25.79l0.24-0.21C143.3,25.44,143.24,25.4,143.1,25.79z"/>
					<path d="M143.84,25.14l-0.5,0.44c0.07,0.23,0.07,0.69,0.23-0.16C143.53,25.84,143.63,25.44,143.84,25.14z"/>
					<path d="M144.13,25.36c0.26,0.31,0.59,0.51,0.13,1C145.14,26.16,145.01,25.16,144.13,25.36z"/>
					<path d="M146.4,28.96l0.34,0.42l0.3-0.48C146.9,29.14,146.38,28.51,146.4,28.96z"/>
					<path d="M140.68,24.01c-0.03,0.3,0.15,0.81,0.19,1.2l0.34-0.35C141.03,24.65,140.7,24.46,140.68,24.01z"/>
					<path d="M140.87,25.21l-0.51,0.52C140.81,25.79,140.9,25.54,140.87,25.21z"/>
					<polygon points="143.02,27.38 143.85,26.28 142.86,27.39 					"/>
					<polygon points="138.74,23.97 139.03,23.27 138.52,24.33 					"/>
					<path d="M137.46,24.1c0.21-0.58-0.29-0.99-0.07-1.34c-0.35,0.1-0.65,0.6-0.91,1.05C136.76,23.55,137.07,23.62,137.46,24.1z"/>
					<path d="M136.03,24.46c0.14-0.14,0.29-0.39,0.45-0.66C136.33,23.94,136.18,24.13,136.03,24.46z"/>
					<path d="M139.5,25.58c-0.04-0.18-0.11-0.66-0.4-0.87l0.2,0.85C139.36,25.57,139.43,25.58,139.5,25.58z"/>
					<path d="M139.31,25.59l-0.01-0.03c-0.22-0.02-0.37-0.04-0.43-0.05C138.92,25.53,139.06,25.55,139.31,25.59z"/>
					<path d="M139.55,25.58c-0.02,0-0.03,0-0.05,0C139.52,25.66,139.53,25.69,139.55,25.58z"/>
					<path d="M141.69,26.6c-0.3,0.48-0.92,0.99-0.32,1.72C141.59,27.74,141.24,27.32,141.69,26.6z"/>
					<path d="M139.8,26.65l0.54,0.2c-0.01-0.23-0.11-0.55,0.04-0.79L139.8,26.65z"/>
					<polygon points="139.53,26.92 139.8,26.65 139.6,26.58 					"/>
					<path d="M136.95,25.26c-0.23,0.37-0.49,0.4-0.77,0.46c0.31,0.17,0.63,0.26,0.93,0.26C137.15,25.71,137.28,25.23,136.95,25.26z"
						/>
					<path d="M138.1,25.5c-0.02,0.02-0.04,0.03-0.05,0.05C138.08,25.62,138.1,25.64,138.1,25.5z"/>
					<path d="M133.35,25.72c0.02,0.05,0.03,0.11,0.05,0.16c0-0.05,0.01-0.1,0.01-0.15L133.35,25.72z"/>
					<path d="M137.16,26.14c0.23,0.16,0.37-0.04,0.5-0.31c-0.17,0.09-0.36,0.14-0.55,0.15C137.09,26.1,137.08,26.18,137.16,26.14z"
						/>
					<path d="M135.24,24.86c0.12,0.18,0.26,0.33,0.4,0.47C135.52,25.06,135.28,24.64,135.24,24.86z"/>
					<path d="M137.97,25.31c0.01-0.01,0.02-0.03,0.03-0.04C137.92,25.09,137.93,25.18,137.97,25.31z"/>
					<path d="M137.97,25.31c-0.12,0.12-0.21,0.33-0.31,0.52c0.14-0.07,0.27-0.16,0.38-0.29C138.01,25.49,137.99,25.39,137.97,25.31z
						"/>
					<path d="M132.49,31.2c0.04-0.79,0.65-1.52,1.17-0.67c0.52-0.59,0.18-3.2-0.27-4.66c-0.02,0.35-0.02,0.66-0.55,1.13
						c0.19,0.43,1.18,1.01,0.73,1.73c-0.7,0.41-0.58-0.28-0.92-0.7c0.29,0.99-0.9,1.44-0.74,2.89l0.62-0.51
						C132.54,30.64,132.32,31,132.49,31.2z"/>
					<path d="M134.41,25.95l0.22-0.1c-0.25-0.14-0.43-0.45-0.76-1.07c-0.36,0.39-0.44,0.68-0.46,0.94l1.08,0.11L134.41,25.95z"/>
					<path d="M135.61,25.85c-0.17,0.86-0.7,1.23-0.37,2.16c0.64-0.06,0.45-0.72,0.83-1.09c-1.04,0.21,0.3-0.48-0.45-0.97
						c0.2-0.15,0.39-0.19,0.56-0.23c-0.19-0.1-0.37-0.23-0.54-0.39c0.01,0.02,0.02,0.03,0.02,0.05l0,0c0,0.01,0,0.01,0,0.01
						c0.04,0.11,0.06,0.17,0.01,0.11c0,0.01-0.02,0.01-0.02,0.02C135.65,25.64,135.63,25.75,135.61,25.85
						c-0.3-0.18-0.05-0.23,0.05-0.33c0-0.04,0.01-0.08,0.01-0.13v-0.01l-1.04,0.47C134.84,25.97,135.12,25.95,135.61,25.85z"/>
					<path d="M140.82,30.18c-0.03-0.08-0.03-0.14-0.03-0.2C140.72,30.08,140.69,30.15,140.82,30.18z"/>
					<path d="M140.39,29.65c0.08-0.12,0.14-0.46,0.38-0.38c0.21,0.26,0,0.41,0.01,0.7c0.15-0.23,0.52-0.62,0.05-1.04l-0.07,0.12
						c-0.42-0.3-0.96-1.37-0.88-1.49C140.01,28.34,140.11,28.89,140.39,29.65z"/>
					<path d="M137.97,27.97l-0.86,0.42l0.44,0.75l-0.02-0.45C138.02,28.87,137.91,28.32,137.97,27.97z"/>
					<polygon points="133.25,25.29 133.36,24.38 132.86,25.66 					"/>
					<polygon points="132.12,25.4 132.17,24.61 131.87,25.08 					"/>
					<path d="M68.7,35.22l-0.25,0.22C68.56,35.37,68.64,35.3,68.7,35.22z"/>
					<path d="M70.54,35.27l0.05-0.39C70.5,35.1,70.46,35.26,70.54,35.27z"/>
					<path d="M104.52,25.49c-0.37-0.74-0.78-1.89-0.74-1l0.11,0.87C104.15,25.2,104.35,25.3,104.52,25.49z"/>
					<path d="M85.61,30.67c0.04,0.08,0.07,0.17,0.11,0.26c0.09-0.3,0.17-0.57,0.25-0.83C85.87,30.28,85.74,30.47,85.61,30.67z"/>
					<path d="M85.35,34.26l-0.49-0.56C84.98,33.89,85.13,34.08,85.35,34.26z"/>
					<path d="M58.65,36.14l-0.3,0.88C58.82,37.02,58.61,36.57,58.65,36.14z"/>
					<path d="M120.61,25.72c-0.32-0.34-0.57-0.48-0.8-0.52C120.2,25.69,120.51,26.44,120.61,25.72z"/>
					<path d="M69.42,26.01c-0.16,0.16-0.22,0.33-0.22,0.53C69.36,26.39,69.46,26.22,69.42,26.01z"/>
					<path d="M118.89,25.2c0.06,0.09,0.11,0.13,0.17,0.2c0.23-0.15,0.47-0.26,0.75-0.21C119.53,24.82,119.21,24.59,118.89,25.2z"/>
					<path d="M22.21,35.42c-0.03-0.04-0.06-0.06-0.08-0.1C22.11,35.43,22.15,35.44,22.21,35.42z"/>
					<path d="M11.59,26.66c0.1-0.05,0.28-0.05,0.44-0.07C11.95,26.54,11.81,26.54,11.59,26.66z"/>
					<path d="M127.6,25.02C127.84,24.96,127.64,24.92,127.6,25.02L127.6,25.02z"/>
					<path d="M128.76,28.45c-0.05,0.1-0.09,0.22-0.1,0.42C128.69,28.66,128.72,28.53,128.76,28.45z"/>
					<path d="M116.52,30.6c-0.01,0-0.01,0-0.02,0C116.57,30.76,116.56,30.73,116.52,30.6z"/>
					<path d="M127.96,25.41c-0.09-0.11-0.19-0.2-0.3-0.26C127.7,25.22,127.8,25.31,127.96,25.41z"/>
					<path d="M127.91,25c0.08,0.04,0.15,0.06,0.21,0.08C128.15,24.94,128.12,24.85,127.91,25z"/>
					<path d="M127.27,25.07c0.14-0.01,0.26,0.03,0.39,0.09c-0.05-0.06-0.07-0.11-0.05-0.14C127.53,25.03,127.43,25.05,127.27,25.07z
						"/>
					<path d="M41.73,33.1c-0.02-0.03-0.03-0.04-0.05-0.08C41.44,33.38,41.55,33.32,41.73,33.1z"/>
					<path d="M98.32,34.5c0.01-0.01,0.02-0.03,0.03-0.04c-0.01-0.01-0.03-0.02-0.04-0.03L98.32,34.5z"/>
					<path d="M97.46,35.14c0.36-1.08,0.57-0.95,0.85-0.72l-0.28-2.5L97.46,35.14z"/>
					<path d="M64.29,35.47l0.6,0.78c-0.73,1.28-1.25,0.84-0.69,1.94c0.09-2.72,2.34-0.28,2.42-2.99l0.4,0.57
						c-0.11-0.03-0.13,0.13-0.24,0.11c0.77,1.3,0.57-1.96,1.57-1.58c0.35,0.21,0.59,0.6,0.35,0.92l0.77-0.67
						c0.22,0.05,0.17,0.52-0.05,0.47l1.18-0.22l-0.01,0.08c0.17-0.43,0.55-1.08,0.73-1.37c0.3,0.39-0.15,0.29-0.07,0.63l0.65-0.66
						c0.27,0.7-0.27,1.39-0.72,1.29c0.61,2.71,0.54-0.68,1.85,0.9l-0.61,0.34c0.4,1.54,0.88,0.98,1.57,1.94
						c-0.16-0.5-1.39-2.42-0.69-3.1c0.2,0.2,0.46,0.3,0.84-0.24c0,0.97,0.38,0.73,0.84,0.67l-0.03,1.28c0.5-0.37,0.46-1.02,0.76-1.6
						c0.56,0.13,0.68,1.12,0.81,1.95c0.9,0.2-0.62-1.59,0.44-1.83c0.75,0.49,1.27-0.03,2.17-0.8c0.52,0.44-0.09,0.78,0.1,1.15
						l0.46-1.02c0.11,0.02,0.08,0.34,0.06,0.5c0.39-0.4,0.03-1.28,0.65-1.63c0.17-1.41,1.26,2.06,2.02,0.46
						c0.19,0.36-0.09,0.78-0.03,1.28c1.04-1.05,0.89-0.76,1.75-2.18l0.73,0.84c-0.54-0.96,0.15-2.1,0.75-3.03
						c-0.19-0.46-0.35-0.87-0.46-1.06l0.96-0.69c0.12,0.21,0.02,0.65-0.14,1.18c0.07-0.11,0.13-0.21,0.18-0.31
						c0.34,0.47,0.16,1.21-0.08,1.93c-0.12-0.25-0.23-0.52-0.35-0.79c-0.24,0.78-0.46,1.64-0.41,2.39c0.06-0.15,0.18-0.27,0.31-0.35
						c-0.06,0.21-0.1,0.4-0.07,0.53c0.03,0.13,0.13-0.15,0.29-0.47l0.22,1.43l0.05-0.57l1.25,0.89c0.9-1.44,1.68-3.55,3.1-4.14
						c-0.35,1.05-0.08,1.71-0.1,2.95c-0.39-1.31-1.1,0.56-1.84,0.29c0.38,0.14,0.3,0.73,0.2,0.93l1.32-1.19
						c-0.03,1.01,0.28,0.76,0.62,1.18c-0.26-2,0.98-1.33,1.52-1.95c0.03,0.67-0.1,1.36-0.75,1.2c0.72,1.51,0.93-2.35,1.64-1.07
						c-0.16,0.02-0.25-0.09-0.31,0.26c0.37-0.6,1.28-0.12,1.07,0.46l-0.16,0.01c1.06,0.24,3.22,0.01,3.38-1.69
						c0.01,0.22-0.14,2.05-0.2,2.39l1.89-5.72c-0.17,1.46,0.47,4.94-0.41,5.77c0.25,0.21,0.56,0.45,1.1-0.06
						c-0.17-0.21-0.43-2.11-0.19-2.25c0.64,1.63,0.45,0.87,1.24,2.26c-0.26-0.31,0.03-2.6,0.44-2.53c-0.06,0.34,0.03,2.26-0.11,2.5
						l1.01-2.25c-0.25,0.41-0.04,1.91,0.18,2.54c-0.11-0.44,0.88,0.04,1.15-0.18l-0.43-0.52c1.14,0.34,1.13-3.16,2.27-3.05
						c-0.14,0.46-0.34,2.86,0.24,3.14c0.26-1.15,1.17-5.54,2.18-6.43l0.19,0.66l0.77-0.75c-0.48,1.73-1.83,5.38-2.56,6.8
						c0.43,0.52,0.12,0.78,0.76,0.72c0.23,0.62-0.35,0.94-0.54,0.97l1.49,0.4c-0.07-1.35,1.14-1.35,1.09-2.47L107,35.33
						c-0.07-1.34,0.94-3.82,2-3.58c0.27,0.54-0.2,2.39-0.18,2.84c0.14-0.46,1-0.88,1.1-0.56l-0.45,0.72
						c0.59,0.51,0.96-1.78,1.67-0.5c0.24,0.09,0.73,1.73,0.77,0.94c-0.4-1.53-0.48-6.28-0.21-7.43c0.09,0.1,1.28,1.47,1.56,2.22
						c0.4,1.2-0.6,2.87-0.26,3.9c0.01-0.37,0.24-0.82,0.33-0.97c0.26,0.31-0.11,1.14,0.45,0.97c0.09-1.36,1.13,0.12,0.26-1.15
						c0.55-0.39,0.58,0.28,1.22,0.22c-0.2-0.88,0.58-3,1.12-3.39c-0.03,0.35,0.09,0.8,0.15,1c1.12,0.12,1.72,0.74,2.76,0.75
						c0.1,0.33,0.6,0.73,0.38,1.32c0.15-0.24,0.29-0.7,0.61-0.74c0.62,1.18-0.72,0.18-0.24,1.6c0.04-0.79,0.83-1.09,1.29-1.59
						c-0.14-1.22-1.06-0.23-1.52,0.26c0-1.69,0.8-3.45,1.89-4.24c0.87-0.42,0.38,1.09,0.53,0.85c1.63,0.3,1.39-2.95,2.74-1.73
						c0.54,1.08,0.02,2.14,0.14,2.92c-0.71,0.41-1.08-0.68-1.56-0.64l0.59,0.51c-0.22,0.36-0.7,0.63-0.95,0.32
						c0.45,0.97,2.75,0.19,4,1.08c0.22-0.36,0.61-0.73,0.43-1.17l-0.4,0.15c-0.36-0.87,0.75-1.2,0.24-1.6
						c0.53-0.61,1.13-1.57,1.88-1.08l0.14,1.23c-0.02-0.36-0.49-0.73-0.7-0.36c0.31-0.54,1.15,1.66,1.49,0.05l-0.53-0.85
						c0.53-0.62,1.2-1.92,1.86-1.53c-0.3-1.21-0.15,0.14-0.63-1.28c0.41,1.76-1.7-0.07-1.04,1.78c-0.48-1.64-0.84-0.7-1.47-2.1
						c0.02,0.4,0.22,0.77-0.33,0.57c-0.03,0.12-0.08,0.27-0.12,0.36c-0.02-0.01-0.02-0.02-0.04-0.03c0.01,0.02,0.02,0.03,0.03,0.05
						c-0.02,0.06-0.03,0.07,0.01,0.02c0.13,0.18,0.24,0.39,0.28,0.62c-0.28,0.93-1.16,0.9-1.46,1.38c-0.33-0.19,0.14-0.46-0.04-0.9
						l-0.45,0.72c-0.04-0.9-0.88-1.49-0.1-2.02l-0.7-0.04c-0.41-0.5-0.98-0.7-1.33-0.33c-0.33-0.19-0.84,0.99-0.55,0.29l-1.1,0.56
						l-0.01-0.22c-1.09-0.11-2.24,1.49-3.48-0.13c-0.37,0.23-0.74,0.5-1.36,0.25l-0.12-0.78c-0.47,0.27-1.41-0.78-1.61,0.03
						c-0.51-2.09-2.28-0.46-3.1-0.83l-0.03,1.01c-0.57-0.06-1.11,0.23-1.82,0.64l0.04,0.9c-0.61,0.74-1.56-0.64-2.53-0.55
						c0.07-0.34,0.31-0.25,0.48-0.05c-1.15-2.03-2.43,1.47-3.47,0c-0.26,0.33-0.45,0.21-0.63-0.01c0.02,0,0.05-0.02,0.06-0.05
						c-0.03-0.01-0.07-0.01-0.11-0.01c-0.11-0.15-0.23-0.33-0.36-0.48c0.11,0.22,0.21,0.4,0.3,0.48c-0.2,0.02-0.5,0.13-0.8,0.35
						l-0.13-0.96c-0.02,0.01-0.04,0.01-0.07,0.03c-0.29-0.36-0.23,0.46-0.08,1.18c-0.15,0.16-0.29,0.35-0.39,0.58
						c-0.24-1.55-0.78,0.52-1.11-1.13c-0.2,0.81-1.5,0.61-1.66,2.31c-0.01-0.22-0.1-0.33,0.06-0.34c-0.33-0.19-0.66-0.39-0.96,0.09
						l-0.14-1.22l-0.72,1.65c-0.44-0.75-0.62-1.18-0.19-2.12c-1.06,1.45-0.86,0.55-1.76,1.98l0.04-0.79
						c-0.32,0.03-0.83,1.09-1.03,0.44c-0.72-1.5-3.55-0.21-5.4-1.61c0.36,2.33-0.86-1.05-0.93,0.76c-0.11-0.55-0.36-0.86-0.07-1.34
						c-0.94,0.54-1.41-0.87-2.06,0.65c-0.11-0.55,0.2-0.81,0.11-1.14c-0.08,0.12-0.3,0.48-0.4,0.15c-0.1-0.33,0.14-0.46,0.29-0.7
						c-0.96,0.09-1.06,1.79-1.13,3.39c-0.49-0.76-0.73-0.65-1.08,0.4c-0.17-0.52-0.45-1.07,0.14-1.25
						c-0.34-0.08-2.05-0.76-2.09,0.51c-0.11-0.32-0.47-0.09-0.56,0.05c-0.75-0.08-0.82-0.19-1.56-0.07l0.21,0.21
						c-0.29,1.54-0.62,0.34-1.21,0.53l0.02-0.16c-1.37-1.11-0.59,0.53-1.94-0.74l0.07,0.96c-0.13,2.06-1.2-1.22-1.98-0.43l0.28,0.55
						c-0.43,0.71-1.2-2.81-1.63-3.06c-0.09-0.18,0.15-0.29,0.28-0.42c-1.12-1.22-0.15,1.26-0.98,1.55c-0.15-0.68,0.2-1.72-0.36-1.85
						c-0.28-0.55-1.64,2.2-2.41,0.9c0.17,0.52,0.34,1.04-0.05,1.44c-0.6,0.19-1.61-1.97-2.15-0.33c-0.08-0.14-0.1-0.28-0.11-0.41
						c-0.46,0.42-1.48,0.71-1.76,1.6c-0.42-3.31-2.84,1.61-2.83-1.44l-1.4,0.16l0.04-0.31c-0.9-0.2-1.21,0.53-1.53,1.26
						c-0.21-0.21-0.06-0.49-0.04-0.65c-1.31-0.62-1.44-0.49-2.54,1.04L59,27.18c-0.3,0.58-1.89-1.55-3.18-0.4
						c0.01-0.11,0.04-0.3,0.14-0.44c-1.45,1.16-3.46-2.75-3.99,0.86l-0.95,0.89c1.23,0.28-0.18,1.57,0.32,2.17
						c-0.49,0.21-1.26-1.09-0.66-1.27l0.09,0.18c0.22-1.88-1.53-0.67-1.5-1.95c-2.43,0.09-4.8-0.95-7.07-1.03l0.26,1.46l-0.79-0.08
						c-0.21-0.34-0.28-1.14,0.29-1.08c-0.3-0.83-0.95,0.69-0.97,1.01c-1.11-0.59,0.43-1.71,0.09-1.74l-0.46,0.11l0.1,0.17
						c-0.37,0.6-0.41,1.23-1.09,1.16c-0.43-0.29-0.22-0.9-0.39-0.96c0-0.1-0.06-0.15-0.26-0.04l-1-0.12l0.4,1.16
						c-0.44,0.57-0.94-0.06-0.48,1.25c-0.68-2.02-3.73-0.72-4.15-1.35c-0.62,0.84-1.23,0.83-1.99,0.73c0.19,0.24,0.3,1.54-0.35,1.38
						c0.24-2.68-1.2-1.16-1.73-3.09c0.47,1.28-1.86,0.32-1.12,2.13c-0.55-0.22-0.03-1-0.45-1.63c-1.3,1.04-2.87-0.67-4.47-0.32
						c-0.03,0.35,0.24,0.89-0.1,1.41l-0.85-1.76c-0.32,0.17-0.29,2.03-0.87,0.81c0.08,0.3,0.2,0.74-0.01,0.85
						c-3.15-1.71-6.44,1.4-9.63-1.82c0.43,0.68,0.14,0.75-0.19,0.77c0.22,0.16,0,0.87,0.04,1.35l-1.34-1.32
						c-0.24,1.32-1.44,0.09-1.58,1.35l0.42-0.23c-0.56,1.49,0.79,3.32,0.71,5.23c0.63-1.7,1.66,2.51,2.7,0.08
						c0.23,0.39-0.2,0.62-0.07,1.06c0.26-0.82,0.58-0.99,1.17-0.62l-0.07,0.2c1.65-0.2,2.36,0.61,4.21,1.15l-0.14-0.95
						c0.4,0.13,0.48,0.42,0.67,0.66c0.46-1.44-1.12-0.08-0.7-1.66c0.53,1.93,2.81,0.03,3.17,2.22c0.61,0.01-0.18-1.1,0.43-1.08
						l0.16,0.59l0.15-0.76c0.4,0.13,0.6,0.87,0.62,1.37c-0.1-0.06-0.28,0.14-0.38,0.18c0.52,0.7,1.47-0.24,1.65-0.01l-0.59-0.37
						c1.67-0.55,3.72,0.22,5.33-0.98l-0.12-0.45c1.23-0.83,0.99,0.49,2.34,0.11l-0.05,0.11c0.27-0.45,0.63-0.67,1-0.62
						c-0.34,0.52,0.64,1.02,0.2,1.6c1.34-0.89,0.66-0.7,1.55-2.36l0.2,0.74c0.3-0.67,0.33-1.02,1-1.22
						c-0.56,0.64,0.43,1.13-0.19,1.97c1.42,1.62,2.11-1.64,2.76,0.73c0.65-2.05-1.23-1.14-0.86-1.58c-0.31-0.67,0.54-1.53,0.98-1.33
						c0.45,0.05,0.77,2.63,1.91,2.59c-0.11-0.01-0.12,0.15-0.23,0.14c0.43,0.52,0.84-0.71,1.36,0.14c0.29-1.24,0.68,0.07,0.76-1.51
						l-1.05,0.37c0.59-0.41,1.15-2.27,2.13-1.37c-0.08,0.32-0.37,0.74-0.57,0.97c0.29,0.47,0.55-0.31,0.85,0.17
						c-0.08,1.59-1.27,0.34-1.91,1.55c0.31,0.67,1.2-1.15,0.88,0.57c0.46-2.18,1.12,0.28,1.9-1.39l-0.05,0.95
						c0.12-0.15,0.38-0.6,0.6-0.57l-0.41,1.23c0.63-1.05,1.21,0.92,1.81,0.35c-1.26,0.03-0.28-1.14-0.81-1.84
						c1.55-1.27,0.89,2.48,2.63,2.03c-0.23,0.13-0.88-0.57-0.51-1.01c0.33,0.2,0.77,0.56,0.97,1.06c1.15-0.2-0.18-0.98,0.31-1.56
						c0.39,1.16,0.56-0.47,1.07-0.84v0.97c1.31,0.62,0.35-2.01,1.53-1.26l-0.5,1.34l0.62-0.35l-0.13,1.1
						c0.67-0.81,0.88-0.6,1.53-0.3c-0.15-0.68,0.09-1.75,0.67-1.78c0.4,0.57-0.22,0.92,0.6,0.78c-0.19,0.6-0.39,1.36-0.75,0.47
						c-0.04,0.31-0.18,0.61-0.22,0.92c0.43,0.66,1.07,0.15,1.37,0.14c-0.11-0.04-0.25-0.09-0.32-0.23l1.19-1.34
						c0.19,0.36,0.04,0.65-0.11,0.94c0.24-0.1,0.41-0.55,0.76-0.63c-0.09,0.78-0.07,1.59-0.57,1.96l1.14-0.87
						c0.08,0.34,0.58,0.94,0.44,1.23c0.63,0.46,1.55-1.52,2.38-0.91c0.04-0.15,0.13-0.3,0.31-0.41c0.78,0.18,1.48,1.14,2.41,0.06
						l0.53,1.41c0.73-0.32-0.71-1.77,0.5-2.3c0.86-0.45,0.32,1.2,0.62,1.59c0.43-0.71,1.17-2.15,1.96-1.01
						C64.74,35.57,64.54,35.36,64.29,35.47z M73.28,34.85c-0.17,0.2-0.52,0.83-0.65,0.26C72.83,34,72.98,34.53,73.28,34.85z
						 M86.94,32.52c-0.13,0.32-0.33,0.16-0.56-0.2C86.55,32.24,86.73,32.27,86.94,32.52z M124.99,25.8
						c-0.01,0.02-0.01,0.03-0.02,0.05C124.58,25.47,124.72,25.62,124.99,25.8z M125.8,26.22c0.08-0.13,0.08-0.27,0.04-0.4
						c-0.06,0.24-0.24,0.26-0.44,0.19C125.45,26.26,125.55,26.44,125.8,26.22z M39.19,26.6l0.16,0.25
						C38.99,27.13,39.09,26.88,39.19,26.6z"/>
					<path d="M85.39,33.84c-0.05-0.16-0.06-0.34-0.07-0.52C85.25,33.48,85.24,33.67,85.39,33.84z"/>
					<path d="M58.7,35.97c-0.01-0.01-0.02,0-0.03-0.01c-0.02,0.06-0.02,0.12-0.03,0.17L58.7,35.97z"/>
					<path d="M113.3,34.4c-0.17-0.14-0.26-0.32-0.32-0.5C112.97,34.14,113.05,34.34,113.3,34.4z"/>
					<path d="M130.07,24.58l-0.52,0.25c0.25-0.05,0.34,0.16,0.47,0.32C130.01,24.93,129.91,24.6,130.07,24.58z"/>
					<path d="M134.55,30.55c0.08-0.12,0.16-0.01,0.23-0.13l-0.02-0.45C134.45,30,134.22,30.36,134.55,30.55z"/>
					<path d="M130.55,27.79c0.04,0.81,0.36,0.54,0.73,0.39c-0.02,0-0.04,0.01-0.06,0C131.32,27.04,130.93,27.42,130.55,27.79z"/>
					<path d="M131.36,28.15c0.11-0.04,0.23-0.06,0.33-0.02C131.74,27.67,131.56,28.03,131.36,28.15z"/>
					<path d="M126.82,25.68c0.17,0.21,0.11-1.04,0.2-0.71C127.21,23.94,125.88,26.23,126.82,25.68z"/>
					<polygon points="130.84,30.46 130.71,29.46 130.51,30.27 					"/>
					<path d="M127.98,29.73l0.58,0.28c-0.01-0.17,0.06-0.27,0.15-0.34C128.36,29.63,127.97,29.43,127.98,29.73z"/>
					<path d="M128.72,29.66c0.19,0.02,0.36,0,0.47-0.17C129.08,29.51,128.87,29.54,128.72,29.66z"/>
					<polygon points="130.05,30.76 129.88,30.56 129.47,30.48 					"/>
					<path d="M121.77,29.53l-0.63,0.29c-0.06,0.34,0.11,0.55,0.34,0.42C121.63,30,121.86,29.87,121.77,29.53z"/>
					<path d="M123.68,32.28c-0.17-0.21-0.18-0.43-0.28-0.76l-0.02,1.24L123.68,32.28z"/>
					<path d="M121.84,32.57c-0.06,0.34-0.92,0.99-0.12,0.91C121.78,33.14,122.42,32.85,121.84,32.57z"/>
					<polygon points="112.33,31 112.49,30.98 112.46,28.94 					"/>
					<path d="M103.95,35.87c0.75,0.49,0.18-1.26,0.85-0.65c0.18-0.48-0.55-0.5-0.37-0.91C103.98,34.82,103.74,34.53,103.95,35.87z"
						/>
					<path d="M104.43,34.31c0.07-0.08,0.15-0.18,0.23-0.31C104.53,34.13,104.46,34.22,104.43,34.31z"/>
					<polygon points="9.83,25.57 9.35,25.14 9.66,25.83 					"/>
					<path d="M8.9,27.08l-0.11-1.3L8.5,26.95C8.61,26.9,8.82,26.79,8.9,27.08z"/>
					<path d="M74.61,37.46l0.04-0.31c-0.07-0.34-0.19-0.36-0.41-0.42L74.61,37.46z"/>
					<polygon points="68.09,36.49 68.2,36.51 67.99,35.34 					"/>
					<path d="M62.62,37.99c0.22,0.05,0.49-0.21,0.71-0.16C62.84,38.03,62.56,36.52,62.62,37.99z"/>
				</g>
			</g>
		</g>
	</g>
</g>
</svg>
