<?xml version="1.0" encoding="utf-8"?>
<!-- Generator: Adobe Illustrator 25.2.3, SVG Export Plug-In . SVG Version: 6.00 Build 0)  -->
<svg version="1.1" id="Layer_1" xmlns="http://www.w3.org/2000/svg" xmlns:xlink="http://www.w3.org/1999/xlink" x="0px" y="0px"
	 viewBox="0 0 253.76 208.6" style="enable-background:new 0 0 253.76 208.6;" xml:space="preserve">
<style type="text/css">
	.st0{fill:none;stroke:#010101;stroke-width:0.75;stroke-miterlimit:10;}
</style>
<g id="Layer_2_1_">
	<path class="st0" d="M35.27,178.45l91.1,0.2h2c0.6,0,1-0.7,0.7-1.2l-2.6-4.5l-36.2-62.4c0,0-24.2-38.1,6.5-60.5
		c0,0,28.5-20.5,53.3,0.1c8,6.6,13.3,16,13.9,26.4c0.6,9.5-2.5,21.4-17.2,31.1c0,0-8.8,6.9-24.1,3.2c-14.2-3.5-25.8-14.1-30.1-28
		c-2.7-8.7-3.2-19.9,3.4-32.3c6.1-11.5,16.5-20.2,29.2-23c10.2-2.3,23.4-1.3,37.5,10.2c0,0,18.1,12.2,18.2,38.4c0,9.1-2.3,18-6.5,26
		l-38.5,74.2c0,0-1.9,2.7,4.7,2.4h74.7"/>
</g>
</svg>
