<?xml version="1.0" encoding="utf-8"?>
<!-- Generator: Adobe Illustrator 25.2.3, SVG Export Plug-In . SVG Version: 6.00 Build 0)  -->
<svg version="1.1" id="Layer_1" xmlns="http://www.w3.org/2000/svg" xmlns:xlink="http://www.w3.org/1999/xlink" x="0px" y="0px"
	 viewBox="0 0 749.63 317.71" style="enable-background:new 0 0 749.63 317.71;" xml:space="preserve">
<style type="text/css">
	.st0{display:none;}
	.st1{display:inline;fill:none;stroke:#000000;stroke-width:7;stroke-miterlimit:10;}
	.st2{display:inline;}
	.st3{display:inline;fill:none;stroke:#000000;stroke-width:3;stroke-miterlimit:10;}
	.st4{display:inline;fill:#5C7A56;}
	.st5{display:inline;fill:#411B10;}
	.st6{display:inline;fill:#527150;}
	.st7{display:inline;fill:#50724F;}
	.st8{display:inline;fill:#64815A;}
	.st9{display:inline;fill:#52724F;}
	.st10{display:inline;fill:#688054;}
	.st11{display:inline;fill:#688759;}
	.st12{display:inline;fill:#67865F;}
	.st13{display:inline;fill:#729166;}
	.st14{display:inline;fill:#668051;}
	.st15{display:inline;fill:#6B7F56;}
	.st16{display:inline;fill:#809B70;}
	.st17{display:inline;fill:#628251;}
	.st18{display:inline;fill:#76955F;}
	.st19{display:inline;fill:#6D8A62;}
	.st20{fill:#411B10;}
	.st21{fill:#2D1810;}
	.st22{display:inline;fill:none;stroke:#2D1810;stroke-width:0.25;stroke-miterlimit:10;}
	.st23{display:inline;fill:#FFFFFF;stroke:#000000;stroke-width:3;stroke-miterlimit:10;}
	.st24{display:inline;fill:#EBCB9B;}
	.st25{display:inline;fill:#101438;}
	.st26{fill:none;stroke:#000000;stroke-miterlimit:10;}
	.st27{fill:#8C1E2D;}
	.st28{display:inline;fill:none;}
	.st29{font-family:'GveretLevinAlefAlefAlef-Regular';}
	.st30{font-size:56px;}
	.st31{display:inline;fill:#414042;}
	.st32{font-family:'HillelCLM-Medium';}
	.st33{font-size:187px;}
	.st34{fill:#DA9128;}
	.st35{fill:#871819;}
	.st36{fill:#851919;}
	.st37{fill:#41302C;}
	.st38{fill:#312020;}
	.st39{fill:#D68B29;}
	.st40{fill:#E2A225;}
	.st41{fill:#DE9B27;}
	.st42{fill:#E6A124;}
	.st43{fill:#E19D26;}
	.st44{fill:#E09C26;}
	.st45{fill:#E59F24;}
	.st46{fill:#E1A626;}
	.st47{fill:#E6A324;}
	.st48{fill:#DF9B27;}
	.st49{fill:#8C1B1C;}
	.st50{fill:#7A1515;}
	.st51{fill:#91201D;}
	.st52{fill:#9C2922;}
	.st53{fill:#A03B30;}
	.st54{display:inline;fill:none;stroke:#000000;stroke-width:4;stroke-miterlimit:10;}
	.st55{display:inline;fill:none;stroke:#000000;stroke-width:5;stroke-miterlimit:10;}
	.st56{fill:#414042;}
	.st57{fill:#353535;}
</style>
<g id="Layer_2_1_" class="st0">
</g>
<g id="Layer_1_1_" class="st0">
	<path class="st1" d="M458.81-455.56h-5.6c-10.8,0-19.56-8.76-19.56-19.56v-66.86c0-10.8,8.76-19.56,19.56-19.56h5.6
		c10.8,0,19.56,8.76,19.56,19.56v66.86C478.36-464.32,469.61-455.56,458.81-455.56z"/>
	<path class="st1" d="M429.28-546.8H318.36c-0.94,0-1.85,0.3-2.6,0.86l-45.88,34.04c-0.69,0.51-1.21,1.21-1.5,2.01l-13.65,37.45
		c-0.62,1.69-0.13,3.59,1.23,4.78l34.85,30.5c0.08,0.07,0.17,0.14,0.26,0.21l0,0c2.29,1.72,5.58,0.81,6.66-1.84l3.88-9.48
		c0.6-1.46,0.36-3.12-0.61-4.35l-15.19-19.31c-1.12-1.42-1.24-3.38-0.33-4.93l10.07-17c0.52-0.88,1.34-1.56,2.31-1.9l27.14-9.5
		c1.48-0.52,3.12-0.2,4.3,0.82l20.07,17.35c0.61,0.53,1.06,1.21,1.31,1.98c1.14,3.58,3.89,13.97-2.31,15.02
		c-0.35,0.06-0.69,0.17-1.01,0.32l-39.71,18.38c-1.03,0.48-1.83,1.33-2.24,2.39l-5.89,15.25c-0.04,0.11-0.09,0.21-0.14,0.31
		c-0.79,1.66-7.58,16.98,14.81,11.1l70.03-22.06c0.11-0.03,0.22-0.07,0.32-0.12c2.42-0.98,31.26-12.79,39.81-24.19
		c0.82-1.09,2.11-1.73,3.48-1.73h1.44c2.41,0,4.37-1.96,4.37-4.37v-67.67C433.65-544.84,431.7-546.8,429.28-546.8z"/>
	<circle class="st2" cx="283.28" cy="-405.76" r="5.56"/>
	<ellipse class="st2" cx="270.48" cy="-384.95" rx="2.07" ry="4.65"/>
	<ellipse class="st2" cx="289.09" cy="-370.99" rx="3.1" ry="5.17"/>
	<circle class="st2" cx="302.54" cy="-388.57" r="3.62"/>
	<ellipse class="st2" cx="263.76" cy="-360.65" rx="3.1" ry="5.17"/>
	<ellipse class="st2" cx="279.46" cy="-339.61" rx="3.81" ry="5.52"/>
	<ellipse class="st2" cx="307.97" cy="-347.98" rx="1.81" ry="5.43"/>
	<circle class="st2" cx="291.81" cy="-350.69" r="2.71"/>
	<circle class="st2" cx="307.97" cy="-369.18" r="1.81"/>
	<path class="st3" d="M522.95,41.46l-28.06,2.84c-11.45,0.53-32.67,3.83-32.67,3.83l-29.2,5.57c-0.74,0.14-1.5,0.17-2.25,0.2
		c-2.13,0.08-4.62,1.67-5.15,2.06L392.93,81.4c-2.4,1.77-3.08,4.01-3.31,4.66l-9.86,27.74c-1.05,3.33,1.69,13,2.95,16.37
		c0.24,0.64,0.43,1.29,0.57,1.96c0.46,2.23,1.51,7.29,2.33,11.2c0.99,4.73,4.41,8.7,9.07,10c4.51,1.26,9.63-0.22,11.56-11.7
		c0.19-1.15,0.22-2.33,0.11-3.49c-0.6-6.04-2.6-26.81-1.97-27.87l5.58-9.42c2.02-3.41,5.18-6,8.93-7.31l17.12-5.99
		c1.18-0.41,7.04-0.7,7.99,0.11c0,0,9.04,2.04,9.56,2.42c1.17,0.89,5.42,6.18,6.49,11.85c0.52,2.79,0.15,6.33-0.48,9.52
		c-0.98,4.9-4.65,8.83-9.46,10.19l-18.86,5.32c-0.88,0.25-1.74,0.59-2.56,1.01c-7.34,3.8-9.89,8.63-13.05,16.8l0,0
		c-0.03,0.09-0.07,0.17-0.11,0.25c-0.64,1.34-6.05,13.58,11.85,8.88l56.05-17.65c0.09-0.03,0.17-0.06,0.25-0.09
		c1.89-0.76,21.45-15.15,28.28-24.3c0.65-0.87,11.02,0.5,11.02-1.43V57.76C522.95,55.84,524.88,41.46,522.95,41.46z"/>
	<circle class="st2" cx="408.01" cy="173.63" r="4.45"/>
	
		<ellipse transform="matrix(0.9863 -0.165 0.165 0.9863 -26.1437 68.7377)" class="st2" cx="400.67" cy="191.73" rx="1.66" ry="3.72"/>
	
		<ellipse transform="matrix(0.9863 -0.165 0.165 0.9863 -27.3313 71.5828)" class="st2" cx="417.2" cy="200.3" rx="2.48" ry="4.14"/>
	<circle class="st2" cx="425.48" cy="184.65" r="2.9"/>
	
		<ellipse transform="matrix(0.9863 -0.165 0.165 0.9863 -29.4857 68.6667)" class="st2" cx="398.57" cy="211.81" rx="2.48" ry="4.14"/>
	
		<ellipse transform="matrix(0.9863 -0.165 0.165 0.9863 -32.3831 71.5488)" class="st2" cx="414.47" cy="230.69" rx="3.05" ry="4.42"/>
	
		<ellipse transform="matrix(0.9863 -0.165 0.165 0.9863 -29.6708 74.7577)" class="st2" cx="435.14" cy="215.97" rx="1.45" ry="4.35"/>
	<circle class="st2" cx="422.02" cy="215.97" r="2.17"/>
	<circle class="st2" cx="432.33" cy="199.24" r="1.45"/>
	<path class="st4" d="M-86.55-378.02c18.25-20.82,36.48-41.66,54.78-62.44c4.23-4.81,8.94-4.91,13.22-0.19
		c11.77,12.99,23.57,25.95,34.96,39.27c5.79,6.76,11.64,13.41,18,19.64c1.91,1.87,3.84,3.96,3.87,6.98c-1.3,0.95-2.7,0.78-4.12,0.33
		c-15.3-0.71-30.59-0.53-45.89-0.09c-1.31,0.45-2.66,0.54-4.03,0.39c-6.03-1.14-12.08-0.93-18.13-0.19
		c-1.29,0.35-2.58,0.34-3.88,0.04c-4.39-1.03-8.85-0.34-13.28-0.54c-0.95,0-1.89,0-2.84,0c-8.38,0-16.76,0.05-25.13-0.03
		C-81.91-374.88-85.18-374.28-86.55-378.02z"/>
	<path class="st5" d="M-99.3-370.96c0.9-2.16,3.4-1.09,5.18-1.09c32.27-0.05,64.55-0.03,96.82-0.03c13.95,0,27.9-0.03,41.85,0.03
		c1.51,0.01,3.72-0.86,4.34,1.02"/>
	<path class="st4" d="M-88.55-376.48c12.18,1.35,24.36,1.28,36.55,0.14c0.33,0.05,0.66,0.05,0.99,0c4.33,1.86,9.09-0.45,13.43,1.39
		c1.14,0.01,2.27,0.01,3.41,0.02c5.99-1.12,11.98-1.13,17.97,0.01c1.14-0.02,2.28-0.03,3.42-0.05c15.86-1.05,31.71-1.15,47.56,0.04
		c1.17,0.06,2.33,0.11,3.5,0.17c-1.22,3.51-4.14,1.52-6.06,1.53c-38.17,0.16-76.35,0.17-114.52-0.02"/>
	<path class="st6" d="M-52-376.34c-12.19,2.65-24.38,2.9-36.55-0.14c0.67-0.51,1.33-1.02,2-1.54
		C-75.17-374.6-63.49-377.46-52-376.34z"/>
	<path class="st7" d="M34.78-374.93c-15.85-0.01-31.71-0.03-47.56-0.04c12.6-3.23,25.43-0.76,38.14-1.41
		C28.49-376.55,31.96-377.44,34.78-374.93z"/>
	<path class="st8" d="M-44.35-401.12c0.01,1.53-0.66,2.76-2.23,2.75c-1.57,0-2.22-1.25-2.22-2.77c0-1.52,0.67-2.76,2.23-2.75
		C-45.01-403.88-44.33-402.65-44.35-401.12z"/>
	<path class="st9" d="M-16.21-374.93c-5.99,0-11.98-0.01-17.97-0.01C-28.19-377.39-22.2-377.37-16.21-374.93z"/>
	<path class="st10" d="M2.21-413.42c-4.02,2.19-5.91,1.32-6.13-3.13C-1.02-416.76-0.04-414.31,2.21-413.42z"/>
	<path class="st9" d="M-37.59-374.95c-4.5-0.25-9.26,2-13.43-1.39C-46.53-375.96-41.81-377.85-37.59-374.95z"/>
	<path class="st11" d="M-39.33-391.01c-0.06,0.03-0.75,0.52-1.48,0.63c-1.22,0.17-2.15-0.56-2.14-1.74c0-0.57,0.82-1.44,1.43-1.63
		C-40.27-394.13-39.61-393.31-39.33-391.01z"/>
	<path class="st12" d="M-23.51-395.56c0.43,0.51,1.35,1.16,1.59,2c0.28,0.96-0.68,1.26-1.46,0.91c-0.68-0.31-1.49-0.78-1.79-1.4
		C-25.57-394.88-24.96-395.46-23.51-395.56z"/>
	<path class="st13" d="M-18.39-402.8c0.54,0.73,0.93,1.27,1.32,1.8c-0.57,0.38-1.17,1.08-1.7,1.04c-0.51-0.04-0.95-0.87-1.43-1.35
		C-19.67-401.74-19.15-402.17-18.39-402.8z"/>
	<path class="st14" d="M-9.94-407.65c0.42,0.77,0.74,1.34,1.05,1.9c-0.61,0.3-1.27,0.91-1.82,0.82c-0.47-0.08-0.82-0.95-1.22-1.47
		C-11.36-406.76-10.79-407.12-9.94-407.65z"/>
	<path class="st15" d="M-18.16-386.28c0.42,0.77,0.74,1.34,1.05,1.9c-0.61,0.3-1.27,0.91-1.82,0.82c-0.47-0.08-0.82-0.95-1.22-1.47
		C-19.57-385.39-19-385.75-18.16-386.28z"/>
	<path class="st16" d="M-39.24-404.49c-1.21-0.24-2.7-0.3-2.43-2.07c0.06-0.4,1.28-1.01,1.8-0.88c1.96,0.51,0.86,1.88,0.62,2.98
		L-39.24-404.49z"/>
	<path class="st17" d="M4.21-406.7c-0.65,0.61-1.12,1.24-1.75,1.55c-0.27,0.13-0.87-0.41-1.31-0.64c0.45-0.55,0.83-1.23,1.4-1.59
		C2.79-407.54,3.45-407.04,4.21-406.7z"/>
	<path class="st18" d="M13.62-394.4c-0.46,0.22-1.09,0.74-1.7,0.72c-0.3-0.01-0.67-0.99-0.79-1.57c-0.03-0.15,0.77-0.65,1.22-0.68
		C13.13-395.99,13.86-395.74,13.62-394.4z"/>
	<path class="st19" d="M-39.24-404.45c1.83-0.09,3.67-0.18,5.84-0.28c-2.15,3.21-3.99,1.82-5.83,0.25
		C-39.24-404.49-39.24-404.45-39.24-404.45z"/>
	<g class="st2">
		<g>
			<path class="st20" d="M47.77-371.33c-0.47,1.55-1.4,2.84-2.28,4.17c-0.89,1.34-1.78,2.67-2.68,4.01
				c-1.72,2.58-3.41,5.2-5.32,7.65c-3.62,4.64-7.98,8.67-12.88,11.94c-0.41,0.27,0.23,0.33,0.44,0.19
				c4.86-3.25,9.21-7.2,12.84-11.79c2.07-2.61,3.87-5.42,5.72-8.18c0.94-1.4,1.87-2.81,2.81-4.21c0.82-1.23,1.63-2.44,2.07-3.87
				C48.57-371.66,47.84-371.56,47.77-371.33L47.77-371.33z"/>
		</g>
	</g>
	<g class="st2">
		<g>
			<path class="st20" d="M-99.19-371.28c0.49,1.45,1.39,2.63,2.3,3.84c1.04,1.38,2.07,2.77,3.11,4.15c2.08,2.78,4.13,5.61,6.44,8.21
				c4.14,4.67,9.03,8.59,14.38,11.78c0.19,0.11,0.86-0.17,0.58-0.33c-5.32-3.16-10.18-7.08-14.29-11.72
				c-2.15-2.43-4.07-5.05-6.01-7.65c-0.99-1.32-1.98-2.64-2.97-3.96c-1.07-1.42-2.24-2.81-2.81-4.51
				C-98.55-371.71-99.27-371.5-99.19-371.28L-99.19-371.28z"/>
		</g>
	</g>
	<g class="st2">
		<g>
			<path class="st20" d="M-72.3-343.25c6.1,1.4,12.37,1.46,18.6,1.54c6.58,0.09,13.15,0.17,19.73,0.26
				c6.4,0.08,12.81,0.06,19.2,0.31c6.16,0.24,12.2,1.42,18.38,0.9c7.1-0.61,14.17-1.93,21.22-2.97c0.33-0.05,0.62-0.43,0.11-0.35
				c-6.19,0.91-12.38,1.94-18.6,2.69c-3.27,0.39-6.54,0.58-9.83,0.31c-2.87-0.24-5.72-0.65-8.6-0.82
				c-6.35-0.38-12.74-0.31-19.1-0.39c-6.33-0.08-12.65-0.16-18.98-0.25c-7.24-0.09-14.58,0.05-21.69-1.57
				C-72.05-343.65-72.69-343.34-72.3-343.25L-72.3-343.25z"/>
		</g>
	</g>
	<path class="st5" d="M13.49-341.88h-65.67c-6.35,0-29.53-1.75-29.53-8.1l-8-6.53c0-6.35-14.17-14.87-7.82-14.87l144.68-0.26
		c1.08,3.78-2.08,4.54-4.16,10.2l-15.78,16.3C24.84-343.47,19.85-341.88,13.49-341.88z"/>
	<g class="st2">
		<g>
			<path class="st21" d="M22.68-368.78c-4.56,8.22-12.03,14.74-20.92,17.85c-0.25,0.09-1.19,0.42-0.87,0.81
				c0.3,0.36,1.56-0.07,1.86-0.17c9.6-3.36,17.84-10.09,22.78-19c0.25-0.46-1.02-0.29-1.16-0.27
				C23.89-369.48,22.96-369.28,22.68-368.78L22.68-368.78z"/>
		</g>
	</g>
	<g class="st2">
		<g>
			<path class="st21" d="M-1.24-357.73c-3.95,1.91-8.06,3.45-12.31,4.54c-4.59,1.18-9.35,1.8-14.03,0.82
				c-0.22-0.05-0.85,0.29-0.45,0.38c4.55,0.95,9.19,0.45,13.66-0.63c4.63-1.11,9.12-2.76,13.41-4.83
				C-0.51-357.68-0.92-357.89-1.24-357.73L-1.24-357.73z"/>
		</g>
	</g>
	<g class="st2">
		<g>
			<path class="st21" d="M33.89-367.59c-2.36,2.67-4.98,5.09-7.83,7.22c-0.13,0.09-0.07,0.18,0.06,0.21
				c0.16,0.04,0.39-0.04,0.51-0.14c2.89-2.16,5.54-4.61,7.93-7.31c0.11-0.13-0.1-0.17-0.19-0.17
				C34.21-367.79,34-367.72,33.89-367.59L33.89-367.59z"/>
		</g>
	</g>
	<g class="st2">
		<g>
			<path class="st21" d="M-78.9-357.34c0.02,3.05,3,5.19,5.47,6.43c2.86,1.43,6.03,2.08,9.15,2.69c0.26,0.05,0.86-0.35,0.43-0.43
				c-2.92-0.57-5.88-1.17-8.59-2.44c-2.46-1.15-5.71-3.27-5.73-6.33C-78.17-357.75-78.9-357.61-78.9-357.34L-78.9-357.34z"/>
		</g>
	</g>
	<line class="st22" x1="-98.83" y1="-371.37" x2="48.89" y2="-372.07"/>
	<path class="st23" d="M534.85,124.18L534.85,124.18c-9.88,0-17.89-8.01-17.89-17.89V47.47c0-9.88,8.01-17.89,17.89-17.89l0,0
		c9.88,0,17.89,8.01,17.89,17.89v58.82C552.74,116.17,544.73,124.18,534.85,124.18z"/>
	<path class="st24" d="M65.31-232.51l-28.06,2.84c-11.45,0.53-32.67,3.83-32.67,3.83l-27.91,5.04c-0.74,0.14-2.59,0.5-3.54,0.73
		c-2.07,0.5-4.62,1.67-5.15,2.06l-32.69,25.44c-2.4,1.77-3.08,4.01-3.31,4.66l-9.86,27.74c-1.05,3.33,1.5,24.6,2.76,27.97
		c0.24,0.64,0.43,1.29,0.57,1.96c0.46,2.23,1.51,7.29,2.33,11.2c0.99,4.73,4.41,8.7,9.07,10c4.51,1.26,9.63-0.22,11.56-11.7
		c0.19-1.15,0.22-2.33,0.11-3.49c-0.6-6.04-3.44-11.64-2.1-28.11l7.14-16.02c2.02-3.41,7.64-9.96,11.44-12.7l13.36-5.37
		c1.61-0.27,5.34-0.36,7.99,0.11c0,0,9.04,2.04,9.56,2.42c1.17,0.89,5.42,6.18,6.49,11.85c0.52,2.79,0.15,6.33-0.48,9.52
		c-0.98,4.9-20.2,22.55-20.2,22.55c-0.88,0.25-9.33,5.72-12.35,9.08c-5.52,6.15-5.45,9.44-5.16,17.1l0,0
		c-0.03,0.09,1.89,11.96,11.74,9.13l49.83-33.05c0.09-0.03,0.17-0.06,0.25-0.09c1.89-0.76,21.45-15.15,28.28-24.3
		c0.65-0.87,11.02,0.5,11.02-1.43v-52.67C65.31-218.13,67.24-232.51,65.31-232.51z"/>
	<path class="st25" d="M77.21-149.8L77.21-149.8c-9.88,0-17.89-8.01-17.89-17.89v-58.82c0-9.88,8.01-17.89,17.89-17.89l0,0
		c9.88,0,17.89,8.01,17.89,17.89v58.82C95.1-157.81,87.09-149.8,77.21-149.8z"/>
	<path class="st24" d="M522.95-200.61l-28.06,2.84c-11.45,0.53-32.67,3.83-32.67,3.83l-29.2,5.57c-0.74,0.14-1.5,0.17-2.25,0.2
		c-2.13,0.08-4.62,1.67-5.15,2.06l-32.69,25.44c-2.4,1.77-3.08,4.01-3.31,4.66l-9.86,27.74c-1.05,3.33,1.69,13,2.95,16.37
		c0.24,0.64,0.43,1.29,0.57,1.96c0.46,2.23,1.51,7.29,2.33,11.2c0.99,4.73,4.41,8.7,9.07,10c4.51,1.26,9.63-0.22,11.56-11.7
		c0.19-1.15,0.22-2.33,0.11-3.49c-0.6-6.04-2.6-26.81-1.97-27.87l5.58-9.42c2.02-3.41,5.18-6,8.93-7.31l17.12-5.99
		c1.18-0.41,7.04-0.7,7.99,0.11c0,0,9.04,2.04,9.56,2.42c1.17,0.89,5.42,6.18,6.49,11.85c0.52,2.79,0.15,6.33-0.48,9.52
		c-0.98,4.9-4.65,8.83-9.46,10.19l-18.86,5.32c-0.88,0.25-1.74,0.59-2.56,1.01c-7.34,3.8-9.89,8.63-13.05,16.8l0,0
		c-0.03,0.09-0.07,0.17-0.11,0.25c-0.64,1.34-6.05,13.58,11.85,8.88l56.05-17.65c0.09-0.03,0.17-0.06,0.25-0.09
		c1.89-0.76,21.45-15.15,28.28-24.3c0.65-0.87,11.02,0.5,11.02-1.43v-52.67C522.95-186.23,524.88-200.61,522.95-200.61z"/>
	<path class="st25" d="M534.85-117.9L534.85-117.9c-9.88,0-17.89-8.01-17.89-17.89v-58.82c0-9.88,8.01-17.89,17.89-17.89l0,0
		c9.88,0,17.89,8.01,17.89,17.89v58.82C552.74-125.91,544.73-117.9,534.85-117.9z"/>
</g>
<g id="Layer_6">
	<path class="st26" d="M531.6,64.31"/>
	<path class="st26" d="M539.73,78.87"/>
	<path class="st26" d="M503.21,69.63"/>
	<path class="st26" d="M739.5,190.08l-59.56-66.04c0,0-8.69,28.74-30.89,35.05c0,0-28.83,15.48-36.2-3.03c0,0,16.14,8.73,36.28-5.38
		c0,0,19.97-10.04,22.56-22.86c0,0,0.37-0.6-1.03-3.21c-1.66-3.1-5.82-8.62-19.92-16.34c0,0-45.44-52.78-51.85-53.95
		c0,0-30.87-34.59-34.69-33.73c0,0-4.81-4.24-17.74,0.27c0,0-32.13,14.71-51.99,15.49c0,0-4.83-0.64-12.43,11.32
		c0,0-15.66,19.42-17.06,20.93c-1.4,1.52-5.87,14.26-5.6,15.24c0,0-5.58,12.02-5.05,13.08c0,0-0.76,4.21,3.15,5.4l3.66-0.49
		c0,0-2.54,4.77,11.47,8.43c0,0,15.99,1.39,16.49-13.23c0,0-4.38-15.68-24.06-2.99c0,0,4.72-11.71,23.79-10.79
		c0,0,47.61,5.42,50.97,1.78c0,0,18.25-8.26,24.77-3.65c0,0-1.43,9.5-23.09,2.26c0,0,0.09-10.98,6.73-28.62c0,0,2.6-5.32,4.33-2.82
		c0,0,1.55,9.68-8.72,12.11c0,0-25.19,1.41-14.39-16.25c0,0,5.43-3.66-1.02,6.8c0,0-12.5,11.16-26.24,6.48c0,0-2.45,5-4.27,6.48
		c0,0-2.76,1.46-6.42,3.21"/>
	<path class="st26" d="M623.28,135.36c0,0-26.69-0.98-28.42-1.38s-8.79,0.42-47.96-16.9c0,0-29.93-10.28-49.38-7.42l-15.97,1.95
		c0,0,3.33,4.52,21.54,1.79c0,0,32.98-2.37,50.5,11.28c0,0,20.41,11.9,38.06,14.72c0,0,0.55,5.11,20.41,13.18
		c0,0,14.98,4.91,5.1,21.27l78.3,113.67"/>
	<path class="st26" d="M567.41,113.16"/>
	<path class="st26" d="M491.5,71.02c0,0-6.05,12.55-14.18,3.91c0,0-3.7-4.92,1.55-4.27c0,0,9.69,4.92,3.48,12.78
		c2.92,0.27-9.99-2.49-17.29,10.59c0,0-2.73,4.51-1.28,4.7c0,0,9.95-2.31,14.35,0.63c0,0,5.96,8.81,17.24,8.36
		c0,0,2.18-0.16,5.21-2.23c0,0,3.54-1.07,6.36,1.15c0,0,1.08-0.28,6.03-3.2c0,0,3.14-1.45,5.51,1.34c0,0,8.25,5.83,13.34,4.31
		c0,0,12.37-4.54,17.66,5.31"/>
</g>
<g id="Layer_7">
	<circle class="st27" cx="453.01" cy="109.02" r="3.97"/>
	
		<ellipse transform="matrix(0.5757 -0.8177 0.8177 0.5757 90.6411 406.5109)" class="st27" cx="437" cy="115.92" rx="3.33" ry="1.48"/>
	
		<ellipse transform="matrix(0.5757 -0.8177 0.8177 0.5757 79.883 417.4237)" class="st27" cx="442.14" cy="131.74" rx="3.7" ry="2.22"/>
	<circle class="st27" cx="457.19" cy="126.99" r="2.59"/>
	
		<ellipse transform="matrix(0.5757 -0.8177 0.8177 0.5757 75.3762 399.9802)" class="st27" cx="423.07" cy="127.36" rx="3.7" ry="2.22"/>
	
		<ellipse transform="matrix(0.5757 -0.8177 0.8177 0.5757 56.6596 407.8784)" class="st27" cx="421.33" cy="149.35" rx="3.95" ry="2.73"/>
	<ellipse transform="matrix(0.5757 -0.8177 0.8177 0.5757 63.2007 427.7018)" cx="443.7" cy="152.96" rx="3.88" ry="1.29"/>
	<circle class="st27" cx="431.85" cy="140.55" r="1.94"/>
	<circle class="st27" cx="452.38" cy="140.55" r="1.29"/>
</g>
<g id="Layer_4">
</g>
<g id="Layer_3" class="st0">
	<rect x="4.9" y="239.33" class="st28" width="539.78" height="78.41"/>
	<text transform="matrix(1 0 0 1 508.2256 289.7342)" class="st2 st29 st30">ה</text>
	<rect x="-72.86" y="92.5" class="st28" width="640.86" height="261.29"/>
	<text transform="matrix(1 0 0 1 -18.939 242.9849)" class="st31 st32 st33">סוד כמון</text>
	<g class="st2">
		<path class="st34" d="M858.74-378.46c2.97,9.32,10.75,15.57,15.3,23.88c-3.21,3.4-7.27,2.5-11.21,2.25
			c-13.57-2.5-27.23-1.12-40.85-0.85c-0.84,0.28-1.72,0.41-2.6,0.41c-2.45-0.31-4.83-0.95-7.14-1.79c-2-1.41-3.97-1.01-5.94,0.14
			c-2.63,0.81-5.41,0.9-8,1.89c-1.69,0.29-3.38,0.27-5.06-0.09c-4.43-1.96-8.71-0.4-13.04,0.51c-8.95,0.26-17.9,0.24-26.83,0.04
			c-3.02-0.07-6.86,0.7-7.53-4.05c9.71-12.94,19.5-25.83,29.12-38.84c8.54-11.54,17.26-22.97,25.23-34.9
			c8.31-12.43,11.76-9.8,17.88-1.22c8.04,11.27,17.13,21.75,24.67,33.38c1.61,2.49,3.62,4.73,5.45,7.09
			C853.54-388.16,856.44-383.58,858.74-378.46z"/>
		<path class="st35" d="M621.32-386.69c7.01-13.45,19.9-21.96,28.63-34.02c2.72-3.76,7.25-3.22,10.6,0.36
			c8.05,8.6,16.15,17.15,23.98,25.94c11.93,13.39,23.65,26.97,35.45,40.47c-2.47,2.81-5.83,2.61-9.09,2.6
			c-16.88-0.01-33.77,0.16-50.64-0.09c-5.25-2-11.51-0.32-16.21-4.37c-2.06,0.98,2.32-4.65-1.75-1.68
			c-1.49,1.08-3.25,1.45-5.09,1.39c-0.77-0.13-1.47-0.41-2.13-0.82c-3.7-3.81-8.18-6.03-13.32-7.49c-4.28-1.21-8.66-3.22-5.26-9.17
			c1.62,0.04,0.92-1.02,0.8-1.86c1.77-4.25,5.75-5.18,9.52-6.41c2.81,0.38,4.85-0.73,6.18-3.21c0.33-0.57,0.88-1.05,0.8-1.81
			c-0.2,0.8-0.53,1.52-1.04,2.2c-1.16,1.74-2.84,2.36-4.83,2.32C625.15-382.89,622.61-383.85,621.32-386.69z"/>
		<path class="st36" d="M621.32-386.69c2.63,0.34,4.98,1.24,6.73,3.35c1.03,1.1,0.95,2.19-0.01,3.29c-3.17,2.37-8.03,2.21-9.86,6.58
			c-3.51,6.35,1.88,6.49,5.42,7.26c5.67,1.25,11.05,2.51,12.67,9.18c-1.5,3.98-4.71,3.31-8.05,3.44c-8.01,0.33-16.12-0.05-24,2.03
			c-4.31-0.7-9.9,2.75-12.4-3.81c8.7-9.9,17.42-19.77,26.04-29.73C618.89-386.27,619.97-386.6,621.32-386.69z"/>
		<path class="st37" d="M858.74-378.46c-6.08-1.82-6.67-8.43-10.56-12.15c6.18,0.6,10.69-2.11,15.15-6.28
			c13.47-12.61,27.88-24.07,44.19-32.9c1.86-1.01,4.14-1.23,6.22-1.82c2.5,0.49,5.46,0.02,6.62,3.24
			c-8.35,7.65-19.59,10.25-28.77,16.51c-8.25,5.62-16.79,10.87-25.54,15.68C858.53-392.06,860.35-384.69,858.74-378.46z"/>
		<path class="st34" d="M874.2-352.92c-2.21,0.1-4.41,0.2-6.62,0.29c-2.33,1.14-4.83,0.64-7.26,0.64
			c-36.03,0.03-72.07,0.05-108.1-0.04c-2.58-0.01-5.48,1.17-7.75-1.19c0.46-0.97,0.91-1.94,1.37-2.92
			c12.04,3.53,24.32,0.96,36.49,1.4c3.73-0.81,7.46-0.82,11.19,0.01c1.75,0,3.5,0,5.25,0c6.47-0.97,12.94-1.41,19.41-0.02
			c0.67,0.01,1.33,0.01,2,0.02c14.14-0.84,28.27-0.88,42.41,0.02c3.82,0.04,7.64,0.07,11.46,0.11
			C874.09-354.03,874.15-353.47,874.2-352.92z"/>
		<path class="st38" d="M920.37-428.38c-2.21-1.08-4.42-2.16-6.62-3.24C917.5-433.71,920.36-433.97,920.37-428.38z"/>
		<path class="st39" d="M862.58-354.69c-14.14,0-28.28-0.01-42.41-0.02C834.3-356.93,848.44-356.96,862.58-354.69z"/>
		<path class="st40" d="M788.74-375.78c3.96,1.06,4.41,6.46,9.31,6.51c-4.88,1.89-8.25-0.71-11.36-2.78
			c-1.49-0.99,1.49-2.34,2.06-3.74L788.74-375.78z"/>
		<path class="st39" d="M818.17-354.73c-6.47,0.01-12.94,0.01-19.41,0.02c2.41-2.14,5.37-1.07,8.09-1.36
			c1.62-1.2,3.25-1.41,4.88-0.01C813.94-355.91,816.31-356.56,818.17-354.73z"/>
		<path class="st41" d="M788.76-375.79c-1.91-0.48-4.46-0.22-4.76-2.84c-0.08-0.64,2.05-2.3,2.95-2.16c3.13,0.49,1.25,3.28,1.8,5.01
			C788.74-375.78,788.76-375.79,788.76-375.79z"/>
		<path class="st39" d="M793.52-354.71c-3.73,0-7.46,0-11.19-0.01C786.06-356.76,789.79-356.77,793.52-354.71z"/>
		<path class="st42" d="M811.73-356.08c-1.63,0-3.25,0.01-4.88,0.01c0.94-1.46,1.12-4.01,3.31-3.85
			C812.29-359.77,811.51-357.52,811.73-356.08z"/>
		<path class="st43" d="M763.7-369.16c0.42,0.77,0.74,1.34,1.05,1.91c-0.61,0.3-1.27,0.91-1.82,0.82c-0.47-0.08-0.82-0.95-1.22-1.47
			C762.29-368.27,762.86-368.63,763.7-369.16z"/>
		<path class="st44" d="M765.28-372.63c-0.86,0.63-1.39,1.32-1.91,1.31c-0.55-0.01-1.1-0.68-1.64-1.06c0.47-0.46,0.89-1.23,1.41-1.3
			C763.67-373.75,764.29-373.15,765.28-372.63z"/>
		<path class="st45" d="M819.57-375.63c-1,0.51-1.64,1.11-2.18,1.03c-0.52-0.08-0.93-0.86-1.39-1.34c0.56-0.38,1.12-1.04,1.67-1.04
			C818.2-376.98,818.72-376.27,819.57-375.63z"/>
		<path class="st46" d="M787.85-386.1c-3.11-1.38-1.91-3.04-2.42-4.96C787.78-389.51,787.19-387.98,787.85-386.1z"/>
		<path class="st47" d="M796.71-382.4c-0.31-0.26-0.75-0.64-1.19-1.02c0.92-0.34,1.83-0.77,2.78-0.98c0.31-0.07,1.1,0.47,1.07,0.62
			C799.13-382.44,797.97-382.58,796.71-382.4z"/>
		<path class="st48" d="M828.85-411.37c-0.76,0.35-1.24,0.75-1.7,0.73c-0.91-0.04-1.61-0.6-1.35-1.59c0.09-0.34,0.99-0.82,1.26-0.69
			C827.7-412.61,828.18-411.98,828.85-411.37z"/>
		<path class="st49" d="M653.97-388.13c-3.78,1.98-4.24,4.63-1.67,7.65c0.94,1.11,1.82,2.2,0.35,3.39
			c-1.82,1.48-2.85,0.68-3.48-1.35c-0.74-2.39-2.43-2.67-4.5-1.7c-2.9,1.36-3.98-0.44-4.58-2.76c-0.64-2.49,0.82-3.8,3.03-3.61
			C646.71-386.19,648.96-391.06,653.97-388.13z"/>
		<path class="st50" d="M646.95-351.28c-13.65-0.15-33.32-0.01-46.97-0.16c7.65-2.35,20.62-4.34,28.43-4.14
			c2.83,0.08,5.39-0.15,7.86-1.46l0,0c2.74,1.41,5.48-1.42,8.22,0c4,2.54,13.44,2.91,17.4,5.64
			C658.05-351.22,650.8-351.45,646.95-351.28z"/>
		<path class="st36" d="M644.49-357.03c-2.74,1.2-5.48,2.88-8.22,0c4.02-1.84,8.04-3.68,12.26-5.6
			C649.14-358.96,645.37-359.11,644.49-357.03z"/>
		<path class="st51" d="M664.16-394.42c-0.09,1.59,0.16,3.6-2.13,3.59c-1.4-0.01-2.27-1.35-2.38-2.84c-0.14-1.83,0.67-3.4,2.46-3.59
			C663.78-397.45,664.09-395.84,664.16-394.42z"/>
		<path class="st49" d="M632.98-385c-0.98-3.32-0.98-3.32,2.65-7.13c0.32,4.32,0.32,4.32-2.63,7.15L632.98-385z"/>
		<path class="st49" d="M628.05-380.05c0-1.1,0-2.19,0.01-3.29c1.64-0.55,3.28-1.1,4.92-1.66l0.02,0.02
			C635.84-378.83,630.98-380.41,628.05-380.05z"/>
		<path class="st52" d="M656.79-371.51c-0.34-0.43-0.93-1.17-1.53-1.91c0.57-0.29,1.26-0.93,1.69-0.79
			c0.64,0.22,1.33,0.89,1.59,1.53C658.94-371.71,658.34-371.26,656.79-371.51z"/>
		<path class="st36" d="M618.18-373.48c1.69,0.16,3.29,0.54,4.06,2.25c0.15,0.33-0.28,1.31-0.44,1.31
			C619.47-369.9,618.45-371.32,618.18-373.48z"/>
		<path class="st53" d="M662.95-399.97c-0.33-0.37-0.78-0.85-1.22-1.34c0.54-0.34,1.04-0.84,1.62-0.95
			c0.31-0.06,0.93,0.48,1.08,0.88C664.84-400.33,664.04-400.12,662.95-399.97z"/>
		<path class="st49" d="M659.11-383.81c0.46,0.55,1.21,1.07,1.39,1.74c0.17,0.63-0.25,1.43-0.41,2.16
			c-0.51-0.59-1.12-1.12-1.52-1.78C658.16-382.38,657.87-383.21,659.11-383.81z"/>
	</g>
	<path class="st54" d="M330.9-832.5h-88.77c-0.75,0-1.48,0.24-2.08,0.69l-36.72,27.24c-0.55,0.41-0.97,0.97-1.2,1.61l-10.93,29.97
		c-0.49,1.36-0.1,2.88,0.98,3.83l27.89,24.41c0.07,0.06,0.13,0.11,0.2,0.17l0,0c1.83,1.37,4.47,0.65,5.33-1.47l3.1-7.58
		c0.48-1.16,0.29-2.5-0.49-3.48l-12.16-15.45c-0.89-1.13-1-2.7-0.26-3.94l8.06-13.6c0.42-0.71,1.08-1.25,1.85-1.52l21.72-7.6
		c1.18-0.41,2.49-0.16,3.44,0.65l16.06,13.89c0.49,0.42,0.85,0.97,1.05,1.59c0.92,2.87,3.11,11.18-1.85,12.02
		c-0.28,0.05-0.55,0.14-0.81,0.26l-31.78,14.71c-0.82,0.38-1.47,1.07-1.79,1.91l-4.72,12.2c-0.03,0.08-0.07,0.17-0.11,0.25
		c-0.63,1.33-6.07,13.59,11.85,8.89l56.05-17.65c0.09-0.03,0.17-0.06,0.26-0.09c1.94-0.78,25.02-10.23,31.86-19.36
		c0.66-0.87,1.69-1.38,2.78-1.38h1.15c1.93,0,3.5-1.56,3.5-3.5v-54.18C334.4-830.94,332.83-832.5,330.9-832.5z"/>
	<circle class="st2" cx="214.06" cy="-728.53" r="4.45"/>
	<ellipse class="st2" cx="203.81" cy="-711.87" rx="1.66" ry="3.72"/>
	<ellipse class="st2" cx="218.71" cy="-700.7" rx="2.48" ry="4.14"/>
	<circle class="st2" cx="229.47" cy="-714.77" r="2.9"/>
	<ellipse class="st2" cx="198.43" cy="-692.42" rx="2.48" ry="4.14"/>
	<ellipse class="st2" cx="211" cy="-671.17" rx="3.05" ry="4.42"/>
	<ellipse class="st2" cx="233.82" cy="-682.28" rx="1.45" ry="4.35"/>
	<circle class="st2" cx="220.88" cy="-684.46" r="2.17"/>
	<circle class="st2" cx="233.82" cy="-699.25" r="1.45"/>
	<path class="st55" d="M352.29-759.49L352.29-759.49c-9.88,0-17.89-8.01-17.89-17.89v-49.03c0-9.88,8.01-17.89,17.89-17.89l0,0
		c9.88,0,17.89,8.01,17.89,17.89v49.03C370.18-767.5,362.17-759.49,352.29-759.49z"/>
	<rect x="-360.44" y="-737.1" class="st28" width="539.78" height="78.41"/>
	
		<text transform="matrix(1 0 0 1 147.0894 -673.7379)" class="st2" style="font-family:'OSLuiziRound_FFC-Regular'; font-size:72px;">ה</text>
	<rect x="-474.19" y="-883.93" class="st28" width="640.86" height="261.29"/>
	<text transform="matrix(1 0 0 1 -420.2678 -733.4477)" class="st32 st33" style="display:inline;fill:#9C2922;">סוד כמון</text>
</g>
<g id="Layer_3_copy">
	<g>
		<path class="st56" d="M16.1,151.52c-0.37-1.4-0.08-2.59,0.87-3.56c0.94-0.97,2.24-1.46,3.88-1.46h8.49c4.08,0,7.24,0.91,9.5,2.74
			c2.19,1.77,3.35,4.99,3.47,9.68l1.55,107.74c0,1.22-0.32,2.37-0.96,3.47c-0.64,1.1-1.51,1.89-2.6,2.37l-5.02,2.19
			c-1.28,0.49-2.51,0.52-3.7,0.09c-1.19-0.43-1.99-1.07-2.42-1.92c-0.55-1.04-0.76-2.92-0.64-5.66l3.65-98.43
			c0.12-1.64-0.27-2.92-1.19-3.83c-0.67-0.67-1.58-1.06-2.74-1.19l-4.75-0.27c-3.04-0.3-4.9-1.79-5.57-4.47L16.1,151.52z"/>
		<path class="st56" d="M61.84,151.52c-0.37-1.4-0.08-2.59,0.87-3.56c0.94-0.97,2.24-1.46,3.88-1.46h8.49c4.08,0,7.24,0.91,9.5,2.74
			c2.19,1.77,3.35,4.99,3.47,9.68l1.55,73.23c0.12,2.8-1.07,4.75-3.56,5.84l-5.02,2.19c-1.28,0.49-2.51,0.53-3.7,0.14
			c-1.19-0.4-1.99-1.02-2.42-1.87c-0.61-1.22-0.82-3.13-0.64-5.75l3.65-63.92c0.12-1.64-0.27-2.92-1.19-3.83
			c-0.67-0.67-1.58-1.06-2.74-1.19l-4.75-0.27c-1.4-0.12-2.6-0.58-3.61-1.37c-1-0.79-1.66-1.83-1.96-3.1L61.84,151.52z"/>
		<path class="st56" d="M111.6,151.52c-0.31-1.4,0-2.59,0.91-3.56s2.19-1.46,3.83-1.46h4.75c3.83,0,6.88,0.94,9.13,2.83
			c1.1,0.91,1.89,2.25,2.37,4.02c0.37,1.04,0.65,1.8,0.87,2.28c0.21,0.49,0.46,0.94,0.73,1.37c0.27,0.43,0.56,0.59,0.87,0.5
			c0.3-0.09,0.67-0.38,1.1-0.87c2.5-3.1,5.2-5.42,8.13-6.94c4.5-2.37,10.2-3.56,17.07-3.56c9.07,0,16.22,3.26,21.46,9.77
			c4.23,4.81,7.08,10.84,8.56,18.08c2.15,10.65,2.89,23.56,2.22,38.71c-0.4,8.22-1.14,13.3-2.22,15.25l-4.53,7.76
			c-1.61,2.86-4.02,4.29-7.22,4.29h-31.32c-1.64,0-2.92-0.49-3.83-1.46c-0.91-0.97-1.19-2.16-0.82-3.56l1.83-7.49
			c0.3-1.34,0.96-2.39,1.96-3.15s2.21-1.14,3.61-1.14h25.48c1.28,0,2.3-0.11,3.06-0.32s1.29-0.61,1.6-1.19
			c0.3-0.58,0.49-1.03,0.55-1.37c0.06-0.33,0.12-0.96,0.18-1.87c0.6-7.24,0.45-14.38-0.46-21.41c-0.91-7.03-2.37-13.16-4.38-18.4
			c-4.02-10.53-10.99-15.8-20.91-15.8c-3.41,0-6.64,0.73-9.68,2.19s-5.54,3.56-7.49,6.3c-2.86,4.02-4.75,8.74-5.66,14.15
			c-0.79,4.44-1.39,9.19-1.78,14.24c-0.4,5.05-0.73,10.93-1,17.62c-0.27,6.7-0.53,11.63-0.78,14.79c-0.18,2.86-1.52,4.81-4.02,5.84
			l-5.3,2.19c-1.34,0.49-2.59,0.53-3.74,0.14c-1.16-0.4-1.89-1.02-2.19-1.87c-0.37-1.03-0.43-2.95-0.18-5.75
			c2.13-22.64,6.54-43.65,13.24-63c0.49-1.34,0.33-2.47-0.46-3.38c-0.55-0.61-1.73-0.97-3.56-1.1l-4.29-0.37
			c-3.1-0.3-4.96-1.76-5.57-4.38L111.6,151.52z"/>
		<path class="st56" d="M208.67,234.98l1.83-7.49c0.3-1.34,0.96-2.39,1.96-3.15s2.21-1.14,3.61-1.14h33.05
			c6.15,0,10.77-2.28,13.88-6.85c1.83-2.74,3.04-5.98,3.65-9.72c0.61-3.74,0.85-8.23,0.73-13.47c-0.18-7.85-1.8-14.37-4.84-19.54
			c-1.77-3.04-4.45-5.51-8.04-7.4c-3.53-1.95-8.37-2.92-14.52-2.92H217.7c-1.4,0-2.62-0.38-3.65-1.14
			c-1.04-0.76-1.71-1.81-2.01-3.15l-1.73-7.49c-0.37-1.4-0.09-2.59,0.82-3.56c0.91-0.97,2.19-1.46,3.83-1.46h22.74
			c7.67,0,13.94,0.64,18.81,1.92c6.21,1.64,11.2,4.96,14.97,9.95c4.32,5.66,6.85,12.48,7.58,20.45c0.73,7.61,0.46,15.83-0.82,24.65
			c-1.16,7.85-3.8,15.37-7.94,22.55c-2.74,4.63-6.24,8.04-10.5,10.23c-4.99,2.5-11.05,3.74-18.17,3.74h-28.21
			c-1.64,0-2.94-0.49-3.88-1.46C208.59,237.57,208.3,236.38,208.67,234.98z"/>
		<path class="st56" d="M338.08,154.5c-0.37-1.4-0.09-2.59,0.82-3.56c0.91-0.97,2.19-1.46,3.83-1.46h66.93
			c2.01,0,3.48,0.41,4.43,1.23c0.94,0.82,1.26,2.02,0.96,3.61l-1.37,6.94c-0.67,3.35-3.01,5.02-7.03,5.02
			c-1.64,0-2.94,0.53-3.88,1.6s-1.38,2.54-1.32,4.43l1,62.82c0,2.86-1.19,4.81-3.56,5.84l-5.02,2.19c-1.28,0.49-2.51,0.53-3.7,0.14
			c-1.19-0.4-1.99-1.02-2.42-1.87c-0.61-1.22-0.82-3.13-0.64-5.75l3.83-63.09c0.24-4.2-2.04-6.3-6.85-6.3h-38.61
			c-1.4,0-2.62-0.38-3.65-1.14c-1.04-0.76-1.71-1.81-2.01-3.15L338.08,154.5z"/>
		<path class="st56" d="M431.03,154.5c-0.37-1.4-0.08-2.59,0.87-3.56c0.94-0.97,2.24-1.46,3.88-1.46h8.49c4.08,0,7.24,0.91,9.5,2.74
			c2.19,1.77,3.35,4.99,3.47,9.68l1.55,73.23c0.12,2.8-1.07,4.75-3.56,5.84l-5.02,2.19c-1.28,0.49-2.51,0.53-3.7,0.14
			c-1.19-0.4-1.99-1.02-2.42-1.87c-0.61-1.22-0.82-3.13-0.64-5.75l3.65-63.92c0.12-1.64-0.27-2.92-1.19-3.83
			c-0.67-0.67-1.58-1.06-2.74-1.19l-4.75-0.27c-1.4-0.12-2.6-0.58-3.61-1.37c-1-0.79-1.66-1.83-1.96-3.1L431.03,154.5z"/>
		<path class="st56" d="M484.81,154.5c-0.37-1.46-0.06-2.66,0.92-3.61c0.98-0.94,2.3-1.42,3.97-1.42h29.87
			c8.29,0,14.66,0.58,19.11,1.73c3.09,0.73,6.04,2.1,8.86,4.11s5.02,4.26,6.63,6.76c3.34,5.05,5.36,11.63,6.07,19.72
			c0.55,7.43,0.21,15.67-1.02,24.74c-1.05,7.37-2.75,13.58-5.1,18.63c-2.91,6.09-7.21,10.9-12.89,14.43
			c-4.45,2.8-10.67,4.2-18.65,4.2c-6.57,0-11.92-0.85-16.07-2.56c-6.38-2.62-11.12-6-14.21-10.13c-3.9-5.3-6.21-12.11-6.92-20.45
			c-0.67-8.4-0.31-16.62,1.1-24.65c0.21-0.73,1.64-11.85,1.64-12.37s0-1.2,0-2.05c0-2.5-0.46-5.69-1.38-9.59L484.81,154.5z
			 M497.05,196.32c0.18,5.66,1.06,10.47,2.64,14.43c2.19,5.54,5.59,9.71,10.21,12.51c3.83,2.25,9.45,3.38,16.86,3.38
			c7.96-0.97,13.31-3.41,16.04-7.3c4.19-5.96,6.11-13.7,5.74-23.19c-0.25-6.15-1.11-11.11-2.59-14.88
			c-2.22-5.48-5.71-9.5-10.46-12.05c-3.58-1.95-9.07-2.92-16.48-2.92H503c-1.42,0-2.62,0.46-3.61,1.37
			c-0.93,0.91-1.45,2.1-1.57,3.56c0.07,3.47,0.11,5.88,0.14,7.22C497.17,185.55,496.87,191.51,497.05,196.32z"/>
	</g>
	<g>
		<path class="st57" d="M115.42,255.39c-2.16,1.88-4.94-2.02-8-2.12c-9.94-0.28-13.89,21-15.35,28.11
			c-2.02,9.94-5.88,10.59-8.14,10.41c-2.55-0.24-3.63-2.35-3.3-5.22c0.51-4.61,4.04-6.02,6.4-6.4c0.85-4.61,2.26-10.03,4.52-17
			c3.2-9.84,8.67-14.22,15.06-14.45c2.35-0.1,5.37,0.8,7.2,2.31C115.95,252.75,116.18,254.73,115.42,255.39z"/>
		<path class="st57" d="M94.05,287.4c0.43-1.41,4.38-10.83,7.06-20.1c1.13-3.91,2.31-6.08,4.94-5.37c1.88,0.51,2.16,2.73,1.18,6.02
			c-1.93,6.36-7.91,19.83-9.32,22.04c-1.41,2.21-2.55,2.31-3.77,1.84C93.16,291.46,93.39,289.62,94.05,287.4z"/>
		<path class="st57" d="M113.11,283.87c0.43,1.55,1.18,2.73,2.21,3.1c4.38,1.69,8.43-2.31,10.12-5.93c0.98-2.12,2.35-3.63,4.14-2.87
			c1.6,0.66,1.65,2.4,0.66,4.8c-2.63,6.45-8.2,10.08-13.65,9.23c-4.43-0.66-7.3-3.1-8.43-6.41c-0.28,0.04-0.47,0.1-0.61,0.14
			c-2.08,0.33-2.59-1.51-1.37-3.16c0.24-0.33,0.75-0.71,1.41-1.13c0.04-0.85,0.14-1.74,0.37-2.63c3.63-15.44,15.73-20.2,21.56-20.2
			c3.77,0,5.41,2.73,4.71,7.35C133.13,273.47,120.74,280.48,113.11,283.87z M129.55,263.49c-1.08-1.46-8.9,2.21-13.47,7.77
			c-1.84,2.26-2.82,5.04-3.2,7.63c2.16-1.08,4.52-2.31,6.64-3.72C127.72,269.79,130.45,264.71,129.55,263.49z"/>
		<path class="st57" d="M138.12,268.06c0.66-2.31,2.31-3.63,3.86-3.11c2.21,0.75,2.12,2.78,1.27,5.18
			c-0.9,2.49-3.49,11.67-7.2,10.26C133.02,279.26,136.79,272.71,138.12,268.06z"/>
		<path class="st57" d="M142.49,291.36c1.51-2.35,5.61-9.84,8.38-10.12c2.69-0.28,3.25,3.91,6.69,4c3.11,0.1,9.04-3.63,8.71-6.97
			c-0.28-2.82-3.39-4.43-6.22-4.43c-4.19,0-7.77,1.88-10.92,2.21c-1.84,0.19-3.34,0.28-4.19-0.9c-0.98-1.41-0.14-2.73,1.6-3.77
			c1.79-1.08,8.61-3.16,14.26-2.82c5.18,0.28,11.39,4.24,11.12,10.08c-0.28,5.79-9.08,11.63-14.93,11.26
			c-2.69-0.14-4.66-1.51-5.79-2.59c-1.37,1.98-4,5.84-4.71,7.2c-0.94,1.88-2.69,1.74-3.81,1.32
			C141.73,295.46,141.03,293.67,142.49,291.36z"/>
		<path class="st57" d="M172.71,291.36c1.51-2.35,5.61-9.84,8.38-10.12c2.69-0.28,3.25,3.91,6.69,4c3.11,0.1,9.04-3.63,8.71-6.97
			c-0.28-2.82-3.39-4.43-6.22-4.43c-4.19,0-7.77,1.88-10.92,2.21c-1.84,0.19-3.34,0.28-4.19-0.9c-0.98-1.41-0.14-2.73,1.6-3.77
			c1.79-1.08,8.61-3.16,14.26-2.82c5.18,0.28,11.39,4.24,11.12,10.08c-0.28,5.79-9.08,11.63-14.93,11.26
			c-2.69-0.14-4.66-1.51-5.79-2.59c-1.37,1.98-4,5.84-4.71,7.2c-0.94,1.88-2.69,1.74-3.81,1.32
			C171.96,295.46,171.25,293.67,172.71,291.36z"/>
		<path class="st57" d="M214.56,304.35c3.72-5.22,9.14-14.41,10.41-16.48c2.16-3.53,5.55-8.85,5.55-13.65
			c0-3.91-3.02-6.55-6.83-5.79c-2.16,0.43-3.81,0-4.1-1.74c-0.51-3.1,2.87-4.24,7.16-3.67c11.96,1.55,10.36,15.3,5.79,22.6
			c-2.96,4.75-9.7,15.96-14.45,21.38c-1.79,2.02-3.3,1.98-3.77,1.6C213.9,308.26,212.68,306.99,214.56,304.35z"/>
		<path class="st57" d="M269.98,255.39c-2.16,1.88-4.94-2.02-8-2.12c-9.94-0.28-13.89,21-15.35,28.11
			c-2.02,9.94-5.88,10.59-8.14,10.41c-2.55-0.24-3.63-2.35-3.3-5.22c0.51-4.61,4.06-6.02,6.41-6.4c0.85-4.61,2.26-10.03,4.52-17
			c3.2-9.84,8.67-14.22,15.06-14.45c2.35-0.1,5.37,0.8,7.2,2.31C270.5,252.75,270.74,254.73,269.98,255.39z"/>
		<path class="st57" d="M275.67,288.54c3.34-2.4,6.17-9.22,6.17-14.03c0-6.02-5.18-6.64-9.04-5.04c-3.2,1.32-5.18,0.75-5.7-0.94
			c-0.94-3.1,5.55-5.93,10.97-5.22c11.96,1.55,10.65,15.35,6.08,22.65c-4.1,6.55-8.47,7.35-9.37,6.69
			C273.51,291.69,273.79,289.89,275.67,288.54z"/>
		<path class="st57" d="M314.42,274.79c-1.27,11.67-9.23,18.18-15.16,17.51c-4.33-0.47-9.94-3.43-9.04-12
			c0.66-6.59,4.47-9.28,7.1-10.31c-0.19-0.24-0.33-0.51-0.37-0.8c-0.37-1.69,0.43-2.63,1.93-3.39c2.16-1.08,5.7-1.37,8.14-1.08
			C310.84,265.14,315.13,268.24,314.42,274.79z M306.23,269.37c-1.18-0.14-3.34,0.57-5.04,1.08c0.04,0.24,0.04,0.51,0,0.9
			c-0.19,1.65-5.22,3.39-5.65,7.91c-0.43,4.38,1.13,7.63,3.57,7.91c6.59,0.75,9.75-9.22,10.18-13.04
			C309.62,271.12,307.74,269.51,306.23,269.37z"/>
		<path class="st57" d="M345.91,276.81c-1.98,5.32-9.55,17.42-13.94,15.12c-3.49-1.84,1.69-6.16,3.86-9.04
			c1.84-2.4,7.77-11.02,2.35-11.96c-2.82-0.47-6.73,0.47-10.08,1.6c-3.02,6.02-7.02,13.65-8.29,15.44c-1.55,2.16-2.78,3.3-4.33,2.63
			c-1.13-0.47-1.55-2.08-0.24-4.43c0.66-1.13,3.11-5.93,5.61-10.79c-1.27,0.19-2.45-0.28-2.92-1.51c-0.75-1.98,2.26-4.19,4.43-5.18
			c0.43-0.19,1.22-0.47,2.21-0.8c0.8-1.55,1.37-2.82,1.69-3.53c1.37-3.1,3.2-4.66,4.8-3.91c1.65,0.75,1.65,2.45,0.51,4.94l-0.37,0.8
			c3.43-0.71,7.02-1.13,8.99-0.57C344.55,266.83,347.89,271.44,345.91,276.81z"/>
		<path class="st57" d="M353.72,283.87c0.43,1.55,1.18,2.73,2.21,3.1c4.38,1.69,8.43-2.31,10.12-5.93c0.98-2.12,2.35-3.63,4.14-2.87
			c1.6,0.66,1.65,2.4,0.66,4.8c-2.63,6.45-8.2,10.08-13.65,9.23c-4.43-0.66-7.3-3.1-8.43-6.41c-0.28,0.04-0.47,0.1-0.61,0.14
			c-2.08,0.33-2.59-1.51-1.37-3.16c0.24-0.33,0.75-0.71,1.41-1.13c0.04-0.85,0.14-1.74,0.37-2.63c3.63-15.44,15.73-20.2,21.57-20.2
			c3.77,0,5.41,2.73,4.71,7.35C373.74,273.47,361.35,280.48,353.72,283.87z M370.16,263.49c-1.08-1.46-8.9,2.21-13.47,7.77
			c-1.84,2.26-2.82,5.04-3.2,7.63c2.16-1.08,4.52-2.31,6.64-3.72C368.33,269.79,371.05,264.71,370.16,263.49z"/>
		<path class="st27" d="M392.56,267.53c0.57-1.69,2.82-8.38,3.02-9.42c0.33-1.69,1.88-2.92,3.02-2.63c1.79,0.47,2.26,1.88,1.79,3.43
			c-1.51,5.04-5.65,11.67-7.1,11.2C392.56,269.89,392,269.28,392.56,267.53z"/>
		<path class="st27" d="M415.68,274.32c3.06,1.27,4.38,5.32,4,7.53c-1.51,7.63-8.2,10.45-15.2,11.12c-4.38,0.43-6.36-0.24-7.25-0.61
			c-2.35-0.98-3.67-3.39-1.74-5.04c1.93-1.65,3.86,0.47,7.58,0.28c7.02-0.28,10.79-3.3,11.3-5.98c0.51-2.78-2.45-4.33-6.02-4.14
			c-3.67,0.19-4.47-0.85-4.14-2.45c0.28-1.65,1.88-2.26,3.77-2.35c1.84-0.1,9.51-3.77,9.32-6.69c-0.24-2.92-8.05-2.55-11.91-1.37
			c-3.81,1.22-5.18,0.24-5.18-1.27c0-3.67,7.2-4.99,12.61-5.27c5.41-0.28,10.03,3.39,9.08,8.38
			C421.1,270.45,417.84,273.24,415.68,274.32z"/>
		<path class="st27" d="M420,289.01c0.75-3.43,8.1-22.74,9.61-24.91c1.27-1.79,2.82-2.59,4.43-2.08c0.98,0.33,1.69,2.21,0.66,4.43
			c-1.04,2.21-9.28,21.42-10.03,24.91c-0.75,3.43-2.69,3.49-3.86,3.2C419.68,294.28,419.26,292.44,420,289.01z M430.46,283.45
			c0.61-8.24,11.67-12.76,13.24-13.18c1.55-0.43,3.3-0.57,4.19,0.75c0.98,1.41,0.28,3.43-2.26,4.33c-2.87,0.98-9.7,3.81-9.7,8.29
			s5.98,4.43,5.98,5.84c0,1.55-1.69,2.82-3.96,2.59C435.73,291.83,430.04,289.24,430.46,283.45z"/>
		<path class="st27" d="M448.72,282.08c0-15.26,13.47-29.05,29.15-29.05c3.72,0,6.55,0.37,6.55,2.73c0,1.93-1.88,2.49-3.96,2.49
			c-13.56,0-25.95,9.14-25.95,24.16c0,2.26,1.98,4.24,4.33,4.24c3.96,0,6.17-4.38,7.06-8.61c0.47-2.26,2.02-3.06,3.1-3.06
			c2.12,0,3.1,2.21,2.69,4.85c-0.57,3.49-4.94,12.34-12.95,12.34C453.48,292.16,448.72,288.25,448.72,282.08z"/>
		<path class="st57" d="M473.77,286.69c2.31-1.98,3.57-4.47,4.47-8.33c0.37-1.65,2.63-2.31,3.91-1.65c1.22,0.57,1.84,1.88,1.13,4.38
			c-0.9,3.16-3.3,7.39-5.84,9.37c-1.13,0.9-2.59,1.93-3.77,1.27C472.31,290.99,471.28,288.81,473.77,286.69z M486.81,290.7
			c-0.61-1.37,0.61-2.87,2.08-4.19c2.63-2.4,9.22-7.58,8.85-12.76c-0.37-5.04-9.14-6.64-18.79-2.35c-1.69,0.75-3.43,1.04-4.38-0.43
			c-0.75-1.18-0.04-2.69,1.93-3.91c8.94-5.55,22.36-4.28,25.61,3.91c3.39,8.53-6.16,17.14-10.83,19.97
			C489.73,291.87,487.56,292.44,486.81,290.7z"/>
	</g>
</g>
</svg>
