<?xml version="1.0" encoding="utf-8"?>
<!-- Generator: Adobe Illustrator 25.2.3, SVG Export Plug-In . SVG Version: 6.00 Build 0)  -->
<svg version="1.1" id="Layer_1" xmlns="http://www.w3.org/2000/svg" xmlns:xlink="http://www.w3.org/1999/xlink" x="0px" y="0px"
	 viewBox="0 0 1280 113.71" style="enable-background:new 0 0 1280 113.71;" xml:space="preserve">
<style type="text/css">
	.st0{fill:#F3E2B9;}
</style>
<g>
	<g>
		<rect x="0.22" class="st0" width="1280.99" height="57.63"/>
		<g>
			<g>
				<g>
					<g>
						<path class="st0" d="M1286.08,54.5c-0.07,3.95,0.76,2.53,0.91,3.13C1286.81,51.02,1285.86,54.67,1286.08,54.5z"/>
						<polygon class="st0" points="1270.46,-2.97 1271.62,-3.31 1262,-2.47 						"/>
						<path class="st0" d="M1209.45-2.98c5.77,1.43,22.11-0.23,32.98,0.28l1.79,0.33l4.9-1.15
							C1235.91-3.35,1218.75-2.58,1209.45-2.98z"/>
						<path class="st0" d="M1176.91-6.07c2.01,0.56-7.04,0.48,7.59,0.17c-0.73-0.06-0.95-0.1-1.37-0.14
							C1181.81-6.03,1180-6.03,1176.91-6.07z"/>
						<path class="st0" d="M1183.12-6.04C1189.55-6.08,1178.92-6.5,1183.12-6.04L1183.12-6.04z"/>
						<path class="st0" d="M1153.45-5.72l8.46-0.5c-1.77-0.33-9.3-0.4-6.5-0.64C1146.73-6.58,1148.51-6.26,1153.45-5.72z"/>
						<path class="st0" d="M1145.43-4.68l4.39-0.21C1149.04-5.02,1147.88-5.07,1145.43-4.68z"/>
						<path class="st0" d="M1159.11-5.33l-9.3,0.44c1.23,0.23,1.36,0.69,4.27-0.16C1153.32-4.62,1155.16-5.03,1159.11-5.33z"/>
						<path class="st0" d="M1164.38-5.11c4.75,0.31,10.88,0.51,2.39,1C1182.96-4.31,1180.57-5.31,1164.38-5.11z"/>
						<path class="st0" d="M1206.33-1.51l6.35,0.42l5.49-0.48C1215.43-1.33,1205.94-1.95,1206.33-1.51z"/>
						<path class="st0" d="M1100.72-6.46c-0.53,0.3,2.85,0.81,3.48,1.2l6.25-0.35C1107.24-5.82,1101.15-6.01,1100.72-6.46z"/>
						<path class="st0" d="M1104.2-5.26l-9.35,0.52C1103.2-4.68,1104.73-4.92,1104.2-5.26z"/>
						<polygon class="st0" points="1143.92,-3.09 1159.28,-4.19 1140.95,-3.08 						"/>
						<polygon class="st0" points="1065,-6.5 1070.3,-7.2 1060.86,-6.14 						"/>
						<path class="st0" d="M1041.3-6.37c3.92-0.58-5.38-0.99-1.23-1.34c-6.44,0.1-11.93,0.6-16.88,1.05
							C1028.45-6.91,1034.05-6.85,1041.3-6.37z"/>
						<path class="st0" d="M1014.88-6.01c2.63-0.14,5.35-0.39,8.31-0.66C1020.4-6.53,1017.65-6.34,1014.88-6.01z"/>
						<path class="st0" d="M1078.91-4.89c-0.72-0.18-2.12-0.66-7.36-0.87l3.68,0.85C1076.35-4.9,1077.62-4.89,1078.91-4.89z"/>
						<path class="st0" d="M1075.36-4.87l-0.13-0.03c-3.99-0.02-6.76-0.04-7.95-0.05C1068.3-4.94,1070.73-4.92,1075.36-4.87z"/>
						<path class="st0" d="M1079.84-4.88c-0.34,0-0.59,0-0.93,0C1079.27-4.8,1079.48-4.78,1079.84-4.88z"/>
						<path class="st0" d="M1119.4-3.87c-5.5,0.48-16.95,0.99-5.87,1.72C1117.47-2.73,1111.12-3.15,1119.4-3.87z"/>
						<path class="st0" d="M1084.41-3.82l9.94,0.2c-0.2-0.23-1.99-0.55,0.73-0.79L1084.41-3.82z"/>
						<polygon class="st0" points="1079.55,-3.55 1084.41,-3.82 1080.73,-3.89 						"/>
						<path class="st0" d="M1031.9-5.21c-4.29,0.37-8.99,0.4-14.29,0.46c5.68,0.17,11.56,0.26,17.14,0.26
							C1035.54-4.76,1037.99-5.24,1031.9-5.21z"/>
						<path class="st0" d="M1053.02-4.97c-0.3,0.02-0.68,0.03-0.95,0.05C1052.65-4.85,1053.12-4.83,1053.02-4.97z"/>
						<path class="st0" d="M965.4-4.75c0.29,0.05,0.54,0.1,0.84,0.16c0.07-0.05,0.11-0.1,0.2-0.15L965.4-4.75z"/>
						<path class="st0" d="M1035.7-4.33c4.27,0.16,6.83-0.04,9.26-0.31c-3.19,0.09-6.58,0.14-10.21,0.15
							C1034.39-4.37,1034.33-4.29,1035.7-4.33z"/>
						<path class="st0" d="M1000.31-5.61c2.22,0.18,4.75,0.33,7.4,0.47C1005.54-5.41,1001.1-5.83,1000.31-5.61z"/>
						<path class="st0" d="M1050.62-5.16c0.21-0.01,0.41-0.02,0.64-0.04C1049.86-5.38,1050.04-5.29,1050.62-5.16z"/>
						<path class="st0" d="M1050.62-5.16c-2.2,0.12-3.93,0.33-5.66,0.52c2.6-0.07,5.01-0.16,7.1-0.29
							C1051.54-4.98,1051-5.07,1050.62-5.16z"/>
						<path class="st0" d="M949.58,0.74c0.75-0.79,11.99-1.52,21.68-0.67c9.54-0.59,3.3-3.2-5.03-4.66
							c-0.3,0.35-0.3,0.67-10.12,1.13c3.44,0.43,21.79,1.01,13.5,1.73c-13.01,0.41-10.66-0.28-16.98-0.7
							c5.37,0.99-16.55,1.44-13.71,2.89l11.4-0.51C950.55,0.17,946.41,0.53,949.58,0.74z"/>
						<path class="st0" d="M984.94-4.51l4.04-0.1c-4.61-0.14-7.9-0.45-13.97-1.07c-6.72,0.39-8.12,0.68-8.58,0.94l19.89,0.11
							L984.94-4.51z"/>
						<path class="st0" d="M1007.12-4.62c-3.16,0.86-12.86,1.23-6.92,2.16c11.86-0.06,8.31-0.72,15.39-1.09
							c-19.13,0.21,5.5-0.48-8.33-0.97c3.76-0.15,7.14-0.19,10.33-0.23c-3.45-0.1-6.77-0.23-9.9-0.39c0.17,0.02,0.3,0.04,0.44,0.05
							l0.09,0c0,0.01-0.02,0.01-0.02,0.01c0.82,0.11,1.1,0.17,0.17,0.11c-0.06,0.01-0.3,0.01-0.4,0.02
							C1007.86-4.83,1007.51-4.72,1007.12-4.62c-5.54-0.18-0.87-0.23,0.86-0.33c0.06-0.04,0.21-0.08,0.23-0.13
							c-0.02,0-0.04-0.01-0.07-0.01l-19.17,0.47C993.04-4.49,998.12-4.52,1007.12-4.62z"/>
						<path class="st0" d="M1103.31-0.29c-0.59-0.08-0.57-0.14-0.61-0.2C1101.45-0.39,1100.98-0.32,1103.31-0.29z"/>
						<path class="st0" d="M1095.42-0.81c1.4-0.12,2.56-0.46,7.08-0.38c3.93,0.26-0.02,0.41,0.19,0.7c2.73-0.23,9.55-0.62,0.99-1.04
							l-1.36,0.12c-7.72-0.3-17.63-1.37-16.28-1.49C1088.3-2.13,1090.29-1.57,1095.42-0.81z"/>
						<path class="st0" d="M1050.72-2.5l-15.96,0.42l8.13,0.75l-0.41-0.45C1051.55-1.6,1049.59-2.15,1050.72-2.5z"/>
						<polygon class="st0" points="963.57,-5.18 965.69,-6.09 956.47,-4.8 						"/>
						<polygon class="st0" points="942.83,-5.07 943.6,-5.86 938.12,-5.38 						"/>
						<path class="st0" d="M170.38,52.88l4.69-0.22C172.85,52.73,171.43,52.8,170.38,52.88z"/>
						<path class="st0" d="M136.43,52.83l-0.83,0.39C137.17,53,137.82,52.85,136.43,52.83z"/>
						<path class="st0" d="M433.45-4.98c-6.83-0.74-14.46-1.89-13.64-1l2.1,0.87C426.68-5.26,430.34-5.17,433.45-4.98z"/>
						<path class="st0" d="M84.59,0.2c0.65,0.09,1.33,0.18,2,0.26c1.66-0.3,3.22-0.58,4.61-0.83C89.21-0.2,86.95,0,84.59,0.2z"/>
						<path class="st0" d="M79.77,3.79l-9.01-0.56C72.79,3.43,75.68,3.61,79.77,3.79z"/>
						<path class="st0" d="M355.81,51.96l5.47-0.88C352.73,51.08,356.49,51.53,355.81,51.96z"/>
						<path class="st0" d="M730.41-4.75c-5.9-0.34-10.59-0.48-14.71-0.52C722.8-4.78,728.53-4.03,730.41-4.75z"/>
						<path class="st0" d="M157.02,62.09c2.87-0.16,4.1-0.33,4.01-0.53C158.08,61.71,156.41,61.88,157.02,62.09z"/>
						<path class="st0" d="M698.67-5.27c1.04,0.07,2.06,0.13,3.12,0.2c4.31-0.15,8.65-0.26,13.91-0.21
							C710.45-5.65,704.45-5.87,698.67-5.27z"/>
						<path class="st0" d="M1028.32,52.68c0.49,0.04,1.08,0.06,1.52,0.1C1029.99,52.67,1029.31,52.66,1028.32,52.68z"/>
						<path class="st0" d="M1224.24,61.44c-1.93,0.05-5.08,0.05-8.04,0.07C1217.64,61.56,1220.07,61.56,1224.24,61.44z"/>
						<path class="st0" d="M859.38-5.45C863.78-5.51,860.08-5.55,859.38-5.45L859.38-5.45z"/>
						<path class="st0" d="M880.77-2.02c-0.94,0.1-1.65,0.22-1.76,0.42C879.38-1.8,879.99-1.94,880.77-2.02z"/>
						<path class="st0" d="M654.86,0.13c-0.13,0-0.23,0-0.38,0C655.79,0.3,655.56,0.26,654.86,0.13z"/>
						<path class="st0" d="M866-5.05c-1.65-0.11-3.55-0.2-5.63-0.26C861.28-5.25,862.99-5.16,866-5.05z"/>
						<path class="st0" d="M865.11-5.46c1.52,0.03,2.71,0.06,3.84,0.08C869.51-5.53,869.02-5.62,865.11-5.46z"/>
						<path class="st0" d="M853.25-5.4c2.52-0.01,4.86,0.03,7.12,0.09c-0.86-0.06-1.23-0.11-0.99-0.14
							C858.09-5.44,856.27-5.43,853.25-5.4z"/>
						<path class="st0" d="M667.99,55c0.29,0.03,0.63,0.05,0.94,0.08C673.37,54.73,671.42,54.78,667.99,55z"/>
						<path class="st0" d="M318.96,4.03c0.21-0.02,0.31-0.03,0.5-0.04c-0.21-0.01-0.47-0.02-0.65-0.03L318.96,4.03z"/>
						<path class="st0" d="M303.16,4.68c6.73-1.08,10.55-0.95,15.65-0.72l-5.23-2.5L303.16,4.68z"/>
						<path class="st0" d="M251.68,52.63l-11.1-0.78c13.39-1.28,23.08-0.84,12.67-1.94c-1.57,2.72-43.13,0.28-44.67,2.99l-7.31-0.57
							c2.1,0.03,2.43-0.13,4.5-0.11c-14.22-1.3-10.57,1.96-28.89,1.58c-6.39-0.21-10.84-0.6-6.49-0.92l-14.23,0.67
							c-4.14-0.05-3.13-0.52,0.99-0.47l-21.71,0.22l0.16-0.08c-3.1,0.43-10.12,1.08-13.54,1.37c-5.51-0.39,2.77-0.29,1.36-0.63
							l-12.02,0.66c-4.9-0.7,5.07-1.39,13.37-1.29c-11.22-2.71-9.97,0.68-34.2-0.9l11.35-0.34c-7.32-1.54-16.17-0.98-29.01-1.94
							c3.04,0.5,25.69,2.42,12.64,3.1c-3.68-0.21-8.52-0.3-15.56,0.24c-0.07-0.97-6.94-0.73-15.53-0.67l0.59-1.28
							c-9.3,0.37-8.56,1.02-14.03,1.6C30.65,53,28.5,52.01,26.06,51.17c-16.59-0.2,11.46,1.59-8.18,1.83
							c-3.2-0.11-6.19-0.17-9.08-0.19c-0.45,0-0.9,0-1.35,0l-0.81,0.01c-0.56,0.02-1.12,0.05-1.69,0.07
							c-0.05-0.62-0.1-1.25-0.15-1.89c-0.03-0.35-0.06-0.7-0.1-1.06c-0.04-0.87-0.07-1.75-0.11-2.64
							c-0.17-3.65-0.35-7.58-0.55-12.01c0.44-9.66,0.78,1.69,1.15-1.78l-1.02-8.56c0.02-2.1,0.34-1.42,0.5-1.08
							c-0.4-7.21-1.28-0.59-1.63-11.94c-0.31-0.67-0.38-2.17-0.33-4.24c0.06-1.41,0.24-3.14,0.45-4.77c1.21,0.13,2.5,0.26,3.84,0.41
							c0.3,0.03,0.6,0.06,0.91,0.09C8.45,3.47,8.99,3.5,9.53,3.53c1.09,0.04,2.19,0.08,3.29,0.13c4.4,0.13,8.83,0.08,12.77-0.37
							c3.46,0.36-1.67,0.78-0.61,1.28C44.23,3.52,41.48,3.8,57.29,2.39l13.47,0.84c-9.9-0.96,2.75-2.1,13.83-3.03
							c-3.51-0.46-6.51-0.87-8.52-1.06l17.68-0.69c2.14,0.21,0.35,0.65-2.54,1.18c1.2-0.11,2.35-0.22,3.24-0.31
							c6.32,0.47,3.04,1.21-1.49,1.93c-2.15-0.27-4.29-0.53-6.37-0.79c-4.37,0.78-8.45,1.64-7.54,2.39
							c1.15-0.15,3.36-0.27,5.79-0.35c-1.14,0.21-1.87,0.4-1.34,0.53c0.6,0.13,2.44-0.15,5.34-0.47l4.02,1.43l0.98-0.57l23.13,0.89
							c16.55-1.44,30.94-3.55,57.2-4.14c-6.52,1.05-1.4,1.71-1.75,2.95c-7.17-1.31-20.34,0.56-33.95,0.29
							c7.1,0.14,5.54,0.73,3.73,0.93l24.28-1.19c-0.55,1.01,5.16,0.76,11.5,1.18c-4.79-2,18.1-1.33,27.97-1.95
							c0.61,0.67-1.75,1.36-13.81,1.2c13.3,1.51,17.18-2.35,30.23-1.07c-2.94,0.02-4.53-0.09-5.69,0.26
							c6.87-0.6,23.68-0.12,19.72,0.46l-2.94,0.01c19.54,0.24,59.47,0.01,62.38-1.69c0.2,0.22-2.56,2.05-3.74,2.39l34.86-5.72
							c-3.07,1.46,8.72,4.94-7.48,5.77c4.65,0.21,10.41,0.45,20.21-0.06c-3.17-0.21-7.91-2.11-3.57-2.25
							c11.9,1.63,8.26,0.87,22.93,2.26c-4.76-0.31,0.53-2.6,8.04-2.53c-1.17,0.34,0.63,2.26-2.12,2.5l18.71-2.25
							c-4.67,0.41-0.82,1.91,3.36,2.54c-1.94-0.44,16.17,0.04,21.16-0.18l-7.93-0.52c21.12,0.34,20.86-3.16,41.82-3.04
							c-2.54,0.46-6.27,2.86,4.39,3.14c4.88-1.15,21.63-5.54,40.16-6.43l3.56,0.66l14.22-0.75c-8.86,1.73-33.71,5.38-47.29,6.8
							c7.9,0.52,2.2,0.78,14.04,0.72c4.18,0.62-6.45,0.94-9.94,0.97l27.56,0.4c-1.23-1.35,21.08-1.35,20.02-2.47l-29.93,1.39
							c-1.21-1.34,17.31-3.82,36.84-3.58c4.97,0.53-3.72,2.39-3.31,2.84c2.53-0.46,18.53-0.88,20.33-0.56l-8.28,0.72
							c10.87,0.51,17.74-1.78,30.81-0.5c4.51,0.09,13.46,1.73,14.24,0.94c-7.35-1.53-8.79-6.28-3.89-7.43
							c1.58,0.1,23.68,1.47,28.82,2.22c7.43,1.2-11.15,2.87-4.83,3.9c0.27-0.37,4.37-0.82,6.08-0.97c4.74,0.31-1.96,1.14,8.33,0.97
							c1.72-1.36,20.93,0.12,4.86-1.15c10.06-0.39,10.7,0.28,22.52,0.22c-3.76-0.88,10.61-3,20.7-3.39c-0.59,0.35,1.67,0.8,2.77,1
							c20.63,0.12,31.71,0.74,50.95,0.75c1.77,0.33,11.06,0.73,7.1,1.32c2.77-0.24,5.31-0.7,11.24-0.74
							c11.48,1.18-13.23,0.18-4.48,1.6c0.75-0.79,15.35-1.09,23.8-1.59c-2.6-1.22-19.53-0.23-27.99,0.26
							c-0.04-1.69,14.69-3.45,34.8-4.24c15.98-0.42,6.93,1.09,9.7,0.85c30.02,0.3,25.57-2.95,50.5-1.73
							c9.89,1.08,0.45,2.14,2.64,2.91c-13.02,0.41-19.99-0.68-28.81-0.64l10.86,0.51c-4.14,0.36-12.83,0.63-17.57,0.32
							c8.29,0.97,50.71,0.19,73.87,1.08c4.11-0.36,11.22-0.73,7.86-1.17l-7.33,0.15c-6.74-0.87,13.79-1.2,4.52-1.6
							c9.83-0.61,20.85-1.57,34.69-1.08l2.6,1.23c-0.3-0.36-9.04-0.73-12.93-0.36c5.77-0.54,21.22,1.66,27.54,0.05l-9.7-0.85
							c9.87-0.62,22.07-1.92,34.33-1.53c-5.58-1.21-2.83,0.14-11.54-1.28c7.55,1.76-31.37-0.07-19.24,1.78
							c-8.94-1.64-15.48-0.7-27.17-2.1c0.36,0.4,4.14,0.77-6.15,0.57c-0.47,0.12-1.56,0.27-2.26,0.36
							c-0.31-0.01-0.43-0.02-0.69-0.03c0.21,0.02,0.36,0.03,0.57,0.05c-0.45,0.06-0.49,0.07,0.21,0.02
							c2.45,0.18,4.44,0.39,5.25,0.62c-5.11,0.93-21.48,0.9-27.02,1.38c-6.11-0.19,2.56-0.46-0.78-0.9l-8.27,0.72
							c-0.82-0.9-16.23-1.49-1.84-2.02l-12.95-0.04c-7.63-0.5-18.12-0.7-24.58-0.33c-6.11-0.19-15.43,0.99-10.11,0.29l-20.31,0.56
							l-0.19-0.22c-20.04-0.11-41.26,1.49-64.18-0.13c-6.75,0.23-13.72,0.5-25.01,0.25l-2.2-0.78c-8.66,0.27-26.02-0.78-29.74,0.03
							c-9.35-2.09-42.05-0.46-57.28-0.83l-0.58,1.01c-10.49-0.06-20.54,0.23-33.56,0.64l0.8,0.9c-11.22,0.74-28.86-0.64-46.61-0.55
							c1.21-0.34,5.71-0.25,8.9-0.05c-21.21-2.03-44.75,1.47-63.99,0c-4.79,0.33-8.27,0.21-11.63-0.01c0.45,0,0.85-0.02,1.19-0.05
							c-0.49,0-1.22-0.01-1.97-0.01c-2.12-0.15-4.3-0.31-6.66-0.48c2.01,0.22,3.93,0.4,5.6,0.48c-3.7,0.02-9.3,0.13-14.8,0.35
							l-2.34-0.96c-0.45,0.01-0.81,0.02-1.27,0.03c-5.39-0.36-4.34,0.46-1.46,1.18c-2.77,0.16-5.3,0.35-7.27,0.58
							c-4.38-1.55-14.42,0.52-20.4-1.13c-3.7,0.81-27.63,0.61-30.56,2.31c-0.19-0.22-1.81-0.33,1.16-0.34
							c-6.13-0.19-12.25-0.39-17.75,0.09l-2.6-1.22l-13.38,1.65c-8.13-0.75-11.5-1.18-3.43-2.12c-19.49,1.45-15.81,0.55-32.39,1.98
							l0.81-0.79c-5.92,0.03-15.39,1.09-18.97,0.44c-13.25-1.5-65.57-0.21-99.59-1.61c6.6,2.33-15.81-1.05-17.16,0.76
							c-1.98-0.55-6.72-0.86-1.21-1.34C139.09-4.11,130.37-5.53,118.38-4c-1.99-0.55,3.72-0.81,1.95-1.14
							c-1.39,0.12-5.51,0.48-7.32,0.15c-1.77-0.33,2.54-0.46,5.29-0.7C100.57-5.6,98.77-3.9,97.48-2.31
							c-8.99-0.75-13.47-0.65-19.96,0.4c-3.13-0.52-8.35-1.07,2.67-1.25c-6.2-0.08-37.87-0.76-38.5,0.51
							c-1.94-0.32-8.66-0.09-10.3,0.05c-6.95-0.05-10.74-0.08-14.49-0.11c-1.88,0-3.74-0.01-6-0.01C8.16-2.7,4.93-2.69,0.76-2.67
							L5.9-2.46C3.49-1.91,1.28-1.71-1.45-1.67c0.04,2.52-0.06,5.19-0.15,8.46c-0.04,1.38-0.07,2.86-0.11,4.45
							c-0.02,1.53-0.03,3.18,0,4.95l-0.16-0.31C-2.43,28.5-2.29,31.23-2.18,33.91c0.06,1.34,0.11,2.67,0.07,5.22
							c-0.02,1.28-0.07,2.86-0.14,4.9c-0.09,2.21-0.21,4.93-0.35,8.3c0.32-0.69,0.64-1.33,0.96-1.9c0.69,0.97,0.78,3.87,0.63,8.43
							c2.12,0.08,4.57,0.21,7.37,0.37c2.43,0.15,5.03,0.31,7.7,0.47c5.15,0.29,10.56,0.48,15.39,0.22l-5.22-0.55
							c7.9-0.71,22.07,2.81,30,3.06c1.73,0.18-2.73,0.29-5.14,0.42c20.76,1.22,2.69-1.26,18.16-1.55c2.85,0.68-3.68,1.72,6.74,1.85
							c5.19,0.55,30.2-2.2,44.41-0.9c-3.13-0.52-6.24-1.04,0.95-1.44c11.01-0.19,29.77,1.97,39.72,0.33
							c1.4,0.14,1.93,0.28,1.99,0.41c8.42-0.42,27.36-0.71,32.43-1.6c7.78,3.31,52.34-1.61,52.15,1.44l25.9-0.16l-0.68,0.31
							c16.55,0.2,22.4-0.53,28.22-1.26c3.83,0.21,1.03,0.49,0.72,0.65c24.19,0.62,26.59,0.49,46.87-1.04l2.11,0.99
							c5.5-0.58,34.97,1.55,58.69,0.4c-0.23,0.11-0.72,0.3-2.61,0.44c26.69-1.16,63.89,2.75,73.67-0.86l17.61-0.89
							c-22.79-0.28,3.39-1.57-5.98-2.17c8.96-0.21,23.17,1.09,12.16,1.27l-1.72-0.18c-4.05,1.88,28.31,0.67,27.7,1.95
							c44.84-0.09,88.54,0.95,130.53,1.03l-4.84-1.46l14.65,0.08c3.84,0.34,5.16,1.14-5.29,1.08c5.5,0.83,17.53-0.69,17.83-1.01
							c20.46,0.59-7.99,1.71-1.72,1.74l8.52-0.11l-1.92-0.17c6.91-0.6,7.52-1.23,20.08-1.16c7.95,0.29,4.08,0.9,7.21,0.96
							c-0.02,0.1,1.04,0.15,4.8,0.04l18.46,0.12l-7.38-1.16c8.18-0.57,17.36,0.06,8.84-1.25c12.5,2.02,68.85,0.72,76.52,1.35
							c11.46-0.84,22.77-0.83,36.78-0.73c-3.48-0.24-5.57-1.54,6.52-1.38c-4.42,2.68,22.13,1.16,31.89,3.09
							c-8.73-1.28,34.35-0.32,20.66-2.13c10.08,0.22,0.61,1,8.26,1.63c24-1.04,52.89,0.67,82.55,0.32c0.46-0.35-4.51-0.89,1.86-1.41
							l15.66,1.76c5.86-0.17,5.39-2.03,16.1-0.81c-1.51-0.3-3.77-0.74,0.16-0.85c58.11,1.71,118.75-1.4,177.76,1.82
							c-7.99-0.68-2.67-0.75,3.44-0.77c-3.97-0.16,0.09-0.87-0.69-1.35l24.71,1.32c4.5-1.32,26.49-0.09,29.07-1.35l-7.82,0.23
							c10.41-1.49-14.56-3.32-13.04-5.23c-11.65,1.7-30.72-2.51-49.84-0.08c-4.22-0.39,3.6-0.62,1.34-1.06
							c-4.85,0.82-10.7,0.99-21.54,0.62l1.23-0.2c-30.46,0.2-43.53-0.61-77.75-1.15l2.53,0.95c-7.35-0.13-8.9-0.42-12.35-0.66
							c-8.44,1.44,20.66,0.08,12.97,1.67c-9.76-1.93-51.86-0.03-58.46-2.22c-11.31-0.01,3.32,1.1-7.99,1.08l-3-0.59l-2.86,0.76
							c-7.42-0.13-11.16-0.87-11.44-1.37c1.8,0.06,5.12-0.14,7.04-0.18c-9.62-0.7-27.12,0.24-30.42,0.01l10.87,0.37
							c-30.88,0.55-68.58-0.22-98.41,0.98l2.26,0.45c-22.78,0.83-18.25-0.49-43.26-0.11l0.91-0.11c-5,0.45-11.69,0.67-18.53,0.62
							c6.32-0.52-11.88-1.02-3.6-1.6c-24.7,0.89-12.22,0.7-28.53,2.36l-3.76-0.74c-5.56,0.67-6.02,1.02-18.52,1.22
							c10.24-0.64-7.97-1.13,3.5-1.97c-26.21-1.62-38.92,1.64-50.95-0.73c-12.04,2.05,22.68,1.14,15.94,1.58
							c5.64,0.67-9.94,1.53-18.16,1.33c-8.37-0.05-14.24-2.63-35.3-2.59c2.1,0.01,2.24-0.15,4.33-0.14
							c-7.88-0.52-15.44,0.71-25.11-0.14c-5.42,1.24-12.55-0.07-14.12,1.51l19.32-0.37c-10.95,0.41-21.22,2.27-39.27,1.37
							c1.41-0.32,6.78-0.74,10.46-0.97c-5.28-0.47-10.16,0.31-15.63-0.17c1.56-1.58,23.48-0.34,35.22-1.55
							c-5.66-0.67-22.2,1.15-16.3-0.57c-8.48,2.18-20.75-0.28-35.02,1.39l0.94-0.95c-2.26,0.15-6.93,0.6-11.09,0.57l7.52-1.23
							c-11.55,1.05-22.26-0.92-33.34-0.35c23.19-0.03,5.21,1.14,15.01,1.84c-28.6,1.27-16.45-2.48-48.47-2.03
							c4.34-0.13,16.28,0.57,9.5,1.01c-6.1-0.2-14.15-0.56-17.89-1.06c-21.22,0.2,3.26,0.98-5.77,1.56
							c-7.22-1.16-10.42,0.47-19.72,0.84l-0.07-0.97c-24.18-0.62-6.41,2.01-28.18,1.26l9.2-1.34l-11.35,0.35l2.34-1.1
							c-12.35,0.81-16.19,0.6-28.29,0.3c2.81,0.68-1.58,1.75-12.29,1.78c-7.3-0.57,4.09-0.92-11.09-0.78
							c3.43-0.6,7.18-1.36,13.79-0.47c0.68-0.31,3.38-0.61,4.08-0.92c-7.87-0.66-19.77-0.15-25.26-0.14
							c2.12,0.04,4.65,0.09,5.94,0.23l-22.01,1.34c-3.46-0.36-0.72-0.65,2.01-0.94c-4.46,0.1-7.54,0.55-14.09,0.63
							c1.7-0.78,1.29-1.59,10.57-1.96l-20.97,0.87c-1.4-0.34-10.76-0.94-8.04-1.23c-11.62-0.46-28.51,1.52-43.92,0.91
							c-0.8,0.15-2.41,0.3-5.68,0.41c-14.48-0.18-27.31-1.14-44.48-0.06l-9.74-1.41c-13.44,0.32,13.19,1.77-9.2,2.3
							c-15.85,0.45-5.92-1.2-11.48-1.59c-7.88,0.71-21.59,2.15-36.15,1.01C243.4,52.53,247.18,52.74,251.68,52.63z M85.87,53.26
							c3.21-0.2,9.62-0.83,11.97-0.26C94.17,54.1,91.34,53.57,85.87,53.26z M109,2.05c-2.39,0.32-6.08,0.16-10.25-0.2
							C101.77,1.77,105.2,1.81,109,2.05z M811.16-4.66c-0.14,0.02-0.23,0.03-0.34,0.05C803.65-4.99,806.2-4.84,811.16-4.66z
							 M826.05-4.25c1.5-0.13,1.39-0.27,0.76-0.4c-1.04,0.24-4.38,0.26-8.19,0.19C819.68-4.2,821.6-4.03,826.05-4.25z M714.97,61.5
							l-2.9-0.25C718.62,60.97,716.79,61.22,714.97,61.5z"/>
						<path class="st0" d="M80.42,3.37c-0.91-0.16-1.16-0.34-1.37-0.52C77.78,3.01,77.75,3.2,80.42,3.37z"/>
						<path class="st0" d="M354.8,52.13l0.5,0.01c0.28-0.06,0.43-0.12,0.51-0.17L354.8,52.13z"/>
						<path class="st0" d="M595.51,3.94c-3.06-0.14-4.77-0.32-5.91-0.5C589.44,3.67,590.83,3.87,595.51,3.94z"/>
						<path class="st0" d="M904.91-5.88l-9.53,0.25c4.61-0.05,6.26,0.16,8.59,0.32C903.75-5.54,901.93-5.87,904.91-5.88z"/>
						<path class="st0" d="M987.66,0.09c1.39-0.12,2.95-0.01,4.33-0.13L991.6-0.5C985.67-0.47,981.52-0.1,987.66,0.09z"/>
						<path class="st0" d="M913.74-2.68c0.76,0.81,6.74,0.54,13.41,0.39c-0.4,0-0.78,0-1.18,0C927.94-3.43,920.82-3.05,913.74-2.68z
							"/>
						<path class="st0" d="M928.7-2.32c2.06-0.04,4.16-0.06,6.17-0.02C935.65-2.8,932.37-2.44,928.7-2.32z"/>
						<path class="st0" d="M844.92-4.78c3.17,0.21,1.99-1.04,3.78-0.71C852.24-6.52,827.59-4.24,844.92-4.78z"/>
						<polygon class="st0" points="919.14,0 916.75,-1.01 913.01,-0.2 						"/>
						<path class="st0" d="M866.42-0.74l10.67,0.28c-0.16-0.17,1.19-0.27,2.86-0.34C873.37-0.84,866.17-1.04,866.42-0.74z"/>
						<path class="st0" d="M879.95-0.8c3.42,0.02,6.68,0,8.59-0.17C886.68-0.96,882.69-0.93,879.95-0.8z"/>
						<polygon class="st0" points="904.56,0.3 901.4,0.09 893.87,0.01 						"/>
						<path class="st0" d="M751.72-0.93l-11.65,0.29c-1.19,0.34,1.99,0.55,6.32,0.42C749.18-0.47,753.5-0.6,751.72-0.93z"/>
						<path class="st0" d="M786.93,1.81c-3.15-0.21-3.36-0.43-5.14-0.76l-0.35,1.24L786.93,1.81z"/>
						<path class="st0" d="M752.97,2.1c-1.16,0.34-16.9,0.99-2.14,0.91C752.01,2.67,763.68,2.38,752.97,2.1z"/>
						<polygon class="st0" points="577.51,0.53 580.47,0.51 580.04,-1.52 						"/>
						<path class="st0" d="M422.85,5.4c13.8,0.49,3.28-1.26,15.75-0.65c3.24-0.48-10.19-0.5-6.87-0.91
							C423.4,4.35,419.03,4.06,422.85,5.4z"/>
						<path class="st0" d="M431.73,3.84c1.33-0.08,2.75-0.18,4.25-0.31C433.57,3.66,432.43,3.76,431.73,3.84z"/>
						<polygon class="st0" points="1256.75,62.53 1265.63,62.96 1259.9,62.27 						"/>
						<path class="st0" d="M1273.79,61.02l2.09,1.3l5.33-1.17C1279.2,61.2,1275.31,61.31,1273.79,61.02z"/>
						<path class="st0" d="M61.22,50.64l-0.68,0.31c1.37,0.34,3.45,0.36,7.61,0.42L61.22,50.64z"/>
						<polygon class="st0" points="181.56,51.61 179.49,51.59 183.36,52.76 						"/>
						<path class="st0" d="M282.57,50.11c-4.12-0.05-8.97,0.21-13.11,0.16C278.45,50.07,283.69,51.58,282.57,50.11z"/>
					</g>
				</g>
			</g>
		</g>
	</g>
	<g>
		<g>
			<g>
				<g>
					<g>
						<path class="st0" d="M613.61,55.24c0.94,0.15,0.6-1.53,0.75-1.83C612.78,53.78,613.65,55.67,613.61,55.24z"/>
						<polygon class="st0" points="598.08,59.04 598.35,58.36 596.06,60.03 						"/>
						<path class="st0" d="M583.54,59.01c1.37,2.86,5.27-0.46,7.85,0.55l0.43,0.65l1.17-2.3C589.85,58.28,585.76,59.81,583.54,59.01
							z"/>
						<path class="st0" d="M575.8,52.83c0.48,1.11-1.68,0.96,1.81,0.35c-0.17-0.12-0.23-0.19-0.33-0.28
							C576.96,52.92,576.53,52.91,575.8,52.83z"/>
						<path class="st0" d="M577.28,52.9C578.81,52.82,576.27,51.97,577.28,52.9L577.28,52.9z"/>
						<path class="st0" d="M570.21,53.54l2.02-0.99c-0.42-0.66-2.22-0.8-1.55-1.28C568.61,51.81,569.03,52.46,570.21,53.54z"/>
						<path class="st0" d="M568.3,55.62l1.04-0.42C569.16,54.93,568.88,54.83,568.3,55.62z"/>
						<path class="st0" d="M571.56,54.32l-2.22,0.89c0.29,0.46,0.32,1.39,1.02-0.32C570.18,55.73,570.62,54.91,571.56,54.32z"/>
						<path class="st0" d="M572.81,54.75c1.13,0.62,2.59,1.01,0.57,2C577.24,56.36,576.67,54.35,572.81,54.75z"/>
						<path class="st0" d="M582.8,61.96l1.51,0.84l1.31-0.96C584.97,62.32,582.71,61.07,582.8,61.96z"/>
						<path class="st0" d="M557.65,52.06c-0.13,0.61,0.68,1.62,0.83,2.4l1.49-0.7C559.2,53.34,557.75,52.96,557.65,52.06z"/>
						<path class="st0" d="M558.48,54.46l-2.23,1.04C558.24,55.62,558.61,55.13,558.48,54.46z"/>
						<polygon class="st0" points="567.94,58.79 571.6,56.6 567.23,58.82 						"/>
						<polygon class="st0" points="549.14,51.98 550.41,50.58 548.16,52.7 						"/>
						<path class="st0" d="M543.5,52.23c0.93-1.16-1.28-1.97-0.29-2.69c-1.53,0.21-2.84,1.21-4.02,2.11
							C540.44,51.15,541.77,51.28,543.5,52.23z"/>
						<path class="st0" d="M537.21,52.96c0.63-0.28,1.27-0.78,1.98-1.31C538.52,51.92,537.87,52.31,537.21,52.96z"/>
						<path class="st0" d="M552.46,55.2c-0.17-0.37-0.5-1.33-1.75-1.73l0.88,1.71C551.85,55.18,552.15,55.19,552.46,55.2z"/>
						<path class="st0" d="M551.61,55.23l-0.03-0.05c-0.95-0.04-1.61-0.08-1.89-0.1C549.93,55.09,550.51,55.14,551.61,55.23z"/>
						<path class="st0" d="M552.68,55.21c-0.08,0-0.14-0.01-0.22-0.01C552.54,55.37,552.59,55.42,552.68,55.21z"/>
						<path class="st0" d="M562.1,57.24c-1.31,0.96-4.04,1.98-1.4,3.44C561.64,59.51,560.13,58.68,562.1,57.24z"/>
						<path class="st0" d="M553.77,57.34l2.37,0.39c-0.05-0.45-0.47-1.11,0.17-1.58L553.77,57.34z"/>
						<polygon class="st0" points="552.61,57.89 553.77,57.34 552.89,57.2 						"/>
						<path class="st0" d="M541.26,54.56c-1.02,0.74-2.14,0.81-3.4,0.93c1.35,0.34,2.75,0.52,4.08,0.51
							C542.13,55.46,542.71,54.5,541.26,54.56z"/>
						<path class="st0" d="M546.29,55.03c-0.07,0.04-0.16,0.06-0.23,0.1C546.2,55.28,546.31,55.32,546.29,55.03z"/>
						<path class="st0" d="M525.42,55.47c0.07,0.09,0.13,0.21,0.2,0.31c0.02-0.1,0.03-0.2,0.05-0.3L525.42,55.47z"/>
						<path class="st0" d="M542.17,56.32c1.02,0.33,1.63-0.09,2.21-0.62c-0.76,0.17-1.57,0.28-2.43,0.3
							C541.85,56.24,541.84,56.4,542.17,56.32z"/>
						<path class="st0" d="M533.74,53.76c0.53,0.36,1.13,0.66,1.76,0.94C534.98,54.16,533.93,53.31,533.74,53.76z"/>
						<path class="st0" d="M545.72,54.66c0.05-0.03,0.1-0.06,0.15-0.08C545.54,54.22,545.58,54.4,545.72,54.66z"/>
						<path class="st0" d="M545.72,54.66c-0.52,0.25-0.94,0.67-1.35,1.04c0.62-0.13,1.19-0.32,1.69-0.57
							C545.94,55.01,545.81,54.83,545.72,54.66z"/>
						<path class="st0" d="M521.66,66.45c0.18-1.58,2.85-3.05,5.16-1.35c2.27-1.19,0.79-6.4-1.2-9.31
							c-0.07,0.69-0.07,1.33-2.41,2.27c0.82,0.87,5.19,2.02,3.22,3.46c-3.1,0.82-2.54-0.56-4.04-1.4c1.28,1.97-3.94,2.87-3.27,5.78
							l2.72-1.02C521.89,65.31,520.9,66.03,521.66,66.45z"/>
						<path class="st0" d="M530.08,55.95l0.96-0.2c-1.1-0.28-1.88-0.91-3.33-2.15c-1.6,0.77-1.93,1.36-2.04,1.89l4.74,0.22
							L530.08,55.95z"/>
						<path class="st0" d="M535.36,55.74c-0.75,1.72-3.06,2.46-1.65,4.32c2.82-0.12,1.98-1.44,3.67-2.19
							c-4.56,0.43,1.31-0.96-1.98-1.94c0.9-0.29,1.7-0.38,2.46-0.46c-0.82-0.21-1.61-0.47-2.36-0.79c0.04,0.04,0.07,0.07,0.1,0.11
							l0.02-0.01c0,0.01,0,0.02,0,0.03c0.2,0.21,0.26,0.35,0.04,0.22c-0.02,0.02-0.07,0.03-0.1,0.04
							C535.54,55.32,535.45,55.53,535.36,55.74c-1.32-0.37-0.21-0.46,0.21-0.66c0.02-0.08,0.05-0.16,0.06-0.26
							c0-0.01-0.01-0.02-0.02-0.02l-4.56,0.95C532.01,55.99,533.22,55.94,535.36,55.74z"/>
						<path class="st0" d="M558.27,64.39c-0.14-0.15-0.14-0.28-0.15-0.4C557.83,64.2,557.71,64.34,558.27,64.39z"/>
						<path class="st0" d="M556.39,63.35c0.33-0.24,0.61-0.93,1.69-0.75c0.94,0.52,0,0.83,0.04,1.39c0.65-0.46,2.28-1.24,0.24-2.07
							l-0.32,0.23c-1.84-0.59-4.2-2.74-3.88-2.98C554.69,60.72,555.17,61.83,556.39,63.35z"/>
						<path class="st0" d="M545.74,59.98l-3.8,0.85l1.94,1.49l-0.1-0.9C545.94,61.78,545.47,60.67,545.74,59.98z"/>
						<polygon class="st0" points="524.99,54.62 525.49,52.8 523.3,55.37 						"/>
						<polygon class="st0" points="520.05,54.83 520.23,53.25 518.93,54.21 						"/>
						<path class="st0" d="M241.31,74.48l-1.12,0.45C240.72,74.79,241.06,74.64,241.31,74.48z"/>
						<path class="st0" d="M249.4,74.58l0.2-0.78C249.22,74.23,249.07,74.55,249.4,74.58z"/>
						<path class="st0" d="M398.74,55.01c-1.63-1.48-3.44-3.77-3.25-1.99l0.5,1.73C397.12,54.45,398,54.64,398.74,55.01z"/>
						<path class="st0" d="M315.65,65.37c0.15,0.17,0.32,0.35,0.48,0.53c0.4-0.59,0.77-1.14,1.1-1.66
							C316.76,64.6,316.22,64.98,315.65,65.37z"/>
						<path class="st0" d="M314.51,72.56l-2.14-1.12C312.84,71.83,313.53,72.2,314.51,72.56z"/>
						<path class="st0" d="M197.15,76.32l-1.3,1.77C197.88,78.07,196.99,77.18,197.15,76.32z"/>
						<path class="st0" d="M469.46,55.47c-1.4-0.68-2.52-0.96-3.5-1.05C467.65,55.42,469.01,56.92,469.46,55.47z"/>
						<path class="st0" d="M244.49,56.06c-0.68,0.31-0.98,0.67-0.96,1.05C244.24,56.82,244.64,56.48,244.49,56.06z"/>
						<path class="st0" d="M461.9,54.43c0.25,0.17,0.49,0.26,0.74,0.41c1.03-0.29,2.06-0.53,3.31-0.41
							C464.71,53.68,463.28,53.23,461.9,54.43z"/>
						<path class="st0" d="M36.99,74.88c-0.12-0.08-0.26-0.12-0.36-0.21C36.59,74.9,36.75,74.92,36.99,74.88z"/>
						<path class="st0" d="M-9.67,57.37c0.46-0.11,1.21-0.11,1.92-0.13C-8.1,57.11-8.68,57.13-9.67,57.37z"/>
						<path class="st0" d="M500.17,54.08C501.22,53.96,500.34,53.89,500.17,54.08L500.17,54.08z"/>
						<path class="st0" d="M505.27,60.94c-0.22,0.2-0.39,0.44-0.42,0.84C504.94,61.37,505.08,61.1,505.27,60.94z"/>
						<path class="st0" d="M451.47,65.23c-0.03,0-0.06-0.01-0.09-0.01C451.69,65.57,451.63,65.5,451.47,65.23z"/>
						<path class="st0" d="M501.75,54.87c-0.39-0.21-0.85-0.39-1.34-0.52C500.63,54.48,501.03,54.65,501.75,54.87z"/>
						<path class="st0" d="M501.54,54.05c0.36,0.08,0.65,0.12,0.92,0.17C502.59,53.92,502.47,53.74,501.54,54.05z"/>
						<path class="st0" d="M498.72,54.17c0.6-0.03,1.16,0.05,1.7,0.18c-0.21-0.12-0.29-0.22-0.24-0.27
							C499.87,54.1,499.43,54.14,498.72,54.17z"/>
						<path class="st0" d="M122.8,70.23c-0.07-0.05-0.15-0.09-0.22-0.16C121.52,70.79,121.99,70.67,122.8,70.23z"/>
						<path class="st0" d="M371.47,73.03c0.05-0.02,0.07-0.06,0.12-0.08c-0.05-0.02-0.11-0.04-0.15-0.06L371.47,73.03z"/>
						<path class="st0" d="M367.71,74.33c1.6-2.16,2.51-1.89,3.73-1.44l-1.24-5L367.71,74.33z"/>
						<path class="st0" d="M221.95,74.98l2.64,1.56c-3.19,2.57-5.5,1.68-3.02,3.87c0.37-5.43,10.27-0.56,10.64-5.98l1.74,1.14
							c-0.5-0.05-0.58,0.27-1.07,0.21c3.39,2.6,2.52-3.93,6.88-3.15c1.52,0.42,2.58,1.21,1.55,1.85l3.39-1.34
							c0.99,0.11,0.75,1.05-0.24,0.95l5.17-0.43l-0.04,0.16c0.74-0.85,2.41-2.17,3.23-2.73c1.31,0.78-0.66,0.58-0.32,1.25l2.86-1.32
							c1.17,1.41-1.21,2.77-3.18,2.57c2.67,5.42,2.37-1.37,8.14,1.8l-2.7,0.69c1.74,3.08,3.85,1.96,6.91,3.89
							c-0.72-1-6.12-4.84-3.01-6.2c0.88,0.41,2.03,0.61,3.71-0.49c0.02,1.93,1.65,1.46,3.7,1.35l-0.14,2.56
							c2.21-0.74,2.04-2.04,3.34-3.19c2.47,0.25,2.98,2.23,3.56,3.9c3.95,0.41-2.73-3.18,1.95-3.66c3.29,0.98,5.59-0.07,9.53-1.6
							c2.3,0.88-0.4,1.56,0.42,2.3l2.04-2.04c0.5,0.05,0.34,0.68,0.26,0.99c1.72-0.79,0.14-2.56,2.84-3.25
							c0.73-2.82,5.54,4.12,8.89,0.92c0.82,0.73-0.4,1.57-0.15,2.56c4.59-2.1,3.93-1.53,7.7-4.35l3.21,1.68
							c-2.36-1.92,0.65-4.2,3.29-6.06c-0.84-0.93-1.55-1.74-2.03-2.13l4.21-1.37c0.51,0.42,0.08,1.3-0.61,2.37
							c0.29-0.21,0.56-0.42,0.77-0.61c1.51,0.95,0.72,2.42-0.35,3.85c-0.51-0.5-1.02-1.04-1.52-1.58c-1.04,1.55-2.01,3.28-1.8,4.77
							c0.27-0.29,0.8-0.55,1.38-0.69c-0.27,0.42-0.45,0.8-0.32,1.05c0.14,0.27,0.58-0.3,1.27-0.95l0.96,2.85l0.23-1.13l5.51,1.79
							c3.94-2.87,7.37-7.1,13.62-8.28c-1.55,2.09-0.33,3.42-0.42,5.89c-1.71-2.62-4.84,1.12-8.09,0.58
							c1.69,0.28,1.32,1.46,0.89,1.87l5.78-2.39c-0.13,2.03,1.23,1.52,2.74,2.36c-1.14-4.01,4.31-2.67,6.66-3.9
							c0.15,1.35-0.42,2.72-3.29,2.39c3.17,3.02,4.09-4.71,7.2-2.14c-0.7,0.03-1.08-0.17-1.36,0.51c1.64-1.2,5.64-0.25,4.7,0.92
							l-0.7,0.03c4.65,0.47,14.16,0.03,14.86-3.37c0.05,0.44-0.61,4.1-0.89,4.79l8.3-11.45c-0.73,2.92,2.08,9.88-1.78,11.53
							c1.11,0.42,2.48,0.9,4.81-0.13c-0.76-0.42-1.88-4.22-0.85-4.49c2.83,3.25,1.97,1.74,5.46,4.51c-1.13-0.63,0.13-5.21,1.92-5.06
							c-0.28,0.69,0.15,4.52-0.51,5l4.46-4.5c-1.11,0.81-0.2,3.81,0.8,5.08c-0.46-0.88,3.85,0.08,5.04-0.36l-1.89-1.04
							c5.03,0.68,4.97-6.33,9.96-6.09c-0.6,0.93-1.49,5.72,1.05,6.29c1.16-2.3,5.15-11.08,9.57-12.86l0.85,1.32l3.39-1.5
							c-2.11,3.47-8.03,10.76-11.26,13.6c1.88,1.04,0.52,1.55,3.34,1.43c1,1.23-1.54,1.87-2.37,1.95l6.56,0.8
							c-0.29-2.69,5.02-2.7,4.77-4.94l-7.13,2.79c-0.29-2.68,4.12-7.63,8.77-7.16c1.18,1.07-0.88,4.79-0.79,5.68
							c0.6-0.93,4.41-1.77,4.84-1.11l-1.97,1.44c2.59,1.01,4.23-3.56,7.34-1c1.07,0.17,3.21,3.46,3.39,1.87
							c-1.75-3.07-2.09-12.56-0.93-14.87c0.38,0.21,5.64,2.93,6.86,4.45c1.77,2.41-2.65,5.73-1.15,7.8
							c0.06-0.73,1.04-1.64,1.45-1.93c1.13,0.63-0.47,2.28,1.98,1.94c0.41-2.73,4.98,0.23,1.16-2.3c2.4-0.78,2.55,0.56,5.36,0.44
							c-0.9-1.76,2.53-6,4.93-6.77c-0.14,0.69,0.4,1.6,0.66,2.01c4.91,0.25,7.55,1.48,12.13,1.51c0.42,0.66,2.63,1.46,1.69,2.63
							c0.66-0.48,1.26-1.41,2.68-1.47c2.73,2.36-3.15,0.37-1.07,3.2c0.18-1.58,3.65-2.19,5.67-3.18c-0.62-2.45-4.65-0.47-6.67,0.52
							c-0.01-3.38,3.5-6.91,8.29-8.47c3.81-0.84,1.65,2.18,2.31,1.7c7.15,0.59,6.09-5.89,12.03-3.46c2.36,2.15,0.11,4.28,0.63,5.83
							c-3.1,0.81-4.76-1.37-6.86-1.28l2.59,1.02c-0.99,0.71-3.06,1.26-4.18,0.63c1.97,1.93,12.08,0.37,17.59,2.15
							c0.98-0.72,2.67-1.47,1.87-2.33l-1.75,0.3c-1.6-1.73,3.28-2.4,1.08-3.21c2.34-1.22,4.97-3.13,8.26-2.15l0.62,2.45
							c-0.07-0.72-2.15-1.46-3.08-0.71c1.37-1.09,5.05,3.32,6.56,0.11l-2.31-1.7c2.35-1.23,5.26-3.84,8.18-3.06
							c-1.33-2.42-0.67,0.28-2.75-2.56c1.8,3.53-7.47-0.15-4.58,3.56c-2.13-3.29-3.69-1.39-6.47-4.2c0.09,0.81,0.99,1.55-1.47,1.15
							c-0.11,0.24-0.37,0.54-0.54,0.71c-0.07-0.02-0.1-0.04-0.17-0.06c0.05,0.03,0.09,0.07,0.14,0.1c-0.11,0.12-0.12,0.15,0.05,0.03
							c0.58,0.35,1.06,0.78,1.25,1.23c-1.22,1.86-5.12,1.8-6.43,2.76c-1.45-0.38,0.61-0.93-0.19-1.79l-1.97,1.44
							c-0.2-1.8-3.87-2.98-0.44-4.04l-3.08-0.08c-1.82-1.01-4.31-1.41-5.85-0.65c-1.45-0.39-3.68,1.99-2.41,0.58l-4.84,1.11
							l-0.04-0.45c-4.77-0.23-9.83,2.97-15.28-0.27c-1.61,0.45-3.27,1.01-5.96,0.5l-0.52-1.55c-2.06,0.54-6.2-1.55-7.08,0.06
							c-2.23-4.18-10.01-0.91-13.64-1.65l-0.14,2.03c-2.5-0.12-4.89,0.46-7.99,1.28l0.19,1.79c-2.67,1.47-6.87-1.28-11.1-1.09
							c0.29-0.69,1.36-0.51,2.12-0.09c-5.05-4.05-10.66,2.95-15.24,0c-1.14,0.65-1.97,0.43-2.77-0.02c0.11,0,0.2-0.04,0.28-0.09
							c-0.12-0.02-0.29-0.03-0.47-0.02c-0.5-0.31-1.02-0.67-1.59-0.95c0.48,0.44,0.94,0.79,1.33,0.96
							c-0.88,0.04-2.22,0.26-3.52,0.71l-0.56-1.93c-0.11,0.03-0.19,0.02-0.3,0.05c-1.28-0.71-1.03,0.91-0.35,2.36
							c-0.66,0.32-1.26,0.7-1.73,1.16c-1.04-3.11-3.43,1.05-4.86-2.27c-0.88,1.62-6.58,1.22-7.28,4.62
							c-0.04-0.44-0.43-0.65,0.28-0.68c-1.46-0.39-2.92-0.78-4.23,0.18l-0.62-2.45l-3.19,3.29c-1.94-1.49-2.74-2.36-0.82-4.24
							c-4.64,2.9-3.77,1.09-7.71,3.96l0.19-1.58c-1.41,0.06-3.67,2.18-4.52,0.87c-3.16-3.01-15.62-0.42-23.72-3.21
							c1.57,4.66-3.77-2.09-4.09,1.52c-0.47-1.1-1.6-1.72-0.29-2.68c-4.13,1.08-6.21-1.75-9.07,1.3c-0.47-1.11,0.88-1.62,0.46-2.27
							c-0.33,0.24-1.31,0.96-1.74,0.3c-0.42-0.66,0.61-0.93,1.26-1.41c-4.22,0.19-4.65,3.58-4.96,6.77
							c-2.14-1.51-3.21-1.3-4.75,0.79c-0.75-1.04-1.99-2.13,0.64-2.51c-1.48-0.15-9.02-1.53-9.17,1.03
							c-0.46-0.65-2.06-0.19-2.45,0.11c-3.31-0.15-3.6-0.38-6.86-0.14l0.9,0.42c-1.28,3.08-2.7,0.69-5.33,1.06l0.07-0.32
							c-6.01-2.22-2.6,1.07-8.53-1.47l0.32,1.92c-0.55,4.13-5.26-2.43-8.7-0.86l1.24,1.1c-1.88,1.41-5.26-5.61-7.14-6.13
							c-0.41-0.36,0.65-0.58,1.22-0.84c-4.94-2.43-0.64,2.51-4.32,3.1c-0.68-1.36,0.88-3.45-1.6-3.7c-1.24-1.1-7.19,4.4-10.58,1.8
							c0.75,1.04,1.49,2.09-0.23,2.87c-2.62,0.37-7.09-3.95-9.46-0.66c-0.33-0.29-0.46-0.56-0.47-0.82c-2,0.85-6.52,1.41-7.72,3.2
							c-1.85-6.63-12.46,3.22-12.42-2.89l-6.17,0.33l0.16-0.62c-3.94-0.4-5.34,1.06-6.72,2.53c-0.91-0.42-0.25-0.99-0.17-1.31
							c-5.76-1.23-6.33-0.97-11.16,2.07l-0.5-1.98c-1.31,1.15-8.33-3.11-13.98-0.8c0.06-0.22,0.17-0.61,0.62-0.89
							c-6.36,2.33-15.22-5.5-17.55,1.72l-4.19,1.78c5.43,0.56-0.81,3.13,1.42,4.33c-2.13,0.42-5.52-2.18-2.89-2.55l0.41,0.36
							c0.96-3.76-6.74-1.33-6.6-3.9c-10.68,0.19-21.09-1.9-31.09-2.06l1.15,2.93l-3.49-0.17c-0.92-0.68-1.23-2.29,1.26-2.17
							c-1.31-1.66-4.17,1.39-4.25,2.03c-4.87-1.19,1.9-3.41,0.41-3.48l-2.03,0.22l0.46,0.34c-1.64,1.2-1.79,2.46-4.78,2.32
							c-1.89-0.59-0.97-1.8-1.72-1.92c0-0.21-0.25-0.3-1.14-0.08l-4.4-0.25l1.76,2.31c-1.95,1.14-4.13-0.12-2.11,2.5
							c-2.98-4.04-16.4-1.45-18.22-2.7c-2.73,1.68-5.42,1.65-8.76,1.45c0.83,0.48,1.33,3.08-1.55,2.76c1.05-5.36-5.27-2.33-7.6-6.18
							c2.08,2.56-8.18,0.63-4.92,4.26c-2.4-0.43-0.15-2.01-1.97-3.27c-5.72,2.08-12.6-1.35-19.66-0.65
							c-0.11,0.7,1.07,1.78-0.44,2.83l-3.73-3.52c-1.4,0.35-1.28,4.06-3.83,1.62c0.36,0.59,0.9,1.48-0.04,1.71
							c-13.84-3.43-28.28,2.81-42.33-3.63c1.9,1.36,0.63,1.5-0.82,1.55c0.95,0.33-0.02,1.74,0.16,2.69l-5.88-2.65
							c-1.07,2.65-6.31,0.18-6.92,2.71l1.86-0.45c-2.48,2.99,3.47,6.64,3.1,10.47c2.77-3.39,7.32,5.03,11.87,0.17
							c1,0.78-0.86,1.23-0.32,2.12c1.15-1.64,2.55-1.98,5.13-1.25l-0.29,0.41c7.26-0.4,10.37,1.22,18.52,2.3l-0.6-1.89
							c1.75,0.25,2.12,0.85,2.94,1.32c2.01-2.87-4.92-0.16-3.09-3.33c2.32,3.86,12.35,0.06,13.92,4.44c2.69,0.02-0.79-2.19,1.9-2.17
							l0.71,1.19l0.68-1.53c1.77,0.25,2.66,1.73,2.72,2.74c-0.43-0.12-1.22,0.28-1.68,0.37c2.29,1.4,6.46-0.48,7.25-0.02l-2.59-0.73
							c7.35-1.11,16.33,0.45,23.44-1.96l-0.54-0.89c5.43-1.65,4.35,0.98,10.3,0.22l-0.22,0.21c1.19-0.89,2.78-1.34,4.41-1.24
							c-1.5,1.05,2.83,2.04,0.86,3.19c5.88-1.78,2.91-1.39,6.8-4.72l0.9,1.48c1.32-1.34,1.43-2.05,4.41-2.43
							c-2.44,1.27,1.9,2.26-0.83,3.94c6.24,3.24,9.27-3.28,12.13,1.47c2.87-4.11-5.4-2.28-3.8-3.16c-1.34-1.34,2.37-3.07,4.33-2.66
							c1.99,0.09,3.39,5.25,8.41,5.17c-0.5-0.02-0.53,0.29-1.03,0.27c1.88,1.05,3.68-1.42,5.98,0.28c1.29-2.48,2.99,0.14,3.36-3.02
							l-4.6,0.73c2.61-0.83,5.05-4.53,9.35-2.74c-0.33,0.64-1.61,1.48-2.49,1.95c1.26,0.93,2.42-0.62,3.72,0.34
							c-0.37,3.17-5.59,0.69-8.39,3.11c1.35,1.34,5.29-2.29,3.88,1.14c2.02-4.36,4.94,0.55,8.34-2.78l-0.22,1.9
							c0.54-0.3,1.65-1.2,2.64-1.15l-1.79,2.46c2.75-2.1,5.3,1.84,7.94,0.69c-5.52,0.06-1.24-2.29-3.58-3.67
							c6.81-2.54,3.92,4.97,11.54,4.05c-1.03,0.27-3.88-1.14-2.26-2.02c1.45,0.39,3.37,1.12,4.26,2.12
							c5.05-0.39-0.78-1.95,1.38-3.12c1.72,2.31,2.48-0.94,4.7-1.68l0.02,1.93c5.76,1.24,1.53-4.02,6.71-2.53l-2.19,2.68l2.7-0.69
							l-0.56,2.2c2.94-1.63,3.86-1.21,6.74-0.59c-0.67-1.36,0.38-3.5,2.93-3.56c1.74,1.15-0.97,1.83,2.64,1.56
							c-0.82,1.21-1.71,2.72-3.28,0.95c-0.16,0.63-0.8,1.21-0.97,1.83c1.87,1.32,4.71,0.3,6.02,0.28c-0.5-0.07-1.11-0.18-1.42-0.45
							l5.24-2.67c0.83,0.72,0.17,1.31-0.48,1.88c1.06-0.21,1.8-1.1,3.36-1.26c-0.4,1.57-0.31,3.19-2.52,3.93l4.99-1.74
							c0.33,0.68,2.56,1.87,1.91,2.45c2.77,0.92,6.79-3.04,10.46-1.83c0.19-0.3,0.57-0.6,1.35-0.82c3.45,0.36,6.51,2.28,10.59,0.13
							l2.32,2.81c3.2-0.64-3.14-3.54,2.19-4.6c3.77-0.9,1.41,2.4,2.73,3.18c1.88-1.42,5.14-4.3,8.61-2.01
							C223.92,75.18,223.02,74.77,221.95,74.98z M261.44,73.73c-0.77,0.4-2.29,1.65-2.85,0.52
							C259.46,72.03,260.13,73.09,261.44,73.73z M321.47,69.08c-0.57,0.64-1.45,0.32-2.44-0.41
							C319.75,68.52,320.56,68.59,321.47,69.08z M488.69,55.65c-0.03,0.03-0.06,0.05-0.08,0.09
							C486.9,54.99,487.51,55.29,488.69,55.65z M492.24,56.48c0.36-0.27,0.33-0.54,0.18-0.81c-0.25,0.49-1.04,0.52-1.95,0.38
							C490.72,56.57,491.18,56.92,492.24,56.48z M111.61,57.24l0.69,0.51C110.75,58.31,111.18,57.8,111.61,57.24z"/>
						<path class="st0" d="M314.66,71.72c-0.22-0.33-0.28-0.69-0.33-1.05C314.03,71,314.03,71.37,314.66,71.72z"/>
						<path class="st0" d="M197.39,75.99c-0.04-0.02-0.08-0.01-0.12-0.02c-0.07,0.12-0.1,0.23-0.12,0.35L197.39,75.99z"/>
						<path class="st0" d="M437.33,72.85c-0.73-0.28-1.14-0.63-1.41-1C435.89,72.32,436.22,72.72,437.33,72.85z"/>
						<path class="st0" d="M511.02,53.21l-2.27,0.5c1.1-0.1,1.49,0.33,2.04,0.63C510.74,53.89,510.31,53.24,511.02,53.21z"/>
						<path class="st0" d="M530.72,65.15c0.33-0.24,0.7-0.03,1.03-0.27l-0.09-0.9C530.25,64.04,529.26,64.77,530.72,65.15z"/>
						<path class="st0" d="M513.12,59.62c0.18,1.62,1.6,1.07,3.19,0.77c-0.1,0.01-0.19,0.02-0.28,0
							C516.5,58.12,514.81,58.87,513.12,59.62z"/>
						<path class="st0" d="M516.68,60.33c0.49-0.08,0.99-0.12,1.47-0.04C518.34,59.38,517.56,60.1,516.68,60.33z"/>
						<path class="st0" d="M496.73,55.41c0.75,0.42,0.47-2.08,0.9-1.41C498.47,51.93,492.6,56.49,496.73,55.41z"/>
						<polygon class="st0" points="514.41,64.97 513.84,62.96 512.95,64.58 						"/>
						<path class="st0" d="M501.85,63.49l2.54,0.55c-0.04-0.34,0.28-0.53,0.68-0.68C503.51,63.3,501.79,62.9,501.85,63.49z"/>
						<path class="st0" d="M505.07,63.37c0.82,0.04,1.59,0,2.05-0.33C506.68,63.06,505.73,63.12,505.07,63.37z"/>
						<polygon class="st0" points="510.93,65.57 510.18,65.15 508.39,65 						"/>
						<path class="st0" d="M474.53,63.11l-2.77,0.57c-0.28,0.69,0.47,1.11,1.51,0.83C473.93,64.04,474.96,63.77,474.53,63.11z"/>
						<path class="st0" d="M482.92,68.6c-0.75-0.42-0.8-0.86-1.22-1.52l-0.08,2.48L482.92,68.6z"/>
						<path class="st0" d="M474.83,69.18c-0.28,0.69-4.02,1.98-0.51,1.82C474.6,70.32,477.38,69.74,474.83,69.18z"/>
						<polygon class="st0" points="433.05,66.03 433.75,66 433.65,61.93 						"/>
						<path class="st0" d="M396.21,75.78c3.29,0.98,0.78-2.51,3.75-1.3c0.77-0.96-2.43-0.99-1.64-1.83
							C396.34,73.67,395.3,73.1,396.21,75.78z"/>
						<path class="st0" d="M398.33,72.66c0.32-0.16,0.65-0.36,1.01-0.62C398.77,72.29,398.5,72.49,398.33,72.66z"/>
						<polygon class="st0" points="-17.41,55.18 -19.53,54.33 -18.16,55.7 						"/>
						<path class="st0" d="M-21.47,58.2l-0.5-2.6l-1.27,2.35C-22.76,57.84-21.83,57.61-21.47,58.2z"/>
						<path class="st0" d="M267.31,78.96l0.16-0.63c-0.33-0.68-0.82-0.73-1.81-0.83L267.31,78.96z"/>
						<polygon class="st0" points="238.65,77.02 239.14,77.07 238.22,74.72 						"/>
						<path class="st0" d="M214.59,80.01c0.98,0.1,2.14-0.43,3.12-0.33C215.57,80.11,214.33,77.08,214.59,80.01z"/>
					</g>
				</g>
			</g>
		</g>
	</g>
	<g>
		<g>
			<g>
				<g>
					<g>
						<path class="st0" d="M1022.93,55.24c0.88,0.15,0.56-1.53,0.7-1.83C1022.15,53.78,1022.96,55.67,1022.93,55.24z"/>
						<polygon class="st0" points="1008.42,59.04 1008.68,58.36 1006.54,60.03 						"/>
						<path class="st0" d="M994.86,59.01c1.28,2.86,4.91-0.46,7.33,0.55l0.4,0.65l1.09-2.3C1000.75,58.28,996.93,59.81,994.86,59.01
							z"/>
						<path class="st0" d="M987.63,52.83c0.45,1.11-1.56,0.96,1.69,0.35c-0.16-0.12-0.21-0.19-0.31-0.28
							C988.72,52.92,988.32,52.91,987.63,52.83z"/>
						<path class="st0" d="M989.01,52.9C990.44,52.82,988.08,51.97,989.01,52.9L989.01,52.9z"/>
						<path class="st0" d="M982.42,53.54l1.88-0.99c-0.39-0.66-2.07-0.8-1.45-1.28C980.93,51.81,981.32,52.46,982.42,53.54z"/>
						<path class="st0" d="M980.64,55.62l0.97-0.42C981.44,54.93,981.18,54.83,980.64,55.62z"/>
						<path class="st0" d="M983.68,54.32l-2.07,0.89c0.27,0.46,0.3,1.39,0.95-0.32C982.39,55.73,982.8,54.91,983.68,54.32z"/>
						<path class="st0" d="M984.85,54.75c1.06,0.62,2.42,1.01,0.53,2C988.98,56.36,988.45,54.35,984.85,54.75z"/>
						<path class="st0" d="M994.17,61.96l1.41,0.84l1.22-0.96C996.19,62.32,994.08,61.07,994.17,61.96z"/>
						<path class="st0" d="M970.7,52.06c-0.12,0.61,0.63,1.62,0.77,2.4l1.39-0.7C972.15,53.34,970.8,52.96,970.7,52.06z"/>
						<path class="st0" d="M971.47,54.46l-2.08,1.04C971.25,55.62,971.59,55.13,971.47,54.46z"/>
						<polygon class="st0" points="980.3,58.79 983.72,56.6 979.64,58.82 						"/>
						<polygon class="st0" points="962.76,51.98 963.94,50.58 961.84,52.7 						"/>
						<path class="st0" d="M957.5,52.23c0.87-1.16-1.2-1.97-0.27-2.69c-1.43,0.21-2.65,1.21-3.75,2.11
							C954.64,51.15,955.88,51.28,957.5,52.23z"/>
						<path class="st0" d="M951.62,52.96c0.58-0.28,1.19-0.78,1.85-1.31C952.85,51.92,952.24,52.31,951.62,52.96z"/>
						<path class="st0" d="M965.85,55.2c-0.16-0.37-0.47-1.33-1.64-1.73l0.82,1.71C965.29,55.18,965.57,55.19,965.85,55.2z"/>
						<path class="st0" d="M965.06,55.23l-0.03-0.05c-0.89-0.04-1.5-0.08-1.77-0.1C963.5,55.09,964.04,55.14,965.06,55.23z"/>
						<path class="st0" d="M966.06,55.21c-0.08,0-0.13-0.01-0.21-0.01C965.93,55.37,965.98,55.42,966.06,55.21z"/>
						<path class="st0" d="M974.85,57.24c-1.22,0.96-3.77,1.98-1.3,3.44C974.42,59.51,973.01,58.68,974.85,57.24z"/>
						<path class="st0" d="M967.08,57.34l2.21,0.39c-0.04-0.45-0.44-1.11,0.16-1.58L967.08,57.34z"/>
						<polygon class="st0" points="965.99,57.89 967.08,57.34 966.26,57.2 						"/>
						<path class="st0" d="M955.41,54.56c-0.95,0.74-2,0.81-3.18,0.93c1.26,0.34,2.57,0.52,3.81,0.51
							C956.21,55.46,956.76,54.5,955.41,54.56z"/>
						<path class="st0" d="M960.1,55.03c-0.07,0.04-0.15,0.06-0.21,0.1C960.02,55.28,960.12,55.32,960.1,55.03z"/>
						<path class="st0" d="M940.63,55.47c0.06,0.09,0.12,0.21,0.19,0.31c0.01-0.1,0.02-0.2,0.04-0.3L940.63,55.47z"/>
						<path class="st0" d="M956.25,56.32c0.95,0.33,1.52-0.09,2.06-0.62c-0.71,0.17-1.46,0.28-2.27,0.3
							C955.96,56.24,955.95,56.4,956.25,56.32z"/>
						<path class="st0" d="M948.39,53.76c0.49,0.36,1.06,0.66,1.64,0.94C949.55,54.16,948.56,53.31,948.39,53.76z"/>
						<path class="st0" d="M959.57,54.66c0.05-0.03,0.09-0.06,0.14-0.08C959.4,54.22,959.44,54.4,959.57,54.66z"/>
						<path class="st0" d="M959.57,54.66c-0.49,0.25-0.87,0.67-1.26,1.04c0.58-0.13,1.11-0.32,1.58-0.57
							C959.77,55.01,959.65,54.83,959.57,54.66z"/>
						<path class="st0" d="M937.11,66.45c0.17-1.58,2.66-3.05,4.82-1.35c2.12-1.19,0.73-6.4-1.12-9.31
							c-0.07,0.69-0.07,1.33-2.25,2.27c0.76,0.87,4.84,2.02,3,3.46c-2.89,0.82-2.37-0.56-3.77-1.4c1.19,1.97-3.68,2.87-3.05,5.78
							l2.53-1.02C937.33,65.31,936.41,66.03,937.11,66.45z"/>
						<path class="st0" d="M944.97,55.95l0.9-0.2c-1.02-0.28-1.76-0.91-3.11-2.15c-1.49,0.77-1.8,1.36-1.91,1.89l4.42,0.22
							L944.97,55.95z"/>
						<path class="st0" d="M949.9,55.74c-0.7,1.72-2.86,2.46-1.54,4.32c2.64-0.12,1.85-1.44,3.42-2.19
							c-4.25,0.43,1.22-0.96-1.85-1.94c0.84-0.29,1.59-0.38,2.3-0.46c-0.77-0.21-1.5-0.47-2.2-0.79c0.04,0.04,0.07,0.07,0.1,0.11
							l0.02-0.01c0,0.01,0,0.02,0,0.03c0.18,0.21,0.24,0.35,0.04,0.22c-0.01,0.02-0.07,0.03-0.09,0.04
							C950.06,55.32,949.98,55.53,949.9,55.74c-1.23-0.37-0.19-0.46,0.19-0.66c0.01-0.08,0.05-0.16,0.05-0.26
							c0-0.01-0.01-0.02-0.02-0.02l-4.26,0.95C946.77,55.99,947.9,55.94,949.9,55.74z"/>
						<path class="st0" d="M971.28,64.39c-0.13-0.15-0.13-0.28-0.14-0.4C970.86,64.2,970.76,64.34,971.28,64.39z"/>
						<path class="st0" d="M969.52,63.35c0.31-0.24,0.57-0.93,1.57-0.75c0.87,0.52,0,0.83,0.04,1.39c0.61-0.46,2.12-1.24,0.22-2.07
							l-0.3,0.23c-1.71-0.59-3.92-2.74-3.62-2.98C967.94,60.72,968.38,61.83,969.52,63.35z"/>
						<path class="st0" d="M959.59,59.98l-3.55,0.85l1.81,1.49l-0.09-0.9C959.77,61.78,959.34,60.67,959.59,59.98z"/>
						<polygon class="st0" points="940.22,54.62 940.69,52.8 938.64,55.37 						"/>
						<polygon class="st0" points="935.61,54.83 935.78,53.25 934.56,54.21 						"/>
						<path class="st0" d="M675.49,74.48l-1.04,0.45C674.94,74.79,675.26,74.64,675.49,74.48z"/>
						<path class="st0" d="M683.04,74.58l0.18-0.78C682.87,74.23,682.73,74.55,683.04,74.58z"/>
						<path class="st0" d="M822.4,55.01c-1.52-1.48-3.21-3.77-3.03-1.99l0.47,1.73C820.9,54.45,821.71,54.64,822.4,55.01z"/>
						<path class="st0" d="M744.87,65.37c0.14,0.17,0.29,0.35,0.44,0.53c0.37-0.59,0.72-1.14,1.03-1.66
							C745.9,64.6,745.4,64.98,744.87,65.37z"/>
						<path class="st0" d="M743.8,72.56l-2-1.12C742.25,71.83,742.89,72.2,743.8,72.56z"/>
						<path class="st0" d="M634.28,76.32l-1.22,1.77C634.97,78.07,634.13,77.18,634.28,76.32z"/>
						<path class="st0" d="M888.4,55.47c-1.31-0.68-2.35-0.96-3.27-1.05C886.71,55.42,887.98,56.92,888.4,55.47z"/>
						<path class="st0" d="M678.46,56.06c-0.64,0.31-0.91,0.67-0.89,1.05C678.23,56.82,678.6,56.48,678.46,56.06z"/>
						<path class="st0" d="M881.35,54.43c0.23,0.17,0.46,0.26,0.69,0.41c0.96-0.29,1.92-0.53,3.09-0.41
							C883.97,53.68,882.63,53.23,881.35,54.43z"/>
						<path class="st0" d="M484.82,74.88c-0.11-0.08-0.24-0.12-0.34-0.21C484.45,74.9,484.6,74.92,484.82,74.88z"/>
						<path class="st0" d="M441.28,57.37c0.43-0.11,1.13-0.11,1.79-0.13C442.74,57.11,442.2,57.13,441.28,57.37z"/>
						<path class="st0" d="M917.06,54.08C918.04,53.96,917.22,53.89,917.06,54.08L917.06,54.08z"/>
						<path class="st0" d="M921.82,60.94c-0.21,0.2-0.37,0.44-0.39,0.84C921.51,61.37,921.64,61.1,921.82,60.94z"/>
						<path class="st0" d="M871.61,65.23c-0.03,0-0.05-0.01-0.08-0.01C871.82,65.57,871.77,65.5,871.61,65.23z"/>
						<path class="st0" d="M918.53,54.87c-0.37-0.21-0.79-0.39-1.25-0.52C917.49,54.48,917.87,54.65,918.53,54.87z"/>
						<path class="st0" d="M918.34,54.05c0.34,0.08,0.6,0.12,0.85,0.17C919.31,53.92,919.21,53.74,918.34,54.05z"/>
						<path class="st0" d="M915.7,54.17c0.56-0.03,1.08,0.05,1.58,0.18c-0.19-0.12-0.27-0.22-0.22-0.27
							C916.78,54.1,916.37,54.14,915.7,54.17z"/>
						<path class="st0" d="M564.9,70.23c-0.06-0.05-0.14-0.09-0.21-0.16C563.71,70.79,564.14,70.67,564.9,70.23z"/>
						<path class="st0" d="M796.96,73.03c0.05-0.02,0.07-0.06,0.11-0.08c-0.05-0.02-0.1-0.04-0.14-0.06L796.96,73.03z"/>
						<path class="st0" d="M793.45,74.33c1.5-2.16,2.35-1.89,3.48-1.44l-1.16-5L793.45,74.33z"/>
						<path class="st0" d="M657.42,74.98l2.47,1.56c-2.98,2.57-5.13,1.68-2.81,3.87c0.35-5.43,9.58-0.56,9.93-5.98l1.63,1.14
							c-0.47-0.05-0.54,0.27-1,0.21c3.16,2.6,2.35-3.93,6.42-3.15c1.42,0.42,2.41,1.21,1.44,1.85l3.16-1.34
							c0.92,0.11,0.7,1.05-0.22,0.95l4.82-0.43l-0.04,0.16c0.69-0.85,2.25-2.17,3.01-2.73c1.23,0.78-0.61,0.58-0.3,1.25l2.67-1.32
							c1.09,1.41-1.13,2.77-2.97,2.57c2.49,5.42,2.22-1.37,7.6,1.8l-2.52,0.69c1.63,3.08,3.59,1.96,6.45,3.89
							c-0.68-1-5.71-4.84-2.81-6.2c0.82,0.41,1.89,0.61,3.46-0.49c0.01,1.93,1.54,1.46,3.45,1.35l-0.13,2.56
							c2.07-0.74,1.9-2.04,3.12-3.19c2.3,0.25,2.78,2.23,3.32,3.9c3.69,0.41-2.55-3.18,1.82-3.66c3.07,0.98,5.22-0.07,8.89-1.6
							c2.15,0.88-0.38,1.56,0.39,2.3l1.9-2.04c0.47,0.05,0.32,0.68,0.24,0.99c1.6-0.79,0.13-2.56,2.65-3.25
							c0.68-2.82,5.17,4.12,8.29,0.92c0.77,0.73-0.37,1.57-0.14,2.56c4.28-2.1,3.67-1.53,7.18-4.35l2.99,1.68
							c-2.2-1.92,0.61-4.2,3.07-6.06c-0.78-0.93-1.45-1.74-1.89-2.13l3.93-1.37c0.47,0.42,0.08,1.3-0.56,2.37
							c0.27-0.21,0.52-0.42,0.72-0.61c1.4,0.95,0.68,2.42-0.33,3.85c-0.48-0.5-0.95-1.04-1.42-1.58c-0.97,1.55-1.88,3.28-1.68,4.77
							c0.26-0.29,0.75-0.55,1.29-0.69c-0.25,0.42-0.42,0.8-0.3,1.05c0.13,0.27,0.54-0.3,1.19-0.95l0.89,2.85l0.22-1.13l5.14,1.79
							c3.68-2.87,6.88-7.1,12.71-8.28c-1.45,2.09-0.31,3.42-0.39,5.89c-1.59-2.62-4.52,1.12-7.55,0.58
							c1.58,0.28,1.23,1.46,0.83,1.87l5.4-2.39c-0.12,2.03,1.15,1.52,2.56,2.36c-1.07-4.01,4.02-2.67,6.22-3.9
							c0.14,1.35-0.39,2.72-3.07,2.39c2.96,3.02,3.82-4.71,6.72-2.14c-0.65,0.03-1.01-0.17-1.26,0.51c1.53-1.2,5.26-0.25,4.38,0.92
							l-0.65,0.03c4.34,0.47,13.22,0.03,13.86-3.37c0.04,0.44-0.57,4.1-0.83,4.79l7.75-11.45c-0.68,2.92,1.94,9.88-1.66,11.53
							c1.03,0.42,2.31,0.9,4.49-0.13c-0.71-0.42-1.76-4.22-0.79-4.49c2.65,3.25,1.84,1.74,5.1,4.51c-1.06-0.63,0.12-5.21,1.79-5.06
							c-0.26,0.69,0.14,4.52-0.47,5l4.16-4.5c-1.04,0.81-0.18,3.81,0.75,5.08c-0.43-0.88,3.59,0.08,4.7-0.36l-1.76-1.04
							c4.69,0.68,4.64-6.33,9.29-6.09c-0.56,0.93-1.39,5.72,0.98,6.29c1.09-2.3,4.81-11.08,8.93-12.86l0.79,1.32l3.16-1.5
							c-1.97,3.47-7.49,10.76-10.51,13.6c1.76,1.04,0.49,1.55,3.12,1.43c0.93,1.23-1.43,1.87-2.21,1.95l6.13,0.8
							c-0.27-2.69,4.68-2.7,4.45-4.94l-6.65,2.79c-0.27-2.68,3.85-7.63,8.19-7.16c1.1,1.07-0.83,4.79-0.74,5.68
							c0.56-0.93,4.12-1.77,4.52-1.11l-1.84,1.44c2.42,1.01,3.94-3.56,6.85-1c1,0.17,2.99,3.46,3.17,1.87
							c-1.63-3.07-1.95-12.56-0.86-14.87c0.35,0.21,5.26,2.93,6.41,4.45c1.65,2.41-2.48,5.73-1.07,7.8
							c0.06-0.73,0.97-1.64,1.35-1.93c1.05,0.63-0.44,2.28,1.85,1.94c0.38-2.73,4.65,0.23,1.08-2.3c2.24-0.78,2.38,0.56,5,0.44
							c-0.84-1.76,2.36-6,4.6-6.77c-0.13,0.69,0.37,1.6,0.61,2.01c4.59,0.25,7.05,1.48,11.32,1.51c0.39,0.66,2.46,1.46,1.58,2.63
							c0.61-0.48,1.18-1.41,2.5-1.47c2.55,2.36-2.94,0.37-0.99,3.2c0.17-1.58,3.41-2.19,5.29-3.18c-0.58-2.45-4.34-0.47-6.22,0.52
							c-0.01-3.38,3.27-6.91,7.73-8.47c3.55-0.84,1.54,2.18,2.16,1.7c6.67,0.59,5.68-5.89,11.22-3.46c2.2,2.15,0.1,4.28,0.59,5.83
							c-2.89,0.81-4.44-1.37-6.4-1.28l2.41,1.02c-0.92,0.71-2.85,1.26-3.9,0.63c1.84,1.93,11.27,0.37,16.42,2.15
							c0.91-0.72,2.49-1.47,1.75-2.33l-1.63,0.3c-1.5-1.73,3.06-2.4,1-3.21c2.18-1.22,4.63-3.13,7.71-2.15l0.58,2.45
							c-0.07-0.72-2.01-1.46-2.87-0.71c1.28-1.09,4.72,3.32,6.12,0.11l-2.16-1.7c2.19-1.23,4.9-3.84,7.63-3.06
							c-1.24-2.42-0.63,0.28-2.57-2.56c1.68,3.53-6.97-0.15-4.28,3.56c-1.99-3.29-3.44-1.39-6.04-4.2c0.08,0.81,0.92,1.55-1.37,1.15
							c-0.1,0.24-0.35,0.54-0.5,0.71c-0.07-0.02-0.09-0.04-0.15-0.06c0.05,0.03,0.08,0.07,0.13,0.1c-0.1,0.12-0.11,0.15,0.05,0.03
							c0.54,0.35,0.99,0.78,1.17,1.23c-1.14,1.86-4.77,1.8-6,2.76c-1.36-0.38,0.57-0.93-0.17-1.79l-1.84,1.44
							c-0.18-1.8-3.61-2.98-0.41-4.04l-2.88-0.08c-1.69-1.01-4.03-1.41-5.46-0.65c-1.36-0.39-3.43,1.99-2.25,0.58l-4.51,1.11
							l-0.04-0.45c-4.45-0.23-9.17,2.97-14.26-0.27c-1.5,0.45-3.05,1.01-5.56,0.5l-0.49-1.55c-1.93,0.54-5.78-1.55-6.61,0.06
							c-2.08-4.18-9.35-0.91-12.73-1.65l-0.13,2.03c-2.33-0.12-4.57,0.46-7.46,1.28l0.18,1.79c-2.49,1.47-6.41-1.28-10.36-1.09
							c0.27-0.69,1.27-0.51,1.98-0.09c-4.71-4.05-9.95,2.95-14.22,0c-1.07,0.65-1.84,0.43-2.58-0.02c0.1,0,0.19-0.04,0.26-0.09
							c-0.11-0.02-0.27-0.03-0.44-0.02c-0.47-0.31-0.95-0.67-1.48-0.95c0.45,0.44,0.87,0.79,1.24,0.96
							c-0.82,0.04-2.07,0.26-3.29,0.71l-0.52-1.93c-0.1,0.03-0.18,0.02-0.28,0.05c-1.2-0.71-0.96,0.91-0.32,2.36
							c-0.61,0.32-1.18,0.7-1.62,1.16c-0.97-3.11-3.2,1.05-4.53-2.27c-0.82,1.62-6.14,1.22-6.79,4.62c-0.04-0.44-0.4-0.65,0.26-0.68
							c-1.36-0.39-2.72-0.78-3.94,0.18l-0.58-2.45l-2.97,3.29c-1.81-1.49-2.56-2.36-0.76-4.24c-4.33,2.9-3.51,1.09-7.2,3.96
							l0.18-1.58c-1.32,0.06-3.42,2.18-4.22,0.87c-2.95-3.01-14.57-0.42-22.13-3.21c1.47,4.66-3.51-2.09-3.81,1.52
							c-0.44-1.1-1.49-1.72-0.27-2.68c-3.86,1.08-5.8-1.75-8.46,1.3c-0.44-1.11,0.83-1.62,0.43-2.27c-0.31,0.24-1.23,0.96-1.63,0.3
							c-0.39-0.66,0.56-0.93,1.18-1.41c-3.94,0.19-4.34,3.58-4.63,6.77c-2-1.51-2.99-1.3-4.44,0.79c-0.7-1.04-1.86-2.13,0.59-2.51
							c-1.38-0.15-8.42-1.53-8.56,1.03c-0.43-0.65-1.93-0.19-2.29,0.11c-3.09-0.15-3.36-0.38-6.4-0.14l0.84,0.42
							c-1.2,3.08-2.52,0.69-4.97,1.06l0.07-0.32c-5.61-2.22-2.42,1.07-7.96-1.47l0.3,1.92c-0.52,4.13-4.9-2.43-8.12-0.86l1.16,1.1
							c-1.75,1.41-4.9-5.61-6.67-6.13c-0.38-0.36,0.61-0.58,1.14-0.84c-4.61-2.43-0.6,2.51-4.04,3.1c-0.63-1.36,0.82-3.45-1.5-3.7
							c-1.15-1.1-6.71,4.4-9.87,1.8c0.7,1.04,1.39,2.09-0.21,2.87c-2.45,0.37-6.62-3.95-8.83-0.66c-0.31-0.29-0.43-0.56-0.44-0.82
							c-1.87,0.85-6.08,1.41-7.21,3.2c-1.73-6.63-11.63,3.22-11.59-2.89l-5.76,0.33l0.15-0.62c-3.68-0.4-4.98,1.06-6.27,2.53
							c-0.85-0.42-0.23-0.99-0.16-1.31c-5.38-1.23-5.91-0.97-10.42,2.07l-0.47-1.98c-1.22,1.15-7.77-3.11-13.04-0.8
							c0.05-0.22,0.16-0.61,0.58-0.89c-5.93,2.33-14.2-5.5-16.37,1.72l-3.91,1.78c5.06,0.56-0.75,3.13,1.33,4.33
							c-1.99,0.42-5.15-2.18-2.7-2.55l0.38,0.36c0.9-3.76-6.29-1.33-6.16-3.9c-9.96,0.19-19.68-1.9-29.01-2.06l1.08,2.93l-3.26-0.17
							c-0.85-0.68-1.15-2.29,1.18-2.17c-1.22-1.66-3.9,1.39-3.96,2.03c-4.55-1.19,1.78-3.41,0.38-3.48l-1.89,0.22l0.43,0.34
							c-1.54,1.2-1.67,2.46-4.46,2.32c-1.77-0.59-0.91-1.8-1.6-1.92c0-0.21-0.23-0.3-1.07-0.08l-4.1-0.25l1.64,2.31
							c-1.82,1.14-3.86-0.12-1.96,2.5c-2.78-4.04-15.3-1.45-17.01-2.7c-2.55,1.68-5.06,1.65-8.17,1.45
							c0.77,0.48,1.24,3.08-1.45,2.76c0.98-5.36-4.92-2.33-7.09-6.18c1.94,2.56-7.64,0.63-4.59,4.26c-2.24-0.43-0.14-2.01-1.84-3.27
							c-5.33,2.08-11.75-1.35-18.35-0.65c-0.1,0.7,1,1.78-0.41,2.83l-3.48-3.52c-1.3,0.35-1.2,4.06-3.58,1.62
							c0.34,0.59,0.84,1.48-0.04,1.71c-12.92-3.43-26.39,2.81-39.51-3.63c1.78,1.36,0.59,1.5-0.76,1.55
							c0.88,0.33-0.02,1.74,0.15,2.69l-5.49-2.65c-1,2.65-5.89,0.18-6.46,2.71l1.74-0.45c-2.31,2.99,3.24,6.64,2.9,10.47
							c2.59-3.39,6.83,5.03,11.08,0.17c0.94,0.78-0.8,1.23-0.3,2.12c1.08-1.64,2.38-1.98,4.79-1.25l-0.27,0.41
							c6.77-0.4,9.67,1.22,17.28,2.3l-0.56-1.89c1.63,0.25,1.98,0.85,2.74,1.32c1.88-2.87-4.59-0.16-2.88-3.33
							c2.17,3.86,11.53,0.06,12.99,4.44c2.51,0.02-0.74-2.19,1.78-2.17l0.67,1.19l0.64-1.53c1.65,0.25,2.48,1.73,2.54,2.74
							c-0.4-0.12-1.14,0.28-1.57,0.37c2.14,1.4,6.03-0.48,6.76-0.02l-2.42-0.73c6.86-1.11,15.24,0.45,21.87-1.96l-0.5-0.89
							c5.06-1.65,4.06,0.98,9.61,0.22l-0.2,0.21c1.11-0.89,2.6-1.34,4.12-1.24c-1.4,1.05,2.64,2.04,0.8,3.19
							c5.49-1.78,2.72-1.39,6.34-4.72l0.84,1.48c1.24-1.34,1.34-2.05,4.11-2.43c-2.28,1.27,1.77,2.26-0.78,3.94
							c5.83,3.24,8.65-3.28,11.32,1.47c2.67-4.11-5.04-2.28-3.54-3.16c-1.25-1.34,2.21-3.07,4.04-2.66
							c1.86,0.09,3.16,5.25,7.85,5.17c-0.47-0.02-0.5,0.29-0.96,0.27c1.75,1.05,3.43-1.42,5.58,0.28c1.2-2.48,2.79,0.14,3.14-3.02
							l-4.29,0.73c2.43-0.83,4.72-4.53,8.73-2.74c-0.31,0.64-1.51,1.48-2.33,1.95c1.17,0.93,2.26-0.62,3.47,0.34
							c-0.35,3.17-5.22,0.69-7.83,3.11c1.26,1.34,4.93-2.29,3.62,1.14c1.88-4.36,4.61,0.55,7.78-2.78l-0.21,1.9
							c0.5-0.3,1.54-1.2,2.46-1.15l-1.67,2.46c2.57-2.1,4.95,1.84,7.41,0.69c-5.15,0.06-1.16-2.29-3.34-3.67
							c6.36-2.54,3.66,4.97,10.77,4.05c-0.96,0.27-3.62-1.14-2.11-2.02c1.35,0.39,3.14,1.12,3.98,2.12
							c4.72-0.39-0.72-1.95,1.28-3.12c1.61,2.31,2.32-0.94,4.38-1.68l0.01,1.93c5.37,1.24,1.42-4.02,6.26-2.53l-2.04,2.68l2.52-0.69
							l-0.52,2.2c2.74-1.63,3.6-1.21,6.29-0.59c-0.62-1.36,0.35-3.5,2.73-3.56c1.62,1.15-0.91,1.83,2.46,1.56
							c-0.76,1.21-1.6,2.72-3.06,0.95c-0.15,0.63-0.75,1.21-0.91,1.83c1.75,1.32,4.39,0.3,5.61,0.28c-0.47-0.07-1.03-0.18-1.32-0.45
							l4.89-2.67c0.77,0.72,0.16,1.31-0.45,1.88c0.99-0.21,1.68-1.1,3.13-1.26c-0.38,1.57-0.29,3.19-2.35,3.93l4.66-1.74
							c0.31,0.68,2.39,1.87,1.79,2.45c2.58,0.92,6.34-3.04,9.76-1.83c0.18-0.3,0.53-0.6,1.26-0.82c3.22,0.36,6.07,2.28,9.89,0.13
							l2.16,2.81c2.99-0.64-2.93-3.54,2.04-4.6c3.52-0.9,1.31,2.4,2.55,3.18c1.75-1.42,4.8-4.3,8.03-2.01
							C659.26,75.18,658.42,74.77,657.42,74.98z M694.28,73.73c-0.71,0.4-2.14,1.65-2.66,0.52
							C692.43,72.03,693.06,73.09,694.28,73.73z M750.29,69.08c-0.53,0.64-1.35,0.32-2.28-0.41
							C748.69,68.52,749.45,68.59,750.29,69.08z M906.35,55.65c-0.03,0.03-0.05,0.05-0.08,0.09
							C904.68,54.99,905.24,55.29,906.35,55.65z M909.66,56.48c0.33-0.27,0.31-0.54,0.17-0.81c-0.23,0.49-0.97,0.52-1.82,0.38
							C908.24,56.57,908.67,56.92,909.66,56.48z M554.46,57.24l0.64,0.51C553.65,58.31,554.06,57.8,554.46,57.24z"/>
						<path class="st0" d="M743.94,71.72c-0.2-0.33-0.26-0.69-0.31-1.05C743.36,71,743.35,71.37,743.94,71.72z"/>
						<path class="st0" d="M634.51,75.99c-0.04-0.02-0.07-0.01-0.11-0.02c-0.06,0.12-0.09,0.23-0.11,0.35L634.51,75.99z"/>
						<path class="st0" d="M858.42,72.85c-0.68-0.28-1.06-0.63-1.31-1C857.07,72.32,857.38,72.72,858.42,72.85z"/>
						<path class="st0" d="M927.18,53.21l-2.12,0.5c1.02-0.1,1.39,0.33,1.91,0.63C926.93,53.89,926.52,53.24,927.18,53.21z"/>
						<path class="st0" d="M945.57,65.15c0.31-0.24,0.66-0.03,0.96-0.27l-0.08-0.9C945.13,64.04,944.21,64.77,945.57,65.15z"/>
						<path class="st0" d="M929.14,59.62c0.17,1.62,1.5,1.07,2.98,0.77c-0.09,0.01-0.17,0.02-0.26,0
							C932.3,58.12,930.72,58.87,929.14,59.62z"/>
						<path class="st0" d="M932.47,60.33c0.46-0.08,0.92-0.12,1.37-0.04C934.02,59.38,933.29,60.1,932.47,60.33z"/>
						<path class="st0" d="M913.85,55.41c0.7,0.42,0.44-2.08,0.84-1.41C915.48,51.93,910,56.49,913.85,55.41z"/>
						<polygon class="st0" points="930.35,64.97 929.81,62.96 928.98,64.58 						"/>
						<path class="st0" d="M918.63,63.49l2.37,0.55c-0.04-0.34,0.27-0.53,0.64-0.68C920.17,63.3,918.57,62.9,918.63,63.49z"/>
						<path class="st0" d="M921.63,63.37c0.76,0.04,1.49,0,1.91-0.33C923.13,63.06,922.25,63.12,921.63,63.37z"/>
						<polygon class="st0" points="927.1,65.57 926.4,65.15 924.73,65 						"/>
						<path class="st0" d="M893.14,63.11l-2.59,0.57c-0.26,0.69,0.44,1.11,1.41,0.83C892.57,64.04,893.53,63.77,893.14,63.11z"/>
						<path class="st0" d="M900.96,68.6c-0.7-0.42-0.75-0.86-1.14-1.52l-0.08,2.48L900.96,68.6z"/>
						<path class="st0" d="M893.42,69.18c-0.26,0.69-3.76,1.98-0.48,1.82C893.2,70.32,895.79,69.74,893.42,69.18z"/>
						<polygon class="st0" points="854.42,66.03 855.08,66 854.98,61.93 						"/>
						<path class="st0" d="M820.05,75.78c3.07,0.98,0.73-2.51,3.5-1.3c0.72-0.96-2.27-0.99-1.53-1.83
							C820.17,73.67,819.2,73.1,820.05,75.78z"/>
						<path class="st0" d="M822.02,72.66c0.3-0.16,0.61-0.36,0.94-0.62C822.43,72.29,822.18,72.49,822.02,72.66z"/>
						<polygon class="st0" points="434.05,55.18 432.08,54.33 433.35,55.7 						"/>
						<path class="st0" d="M430.27,58.2l-0.46-2.6l-1.18,2.35C429.06,57.84,429.93,57.61,430.27,58.2z"/>
						<path class="st0" d="M699.75,78.96l0.15-0.63c-0.31-0.68-0.77-0.73-1.69-0.83L699.75,78.96z"/>
						<polygon class="st0" points="673.01,77.02 673.47,77.07 672.61,74.72 						"/>
						<path class="st0" d="M650.56,80.01c0.92,0.1,1.99-0.43,2.91-0.33C651.48,80.11,650.31,77.08,650.56,80.01z"/>
					</g>
				</g>
			</g>
		</g>
	</g>
	<g>
		<g>
			<g>
				<g>
					<g>
						<path class="st0" d="M1431.18,55.24c0.88,0.15,0.56-1.53,0.7-1.83C1430.41,53.78,1431.22,55.67,1431.18,55.24z"/>
						<polygon class="st0" points="1416.68,59.04 1416.94,58.36 1414.8,60.03 						"/>
						<path class="st0" d="M1403.12,59.01c1.28,2.86,4.91-0.46,7.33,0.55l0.4,0.65l1.09-2.3C1409,58.28,1405.19,59.81,1403.12,59.01
							z"/>
						<path class="st0" d="M1395.89,52.83c0.45,1.11-1.56,0.96,1.69,0.35c-0.16-0.12-0.21-0.19-0.31-0.28
							C1396.98,52.92,1396.57,52.91,1395.89,52.83z"/>
						<path class="st0" d="M1397.27,52.9C1398.7,52.82,1396.34,51.97,1397.27,52.9L1397.27,52.9z"/>
						<path class="st0" d="M1390.67,53.54l1.88-0.99c-0.39-0.66-2.07-0.8-1.45-1.28C1389.18,51.81,1389.58,52.46,1390.67,53.54z"/>
						<path class="st0" d="M1388.89,55.62l0.97-0.42C1389.7,54.93,1389.44,54.83,1388.89,55.62z"/>
						<path class="st0" d="M1391.93,54.32l-2.07,0.89c0.27,0.46,0.3,1.39,0.95-0.32C1390.65,55.73,1391.05,54.91,1391.93,54.32z"/>
						<path class="st0" d="M1393.1,54.75c1.06,0.62,2.42,1.01,0.53,2C1397.23,56.36,1396.7,54.35,1393.1,54.75z"/>
						<path class="st0" d="M1402.43,61.96l1.41,0.84l1.22-0.96C1404.45,62.32,1402.34,61.07,1402.43,61.96z"/>
						<path class="st0" d="M1378.96,52.06c-0.12,0.61,0.63,1.62,0.77,2.4l1.39-0.7C1380.4,53.34,1379.05,52.96,1378.96,52.06z"/>
						<path class="st0" d="M1379.73,54.46l-2.08,1.04C1379.51,55.62,1379.85,55.13,1379.73,54.46z"/>
						<polygon class="st0" points="1388.56,58.79 1391.97,56.6 1387.9,58.82 						"/>
						<polygon class="st0" points="1371.02,51.98 1372.2,50.58 1370.1,52.7 						"/>
						<path class="st0" d="M1365.75,52.23c0.87-1.16-1.2-1.97-0.27-2.69c-1.43,0.21-2.65,1.21-3.75,2.11
							C1362.89,51.15,1364.14,51.28,1365.75,52.23z"/>
						<path class="st0" d="M1359.88,52.96c0.58-0.28,1.19-0.78,1.85-1.31C1361.1,51.92,1360.49,52.31,1359.88,52.96z"/>
						<path class="st0" d="M1374.11,55.2c-0.16-0.37-0.47-1.33-1.64-1.73l0.82,1.71C1373.54,55.18,1373.82,55.19,1374.11,55.2z"/>
						<path class="st0" d="M1373.32,55.23l-0.03-0.05c-0.89-0.04-1.5-0.08-1.77-0.1C1371.75,55.09,1372.29,55.14,1373.32,55.23z"/>
						<path class="st0" d="M1374.32,55.21c-0.08,0-0.13-0.01-0.21-0.01C1374.19,55.37,1374.24,55.42,1374.32,55.21z"/>
						<path class="st0" d="M1383.11,57.24c-1.22,0.96-3.77,1.98-1.3,3.44C1382.68,59.51,1381.27,58.68,1383.11,57.24z"/>
						<path class="st0" d="M1375.33,57.34l2.21,0.39c-0.04-0.45-0.44-1.11,0.16-1.58L1375.33,57.34z"/>
						<polygon class="st0" points="1374.25,57.89 1375.33,57.34 1374.51,57.2 						"/>
						<path class="st0" d="M1363.66,54.56c-0.95,0.74-2,0.81-3.18,0.93c1.26,0.34,2.57,0.52,3.81,0.51
							C1364.47,55.46,1365.01,54.5,1363.66,54.56z"/>
						<path class="st0" d="M1368.35,55.03c-0.07,0.04-0.15,0.06-0.21,0.1C1368.27,55.28,1368.38,55.32,1368.35,55.03z"/>
						<path class="st0" d="M1348.88,55.47c0.06,0.09,0.12,0.21,0.19,0.31c0.01-0.1,0.02-0.2,0.04-0.3L1348.88,55.47z"/>
						<path class="st0" d="M1364.51,56.32c0.95,0.33,1.52-0.09,2.06-0.62c-0.71,0.17-1.46,0.28-2.27,0.3
							C1364.22,56.24,1364.2,56.4,1364.51,56.32z"/>
						<path class="st0" d="M1356.64,53.76c0.49,0.36,1.06,0.66,1.64,0.94C1357.8,54.16,1356.82,53.31,1356.64,53.76z"/>
						<path class="st0" d="M1367.82,54.66c0.05-0.03,0.09-0.06,0.14-0.08C1367.65,54.22,1367.69,54.4,1367.82,54.66z"/>
						<path class="st0" d="M1367.82,54.66c-0.49,0.25-0.87,0.67-1.26,1.04c0.58-0.13,1.11-0.32,1.58-0.57
							C1368.02,55.01,1367.91,54.83,1367.82,54.66z"/>
						<path class="st0" d="M1345.37,66.45c0.17-1.58,2.66-3.05,4.82-1.35c2.12-1.19,0.73-6.4-1.12-9.31
							c-0.07,0.69-0.07,1.33-2.25,2.27c0.76,0.87,4.84,2.02,3,3.46c-2.89,0.82-2.37-0.56-3.77-1.4c1.19,1.97-3.68,2.87-3.05,5.78
							l2.53-1.02C1345.58,65.31,1344.66,66.03,1345.37,66.45z"/>
						<path class="st0" d="M1353.23,55.95l0.9-0.2c-1.02-0.28-1.76-0.91-3.11-2.15c-1.49,0.77-1.8,1.36-1.91,1.89l4.42,0.22
							L1353.23,55.95z"/>
						<path class="st0" d="M1358.15,55.74c-0.7,1.72-2.86,2.46-1.54,4.32c2.64-0.12,1.85-1.44,3.42-2.19
							c-4.25,0.43,1.22-0.96-1.85-1.94c0.84-0.29,1.59-0.38,2.3-0.46c-0.77-0.21-1.5-0.47-2.2-0.79c0.04,0.04,0.07,0.07,0.1,0.11
							l0.02-0.01c0,0.01,0,0.02,0,0.03c0.18,0.21,0.24,0.35,0.04,0.22c-0.01,0.02-0.07,0.03-0.09,0.04
							C1358.32,55.32,1358.24,55.53,1358.15,55.74c-1.23-0.37-0.19-0.46,0.19-0.66c0.01-0.08,0.05-0.16,0.05-0.26
							c0-0.01-0.01-0.02-0.02-0.02l-4.26,0.95C1355.02,55.99,1356.15,55.94,1358.15,55.74z"/>
						<path class="st0" d="M1379.53,64.39c-0.13-0.15-0.13-0.28-0.14-0.4C1379.12,64.2,1379.01,64.34,1379.53,64.39z"/>
						<path class="st0" d="M1377.78,63.35c0.31-0.24,0.57-0.93,1.57-0.75c0.87,0.52,0,0.83,0.04,1.39c0.61-0.46,2.12-1.24,0.22-2.07
							l-0.3,0.23c-1.71-0.59-3.92-2.74-3.62-2.98C1376.2,60.72,1376.64,61.83,1377.78,63.35z"/>
						<path class="st0" d="M1367.84,59.98l-3.55,0.85l1.81,1.49l-0.09-0.9C1368.03,61.78,1367.59,60.67,1367.84,59.98z"/>
						<polygon class="st0" points="1348.48,54.62 1348.95,52.8 1346.9,55.37 						"/>
						<polygon class="st0" points="1343.87,54.83 1344.04,53.25 1342.82,54.21 						"/>
						<path class="st0" d="M1083.75,74.48l-1.04,0.45C1083.2,74.79,1083.52,74.64,1083.75,74.48z"/>
						<path class="st0" d="M1091.29,74.58l0.18-0.78C1091.13,74.23,1090.99,74.55,1091.29,74.58z"/>
						<path class="st0" d="M1230.66,55.01c-1.52-1.48-3.21-3.77-3.03-1.99l0.47,1.73C1229.15,54.45,1229.97,54.64,1230.66,55.01z"/>
						<path class="st0" d="M1153.13,65.37c0.14,0.17,0.29,0.35,0.44,0.53c0.37-0.59,0.72-1.14,1.03-1.66
							C1154.15,64.6,1153.65,64.98,1153.13,65.37z"/>
						<path class="st0" d="M1152.05,72.56l-2-1.12C1150.5,71.83,1151.15,72.2,1152.05,72.56z"/>
						<path class="st0" d="M1042.54,76.32l-1.22,1.77C1043.22,78.07,1042.39,77.18,1042.54,76.32z"/>
						<path class="st0" d="M1296.66,55.47c-1.31-0.68-2.35-0.96-3.27-1.05C1294.97,55.42,1296.24,56.92,1296.66,55.47z"/>
						<path class="st0" d="M1086.72,56.06c-0.64,0.31-0.91,0.67-0.89,1.05C1086.48,56.82,1086.85,56.48,1086.72,56.06z"/>
						<path class="st0" d="M1289.6,54.43c0.23,0.17,0.46,0.26,0.69,0.41c0.96-0.29,1.92-0.53,3.09-0.41
							C1292.22,53.68,1290.89,53.23,1289.6,54.43z"/>
						<path class="st0" d="M893.07,74.88c-0.11-0.08-0.24-0.12-0.34-0.21C892.7,74.9,892.85,74.92,893.07,74.88z"/>
						<path class="st0" d="M849.53,57.37c0.43-0.11,1.13-0.11,1.79-0.13C851,57.11,850.46,57.13,849.53,57.37z"/>
						<path class="st0" d="M1325.32,54.08C1326.3,53.96,1325.47,53.89,1325.32,54.08L1325.32,54.08z"/>
						<path class="st0" d="M1330.07,60.94c-0.21,0.2-0.37,0.44-0.39,0.84C1329.76,61.37,1329.9,61.1,1330.07,60.94z"/>
						<path class="st0" d="M1279.87,65.23c-0.03,0-0.05-0.01-0.08-0.01C1280.07,65.57,1280.02,65.5,1279.87,65.23z"/>
						<path class="st0" d="M1326.79,54.87c-0.37-0.21-0.79-0.39-1.25-0.52C1325.74,54.48,1326.12,54.65,1326.79,54.87z"/>
						<path class="st0" d="M1326.59,54.05c0.34,0.08,0.6,0.12,0.85,0.17C1327.57,53.92,1327.46,53.74,1326.59,54.05z"/>
						<path class="st0" d="M1323.96,54.17c0.56-0.03,1.08,0.05,1.58,0.18c-0.19-0.12-0.27-0.22-0.22-0.27
							C1325.03,54.1,1324.63,54.14,1323.96,54.17z"/>
						<path class="st0" d="M973.16,70.23c-0.06-0.05-0.14-0.09-0.21-0.16C971.96,70.79,972.39,70.67,973.16,70.23z"/>
						<path class="st0" d="M1205.21,73.03c0.05-0.02,0.07-0.06,0.11-0.08c-0.05-0.02-0.1-0.04-0.14-0.06L1205.21,73.03z"/>
						<path class="st0" d="M1201.7,74.33c1.5-2.16,2.35-1.89,3.48-1.44l-1.16-5L1201.7,74.33z"/>
						<path class="st0" d="M1065.68,74.98l2.47,1.56c-2.98,2.57-5.13,1.68-2.81,3.87c0.35-5.43,9.58-0.56,9.93-5.98l1.63,1.14
							c-0.47-0.05-0.54,0.27-1,0.21c3.16,2.6,2.35-3.93,6.42-3.15c1.42,0.42,2.41,1.21,1.44,1.85l3.16-1.34
							c0.92,0.11,0.7,1.05-0.22,0.95l4.82-0.43l-0.04,0.16c0.69-0.85,2.25-2.17,3.01-2.73c1.23,0.78-0.61,0.58-0.3,1.25l2.67-1.32
							c1.09,1.41-1.13,2.77-2.97,2.57c2.49,5.42,2.22-1.37,7.6,1.8l-2.52,0.69c1.63,3.08,3.59,1.96,6.45,3.89
							c-0.68-1-5.71-4.84-2.81-6.2c0.82,0.41,1.89,0.61,3.46-0.49c0.01,1.93,1.54,1.46,3.45,1.35l-0.13,2.56
							c2.07-0.74,1.9-2.04,3.12-3.19c2.3,0.25,2.78,2.23,3.32,3.9c3.69,0.41-2.55-3.18,1.82-3.66c3.07,0.98,5.22-0.07,8.89-1.6
							c2.15,0.88-0.38,1.56,0.39,2.3l1.9-2.04c0.47,0.05,0.32,0.68,0.24,0.99c1.6-0.79,0.13-2.56,2.65-3.25
							c0.68-2.82,5.17,4.12,8.29,0.92c0.77,0.73-0.37,1.57-0.14,2.56c4.28-2.1,3.67-1.53,7.18-4.35l2.99,1.68
							c-2.2-1.92,0.61-4.2,3.07-6.06c-0.78-0.93-1.45-1.74-1.89-2.13l3.93-1.37c0.47,0.42,0.08,1.3-0.56,2.37
							c0.27-0.21,0.52-0.42,0.72-0.61c1.4,0.95,0.68,2.42-0.33,3.85c-0.48-0.5-0.95-1.04-1.42-1.58c-0.97,1.55-1.88,3.28-1.68,4.77
							c0.26-0.29,0.75-0.55,1.29-0.69c-0.25,0.42-0.42,0.8-0.3,1.05c0.13,0.27,0.54-0.3,1.19-0.95l0.89,2.85l0.22-1.13l5.14,1.79
							c3.68-2.87,6.88-7.1,12.71-8.28c-1.45,2.09-0.31,3.42-0.39,5.89c-1.59-2.62-4.52,1.12-7.55,0.58
							c1.58,0.28,1.23,1.46,0.83,1.87l5.4-2.39c-0.12,2.03,1.15,1.52,2.56,2.36c-1.07-4.01,4.02-2.67,6.22-3.9
							c0.14,1.35-0.39,2.72-3.07,2.39c2.96,3.02,3.82-4.71,6.72-2.14c-0.65,0.03-1.01-0.17-1.26,0.51c1.53-1.2,5.26-0.25,4.38,0.92
							l-0.65,0.03c4.34,0.47,13.22,0.03,13.86-3.37c0.04,0.44-0.57,4.1-0.83,4.79l7.75-11.45c-0.68,2.92,1.94,9.88-1.66,11.53
							c1.03,0.42,2.31,0.9,4.49-0.13c-0.71-0.42-1.76-4.22-0.79-4.49c2.65,3.25,1.84,1.74,5.1,4.51c-1.06-0.63,0.12-5.21,1.79-5.06
							c-0.26,0.69,0.14,4.52-0.47,5l4.16-4.5c-1.04,0.81-0.18,3.81,0.75,5.08c-0.43-0.88,3.59,0.08,4.7-0.36l-1.76-1.04
							c4.69,0.68,4.64-6.33,9.29-6.09c-0.56,0.93-1.39,5.72,0.98,6.29c1.09-2.3,4.81-11.08,8.93-12.86l0.79,1.32l3.16-1.5
							c-1.97,3.47-7.49,10.76-10.51,13.6c1.76,1.04,0.49,1.55,3.12,1.43c0.93,1.23-1.43,1.87-2.21,1.95l6.13,0.8
							c-0.27-2.69,4.68-2.7,4.45-4.94l-6.65,2.79c-0.27-2.68,3.85-7.63,8.19-7.16c1.1,1.07-0.83,4.79-0.74,5.68
							c0.56-0.93,4.12-1.77,4.52-1.11l-1.84,1.44c2.42,1.01,3.94-3.56,6.85-1c1,0.17,2.99,3.46,3.17,1.87
							c-1.63-3.07-1.95-12.56-0.86-14.87c0.35,0.21,5.26,2.93,6.41,4.45c1.65,2.41-2.48,5.73-1.07,7.8
							c0.06-0.73,0.97-1.64,1.35-1.93c1.05,0.63-0.44,2.28,1.85,1.94c0.38-2.73,4.65,0.23,1.08-2.3c2.24-0.78,2.38,0.56,5,0.44
							c-0.84-1.76,2.36-6,4.6-6.77c-0.13,0.69,0.37,1.6,0.61,2.01c4.59,0.25,7.05,1.48,11.32,1.51c0.39,0.66,2.46,1.46,1.58,2.63
							c0.61-0.48,1.18-1.41,2.5-1.47c2.55,2.36-2.94,0.37-0.99,3.2c0.17-1.58,3.41-2.19,5.29-3.18c-0.58-2.45-4.34-0.47-6.22,0.52
							c-0.01-3.38,3.27-6.91,7.73-8.47c3.55-0.84,1.54,2.18,2.16,1.7c6.67,0.59,5.68-5.89,11.22-3.46c2.2,2.15,0.1,4.28,0.59,5.83
							c-2.89,0.81-4.44-1.37-6.4-1.28l2.41,1.02c-0.92,0.71-2.85,1.26-3.9,0.63c1.84,1.93,11.27,0.37,16.42,2.15
							c0.91-0.72,2.49-1.47,1.75-2.33l-1.63,0.3c-1.5-1.73,3.06-2.4,1-3.21c2.18-1.22,4.63-3.13,7.71-2.15l0.58,2.45
							c-0.07-0.72-2.01-1.46-2.87-0.71c1.28-1.09,4.72,3.32,6.12,0.11l-2.16-1.7c2.19-1.23,4.9-3.84,7.63-3.06
							c-1.24-2.42-0.63,0.28-2.57-2.56c1.68,3.53-6.97-0.15-4.28,3.56c-1.99-3.29-3.44-1.39-6.04-4.2c0.08,0.81,0.92,1.55-1.37,1.15
							c-0.1,0.24-0.35,0.54-0.5,0.71c-0.07-0.02-0.09-0.04-0.15-0.06c0.05,0.03,0.08,0.07,0.13,0.1c-0.1,0.12-0.11,0.15,0.05,0.03
							c0.54,0.35,0.99,0.78,1.17,1.23c-1.14,1.86-4.77,1.8-6,2.76c-1.36-0.38,0.57-0.93-0.17-1.79l-1.84,1.44
							c-0.18-1.8-3.61-2.98-0.41-4.04l-2.88-0.08c-1.69-1.01-4.03-1.41-5.46-0.65c-1.36-0.39-3.43,1.99-2.25,0.58l-4.51,1.11
							l-0.04-0.45c-4.45-0.23-9.17,2.97-14.26-0.27c-1.5,0.45-3.05,1.01-5.56,0.5l-0.49-1.55c-1.93,0.54-5.78-1.55-6.61,0.06
							c-2.08-4.18-9.35-0.91-12.73-1.65l-0.13,2.03c-2.33-0.12-4.57,0.46-7.46,1.28l0.18,1.79c-2.49,1.47-6.41-1.28-10.36-1.09
							c0.27-0.69,1.27-0.51,1.98-0.09c-4.71-4.05-9.95,2.95-14.22,0c-1.07,0.65-1.84,0.43-2.58-0.02c0.1,0,0.19-0.04,0.26-0.09
							c-0.11-0.02-0.27-0.03-0.44-0.02c-0.47-0.31-0.95-0.67-1.48-0.95c0.45,0.44,0.87,0.79,1.24,0.96
							c-0.82,0.04-2.07,0.26-3.29,0.71l-0.52-1.93c-0.1,0.03-0.18,0.02-0.28,0.05c-1.2-0.71-0.96,0.91-0.32,2.36
							c-0.61,0.32-1.18,0.7-1.62,1.16c-0.97-3.11-3.2,1.05-4.53-2.27c-0.82,1.62-6.14,1.22-6.79,4.62c-0.04-0.44-0.4-0.65,0.26-0.68
							c-1.36-0.39-2.72-0.78-3.94,0.18l-0.58-2.45l-2.97,3.29c-1.81-1.49-2.56-2.36-0.76-4.24c-4.33,2.9-3.51,1.09-7.2,3.96
							l0.18-1.58c-1.32,0.06-3.42,2.18-4.22,0.87c-2.95-3.01-14.57-0.42-22.13-3.21c1.47,4.66-3.51-2.09-3.81,1.52
							c-0.44-1.1-1.49-1.72-0.27-2.68c-3.86,1.08-5.8-1.75-8.46,1.3c-0.44-1.11,0.83-1.62,0.43-2.27c-0.31,0.24-1.23,0.96-1.63,0.3
							c-0.39-0.66,0.56-0.93,1.18-1.41c-3.94,0.19-4.34,3.58-4.63,6.77c-2-1.51-2.99-1.3-4.44,0.79c-0.7-1.04-1.86-2.13,0.59-2.51
							c-1.38-0.15-8.42-1.53-8.56,1.03c-0.43-0.65-1.93-0.19-2.29,0.11c-3.09-0.15-3.36-0.38-6.4-0.14l0.84,0.42
							c-1.2,3.08-2.52,0.69-4.97,1.06l0.07-0.32c-5.61-2.22-2.42,1.07-7.96-1.47l0.3,1.92c-0.52,4.13-4.9-2.43-8.12-0.86l1.16,1.1
							c-1.75,1.41-4.9-5.61-6.67-6.13c-0.38-0.36,0.61-0.58,1.14-0.84c-4.61-2.43-0.6,2.51-4.04,3.1c-0.63-1.36,0.82-3.45-1.5-3.7
							c-1.15-1.1-6.71,4.4-9.87,1.8c0.7,1.04,1.39,2.09-0.21,2.87c-2.45,0.37-6.62-3.95-8.83-0.66c-0.31-0.29-0.43-0.56-0.44-0.82
							c-1.87,0.85-6.08,1.41-7.21,3.2c-1.73-6.63-11.63,3.22-11.59-2.89l-5.76,0.33l0.15-0.62c-3.68-0.4-4.98,1.06-6.27,2.53
							c-0.85-0.42-0.23-0.99-0.16-1.31c-5.38-1.23-5.91-0.97-10.42,2.07l-0.47-1.98c-1.22,1.15-7.77-3.11-13.04-0.8
							c0.05-0.22,0.16-0.61,0.58-0.89c-5.93,2.33-14.2-5.5-16.37,1.72l-3.91,1.78c5.06,0.56-0.75,3.13,1.33,4.33
							c-1.99,0.42-5.15-2.18-2.7-2.55l0.38,0.36c0.9-3.76-6.29-1.33-6.16-3.9c-9.96,0.19-19.68-1.9-29.01-2.06l1.08,2.93l-3.26-0.17
							c-0.85-0.68-1.15-2.29,1.18-2.17c-1.22-1.66-3.9,1.39-3.96,2.03c-4.55-1.19,1.78-3.41,0.38-3.48l-1.89,0.22l0.43,0.34
							c-1.54,1.2-1.67,2.46-4.46,2.32c-1.77-0.59-0.91-1.8-1.6-1.92c0-0.21-0.23-0.3-1.07-0.08l-4.1-0.25l1.64,2.31
							c-1.82,1.14-3.86-0.12-1.96,2.5c-2.78-4.04-15.3-1.45-17.01-2.7c-2.55,1.68-5.06,1.65-8.17,1.45
							c0.77,0.48,1.24,3.08-1.45,2.76c0.98-5.36-4.92-2.33-7.09-6.18c1.94,2.56-7.64,0.63-4.59,4.26c-2.24-0.43-0.14-2.01-1.84-3.27
							c-5.33,2.08-11.75-1.35-18.35-0.65c-0.1,0.7,1,1.78-0.41,2.83l-3.48-3.52c-1.3,0.35-1.2,4.06-3.58,1.62
							c0.34,0.59,0.84,1.48-0.04,1.71c-12.92-3.43-26.39,2.81-39.51-3.63c1.78,1.36,0.59,1.5-0.76,1.55
							c0.88,0.33-0.02,1.74,0.15,2.69l-5.49-2.65c-1,2.65-5.89,0.18-6.46,2.71l1.74-0.45c-2.31,2.99,3.24,6.64,2.9,10.47
							c2.59-3.39,6.83,5.03,11.08,0.17c0.94,0.78-0.8,1.23-0.3,2.12c1.08-1.64,2.38-1.98,4.79-1.25l-0.27,0.41
							c6.77-0.4,9.67,1.22,17.28,2.3l-0.56-1.89c1.63,0.25,1.98,0.85,2.74,1.32c1.88-2.87-4.59-0.16-2.88-3.33
							c2.17,3.86,11.53,0.06,12.99,4.44c2.51,0.02-0.74-2.19,1.78-2.17l0.67,1.19l0.64-1.53c1.65,0.25,2.48,1.73,2.54,2.74
							c-0.4-0.12-1.14,0.28-1.57,0.37c2.14,1.4,6.03-0.48,6.76-0.02l-2.42-0.73c6.86-1.11,15.24,0.45,21.87-1.96l-0.5-0.89
							c5.06-1.65,4.06,0.98,9.61,0.22l-0.2,0.21c1.11-0.89,2.6-1.34,4.12-1.24c-1.4,1.05,2.64,2.04,0.8,3.19
							c5.49-1.78,2.72-1.39,6.34-4.72l0.84,1.48c1.24-1.34,1.34-2.05,4.11-2.43c-2.28,1.27,1.77,2.26-0.78,3.94
							c5.83,3.24,8.65-3.28,11.32,1.47c2.67-4.11-5.04-2.28-3.54-3.16c-1.25-1.34,2.21-3.07,4.04-2.66
							c1.86,0.09,3.16,5.25,7.85,5.17c-0.47-0.02-0.5,0.29-0.96,0.27c1.75,1.05,3.43-1.42,5.58,0.28c1.2-2.48,2.79,0.14,3.14-3.02
							l-4.29,0.73c2.43-0.83,4.72-4.53,8.73-2.74c-0.31,0.64-1.51,1.48-2.33,1.95c1.17,0.93,2.26-0.62,3.47,0.34
							c-0.35,3.17-5.22,0.69-7.83,3.11c1.26,1.34,4.93-2.29,3.62,1.14c1.88-4.36,4.61,0.55,7.78-2.78l-0.21,1.9
							c0.5-0.3,1.54-1.2,2.46-1.15l-1.67,2.46c2.57-2.1,4.95,1.84,7.41,0.69c-5.15,0.06-1.16-2.29-3.34-3.67
							c6.36-2.54,3.66,4.97,10.77,4.05c-0.96,0.27-3.62-1.14-2.11-2.02c1.35,0.39,3.14,1.12,3.98,2.12
							c4.72-0.39-0.72-1.95,1.28-3.12c1.61,2.31,2.32-0.94,4.38-1.68l0.01,1.93c5.37,1.24,1.42-4.02,6.26-2.53l-2.04,2.68l2.52-0.69
							l-0.52,2.2c2.74-1.63,3.6-1.21,6.29-0.59c-0.62-1.36,0.35-3.5,2.73-3.56c1.62,1.15-0.91,1.83,2.46,1.56
							c-0.76,1.21-1.6,2.72-3.06,0.95c-0.15,0.63-0.75,1.21-0.91,1.83c1.75,1.32,4.39,0.3,5.61,0.28c-0.47-0.07-1.03-0.18-1.32-0.45
							l4.89-2.67c0.77,0.72,0.16,1.31-0.45,1.88c0.99-0.21,1.68-1.1,3.13-1.26c-0.38,1.57-0.29,3.19-2.35,3.93l4.66-1.74
							c0.31,0.68,2.39,1.87,1.79,2.45c2.58,0.92,6.34-3.04,9.76-1.83c0.18-0.3,0.54-0.6,1.26-0.82c3.22,0.36,6.07,2.28,9.89,0.13
							l2.16,2.81c2.99-0.64-2.93-3.54,2.04-4.6c3.52-0.9,1.31,2.4,2.55,3.18c1.75-1.42,4.8-4.3,8.03-2.01
							C1067.52,75.18,1066.68,74.77,1065.68,74.98z M1102.53,73.73c-0.71,0.4-2.14,1.65-2.66,0.52
							C1100.68,72.03,1101.31,73.09,1102.53,73.73z M1158.55,69.08c-0.53,0.64-1.35,0.32-2.28-0.41
							C1156.94,68.52,1157.71,68.59,1158.55,69.08z M1314.6,55.65c-0.03,0.03-0.05,0.05-0.08,0.09
							C1312.93,54.99,1313.5,55.29,1314.6,55.65z M1317.91,56.48c0.33-0.27,0.31-0.54,0.17-0.81c-0.23,0.49-0.97,0.52-1.82,0.38
							C1316.5,56.57,1316.92,56.92,1317.91,56.48z M962.71,57.24l0.64,0.51C961.9,58.31,962.31,57.8,962.71,57.24z"/>
						<path class="st0" d="M1152.2,71.72c-0.2-0.33-0.26-0.69-0.31-1.05C1151.61,71,1151.61,71.37,1152.2,71.72z"/>
						<path class="st0" d="M1042.76,75.99c-0.04-0.02-0.07-0.01-0.11-0.02c-0.06,0.12-0.09,0.23-0.11,0.35L1042.76,75.99z"/>
						<path class="st0" d="M1266.68,72.85c-0.68-0.28-1.06-0.63-1.31-1C1265.33,72.32,1265.64,72.72,1266.68,72.85z"/>
						<path class="st0" d="M1335.44,53.21l-2.12,0.5c1.02-0.1,1.39,0.33,1.91,0.63C1335.18,53.89,1334.78,53.24,1335.44,53.21z"/>
						<path class="st0" d="M1353.83,65.15c0.31-0.24,0.66-0.03,0.96-0.27l-0.08-0.9C1353.39,64.04,1352.46,64.77,1353.83,65.15z"/>
						<path class="st0" d="M1337.4,59.62c0.17,1.62,1.5,1.07,2.98,0.77c-0.09,0.01-0.17,0.02-0.26,0
							C1340.56,58.12,1338.97,58.87,1337.4,59.62z"/>
						<path class="st0" d="M1340.72,60.33c0.46-0.08,0.92-0.12,1.37-0.04C1342.27,59.38,1341.54,60.1,1340.72,60.33z"/>
						<path class="st0" d="M1322.11,55.41c0.7,0.42,0.44-2.08,0.84-1.41C1323.73,51.93,1318.25,56.49,1322.11,55.41z"/>
						<polygon class="st0" points="1338.6,64.97 1338.07,62.96 1337.24,64.58 						"/>
						<path class="st0" d="M1326.88,63.49l2.37,0.55c-0.04-0.34,0.27-0.53,0.64-0.68C1328.43,63.3,1326.83,62.9,1326.88,63.49z"/>
						<path class="st0" d="M1329.89,63.37c0.76,0.04,1.49,0,1.91-0.33C1331.39,63.06,1330.5,63.12,1329.89,63.37z"/>
						<polygon class="st0" points="1335.36,65.57 1334.66,65.15 1332.98,65 						"/>
						<path class="st0" d="M1301.39,63.11l-2.59,0.57c-0.26,0.69,0.44,1.11,1.41,0.83C1300.83,64.04,1301.79,63.77,1301.39,63.11z"
							/>
						<path class="st0" d="M1309.22,68.6c-0.7-0.42-0.75-0.86-1.14-1.52l-0.08,2.48L1309.22,68.6z"/>
						<path class="st0" d="M1301.67,69.18c-0.26,0.69-3.76,1.98-0.48,1.82C1301.46,70.32,1304.05,69.74,1301.67,69.18z"/>
						<polygon class="st0" points="1262.67,66.03 1263.33,66 1263.24,61.93 						"/>
						<path class="st0" d="M1228.3,75.78c3.07,0.98,0.73-2.51,3.5-1.3c0.72-0.96-2.27-0.99-1.53-1.83
							C1228.43,73.67,1227.45,73.1,1228.3,75.78z"/>
						<path class="st0" d="M1230.28,72.66c0.3-0.16,0.61-0.36,0.94-0.62C1230.68,72.29,1230.43,72.49,1230.28,72.66z"/>
						<polygon class="st0" points="842.31,55.18 840.33,54.33 841.61,55.7 						"/>
						<path class="st0" d="M838.52,58.2l-0.46-2.6l-1.18,2.35C837.32,57.84,838.18,57.61,838.52,58.2z"/>
						<path class="st0" d="M1108.01,78.96l0.15-0.63c-0.31-0.68-0.77-0.73-1.69-0.83L1108.01,78.96z"/>
						<polygon class="st0" points="1081.26,77.02 1081.72,77.07 1080.86,74.72 						"/>
						<path class="st0" d="M1058.81,80.01c0.92,0.1,1.99-0.43,2.91-0.33C1059.73,80.11,1058.57,77.08,1058.81,80.01z"/>
					</g>
				</g>
			</g>
		</g>
	</g>
</g>
</svg>
