<?xml version="1.0" encoding="utf-8"?>
<!-- Generator: Adobe Illustrator 25.2.3, SVG Export Plug-In . SVG Version: 6.00 Build 0)  -->
<svg version="1.1" id="Layer_1" xmlns="http://www.w3.org/2000/svg" xmlns:xlink="http://www.w3.org/1999/xlink" x="0px" y="0px"
	 viewBox="0 0 120.5 333" style="enable-background:new 0 0 120.5 333;" xml:space="preserve">
<style type="text/css">
	.st0{fill:#F3E2B9;}
</style>
<g>
	<path class="st0" d="M9.9,273.6V62.1c0-24.7,9-44.9,20-44.9h61.4c11,0,20,20.2,20,44.9v211.5c0,24.7-9,44.9-20,44.9H30
		C18.9,318.5,9.9,298.3,9.9,273.6z"/>
	<g>
		<g>
			<g>
				<g>
					<path class="st0" d="M5.9,275c0-1.7-0.7-1.1-0.8-1.4C5.3,276.6,6.1,274.9,5.9,275z"/>
					<path class="st0" d="M10.9,300.3l-0.3-0.1l0.8,1.3c0.3,0.4,0.5,0.8,0.8,1.1l-0.6-1.1L10.9,300.3z"/>
					<path class="st0" d="M18.9,317.5c-0.1-0.9-0.3-1.6-0.7-2.2c-0.2-0.3-0.4-0.6-0.6-0.9c-0.2-0.3-0.4-0.6-0.7-0.9
						c-1-1.1-2.1-2.7-2.6-4.5c0-0.3,0-0.6,0-1c-0.4,0-0.9,0-1.3,0c0.4,1,0.9,2,1.5,2.8c0.6,0.9,1.1,1.8,1.7,2.5
						c0.6,0.7,1.1,1.5,1.6,2.2C18.1,316.2,18.6,316.8,18.9,317.5z"/>
					<path class="st0" d="M23.8,328.1c-0.3-1.3,1.5,0-1.5-1.3c0.1,0.2,0.2,0.3,0.2,0.5C22.8,327.4,23.2,327.7,23.8,328.1z"/>
					<path class="st0" d="M22.5,327.3c-0.6-0.4-0.5-0.1-0.2,0.2C22.6,327.8,22.9,328,22.5,327.3z"/>
					<path class="st0" d="M28.5,329.1c-0.6,0.2-1.2,0.5-1.8,0.6c0.3,0.8,1.9,1.1,1.3,1.5C29.9,330.8,29.5,330.2,28.5,329.1z"/>
					<path class="st0" d="M30.1,327.3c-0.2,0.1-0.6,0.2-0.8,0.3C29.4,327.9,29.7,328,30.1,327.3z"/>
					<path class="st0" d="M27.4,328.2c0.6-0.2,1.3-0.4,1.9-0.6c-0.2-0.5-0.2-1.3-0.8,0.2C28.6,327,28.2,327.8,27.4,328.2z"/>
					<path class="st0" d="M26.4,327.4c-0.9-0.9-2-1.7-0.3-2c-0.8-0.1-1.3-0.3-1.7-0.3c-0.4,0-0.5,0.2-0.5,0.4
						C23.9,326.1,24.8,327.2,26.4,327.4z"/>
					<path class="st0" d="M20,315.7c-0.3-0.6-0.5-1.3-0.8-1.9l-1-0.4C18.7,313.6,19.8,316.6,20,315.7z"/>
					<path class="st0" d="M37.4,330.6c0.1-0.6-0.5-1.5-0.6-2.2l-1,0.6C36.4,329.4,37.3,329.8,37.4,330.6z"/>
					<path class="st0" d="M36.8,328.4l1.5-1C37,327.3,36.8,327.7,36.8,328.4z"/>
					<path class="st0" d="M30.4,324.3c-0.4,0.4-0.9,0.6-1.4,0.9c-0.5,0.3-1,0.6-1.5,0.8c0.6-0.2,1.2-0.5,1.8-0.8
						c0.3-0.1,0.6-0.3,0.8-0.4l0.7-0.5L30.4,324.3z"/>
					<polygon class="st0" points="43.2,330.7 42.4,332 43.9,330 					"/>
					<path class="st0" d="M47.1,330.4c-0.6,1.1,0.9,1.8,0.2,2.5c1.1-0.2,1.9-1.1,2.8-2C49.2,331.4,48.3,331.3,47.1,330.4z"/>
					<path class="st0" d="M51.4,329.8c-0.4,0.3-0.9,0.7-1.4,1.2C50.5,330.7,51,330.4,51.4,329.8z"/>
					<path class="st0" d="M41,327.7c0.1,0.4,0.3,1.3,1.2,1.6l-0.6-1.6C41.4,327.7,41.2,327.7,41,327.7z"/>
					<path class="st0" d="M41.6,327.6L41.6,327.6c0.7,0.1,1.1,0.1,1.3,0.1C42.7,327.8,42.3,327.7,41.6,327.6z"/>
					<path class="st0" d="M40.8,327.7c0.1,0,0.1,0,0.1,0C40.9,327.5,40.9,327.4,40.8,327.7z"/>
					<path class="st0" d="M34.4,325.7c0.9-0.9,2.8-1.9,1-3.2C34.7,323.6,35.7,324.4,34.4,325.7z"/>
					<path class="st0" d="M40.1,325.7l-1.6-0.4c0,0.4,0.3,1-0.1,1.5L40.1,325.7z"/>
					<polygon class="st0" points="40.9,325.1 40.1,325.7 40.7,325.8 					"/>
					<path class="st0" d="M48.7,328.3c0.7-0.7,1.5-0.8,2.3-0.9c-0.9-0.3-1.9-0.5-2.8-0.5C48.1,327.4,47.7,328.3,48.7,328.3z"/>
					<path class="st0" d="M45.2,327.8c0,0,0.1-0.1,0.2-0.1C45.3,327.6,45.2,327.5,45.2,327.8z"/>
					<path class="st0" d="M59.5,327.4c0-0.1-0.1-0.2-0.1-0.3c0,0.1,0,0.2,0,0.3L59.5,327.4z"/>
					<path class="st0" d="M48,326.6c-0.7-0.3-1.1,0.1-1.5,0.6c0.5-0.2,1.1-0.3,1.7-0.3C48.2,326.7,48.3,326.5,48,326.6z"/>
					<path class="st0" d="M53.8,329c-0.4-0.3-0.8-0.6-1.2-0.9C53,328.6,53.7,329.4,53.8,329z"/>
					<path class="st0" d="M45.6,328.2c0,0-0.1,0.1-0.1,0.1C45.7,328.6,45.7,328.4,45.6,328.2z"/>
					<path class="st0" d="M45.6,328.2c0.4-0.2,0.6-0.6,0.9-1c-0.4,0.1-0.8,0.3-1.2,0.5C45.4,327.8,45.5,328,45.6,328.2z"/>
					<path class="st0" d="M62.1,317.1c-0.1,1.5-2,2.9-3.5,1.3c-1.6,1.1-0.5,6,0.8,8.7c0-0.6,0-1.3,1.7-2.1c-0.6-0.8-3.6-1.9-2.2-3.2
						c2.1-0.8,1.7,0.5,2.8,1.3c-0.9-1.8,2.7-2.7,2.2-5.4l-1.9,1C61.9,318.2,62.6,317.5,62.1,317.1z"/>
					<path class="st0" d="M56.3,327l-0.7,0.2c0.8,0.3,1.3,0.8,2.3,2c1.1-0.7,1.3-1.3,1.4-1.8l-3.3-0.2L56.3,327z"/>
					<path class="st0" d="M52.7,327.2c0.5-1.6,2.1-2.3,1.1-4.1c-1.9,0.1-1.4,1.3-2.5,2c3.1-0.4-0.9,0.9,1.4,1.8
						c-0.6,0.3-1.2,0.4-1.7,0.4c0.6,0.2,1.1,0.4,1.6,0.7c0,0,0-0.1-0.1-0.1h0l0,0c-0.1-0.2-0.2-0.3,0-0.2c0,0,0,0,0.1,0
						C52.6,327.5,52.6,327.3,52.7,327.2c0.9,0.3,0.1,0.4-0.1,0.6c0,0.1,0,0.1,0,0.2c0,0,0,0,0,0l3.1-0.9
						C55,326.9,54.2,327,52.7,327.2z"/>
					<path class="st0" d="M37,319c0.1,0.1,0.1,0.3,0.1,0.4C37.3,319.2,37.4,319.1,37,319z"/>
					<path class="st0" d="M38.3,320c-0.2,0.2-0.4,0.9-1.2,0.7c-0.6-0.5,0-0.8,0-1.3c-0.4,0.4-1.6,1.2-0.2,2l0.2-0.2
						c1.3,0.6,2.9,2.6,2.7,2.8C39.4,322.5,39.1,321.4,38.3,320z"/>
					<path class="st0" d="M45.6,323.2l2.6-0.8l-1.3-1.4l0.1,0.8C45.4,321.5,45.8,322.5,45.6,323.2z"/>
					<polygon class="st0" points="59.8,328.2 59.5,329.9 61,327.5 					"/>
					<polygon class="st0" points="63.2,328 63.1,329.5 64,328.6 					"/>
					<path class="st0" d="M85.5,26.1l-0.8,0.4C85.1,26.4,85.4,26.3,85.5,26.1z"/>
					<path class="st0" d="M91.1,26.2l0.1-0.7C91,25.9,90.9,26.2,91.1,26.2z"/>
					<path class="st0" d="M115.5,220.6c0.6-2.5,1.6-5.3,0.8-5l-0.7,0.8C115.8,218.1,115.7,219.5,115.5,220.6z"/>
					<path class="st0" d="M111.2,93c-0.1,0.2-0.1,0.5-0.2,0.7c0.2,0.6,0.5,1.2,0.7,1.7C111.5,94.7,111.4,93.8,111.2,93z"/>
					<path class="st0" d="M108.2,91.2l0.5-3.3C108.5,88.6,108.3,89.7,108.2,91.2z"/>
					<path class="st0" d="M55.3,27.8l-0.9,1.7C55.8,29.5,55.1,28.7,55.3,27.8z"/>
					<path class="st0" d="M99.1,324.5c0.6-0.1,1.1-0.3,1.6-0.6c0.5-0.3,0.9-0.6,1.3-1C100.5,323.5,99.2,322.9,99.1,324.5z"/>
					<path class="st0" d="M87.7,8.9c-0.5,0.3-0.7,0.6-0.7,1C87.6,9.6,87.8,9.3,87.7,8.9z"/>
					<path class="st0" d="M104.9,319.1c-0.2,0.1-0.4,0.3-0.6,0.4c-0.7,1.2-1.4,2.5-2.3,3.3C103,322.6,104.2,321.4,104.9,319.1z"/>
					<path class="st0" d="M14.1,181.1c0,0.2,0,0.4-0.1,0.6C14.1,181.7,14.1,181.4,14.1,181.1z"/>
					<path class="st0" d="M6.7,252.8c0-0.7,0-1.9-0.1-2.9C6.6,250.4,6.6,251.3,6.7,252.8z"/>
					<path class="st0" d="M76.8,328.7C76.1,328.8,76.7,328.9,76.8,328.7L76.8,328.7z"/>
					<path class="st0" d="M73.3,322.3c0.1-0.2,0.3-0.4,0.3-0.8C73.6,321.9,73.5,322.1,73.3,322.3z"/>
					<path class="st0" d="M107.4,299.7c0,0,0-0.1,0-0.1C107.2,299.8,107.3,299.7,107.4,299.7z"/>
					<path class="st0" d="M75.8,328c0.3,0.2,0.6,0.4,0.9,0.5C76.5,328.3,76.3,328.2,75.8,328z"/>
					<path class="st0" d="M75.9,328.7c-0.2-0.1-0.4-0.1-0.6-0.2C75.2,328.9,75.3,329,75.9,328.7z"/>
					<path class="st0" d="M77.8,328.6c-0.4,0-0.8-0.1-1.2-0.2c0.1,0.1,0.2,0.2,0.2,0.3C77,328.7,77.3,328.7,77.8,328.6z"/>
					<path class="st0" d="M12.9,50.8c0,0.1-0.1,0.2-0.1,0.3C12.9,52.6,12.9,52,12.9,50.8z"/>
					<path class="st0" d="M108,178.7c0,0.1,0,0.1,0,0.2C108,178.8,108,178.7,108,178.7L108,178.7z"/>
					<path class="st0" d="M107.4,172.9c0.9,2.5,0.8,3.9,0.6,5.7l2.1-1.9L107.4,172.9z"/>
					<path class="st0" d="M72.3,26.6l1.8,1.5c-2.2,2.4-3.8,1.6-2.1,3.6c0.3-5.1,7-0.5,7.3-5.6l1.2,1.1c-0.3-0.1-0.4,0.3-0.7,0.2
						c2.3,2.4,1.7-3.7,4.7-3c1,0.4,1.8,1.1,1.1,1.7l2.3-1.3c0.7,0.1,0.5,1-0.2,0.9l3.5-0.4l0,0.1c0.4-0.8,1.4-1.9,1.9-2.3
						c0.7,1-0.4,0.4-0.2,1.1c0.6-0.3,1.1-0.4,1.7-0.7c0.3,0.8,0,1.3-0.4,1.7c-0.2,0.2-0.5,0.3-0.8,0.3c-0.3,0-0.6-0.1-0.8-0.1
						c0.3,1.3,0.5,2,0.8,2.2c0.2,0.3,0.4,0.1,0.7-0.1c0.3-0.2,0.6-0.4,1.1-0.2c0.2,0.1,0.5,0.2,0.7,0.5c0.3,0.3,0.6,0.8,0.9,1.5
						c-0.5-0.1-1-0.4-1.5-0.4c0.3,1.6,0.6,2.5,1.1,3.2c0.1,0.2,0.2,0.3,0.4,0.6c0.1,0.2,0.2,0.4,0.4,0.7c0.2,0.5,0.5,1,0.7,1.8
						c0-0.6-0.5-2.3-0.7-3.9c-0.3-1.5-0.4-2.9,0.5-2.8c0.2,0.4,0.4,0.8,0.7,1.1c0.2,0.1,0.3,0.3,0.5,0.4c0.2,0.1,0.4,0.2,0.7,0.3
						c-0.4,1.6,0.5,2.1,1.4,3.6l-0.7,1.8c0.6,0.4,0.9,0.5,1.2,0.4c0.3-0.1,0.6-0.3,1-0.1c0.5,1.1,0.5,2.3,0.5,3.1
						c0,0.9-0.2,1.7-0.4,2.4c0.5,1.9,0.6,0.8,0.7-0.2c0.1-1.1,0.3-2.2,1.1,0c0.1,0.5,0.2,0.9,0.3,1.4c0.1,0.4,0.2,0.8,0.3,1.2
						c0.1,0.4,0.2,0.8,0.3,1.1c0.1,0.4,0.2,0.8,0.3,1.1c0.5,1.5,1.1,3,1.7,5.3c0,3.1-0.7-0.1-0.9,1.1c0.4,0.6,0.7,1.3,1.1,2
						c0,0.6-0.2,0.6-0.4,0.5c0.5,2,1.1-0.3,1.6,3.2c0.3,0.2,0.3,0.8,0.3,1.6c0,0.4-0.1,0.9-0.2,1.4c-0.1,0.6-0.2,1.1-0.3,1.8
						c-0.4,2.6-0.8,5.8-0.1,8.3c-0.3,1.3-0.7-0.6-1.1-0.2c0.9,7,0.6,6,1.8,11.8l-0.7,4.9c0.8-3.6,1.8,1,2.5,5.1
						c0.4-1.3,0.7-2.4,0.9-3.1l0.6,6.5c-0.2,0.8-0.5,0.1-1-0.9c0.1,0.4,0.2,0.9,0.3,1.2c-0.4,2.3-1,1.1-1.6-0.5
						c0.2-0.8,0.4-1.6,0.7-2.3c-0.7-1.6-1.4-3.1-2-2.8c0.1,0.4,0.2,1.2,0.3,2.1c-0.2-0.4-0.3-0.7-0.4-0.5c-0.1,0.2,0.1,0.9,0.4,2
						L108,96l0.5,0.4l-0.7,8.5c1.2,6.1,3,11.3,3.5,20.9c-0.9-2.4-1.4-0.5-2.5-0.6c1.1-2.6-0.5-7.4-0.2-12.4c-0.1,2.6-0.6,2-0.8,1.4
						l1,8.9c-0.8-0.2-0.6,1.9-1,4.2c1.7-1.8,1.1,6.6,1.6,10.2c-0.6,0.2-1.1-0.6-1-5.1c-1.3,4.9,2,6.3,0.9,11.1
						c0-1.1,0.1-1.7-0.2-2.1c0.5,2.5,0.1,8.7-0.4,7.2l0-1.1c-0.2,7.2,0,21.8,1.4,22.8c-0.2,0.1-1.7-0.9-2-1.4l4.8,12.8
						c-1.2-1.1-4.1,3.2-4.8-2.7c-0.2,1.7-0.4,3.8,0.1,7.4c0.2-1.2,1.8-2.9,1.9-1.3c-1.4,4.4-0.7,3-1.9,8.4c0.3-1.7,2.2,0.2,2.1,2.9
						c-0.3-0.4-1.9,0.2-2.1-0.8l1.9,6.8c-0.3-1.7-1.6-0.3-2.1,1.2c0.4-0.7,0,5.9,0.1,7.7l0.4-2.9c-0.3,7.7,2.6,7.6,2.5,15.3
						c-0.4-0.9-2.4-2.3-2.6,1.6c1,1.8,4.6,7.9,5.4,14.7l-0.6,1.3l0.6,5.2c-1.5-3.2-4.5-12.3-5.7-17.3c-0.4,2.9-0.6,0.8-0.6,5.1
						c-0.5,1.5-0.8-2.4-0.8-3.6l-0.3,10.1c1.1-0.4,1.1,7.7,2.1,7.3l-1.2-11c1.1-0.4,3.2,6.3,3,13.5c-0.4,1.8-2-1.4-2.4-1.2
						c0.4,0.9,0.7,6.8,0.5,7.4l-0.6-3c-0.4,4,1.5,6.5,0.4,11.3c-0.1,1.6-1.5,4.9-0.8,5.2c1.3-2.7,5.3-3.2,6.2-1.4
						c0,0.3-0.3,2.5-0.7,4.8c-0.4,2.5-0.9,5-1.3,5.8c-0.6,1.2-1.1-0.1-1.6-1.2c-0.5-1.1-1.1-2.2-1.5-1.3c0.3,0.1,0.6,1.5,0.7,2.1
						c-0.4,1.4-0.9-0.9-1,2.3c1,1.1-0.8,6.5,0.8,2c0,0.8-0.1,1.5-0.1,2c-0.1,0.5-0.2,0.9-0.3,1.3c-0.1,0.4-0.2,0.8-0.4,1.4
						c-0.1,0.3-0.1,0.6-0.2,0.9c-0.1,0.3-0.2,0.7-0.3,1.2c0.5-0.2,0.9,1.1,1.1,3.1c0.1,1,0.1,2.1,0.1,3.2c0,1.1-0.1,2.2-0.3,3.1
						c-0.2-0.6-0.7-0.4-1-0.3c-0.3,0.7-0.5,1.4-0.8,2c-0.3,0.6-0.5,1.1-0.8,1.7c-0.3,0.5-0.5,1-0.7,1.5c-0.3,0.4-0.5,0.8-0.8,1.2
						c-0.3,0.4-0.5,0.8-0.8,1.2c-0.3,0.4-0.5,0.7-0.8,1.1s-0.5,0.8-0.8,1.2c-0.3,0.4-0.6,0.8-0.9,1.2c-0.2-0.1-0.6,0.1-1,0.1
						c-0.4-0.1-0.6-0.3-0.5-1.1c-0.1,0.4-0.2,0.9-0.4,1.4c-0.2,0.5-0.4,1.1-0.8,1.4c-1-0.4-0.5-0.8,0-1.4c0.5-0.6,0.9-1.4,0.1-2
						c0,0.4,0,0.8-0.2,1.3c-0.2,0.4-0.4,0.9-0.7,1.4c-0.6,1.1-1.4,1.8-2,2.7c0.1,0.5,0.4,0.7,0.8,0.6c0.3-0.1,0.7-0.3,1.1-0.8
						c0.4-0.5,0.8-1.1,1.2-1.7c0.4-0.6,0.7-1.3,0.9-1.8c0.2,0.7,0.2,1.6,0.1,2.5c-0.1,1-0.3,2.1-0.7,3.1c-0.7,2.2-2,4.4-3.8,5.8
						c-0.7,0.4-1.1,0.6-1.4,0.5c-0.3-0.1-0.4-0.4-0.4-0.6c0-0.6,0.2-1.2,0-0.9c-0.7,0-1.2,0.1-1.7,0.3c-0.5,0.1-0.9,0.3-1.2,0.5
						c-0.7,0.5-1.2,1.1-1.7,1.7c-0.9,1.2-1.8,2.1-3.8,1c-1.6-2-0.1-4-0.4-5.5c2.1-0.8,3.3,1.3,4.7,1.2l-1.8-1
						c0.7-0.7,2.1-1.2,2.9-0.6c-1.4-1.8-8.3-0.4-12.1-2c-0.7,0.7-1.8,1.4-1.3,2.2l1.2-0.3c1.1,1.6-2.3,2.2-0.7,3
						c-1.6,1.1-3.4,2.9-5.7,2l-0.4-2.3c0,0.7,1.5,1.4,2.1,0.7c-0.9,1-3.5-3.1-4.5-0.1l1.6,1.6c-1.6,1.1-3.6,3.6-5.6,2.9
						c0.9,2.3,0.5-0.3,1.9,2.4c-1.2-3.3,5.1,0.1,3.1-3.3c1.5,3.1,2.5,1.3,4.4,3.9c-0.1-0.8-0.7-1.5,1-1.1c0.1-0.2,0.3-0.5,0.4-0.7
						c0,0,0.1,0,0.1,0.1c0,0-0.1-0.1-0.1-0.1c0.1-0.1,0.1-0.1,0,0c-0.4-0.3-0.7-0.7-0.9-1.1c0.8-1.7,3.5-1.7,4.4-2.6
						c1,0.4-0.4,0.9,0.1,1.7l1.4-1.3c0.1,1.7,2.6,2.8,0.3,3.8l2.1,0.1c1.2,1,3,1.3,4,0.6c1,0.4,2.5-1.9,1.7-0.6l1.7-0.5l0.8-0.3
						l1-0.4l0,0.4c0.5,0,1-0.1,1.5-0.2c0.5-0.2,1-0.5,1.5-0.7c1-0.5,1.9-1.4,2.9-2.2c0.5-0.4,1-0.9,1.5-1.3c0.5-0.4,1-0.8,1.5-1.3
						c0.5-0.4,1-0.9,1.5-1.2c0.5-0.4,1.1-0.8,1.6-1.2c0.5-0.9,1-2,1.6-3.2c0.6-1.1,1.3-2.5,2.1-4l0.8,0.4c0.3-0.8,0.6-1.7,1.1-2.6
						c0.2-0.4,0.4-0.9,0.7-1.4c0.2-0.5,0.4-1,0.6-1.5c0.4-1,0.8-2,1-2.9c0.2-0.9,0.4-1.7,0.3-2.2c0.6-0.4,1.3-1.6,1.8-3.4
						c0.3-0.9,0.5-1.9,0.8-3.1c0.2-1.1,0.4-2.4,0.6-3.6c0.2-1.2,0.3-2.6,0.4-3.9c0.1-1.3,0.2-2.6,0.3-3.8c0.1-1.2,0.1-2.4,0.2-3.5
						c0-0.5,0.1-1.1,0.1-1.6c0-0.5,0-1,0.1-1.4l-0.8-0.4c0-1.2,0.1-2.3,0.1-3.5c0-1.1-0.1-2-0.1-3c-0.1-2-0.2-4.1-0.4-6.5l-0.7,0.3
						c-0.6-4.1,0.5-10.6,0.5-17c0.3,0.4,0.2,2.1,0,3.3c1.7-7.8-1.2-16.4,0-23.4c-0.3-1.8-0.2-3,0-4.3c0,0.2,0,0.3,0,0.4
						c0-0.2,0-0.4,0-0.7c0.1-0.8,0.3-1.6,0.4-2.4c-0.2,0.7-0.3,1.4-0.4,2c0-1.3-0.1-3.4-0.3-5.4l0.8-0.9c0-0.2,0-0.3,0-0.5
						c0.3-2-0.4-1.6-1-0.5c-0.1-1-0.3-1.9-0.5-2.7c1.3-1.6-0.4-5.3,0.9-7.5c-0.7-1.4-0.5-10.1-1.9-11.2c0.2-0.1,0.3-0.7,0.3,0.4
						c0.2-2.2,0.3-4.5-0.1-6.5l1-1l-1.4-4.9c0.6-3,1-4.2,1.8-1.3c-1.2-7.1-0.5-5.8-1.7-11.9l0.7,0.3c0-2.2-0.9-5.6-0.4-6.9
						c1.3-4.8,0.2-24,1.3-36.4c-1.9,2.4,0.9-5.8-0.6-6.3c0.5-0.7,0.7-2.5,1.1-0.4c-0.5-6.4,0.7-9.5-0.5-13.9
						c0.5-0.7,0.7,1.4,0.9,0.7c-0.1-0.5-0.4-2-0.1-2.7c0.3-0.6,0.4,0.9,0.6,1.9c-0.1-6.5-1.5-7.2-2.8-7.6c0.6-3.3,0.5-4.9-0.3-7.3
						c0.4-1.1,0.9-3.1,1,1c0.1-2.3,0.6-13.9-0.4-14.1c0.3-0.7,0.1-3.2,0-3.8c0.1-5.1,0.2-5.5,0.1-10.5l-0.2,1.4
						c-0.7-1-0.7-2-0.7-3.4c0-0.7,0.1-1.5,0.1-2.3c0-0.4,0-0.9,0-1.4c0-0.5-0.1-1-0.1-1.5l0.1,0.1c0-1.3,0-2.3,0-3.2
						c0-0.8-0.1-1.5-0.1-2c-0.1-1-0.2-1.5-0.3-2c-0.1-0.5-0.2-1-0.3-2c-0.1-0.5-0.1-1.1-0.2-2c-0.1-0.8-0.1-1.9-0.3-3.1l-0.6,1.2
						c-0.4,0.2-0.7-0.3-0.9-1.1c-0.2-0.8-0.2-2.1-0.4-3.5c-0.3-2.8-0.8-6.4-1.9-8.1c0.1,0.7,0.2,1.5,0.2,2.2
						c-0.2-0.2-0.3-0.5-0.4-0.9c-0.1-0.4-0.2-0.8-0.3-1.3c-0.2-1-0.2-2.3-0.4-3.7c-0.3-2.6-0.5-5.7-1.1-6.8c-0.2-0.7,0.6,0.3,1,0.8
						c-0.6-1.9-1.1-2.7-1.3-3c-0.3-0.3-0.4,0-0.5,0.4c-0.1,0.4-0.2,0.9-0.5,1.1c-0.2,0.2-0.6,0.1-1.3-0.6c-0.2-1.7,1.4-1.9-0.3-4.5
						c-0.2-0.5-0.7-0.9-1.3-1.3c-0.3-0.2-0.7-0.4-1.1-0.5c-0.4-0.1-0.8-0.2-1.3-0.4s-0.9-0.3-1.3-0.4c-0.4-0.1-0.9-0.2-1.3-0.4
						C96,10.2,95.2,9.9,94.5,9c0.6,1.2,1,2.3-0.3,2.6c-0.5-0.1-1.1-0.4-1.7-0.7c-0.3-0.2-0.7-0.4-1-0.6c-0.3-0.2-0.6-0.3-0.9-0.5
						c-1.2-0.6-2.4-0.8-3.2,0.7c-0.2-0.3-0.3-0.5-0.3-0.8c-1.4,0.8-4.5,1.3-5.3,3c-1.3-6.2-8.5,3-8.5-2.7L69,10.4l0.1-0.6
						c-2.7-0.4-3.7,1-4.6,2.4c-0.6-0.4-0.2-0.9-0.1-1.2c-3.9-1.1-4.3-0.9-7.7,1.9l-0.3-1.9c-0.9,1.1-5.7-2.9-9.6-0.8
						c0-0.2,0.1-0.6,0.4-0.8c-4.4,2.2-10.4-5.1-12,1.6l-2.9,1.7c3.7,0.5-0.6,2.9,1,4.1c-1.5,0.4-3.8-2-2-2.4l0.3,0.3
						c0.2-0.9,0-1.4-0.4-1.7c-0.2-0.2-0.5-0.3-0.7-0.4c-0.3-0.1-0.6-0.1-0.9-0.1c-0.7,0-1.4,0-1.9-0.1c-0.5,0-0.9-0.2-0.9-0.8
						c-2.1,0.6-4.1,2-6,3.6l-1.4,1.4c-0.5,0.4-0.9,1.1-1.4,1.6c-0.9,1-1.7,2.4-2.6,3.7c-0.4,0.7-0.8,1.4-1.2,2.2l-0.6,1.1L13,26.5
						c-0.4,0.8-0.7,1.6-1.1,2.4l-1,2.7c-0.2,0.4-0.3,0.9-0.5,1.3L10,34.3c-0.3,1-0.6,1.9-0.8,2.9c-0.5,2-1,4-1.3,6.2
						c0.5-0.3,1-0.6,1.5-0.9c-0.2,0.9-0.3,1.8-0.5,2.8c-0.2,0.9-0.3,1.8-0.5,2.8c-0.2,0.7-0.5,1.1-0.7,0.8c-0.1-0.2-0.1-0.5-0.1-1.1
						c0-0.6,0.1-1.4,0.2-2.4c-0.5,0.8-0.6,2.8-0.5,4.5c0.1,1.7,0.4,3.1,0.5,3.2c-0.5,4.1-0.8,3.2-1,1.5c-0.2-1.7-0.2-4.2-0.4-2.9
						l-0.2,3.7l0.2-0.8c0.1,0.8,0.2,1.4,0.2,1.9c0.1,0.6,0.2,1,0.3,1.6c0.1,0.6,0.1,1.2,0.2,2c0,0.8,0,1.9,0,3
						c-0.2,2.9-0.8,1.5-0.8,2.6c-0.1,0-0.1,0.4,0,1.8l-0.1,6.8l1-2.7c0.5,3,0,6.3,1,3.2c-1.7,4.6-0.6,25.2-1.1,28
						c0.7,4.2,0.7,8.3,0.6,13.5c0.2-1.3,1.3-2,1.2,2.4c-2.2-1.6-1,8.1-2.6,11.7c1.1-3.2,0.3,12.6,1.8,7.6c-0.2,3.7-0.8,0.2-1.4,3
						c0.9,8.8-0.6,19.4-0.3,30.2c0.3,0.2,0.7-1.6,1.2,0.7l-1.5,5.7c0.1,2.2,1.7,2,0.7,5.9c0.2-0.6,0.6-1.4,0.7,0.1
						c-1.4,21.3,1.2,43.4-1.5,65c0.6-2.9,0.6-1,0.6,1.3c0.1-1.5,0.7,0,1.1-0.3l-1.1,9c1.1,1.6,0.1,9.7,1.1,10.6l-0.2-2.9
						c1.3,3.8,2.8-5.3,4.4-4.8c-1.4-4.3,2.1-11.2,0.1-18.2c0.3-1.5,0.5,1.3,0.9,0.5c-0.7-1.8-0.8-3.9-0.5-7.9l0.2,0.4
						c-0.2-11.1,0.5-15.9,1-28.4l-0.8,0.9c0.1-2.7,0.4-3.3,0.6-4.5c-1.2-3.1-0.1,7.6-1.4,4.8c1.6-3.6,0-19,1.9-21.4
						c0-4.1-0.9,1.2-0.9-2.9l0.5-1.1l-0.6-1.1c0.1-2.7,0.7-4.1,1.1-4.2c0,0.7,0.1,1.9,0.2,2.6c0.6-3.5-0.2-9.9,0-11.1l-0.3,4
						c-0.5-11.3,0.2-25.1-0.8-36l-0.4,0.8c-0.7-8.3,0.4-6.7,0.1-15.8l0.1,0.3c-0.4-1.8-0.6-4.3-0.5-6.8c0.4,2.3,0.9-4.3,1.3-1.3
						c-0.7-9-0.6-4.5-2-10.5l0.6-1.4c-0.6-2-0.9-2.2-1-6.8c0.5,3.7,0.9-2.9,1.7,1.3c1.4-9.6-1.4-14.2,0.6-18.6
						c-1.7-4.4-1,8.3-1.3,5.8c-0.6,2.1-1.3-3.6-1.1-6.7c0-3.1,2.2-5.2,2.2-12.9c0,0.8,0.1,0.8,0.1,1.6c0.2-1.4,0.1-2.9,0-4.3
						c0-0.4-0.1-0.8-0.1-1.1c0-0.3,0-0.6,0-1c0-0.7,0.1-1.4,0.3-2.1c-0.5-0.9-0.4-1.9-0.3-2.7c0-0.8,0-1.5-0.6-2.1
						c0,2.1-0.1,4.2,0,6.3c0-0.4-0.1-0.9-0.1-1.3c-0.1-0.5-0.1-0.9-0.2-1.4c-0.1-1-0.2-2-0.3-3.1c-0.1-2.2-0.1-4.8,0.8-7.3
						c0.2,0.7,0.2,2.6,0.3,3.9c0.3-0.7,0.4-1.5,0.4-2.3c0.1-0.8,0.1-1.7,0.5-2.3c0.5,0.8,0.3,2.6,0,4.7c-0.1,1.1-0.2,2.2-0.3,3.4
						c0,1.1,0,2.3,0.2,3.2c0.2-0.4,0.2-1,0.2-1.7c0-0.3,0-0.7,0-1.1c0-0.4,0-0.7,0-1c0-1.3,0.1-2,0.7-0.8c-0.8-1.8-0.4-3.3-0.1-4.8
						c0.2-0.8,0.5-1.5,0.6-2.5c0.1-0.5,0.1-1,0.2-1.5c0-0.5,0.1-1.1,0.1-1.8l0.6,1.2c0-0.7,0-2.4,0.4-3.4c0.1,1.1,0.1,2.1,0.3,3.1
						c0-1,0.2-1.7,0.4-2.4c0.2-0.6,0.5-1.2,0.9-1.5c0.3-0.4,0.7-0.8,0.9-1.3c0.3-0.5,0.6-0.9,0.7-1.6c-0.3,0.6-0.5,1-0.7,1.3
						c-0.2,0.3-0.3,0.5-0.4,0.6c-0.2,0.2-0.3,0.1-0.4-0.2c-0.2-0.6-0.3-1.6-1-0.9c0.2-1,0.5-1.8,0.7-2.4c0.2-0.6,0.5-0.9,0.7-1.1
						c0.4-0.5,0.8-0.5,1.3-0.3c0.4,0.1,0.9,0.3,1.4,0.1c0.3-0.1,0.6-0.2,0.9-0.6c0.2-0.2,0.3-0.4,0.5-0.6c0.2-0.3,0.4-0.4,0.6-0.8
						c-0.1,0.2-0.3,0.3-0.5,0.4c-0.2,0.1-0.4,0.3-0.6,0.3c-0.4,0.1-0.7-0.2-0.4-1.1c0.2-0.1,0.4-0.3,0.6-0.5
						c0.2-0.1,0.5-0.2,0.7-0.2c0.4-0.1,0.8-0.1,1.1,0.1c1.2-1.2,1.1-1.6,0.7-1.8c-0.4-0.3-0.9-0.5-0.5-1.5c0.3,0.3,0.5,0.4,0.7,0.2
						c0.2-0.1,0.3-0.4,0.5-0.8c0.1-0.4,0.3-0.9,0.5-1.3c0.2-0.5,0.4-1,0.7-1.2l0.2,1.8c1.6,0,1.8-0.8,2-1.8c0.1-0.5,0.1-0.9,0.4-1.2
						c0.1-0.1,0.3-0.2,0.5-0.3c0.2,0,0.6,0.1,1,0.3c-0.5,0.8-1,1.6-1.4,2.6l0.4-0.2c0.1-0.1,0.3-0.1,0.5-0.2l0.9-0.3l-0.4,2.1
						c2-1.5,2.6-1.1,4.6-0.6c-0.5-1.3,0.3-3.3,2-3.3c1.2,1.1-0.7,1.7,1.8,1.5c-0.6,1.1-1.2,2.5-2.3,0.9c-0.1,0.6-0.6,1.1-0.7,1.7
						c1.3,1.2,3.2,0.3,4.1,0.3c-0.3-0.1-0.8-0.2-1-0.4l3.6-2.5c0.6,0.7,0.1,1.2-0.3,1.8c0.7-0.2,1.2-1,2.3-1.2
						c-0.3,1.5-0.2,3-1.7,3.7l3.4-1.6c0.2,0.6,1.8,1.8,1.3,2.3c1.9,0.9,4.7-2.9,7.2-1.7c0.1-0.3,0.4-0.6,0.9-0.8
						c2.4,0.3,4.5,2.1,7.3,0.1l1.6,2.6c2.2-0.6-2.2-3.3,1.5-4.3c2.6-0.8,1,2.2,1.9,3c1.3-1.3,3.5-4,5.9-1.9
						C73.6,26.8,73,26.4,72.3,26.6z M97.7,28.3c-0.5,0-1.4,0.5-1.6-0.8C96.9,26,97.1,27.2,97.7,28.3z M109.6,101.9
						c-0.3-0.9-0.1-2.2,0.2-3.7C109.9,99.2,109.8,100.5,109.6,101.9z M84.7,327.2C84.7,327.2,84.8,327.2,84.7,327.2
						C85.9,327.9,85.5,327.6,84.7,327.2z M82.3,326.5c-0.2,0.3-0.2,0.5-0.1,0.8c0.2-0.5,0.7-0.5,1.3-0.4
						C83.3,326.4,83,326,82.3,326.5z M6.7,66.4l0.2-1.1C7.1,67.7,6.9,67.1,6.7,66.4z"/>
					<path class="st0" d="M108.5,91.5c0.1-0.3,0.3-0.4,0.4-0.5C108.8,90.5,108.7,90.5,108.5,91.5z"/>
					<path class="st0" d="M55.4,27.5C55.4,27.5,55.4,27.5,55.4,27.5c-0.1,0.1-0.1,0.2-0.2,0.3L55.4,27.5z"/>
					<path class="st0" d="M107.9,278.9c0.2-0.9,0.4-1.4,0.5-1.7c-0.1-0.1-0.2,0-0.3,0.3C108,277.7,107.9,278.2,107.9,278.9z"/>
					<path class="st0" d="M69.4,329.5l1.6-0.5c-0.8,0.1-1-0.3-1.4-0.6C69.6,328.9,69.9,329.5,69.4,329.5z"/>
					<path class="st0" d="M55.9,318.3c-0.2,0.2-0.5,0-0.7,0.3l0.1,0.8C56.2,319.4,56.9,318.7,55.9,318.3z"/>
					<path class="st0" d="M68,323.5c-0.1-1.5-1.1-1-2.2-0.7c0.1,0,0.1,0,0.2,0C65.6,324.9,66.8,324.2,68,323.5z"/>
					<path class="st0" d="M65.5,322.8c-0.3,0.1-0.7,0.1-1,0C64.4,323.7,64.9,323.1,65.5,322.8z"/>
					<path class="st0" d="M79.2,327.5c-0.5-0.4-0.3,2-0.6,1.3C78,330.7,82,326.4,79.2,327.5z"/>
					<polygon class="st0" points="67.1,318.5 67.5,320.4 68.1,318.9 					"/>
					<path class="st0" d="M75.7,319.9l-1.7-0.5c0,0.3-0.2,0.5-0.5,0.6C74.6,320.1,75.7,320.4,75.7,319.9z"/>
					<path class="st0" d="M73.5,320c-0.6,0-1.1,0-1.4,0.3C72.4,320.3,73,320.2,73.5,320z"/>
					<polygon class="st0" points="69.5,317.9 70,318.3 71.2,318.5 					"/>
					<path class="st0" d="M94.5,319.6l1-0.6l0.9-0.8c0.1-0.7-0.4-0.8-1.1-0.2C94.9,318.6,94.2,319.1,94.5,319.6z"/>
					<path class="st0" d="M88.7,315.1c0.5,0.4,0.5,0.8,0.8,1.4l0.1-2.3L88.7,315.1z"/>
					<path class="st0" d="M94,314.1c0.1-0.4,0.6-1,0.9-1.5c0.3-0.6,0.3-0.7-0.7-0.3C94,313,92.4,314.1,94,314.1z"/>
					<path class="st0" d="M110.9,273.4c0,0.4,0,0.7,0,1.1l1.7-0.1C112,274,111.5,273.7,110.9,273.4z"/>
					<path class="st0" d="M106.8,216.7c-0.4,5.1,1.1,1.2,0.5,5.8c0.4,1.2,0.4-3.7,0.8-2.5C107.7,216.9,108,215.3,106.8,216.7z"/>
					<path class="st0" d="M108.1,220c0.1,0.5,0.1,1,0.3,1.6C108.3,220.7,108.2,220.3,108.1,220z"/>
					<polygon class="st0" points="5.8,264.7 5.5,267.9 6,265.8 					"/>
					<path class="st0" d="M7.1,270.9L6,271.7l1,2C6.9,272.9,6.8,271.5,7.1,270.9z"/>
					<path class="st0" d="M99.3,36l0.2-0.4c0-0.8-0.2-1.1-0.6-1.8C99.1,34.6,99.2,35.2,99.3,36z"/>
					<polygon class="st0" points="83.7,28.5 84.1,28.5 83.4,26.3 					"/>
					<path class="st0" d="M67.2,31.3c0.7,0.1,1.5-0.4,2.1-0.3C67.9,31.4,67,28.6,67.2,31.3z"/>
				</g>
			</g>
		</g>
	</g>
</g>
</svg>
